<svg width="20" height="20" viewBox="0 0 20 20" fill="none" xmlns="http://www.w3.org/2000/svg">
<path fill-rule="evenodd" clip-rule="evenodd" d="M10.6461 2.29226C11.5891 1.38147 12.8521 0.877499 14.1631 0.888891C15.4741 0.900283 16.7281 1.42613 17.6552 2.35317C18.5822 3.28021 19.108 4.53427 19.1194 5.84526C19.1308 7.15624 18.6269 8.41925 17.7161 9.36226L17.7059 9.37259L15.206 11.8725C14.6991 12.3796 14.0891 12.7717 13.4174 13.0223C12.7456 13.2729 12.0278 13.376 11.3127 13.3248C10.5975 13.2736 9.90176 13.0692 9.27257 12.7254C8.64337 12.3817 8.09547 11.9066 7.66602 11.3325C7.39035 10.9639 7.46563 10.4417 7.83417 10.166C8.20272 9.89036 8.72495 9.96564 9.00063 10.3342C9.28693 10.7169 9.6522 11.0336 10.0717 11.2628C10.4911 11.492 10.955 11.6283 11.4317 11.6624C11.9085 11.6966 12.387 11.6278 12.8349 11.4607C13.2827 11.2937 13.6894 11.0322 14.0273 10.6942L14.0274 10.6941L16.522 8.19948C17.1262 7.57134 17.4604 6.73145 17.4528 5.85974C17.4452 4.98575 17.0947 4.14971 16.4766 3.53168C15.8586 2.91365 15.0226 2.56309 14.1486 2.5555C13.2765 2.54792 12.4363 2.88242 11.808 3.48712L10.3792 4.90764C10.0528 5.23213 9.52517 5.23059 9.20068 4.9042C8.8762 4.57782 8.87774 4.05018 9.20412 3.7257L10.6375 2.3007L10.6461 2.29226Z" fill="#4CBDC7"/>
<path fill-rule="evenodd" clip-rule="evenodd" d="M6.58263 6.97774C7.25439 6.72716 7.97218 6.62397 8.68732 6.67519C9.40247 6.72641 10.0982 6.93083 10.7274 7.27458C11.3566 7.61834 11.9045 8.09339 12.334 8.66752C12.6096 9.03606 12.5344 9.5583 12.1658 9.83398C11.7973 10.1096 11.275 10.0344 10.9994 9.66582C10.7131 9.28307 10.3478 8.96636 9.92833 8.73719C9.50887 8.50802 9.04503 8.37174 8.56827 8.3376C8.0915 8.30345 7.61298 8.37224 7.16514 8.5393C6.7173 8.70636 6.31062 8.96777 5.9727 9.30582L3.478 11.8005C2.8738 12.4287 2.53959 13.2686 2.54716 14.1403C2.55476 15.0143 2.90532 15.8503 3.52335 16.4683C4.14138 17.0864 4.97742 17.4369 5.85141 17.4445C6.72311 17.4521 7.563 17.1179 8.19114 16.5137L9.61075 15.0941C9.93618 14.7686 10.4638 14.7686 10.7893 15.0941C11.1147 15.4195 11.1147 15.9472 10.7893 16.2726L9.36426 17.6976L9.35393 17.7077C8.41092 18.6185 7.14791 19.1225 5.83692 19.1111C4.52594 19.0997 3.27188 18.5739 2.34484 17.6468C1.4178 16.7198 0.891952 15.4657 0.88056 14.1548C0.869168 12.8438 1.37314 11.5808 2.28393 10.6377L2.29408 10.6274L4.79397 8.12752C4.79401 8.12749 4.79394 8.12756 4.79397 8.12752C5.30084 7.6205 5.91092 7.22831 6.58263 6.97774Z" fill="#4CBDC7"/>
</svg>
