<svg width="303" height="128" viewBox="0 0 303 128" fill="none" xmlns="http://www.w3.org/2000/svg">
<g opacity="0.5">
<path d="M178.535 32.1855H124.41V-75.3018H231.864V-21.1696H178.535V32.1855ZM125.187 31.4086H177.759V-21.9466H231.087V-74.5248H125.187V31.4086Z" fill="white"/>
<path d="M205.205 58.8885H151.081V-48.6221H258.55V5.51004H205.205V58.8885ZM151.857 58.1116H204.444V4.73312H257.773V-47.8451H151.857V58.1116Z" fill="white"/>
<path d="M113.753 59.0438L37.7895 -17.0208L38.0652 -17.2966L113.796 -93L114.072 -92.7242L152.051 -54.7093L151.776 -54.4335L114.316 -16.9936L151.989 20.7493L113.753 59.0438ZM38.8886 -17.0208L113.753 57.9523L150.906 20.7571L113.233 -16.9859L150.964 -54.7093L113.796 -91.9007L38.8886 -17.0208Z" fill="white"/>
<path d="M151.469 59.0438L75.5092 -17.0092L75.7849 -17.2811L151.527 -93L189.783 -54.7093L189.507 -54.4335L152.001 -16.9781L189.756 20.761L151.469 59.0438ZM76.6083 -17.0092L151.469 57.9445L188.672 20.761L150.917 -16.982L188.699 -54.6938L151.527 -91.889L76.6083 -17.0092Z" fill="white"/>
<path d="M125.168 85.5252H124.779L17.7025 85.4475V85.0591L17.7802 -22.0398L71.9012 -22.0009L71.8507 31.3504L125.195 31.3892L125.168 85.5252ZM18.4792 84.6667L124.391 84.7444L124.43 32.1661L71.0739 32.1273L71.1128 -21.2279L18.5453 -21.2668L18.4792 84.6667Z" fill="white"/>
<path d="M151.857 58.8885H44.396V58.5001L44.4736 -48.7153L98.5947 -48.6726L98.5558 4.68259L151.842 4.72144L151.857 58.8885ZM45.1883 58.1116H151.081V5.51001L97.7946 5.47117L97.8334 -47.8879L45.2504 -47.9384L45.1883 58.1116Z" fill="white"/>
<path d="M75.9054 172.125L0 96.037L38.31 57.8008L38.5857 58.0766L75.9908 95.5709L113.753 57.9445L152.001 96.2041L75.9054 172.125ZM1.09912 96.037L75.9092 171.01L150.902 96.2041L113.753 59.0439L75.9908 96.6702L38.31 58.8885L1.09912 96.037Z" fill="white"/>
<path d="M75.9481 134.398L0.0427303 58.3098L38.3527 20.0735L76.0258 57.9446L113.796 20.1551L152.001 58.5001L151.729 58.7759L75.9481 134.398ZM1.13797 58.3098L75.9481 133.283L150.906 58.5001L113.796 21.2583L76.0296 59.0439L38.3566 21.1728L1.13797 58.3098Z" fill="white"/>
<path d="M178.337 192.294H177.949L70.8719 192.131L70.9496 137.999H71.338L124.294 138.076L124.372 84.7212H124.76L178.493 84.8028V85.1912L178.337 192.294ZM71.6487 191.354L177.56 191.509L177.716 85.5758L125.148 85.4981L125.059 138.857H124.671L71.7147 138.779L71.6487 191.354Z" fill="white"/>
<path d="M151.857 165.576H151.469L44.2522 165.42L44.3338 111.284H44.7222L97.678 111.362L97.7557 58.0999H151.857V165.576ZM45.029 164.643L151.081 164.799V58.8884H98.5169L98.4392 112.15H98.0509L45.0911 112.073L45.029 164.643Z" fill="white"/>
<path d="M188.913 210L150.715 171.659L188.505 134.001L150.906 96.2042L189.193 57.9446L265.043 134.141L264.768 134.413L188.913 210ZM151.815 171.655L188.917 208.901L263.944 134.137L189.193 59.0439L152.001 96.2042L189.604 134.001L151.815 171.655Z" fill="white"/>
<path d="M151.193 209.938L112.996 171.589L150.902 133.932L113.132 96.1342L151.469 57.9446L151.745 58.2204L227.324 134.071L227.048 134.347L151.193 209.938ZM114.095 171.593L151.197 208.835L226.225 134.071L151.469 59.0439L114.246 96.1342L152.02 133.932L151.745 134.207L114.095 171.593Z" fill="white"/>
<path d="M285.045 139.191L230.924 139.075L231.041 85.7196L177.696 85.5992L177.817 31.467H178.205L285.282 31.704V32.0925L285.045 139.191ZM231.701 138.298L284.268 138.414L284.505 32.4809L178.59 32.2479L178.473 84.8261L231.817 84.9427L231.701 138.298Z" fill="white"/>
<path d="M258.313 165.813L204.192 165.692L204.308 112.337L151.081 112.22V58.1116H258.55V58.5L258.313 165.813ZM204.972 164.915L257.54 165.036L257.773 58.8807H151.857V111.443L205.104 111.56L204.972 164.915Z" fill="white"/>
<path d="M264.632 59.3156L227.009 21.4911L189.192 59.0398L188.917 58.7679L150.902 20.7453L227.203 -55.063L303 21.1376L264.632 59.3156ZM227.013 20.3918L264.636 58.2202L301.92 21.1337L227.203 -53.9636L152.005 20.7492L189.192 57.9444L227.013 20.3918Z" fill="white"/>
<path d="M264.535 97.0432L264.259 96.7674L226.912 59.0439L189.095 96.8528L150.902 58.5L151.178 58.2242L227.11 -17.3354L227.382 -17.0596L302.903 58.8652L264.535 97.0432ZM226.916 57.9406L264.539 95.9438L301.823 58.8613L227.106 -16.2361L152.001 58.5L189.095 95.7535L226.916 57.9406Z" fill="white"/>
</g>
</svg>
