<svg width="24" height="24" viewBox="0 0 24 24" fill="none" xmlns="http://www.w3.org/2000/svg">
<path fill-rule="evenodd" clip-rule="evenodd" d="M6.63372 3.71033C6.90961 3.23189 7.52112 3.06771 7.99956 3.3436L16.9996 8.5336C17.478 8.8095 17.6422 9.42101 17.3663 9.89944C17.0904 10.3779 16.4789 10.5421 16.0004 10.2662L7.00044 5.07617C6.52201 4.80027 6.35782 4.18876 6.63372 3.71033Z" fill="#141E1F"/>
<path fill-rule="evenodd" clip-rule="evenodd" d="M10.5021 1.40264C10.9577 1.14014 11.4742 1.00195 12 1.00195C12.5258 1.00195 13.0424 1.14015 13.4979 1.40267C13.4986 1.40307 13.4993 1.40348 13.5 1.40388L20.5 5.40387C20.9556 5.66692 21.334 6.04515 21.5973 6.50062C21.8606 6.95609 21.9995 7.47279 22 7.99888V16.0009C21.9995 16.527 21.8606 17.0437 21.5973 17.4992C21.334 17.9547 20.9556 18.3329 20.5 18.5959L20.4961 18.5981L13.5 22.5959C13.4994 22.5963 13.4988 22.5966 13.4982 22.597C13.0426 22.8596 12.5259 22.9979 12 22.9979C11.4741 22.9979 10.9575 22.8596 10.5019 22.597C10.5012 22.5966 10.5006 22.5963 10.5 22.5959L3.50386 18.5981L3.5 18.5959C3.04439 18.3329 2.66597 17.9547 2.40269 17.4992C2.13941 17.0437 2.00054 16.527 2 16.0009V7.99888C2.00054 7.47279 2.13941 6.95609 2.40269 6.50062C2.66597 6.04515 3.04439 5.66692 3.5 5.40388L3.50386 5.40165L10.5021 1.40264ZM12 3.00195C11.8245 3.00195 11.652 3.04816 11.5 3.13593L11.4961 3.13815L4.5 7.13593C4.49947 7.13623 4.49895 7.13654 4.49842 7.13684C4.34726 7.22448 4.22169 7.35021 4.13423 7.50151C4.04654 7.65321 4.00025 7.82528 4 8.0005V15.9993C4.00025 16.1745 4.04654 16.3466 4.13423 16.4983C4.22169 16.6496 4.34726 16.7753 4.49842 16.863C4.49895 16.8633 4.49947 16.8636 4.5 16.8639L11.5 20.8639C11.652 20.9516 11.8245 20.9979 12 20.9979C12.1755 20.9979 12.348 20.9516 12.5 20.8639L12.5039 20.8617L19.5 16.8639C19.5005 16.8636 19.5011 16.8633 19.5016 16.863C19.6527 16.7753 19.7783 16.6496 19.8658 16.4983C19.9535 16.3465 19.9998 16.1742 20 15.9989V8.00093C19.9998 7.82556 19.9535 7.65333 19.8658 7.50151C19.7783 7.35021 19.6527 7.22449 19.5016 7.13685C19.5011 7.13654 19.5005 7.13623 19.5 7.13593L12.5 3.13594C12.348 3.04817 12.1755 3.00195 12 3.00195Z" fill="#141E1F"/>
<path fill-rule="evenodd" clip-rule="evenodd" d="M2.4044 6.45916C2.68094 5.9811 3.29266 5.81773 3.77073 6.09428L12 10.8546L20.2293 6.09428C20.7073 5.81773 21.3191 5.9811 21.5956 6.45916C21.8722 6.93722 21.7088 7.54895 21.2307 7.82549L12.5007 12.8755C12.191 13.0547 11.809 13.0547 11.4993 12.8755L2.76928 7.82549C2.29122 7.54895 2.12785 6.93722 2.4044 6.45916Z" fill="#141E1F"/>
<path fill-rule="evenodd" clip-rule="evenodd" d="M12 11C12.5523 11 13 11.4477 13 12V22.08C13 22.6323 12.5523 23.08 12 23.08C11.4477 23.08 11 22.6323 11 22.08V12C11 11.4477 11.4477 11 12 11Z" fill="#141E1F"/>
</svg>
