<svg width="303" height="128" viewBox="0 0 303 128" fill="none" xmlns="http://www.w3.org/2000/svg">
<g opacity="0.5">
<path d="M269.675 154.578H269.295C269.161 154.578 255.873 154.078 238.645 149.472C222.74 145.211 200.125 136.491 182.701 119.067C164.07 100.439 155.264 75.8991 151.152 58.5923L151.844 58.4289C155.931 75.6469 164.691 100.055 183.202 118.566C200.516 135.866 223.01 144.551 238.829 148.773C254.346 152.924 266.639 153.723 268.933 153.84C268.816 151.543 268.017 139.239 263.863 123.718C259.634 107.903 250.959 85.4153 233.645 68.1085C223.323 57.7862 210.142 49.4311 194.469 43.2775C175.411 35.7852 157.7 33.6228 150.978 33.0546L151.042 32.3445C166.005 33.7516 180.702 37.2168 194.717 42.6419C210.479 48.831 223.742 57.2394 234.132 67.6327C251.555 85.0567 260.28 107.672 264.534 123.576C269.15 140.801 269.636 154.092 269.64 154.223L269.675 154.578Z" fill="white"/>
<path d="M240.779 181.892L240.424 181.782C240.296 181.742 227.587 177.822 212.141 168.917C197.877 160.693 178.291 146.408 165.98 125.068C152.807 102.253 150.651 76.2685 151.163 58.4894L151.873 58.5107C151.365 76.1974 153.506 102.04 166.598 124.713C178.834 145.911 198.307 160.111 212.489 168.292C226.408 176.32 238.087 180.276 240.274 180.986C240.754 178.735 243.168 166.644 243.172 150.577C243.172 134.204 240.619 110.243 228.383 89.0444C221.082 76.3998 210.515 64.92 196.968 54.9173C180.478 42.745 163.946 36.0765 157.6 33.772L157.845 33.1045C164.216 35.4196 180.823 42.1165 197.387 54.3456C211.016 64.4087 221.65 75.9595 228.99 88.6893C241.311 110.03 243.886 134.14 243.875 150.595C243.875 168.427 240.907 181.391 240.878 181.522L240.779 181.892Z" fill="white"/>
<path d="M205.803 200.793L205.48 200.594C205.366 200.523 194.117 193.45 181.49 180.848C169.844 169.212 154.618 150.346 148.24 126.545C141.423 101.096 146.064 75.4411 151.159 58.3971L151.841 58.5995C146.77 75.5547 142.151 101.075 148.929 126.36C155.264 150.009 170.405 168.771 181.991 180.333C193.354 191.696 203.601 198.524 205.53 199.774C206.577 197.725 212.035 186.668 216.182 171.15C220.443 155.338 224.157 131.53 217.823 107.885C214.044 93.7847 206.815 79.9578 196.308 66.7948C186.919 55.1396 175.966 44.8372 163.757 36.1795L164.166 35.5972C176.429 44.2951 187.433 54.644 196.865 66.351C207.422 79.592 214.705 93.5078 218.508 107.704C224.899 131.495 221.135 155.452 216.864 171.353C212.248 188.574 206.027 200.331 205.963 200.448L205.803 200.793Z" fill="white"/>
<path d="M259.137 123.807C242.675 123.807 218.614 121.219 197.309 108.918C174.495 95.7448 159.635 74.3226 151.188 58.667L151.812 58.3297C160.217 73.8894 174.992 95.2157 197.664 108.304C218.835 120.526 242.76 123.097 259.137 123.097H259.211C275.279 123.097 287.369 120.679 289.62 120.196C288.91 118.009 284.955 106.348 276.926 92.4141C268.759 78.2321 254.556 58.7593 233.35 46.5196C220.706 39.2191 205.814 34.5604 189.079 32.6713C168.711 30.3704 151.063 32.8631 144.42 34.0384L144.295 33.3282C150.967 32.1458 168.7 29.6424 189.16 31.954C205.991 33.8537 220.976 38.5408 233.705 45.8911C255.042 58.2125 269.327 77.7989 277.551 92.052C286.457 107.498 290.377 120.21 290.416 120.334L290.526 120.689L290.171 120.775C290.039 120.803 277.075 123.764 259.243 123.775L259.137 123.807Z" fill="white"/>
<path d="M235.907 98.7452C226.761 98.7972 217.648 97.6512 208.8 95.3364C183.351 88.5188 163.452 71.6701 151.241 58.7344L151.759 58.2479C163.907 71.1162 183.695 87.8761 208.984 94.6511C232.633 100.986 256.452 97.2539 272.267 93.0071C287.781 88.8419 298.824 83.3878 300.869 82.3546C299.62 80.4264 292.777 70.1681 281.418 58.8054C269.849 47.2226 251.09 32.0889 227.445 25.7542C213.348 21.969 197.757 21.337 181.093 23.8226C160.853 26.8798 144.434 33.8537 138.319 36.7121L138.017 36.0694C144.164 33.1968 160.64 26.191 181 23.1124C197.746 20.5913 213.437 21.2411 227.633 25.0476C251.424 31.4391 270.3 46.6473 281.936 58.2941C294.538 70.9102 301.612 82.1699 301.683 82.2835L301.881 82.6067L301.548 82.7842C301.43 82.8481 289.674 89.0621 272.452 93.6853C262.677 96.3235 249.858 98.7452 235.907 98.7452Z" fill="white"/>
<path d="M216.377 79.2581C190.03 79.2581 166.453 68.1334 151.312 58.8018L151.685 58.1981C166.747 67.4978 190.201 78.548 216.377 78.548C240.853 78.548 262.893 68.7832 277.061 60.5914C290.973 52.5523 300.241 44.4173 301.945 42.8763C300.241 41.3352 290.973 33.2002 277.061 25.1611C262.89 16.9693 240.843 7.20455 216.377 7.20455C201.78 7.20455 186.55 10.6169 171.115 17.3493C152.327 25.5411 138.287 36.5238 133.121 40.8629L132.663 40.3196C137.851 35.9592 151.955 24.9268 170.827 16.6995C186.362 9.92804 201.688 6.49438 216.381 6.49438C241.02 6.49438 263.184 16.316 277.455 24.5575C292.891 33.4807 302.641 42.5247 302.737 42.617L303.014 42.8763L302.737 43.1355C302.641 43.2242 292.891 52.2718 277.455 61.195C263.202 69.4365 241.038 79.2581 216.381 79.2581H216.377Z" fill="white"/>
<path d="M192.42 65.1791C176.757 65.1791 162.312 62.1041 151.397 58.8409L151.599 58.1591C168.555 63.2368 194.075 67.8529 219.36 61.0708C243.002 54.7361 261.761 39.6025 273.333 28.0196C284.695 16.6569 291.534 6.39857 292.784 4.46691C290.735 3.42297 279.678 -2.03822 264.161 -6.20335C248.349 -10.4466 224.541 -14.175 200.896 -7.84028C186.795 -4.06219 172.968 3.16731 159.805 13.6707C143.777 26.4537 133.057 40.6926 129.19 46.2212L128.611 45.8164C132.492 40.2594 143.262 25.9495 159.362 13.1168C172.603 2.56012 186.515 -4.72265 200.715 -8.54335C224.505 -14.9349 248.463 -11.171 264.363 -6.90286C281.585 -2.28677 293.342 3.93784 293.459 4.00176L293.796 4.1793L293.594 4.50242C293.523 4.61605 286.45 15.8651 273.848 28.4919C262.212 40.1386 243.346 55.3611 219.545 61.7384C210.692 64.0662 201.573 65.2229 192.42 65.1791V65.1791Z" fill="white"/>
<path d="M156.169 58.9225C154.557 58.9225 152.991 58.8977 151.489 58.855L151.511 58.1449C169.201 58.6562 195.044 56.5115 217.712 43.4196C238.911 31.1834 253.111 11.707 261.292 -2.475C269.32 -16.3907 273.276 -28.0694 273.986 -30.2567C271.738 -30.7397 259.644 -33.1507 243.577 -33.1578H243.513C227.143 -33.1578 203.214 -30.587 182.044 -18.365C169.4 -11.0645 157.92 -0.497181 147.921 13.0493C135.741 29.5393 129.076 46.072 126.776 52.4103L126.108 52.1688C128.42 45.7986 135.116 29.1949 147.349 12.6303C157.409 -0.997846 168.959 -11.6326 181.689 -18.9722C202.994 -31.2723 227.051 -33.8608 243.513 -33.8608H243.587C261.416 -33.8608 274.384 -30.8888 274.512 -30.8604L274.867 -30.7752L274.757 -30.4201C274.718 -30.2958 270.797 -17.5838 261.892 -2.13767C253.668 12.1225 239.383 31.7125 218.043 44.0232C197.185 56.0961 173.636 58.9225 156.169 58.9225Z" fill="white"/>
<path d="M126.055 58.9118L125.345 58.8479C125.934 52.1013 128.114 34.3684 135.617 15.2649C141.806 -0.497229 150.215 -13.7596 160.608 -24.1494C178.032 -41.5733 200.647 -50.3013 216.551 -54.5516C233.776 -59.1677 247.067 -59.6542 247.202 -59.6577H247.579V-59.2778C247.579 -59.1464 247.078 -45.8556 242.472 -28.627C238.211 -12.7228 229.491 9.89252 212.067 27.3165C193.439 45.9477 168.899 54.7538 151.592 58.8621L151.429 58.1732C168.647 54.0827 193.055 45.3263 211.566 26.8123C228.873 9.50548 237.551 -12.9784 241.78 -28.7938C245.931 -44.3145 246.751 -56.6218 246.851 -58.9156C244.553 -58.7984 232.25 -57.9995 216.729 -53.8485C200.913 -49.6159 178.43 -40.9413 161.119 -23.6345C150.797 -13.3086 142.442 -0.127943 136.288 15.5419C128.81 34.5424 126.637 52.2007 126.055 58.9118Z" fill="white"/>
<path d="M126.346 65.7225C123.825 50.9022 123.361 35.8048 124.968 20.8577C126.868 4.02671 131.555 -10.9578 138.905 -23.6876C151.227 -45.0281 170.813 -59.3096 185.066 -67.5333C200.512 -76.4388 213.221 -80.3589 213.348 -80.398L213.704 -80.5081L213.789 -80.153C213.821 -80.0251 216.779 -67.0575 216.789 -49.2252C216.789 -32.7635 214.222 -8.65687 201.901 12.6801C188.731 35.4978 167.305 50.358 151.649 58.8055L151.312 58.1805C166.889 49.7828 188.216 35.0078 201.304 12.3321C213.54 -8.84506 216.104 -32.8274 216.097 -49.2003C216.097 -65.2679 213.679 -77.362 213.196 -79.6097C211.008 -78.8995 199.348 -74.9439 185.414 -66.9155C171.232 -58.7485 151.759 -44.5452 139.519 -23.3396C132.219 -10.6951 127.564 4.19716 125.671 20.9287C124.072 35.8084 124.534 50.8375 127.042 65.5911L126.346 65.7225Z" fill="white"/>
<path d="M129.069 71.9825C126.2 65.8431 119.194 49.3637 116.13 29.0174C113.605 12.2681 114.255 -3.41953 118.062 -17.6158C124.453 -41.4064 139.662 -60.2826 151.308 -71.9187C163.924 -84.5206 175.188 -91.5939 175.298 -91.6649L175.621 -91.8638L175.798 -91.53C175.862 -91.4128 182.076 -79.656 186.703 -62.4344C190.964 -46.5338 194.721 -22.5834 188.343 1.21786C181.526 26.6632 164.677 46.5478 151.741 58.7592L151.266 58.2407C164.134 46.0933 180.894 26.3045 187.669 1.01546C194.004 -22.626 190.275 -46.4379 186.032 -62.2498C181.856 -77.7669 176.395 -88.8243 175.351 -90.8695C173.419 -89.6196 163.164 -82.7772 151.798 -71.4216C140.219 -59.8494 125.082 -41.0939 118.747 -17.4489C114.969 -3.34851 114.337 12.2432 116.823 28.8931C119.13 43.6804 123.466 58.0786 129.709 71.6807L129.069 71.9825Z" fill="white"/>
<path d="M133.323 77.3265C128.959 72.1352 117.927 58.0313 109.696 39.1586C102.928 23.6343 99.4944 8.31247 99.4944 -6.38444C99.4944 -31.0237 109.316 -53.188 117.558 -67.4411C126.481 -82.8766 135.528 -92.6272 135.617 -92.723L135.876 -93L136.136 -92.723C136.228 -92.6272 145.275 -82.8766 154.199 -67.4411C162.437 -53.188 172.258 -31.0237 172.258 -6.36669C172.258 19.9841 161.133 43.5616 151.802 58.7024L151.198 58.3296C160.48 43.2669 171.548 19.8172 171.548 -6.36669C171.548 -30.8426 161.783 -52.8826 153.591 -67.0505C145.552 -80.9804 137.417 -90.2481 135.876 -91.9347C134.335 -90.2303 126.2 -80.9627 118.161 -67.0505C109.969 -52.8791 100.205 -30.832 100.205 -6.36669C100.205 8.2308 103.617 23.4603 110.349 38.8923C118.541 57.6798 129.524 71.7198 133.867 76.8862L133.323 77.3265Z" fill="white"/>
<path d="M138.813 81.3887C133.256 77.504 118.949 66.7343 106.117 50.6384C95.5601 37.3938 88.2774 23.4816 84.4567 9.28536C78.0652 -14.5052 81.829 -38.4663 86.1007 -54.3634C90.7168 -71.5849 96.9414 -83.3418 97.0018 -83.4589L97.1793 -83.7927L97.5024 -83.5939C97.6161 -83.5229 108.865 -76.4496 121.492 -63.8477C133.156 -52.2116 148.379 -33.346 154.756 -9.55538C161.563 15.9077 156.947 41.5767 151.841 58.5994L151.159 58.397C156.237 41.4453 160.853 15.929 154.071 -9.36364C147.736 -33.0051 132.602 -51.7606 121.02 -63.3364C109.657 -74.699 99.3986 -81.5379 97.4705 -82.7878C96.423 -80.739 90.9618 -69.6817 86.8002 -54.1645C82.5534 -38.3527 78.8286 -14.5265 85.1597 9.10072C88.9378 23.2011 96.1673 37.028 106.671 50.1945C119.454 66.2195 133.689 76.9395 139.221 80.8063L138.813 81.3887Z" fill="white"/>
<path d="M145.048 83.8316C138.692 81.52 122.131 74.8196 105.634 62.6367C92.0093 52.5772 81.3745 41.0227 74.0314 28.2966C61.71 6.95602 59.1179 -17.1542 59.1463 -33.6123C59.1463 -51.441 62.1148 -64.4051 62.1467 -64.5365L62.232 -64.8916L62.587 -64.7815C62.7149 -64.7425 75.4233 -60.8223 90.8695 -51.9168C105.13 -43.6931 124.72 -29.4116 137.03 -8.07112C150.2 14.7466 152.366 40.7316 151.855 58.5106L151.145 58.4893C151.653 40.8026 149.512 14.9596 136.42 -7.71604C124.18 -28.9181 104.696 -43.1214 90.5108 -51.3026C76.5951 -59.3239 64.9448 -63.276 62.7433 -63.9861C62.2639 -61.7385 59.8529 -49.6443 59.8458 -33.5768C59.8458 -17.2074 62.3989 6.75718 74.635 27.9557C81.9356 40.5967 92.5028 52.0765 106.049 62.0792C122.479 74.2089 138.966 80.8773 145.293 83.1818L145.048 83.8316Z" fill="white"/>
<path d="M151.976 84.6661C145.229 84.0802 127.45 81.9106 108.301 74.3686C92.5348 68.176 79.276 59.7676 68.8862 49.3778C51.4623 31.9539 42.7379 9.33859 38.484 -6.56561C33.8395 -23.7588 33.3424 -37.0673 33.3388 -37.1987V-37.5786H33.7187C33.8501 -37.5786 47.1409 -37.0779 64.366 -32.4725C80.2702 -28.2115 102.885 -19.4942 120.309 -2.07025C138.941 16.561 147.747 41.1008 151.855 58.4076L151.163 58.5709C147.079 41.3565 138.323 16.948 119.809 -1.56603C102.498 -18.8764 80.0146 -27.551 64.1991 -31.7801C48.6784 -35.9346 36.3748 -36.7335 34.0774 -36.8507C34.1946 -34.5533 34.9935 -22.2496 39.148 -6.72894C43.377 9.08649 52.0517 31.5704 69.362 48.8807C79.6808 59.1994 92.8615 67.5546 108.535 73.7117C122.493 79.1078 137.129 82.5514 152.029 83.9452L151.976 84.6661Z" fill="white"/>
<path d="M131.068 85.9622C125.316 85.9689 119.568 85.6535 113.85 85.0177C97.0195 83.1215 82.0243 78.4415 69.3088 71.0949C47.9683 58.7735 33.6832 39.187 25.4595 24.934C16.554 9.48784 12.6339 -3.2206 12.5984 -3.34488L12.4847 -3.69997L12.8576 -3.78519C12.9854 -3.8136 25.9495 -6.77499 43.7818 -6.78564H43.867C60.3287 -6.78564 84.3856 -4.19708 105.687 8.10302C128.508 21.2766 143.365 42.6988 151.812 58.3509L151.188 58.6882C142.783 43.0965 128.008 21.7879 105.332 8.696C84.1655 -3.52598 60.2364 -6.09678 43.867 -6.09678H43.7818C27.7178 -6.09678 15.6414 -3.67866 13.3938 -3.19575C14.1039 -1.00843 18.0596 10.6525 26.0844 24.586C34.2514 38.768 48.4547 58.2408 69.6639 70.4806C82.3013 77.7775 97.1971 82.4362 113.929 84.3288C134.3 86.6298 151.951 84.1371 158.595 82.9582L158.715 83.6684C149.582 85.2186 140.333 85.986 131.068 85.9622V85.9622Z" fill="white"/>
<path d="M102.538 95.3755C93.3703 95.4235 84.2365 94.2679 75.3701 91.9383C51.5795 85.5468 32.6997 70.3386 21.0671 58.6883C8.46521 46.0757 1.38839 34.8302 1.32093 34.7024L1.11853 34.3793L1.45586 34.2017C1.56949 34.1378 13.3299 27.9203 30.5479 23.2971C46.4485 19.0361 70.3989 15.2757 94.2002 21.6566C119.663 28.4742 139.548 45.3229 151.759 58.2657L151.241 58.7522C139.093 45.8769 119.308 29.1169 94.0155 22.3419C70.3669 16.0037 46.5479 19.7356 30.7325 23.9824C15.2189 28.1511 4.1758 33.6052 2.13052 34.6349C3.38041 36.5666 10.2264 46.8214 21.582 58.1876C33.1542 69.7669 51.9097 84.9041 75.5547 91.2388C89.6551 95.0169 105.247 95.6596 121.897 93.1563C142.168 90.1061 158.57 83.1287 164.681 80.2738L164.983 80.9165C158.843 83.7856 142.364 90.7914 122.017 93.8558C115.571 94.8482 109.06 95.3562 102.538 95.3755Z" fill="white"/>
<path d="M86.6191 110.502C61.9799 110.502 39.8155 100.68 25.5625 92.4423C10.1234 83.5191 0.372838 74.4716 0.276965 74.3828L0 74.1236L0.276965 73.8644C0.372838 73.772 10.1234 64.7245 25.5589 55.8013C39.812 47.5633 61.9763 37.7417 86.6333 37.7417C112.984 37.7417 136.562 48.8665 151.702 58.1981L151.33 58.8017C136.267 49.5163 112.817 38.4519 86.6333 38.4519C62.1325 38.4519 40.1174 48.2202 25.9318 56.4155C12.0089 64.4546 2.7519 72.5825 1.06525 74.1236C2.7519 75.6646 12.0196 83.796 25.9211 91.8351C40.096 100.027 62.1396 109.792 86.6049 109.792C101.202 109.792 116.432 106.379 131.86 99.6505C145.547 93.5969 158.332 85.6832 169.854 76.1333L170.312 76.6766C158.737 86.2702 145.894 94.2198 132.144 100.3C116.638 107.072 101.316 110.502 86.6191 110.502Z" fill="white"/>
<path d="M75.1819 128.927C61.2271 128.927 48.4121 126.499 38.6367 123.875C21.4151 119.258 9.65827 113.034 9.5411 112.973L9.20377 112.792L9.40616 112.473C9.47718 112.359 16.5504 101.11 29.1524 88.4834C40.7885 76.8402 59.6541 61.6177 83.4447 55.2404C108.894 48.4228 134.552 53.0638 151.589 58.1592L151.386 58.841C134.435 53.7704 108.918 49.1507 83.6293 55.9257C59.9772 62.264 41.2181 77.4048 29.6566 88.9911C18.2939 100.354 11.4656 110.602 10.2158 112.53C12.2646 113.577 23.3219 119.035 38.839 123.182C54.6509 127.443 78.4593 131.154 102.104 124.819C116.205 121.041 130.032 113.811 143.195 103.308C154.848 93.9186 165.149 82.965 173.806 70.7576L174.389 71.1659C165.691 83.4282 155.344 94.4318 143.638 103.866C130.397 114.422 116.485 121.701 102.285 125.504C93.4391 127.824 84.3271 128.975 75.1819 128.927Z" fill="white"/>
<path d="M59.4872 150.864H59.4019C41.5732 150.864 28.6055 147.896 28.4777 147.864L28.1226 147.779L28.2327 147.424C28.2718 147.296 32.1919 134.587 41.0974 119.141C49.3211 104.877 63.6061 85.291 84.9431 72.9803C107.764 59.8067 133.742 57.6549 151.525 58.1627L151.504 58.8728C133.817 58.3579 107.974 60.5062 85.2982 73.5946C64.0961 85.8379 49.8928 105.318 41.7117 119.507C33.6903 133.419 29.7383 145.073 29.0281 147.274C31.2758 147.754 43.3699 150.165 59.4374 150.172H59.5014C75.8707 150.172 99.7998 147.601 120.97 135.379C133.614 128.082 145.094 117.511 155.093 103.968C167.273 87.4748 173.938 70.9457 176.239 64.6039L176.906 64.8453C174.595 71.2155 167.901 87.8192 155.665 104.387C145.606 118.012 134.055 128.647 121.325 135.99C100.009 148.276 75.9453 150.864 59.4872 150.864Z" fill="white"/>
<path d="M55.4214 176.672V176.292C55.4214 176.16 55.9221 162.87 60.5276 145.645C64.7886 129.74 73.5059 107.125 90.9298 89.7011C109.561 71.0699 134.101 62.2602 151.408 58.1555L151.571 58.8443C134.353 62.9313 109.945 71.6912 91.434 90.2018C74.1308 107.516 65.4561 129.992 61.2235 145.829C57.0761 161.346 56.2772 173.639 56.16 175.933C58.4574 175.816 70.7611 175.013 86.2818 170.863C102.097 166.634 124.581 157.955 141.891 140.645C152.214 130.323 160.569 117.142 166.722 101.472C172.119 87.5128 175.562 72.8754 176.956 57.9744L177.666 58.0347C177.08 64.7813 174.911 82.5603 167.369 101.731C161.18 117.493 152.771 130.756 142.378 141.146C124.954 158.57 102.339 167.294 86.4345 171.548C69.2093 176.164 55.9186 176.65 55.7872 176.654L55.4214 176.672Z" fill="white"/>
<path d="M89.2787 197.515L89.1934 197.16C89.165 197.032 86.2036 184.068 86.193 166.236C86.193 149.774 88.7603 125.667 101.082 104.327C114.255 81.5093 135.677 66.6526 151.33 58.2052L151.667 58.8301C136.096 67.2136 114.788 81.9922 101.696 104.664C89.4527 125.87 86.8961 149.842 86.9032 166.211C86.9032 182.275 89.3213 194.355 89.8042 196.599C91.9915 195.889 103.652 191.933 117.586 183.908C131.768 175.741 151.241 161.538 163.481 140.329C170.777 127.688 175.436 112.792 177.329 96.0642C178.93 81.1834 178.469 66.1528 175.958 51.3982L176.668 51.2739C177.851 57.9459 180.358 75.6753 178.046 96.1423C176.146 112.97 171.456 127.958 164.109 140.684C151.788 162.025 132.201 176.306 117.948 184.533C102.502 193.439 89.7935 197.359 89.6693 197.398L89.2787 197.515Z" fill="white"/>
<path d="M127.379 208.882L127.202 208.548C127.138 208.431 120.924 196.67 116.297 179.452C112.036 163.552 108.279 139.601 114.657 115.8C121.474 90.3511 138.323 70.4522 151.255 58.2409L151.741 58.7593C138.877 70.9067 122.117 90.6955 115.342 115.985C109.007 139.626 112.736 163.438 116.979 179.25C121.144 194.767 126.605 205.824 127.649 207.87C129.581 206.62 139.836 199.774 151.202 188.418C162.781 176.846 177.918 158.09 184.253 134.445C188.031 120.345 188.677 104.753 186.17 88.0999C183.12 67.853 176.143 51.4339 173.281 45.3194L173.924 45.0176C176.793 51.1605 183.802 67.6435 186.866 88.0004C189.387 104.746 188.734 120.437 184.931 134.63C178.54 158.421 163.331 177.3 151.685 188.933C139.069 201.535 127.809 208.612 127.695 208.679L127.379 208.882Z" fill="white"/>
<path d="M167.124 210L166.864 209.723C166.772 209.627 157.725 199.876 148.801 184.441C140.563 170.188 130.742 148.024 130.742 123.367C130.742 97.023 141.867 73.4418 151.198 58.2975L151.802 58.6704C142.516 73.7366 131.452 97.1898 131.452 123.367C131.452 147.867 141.22 169.883 149.416 184.086C157.455 197.991 165.583 207.248 167.124 208.942C168.665 207.234 176.8 197.97 184.839 184.058C193.031 169.883 202.792 147.839 202.792 123.374C202.792 108.773 199.383 93.5467 192.651 78.1112C184.455 59.3202 173.476 45.2802 169.133 40.1172L169.677 39.6592C174.037 44.847 185.07 58.9509 193.3 77.8271C200.072 93.3514 203.506 108.677 203.502 123.374C203.502 148.013 193.684 170.177 185.442 184.448C176.519 199.884 167.472 209.634 167.383 209.73L167.124 210Z" fill="white"/>
</g>
</svg>
