<svg width="560" viewBox="0 0 560 576" fill="none" xmlns="http://www.w3.org/2000/svg">
<g>
<circle cx="280.5" cy="340.5" r="214.876" fill="white"/>
<path d="M404.142 385.405L404.031 393.679L403.537 394.607V397.076L403.076 399.281L400.834 400.549V399.74L398.277 401.775L396.359 402.728H395.114L392.719 401.664V400.898L393.384 400.183L395.617 398.77L397.117 396.854L398.473 394.956L398.226 394.309L397.825 393.679L397.612 391.849L396.401 382.842C393.92 382.375 391.399 382.144 388.874 382.153C387.058 382.15 385.244 382.267 383.444 382.502L383.043 383.149L383.256 384.851L382.804 387.967L380.579 389.261V388.41L377.613 390.657L375.976 391.398H374.731L372.447 390.333L372.523 389.329L373.674 388.478L375.379 387.252L376.641 385.788L377.732 384.162L378.082 383.651C371.407 385.634 366.897 389.389 366.897 393.696C366.897 400.064 376.735 405.231 388.865 405.231C400.996 405.231 410.834 400.064 410.834 393.696C410.817 390.427 408.259 387.499 404.142 385.405Z" fill="#E9F1F2"/>
<path d="M188.73 507.259L189.753 506.944L190.895 507.08L191.406 507.182L191.603 504.466C190.289 504.505 188.98 504.624 187.681 504.824L187.315 507.829L187.911 507.701L188.73 507.259Z" fill="#E9F1F2"/>
<path d="M199.906 505.343L198.201 512.153L197.843 512.902H198.627L200.23 512.638L201.568 512.817L202.813 513.626L203.213 514.877L201.764 516.324L199.71 517.372L196.385 517.976L195.754 518.827H192.174L191.773 517.908V514.818L192.157 513.805L192.08 513.226L191.611 512.783L191.262 511.625V510.263L187.732 512.63L186.249 513.141L186.061 513.762L185.056 514.741L182.191 513.89L181.918 511.693L182.063 510.314L181.842 509.821L181.16 509.412L180.64 507.062C177.682 508.654 175.849 510.817 175.849 513.217C175.849 518.07 183.351 522.003 192.591 522.003C201.832 522.003 209.334 518.07 209.334 513.217C209.308 509.761 205.447 506.773 199.906 505.343Z" fill="#E9F1F2"/>
<path d="M385.448 340.704L384.596 342.179L388.377 344.357L389.229 342.882L385.448 340.704Z" fill="#4CBDC7"/>
<path d="M416.861 360.641C416.711 360.642 416.564 360.604 416.435 360.53L401.388 351.864L402.241 350.383L416.008 358.317V326.334L402.215 318.383L403.068 316.901L417.278 325.091C417.407 325.165 417.514 325.272 417.589 325.4C417.664 325.529 417.704 325.674 417.705 325.823V359.772C417.705 359.922 417.666 360.07 417.591 360.2C417.516 360.33 417.409 360.438 417.278 360.513C417.151 360.587 417.008 360.631 416.861 360.641Z" fill="#4CBDC7"/>
<path d="M457.221 336.04L456.368 337.514L468.861 344.729L469.715 343.255L457.221 336.04Z" fill="#4CBDC7"/>
<path d="M482.245 350.455L481.403 351.936L491.581 357.707L492.423 356.227L482.245 350.455Z" fill="#4CBDC7"/>
<path d="M495.023 357.825L494.171 359.3L495.19 359.887L496.042 358.412L495.023 357.825Z" fill="#4CBDC7"/>
<path d="M496.448 229.261H494.743V276.729H496.448V229.261Z" fill="#4CBDC7"/>
<path d="M461.667 297.211L460.814 295.738L493.873 276.729L476.619 266.786L477.472 265.313L496.013 275.988C496.144 276.062 496.253 276.17 496.329 276.3C496.405 276.43 496.445 276.578 496.445 276.729C496.445 276.879 496.405 277.027 496.329 277.157C496.253 277.287 496.144 277.395 496.013 277.469L461.667 297.211Z" fill="#4CBDC7"/>
<path d="M536.906 253.838L536.054 252.365L557.443 240.064L536.207 227.797L537.06 226.324L559.582 239.298C559.711 239.373 559.819 239.48 559.893 239.609C559.968 239.739 560.007 239.885 560.007 240.034C560.007 240.183 559.968 240.33 559.893 240.459C559.819 240.588 559.711 240.696 559.582 240.771L536.906 253.838Z" fill="#4CBDC7"/>
<path d="M495.289 171.671L494.436 170.19L534.75 146.95L509.107 132.18L509.96 130.707L536.881 146.218C537.01 146.292 537.117 146.398 537.192 146.527C537.266 146.655 537.306 146.801 537.307 146.95C537.308 147.1 537.269 147.247 537.194 147.377C537.119 147.507 537.011 147.615 536.881 147.69L495.289 171.671Z" fill="#4CBDC7"/>
<path d="M394.39 263.398L392.864 262.64L451.599 146.013C451.675 145.865 451.79 145.742 451.932 145.656L452.716 145.213L453.568 146.686L453.006 147.009L394.39 263.398Z" fill="#4CBDC7"/>
<path d="M416.861 326.691C416.711 326.692 416.564 326.654 416.434 326.581L402.309 318.442L403.161 316.97L416.511 324.631L493.788 171.237L481.001 163.857L481.854 162.384L495.289 170.19C495.479 170.298 495.621 170.475 495.684 170.684C495.748 170.893 495.728 171.119 495.63 171.314L417.585 326.249C417.534 326.352 417.462 326.443 417.374 326.518C417.286 326.593 417.184 326.649 417.074 326.683C417.003 326.695 416.932 326.697 416.861 326.691Z" fill="#4CBDC7"/>
<path d="M416.861 360.64C416.635 360.64 416.418 360.551 416.258 360.391C416.098 360.231 416.008 360.015 416.008 359.789V325.84C416.006 325.707 416.036 325.576 416.094 325.457L494.138 170.522C494.211 170.373 494.327 170.248 494.47 170.164L536.062 146.183C536.192 146.109 536.339 146.069 536.489 146.069C536.638 146.069 536.785 146.109 536.915 146.183C537.045 146.258 537.153 146.366 537.228 146.496C537.303 146.627 537.342 146.774 537.341 146.924V251.633L558.713 239.298C558.842 239.223 558.989 239.183 559.139 239.183C559.289 239.183 559.436 239.223 559.565 239.298C559.694 239.372 559.801 239.478 559.876 239.607C559.951 239.735 559.991 239.881 559.991 240.03V277.75C559.992 277.9 559.953 278.048 559.878 278.178C559.803 278.308 559.695 278.416 559.565 278.491L537.333 291.311V328.027H535.628V290.818C535.627 290.668 535.666 290.52 535.741 290.39C535.816 290.26 535.924 290.152 536.054 290.077L558.287 277.257V241.502L536.906 253.838C536.777 253.912 536.63 253.952 536.48 253.952C536.331 253.952 536.184 253.912 536.054 253.838C535.924 253.763 535.816 253.655 535.741 253.524C535.666 253.394 535.627 253.247 535.628 253.097V148.388L495.561 171.501L417.713 326.044V358.316L434.396 348.697L435.249 350.17L417.278 360.521C417.152 360.596 417.008 360.637 416.861 360.64ZM495.595 359.968C495.445 359.966 495.298 359.925 495.169 359.849C495.04 359.774 494.933 359.668 494.858 359.539C494.784 359.411 494.744 359.265 494.743 359.117V354.417H496.448V357.635L511.426 349.029L512.278 350.502L496.013 359.866C495.882 359.936 495.735 359.972 495.587 359.968H495.595ZM496.448 349.165H494.743V335.774H496.448V349.165ZM440.525 347.122L439.673 345.649L463.917 331.663L464.77 333.144L440.525 347.122ZM496.448 325.635H494.743V315.829L487.071 320.264L486.218 318.791L495.186 313.615C495.316 313.54 495.463 313.501 495.612 313.501C495.762 313.501 495.909 313.54 496.039 313.615C496.169 313.69 496.277 313.798 496.352 313.928C496.426 314.058 496.466 314.206 496.465 314.356L496.448 325.635ZM461.249 297.33C461.103 297.33 460.959 297.293 460.831 297.221C460.703 297.15 460.596 297.047 460.519 296.922C460.443 296.797 460.401 296.654 460.395 296.508C460.39 296.362 460.423 296.217 460.49 296.087L494.837 228.835C494.924 228.664 495.066 228.526 495.241 228.446C495.416 228.366 495.613 228.347 495.8 228.392C495.989 228.439 496.157 228.549 496.275 228.704C496.392 228.859 496.454 229.049 496.448 229.244V276.669C496.448 276.819 496.409 276.967 496.335 277.097C496.26 277.227 496.152 277.335 496.022 277.41L461.675 297.211C461.544 297.289 461.394 297.33 461.241 297.33H461.249ZM494.743 232.794L463.321 294.299L494.743 276.184V232.794Z" fill="#4CBDC7"/>
<path d="M310.301 528.029V532.209C310.131 535.027 308.179 537.819 304.453 539.973C296.619 544.485 283.926 544.485 276.091 539.973C272.358 537.819 270.414 535.027 270.235 532.209V528.029C267.899 529.962 266.535 532.286 266.535 534.703C266.535 541.59 277.166 547.166 290.277 547.166C303.388 547.166 314.018 541.59 314.018 534.703C314.001 532.252 312.637 529.962 310.301 528.029Z" fill="#E9F1F2"/>
<path d="M290.26 544.188C284.974 544.188 279.68 543.03 275.657 540.706C271.803 538.492 269.578 535.487 269.374 532.27V520.649H271.079V532.21C271.241 534.764 273.167 537.318 276.509 539.233C284.096 543.609 296.432 543.609 304.019 539.233C307.352 537.309 309.278 534.798 309.449 532.159V520.658H311.154V532.218C310.958 535.487 308.724 538.492 304.88 540.731C300.839 543.03 295.553 544.188 290.26 544.188Z" fill="#4CBDC7"/>
<path d="M290.26 532.814C284.974 532.814 279.68 531.648 275.657 529.332C271.633 527.017 269.382 523.824 269.382 520.419C269.382 517.014 271.616 513.847 275.682 511.506C283.73 506.866 296.832 506.866 304.888 511.506C308.954 513.847 311.188 517.014 311.188 520.419C311.188 523.824 308.954 526.991 304.888 529.332C300.822 531.673 295.545 532.814 290.26 532.814ZM290.26 509.701C285.281 509.701 280.294 510.791 276.509 512.979C272.997 515.005 271.062 517.644 271.062 520.419C271.062 523.194 272.997 525.833 276.509 527.851C284.088 532.226 296.432 532.226 304.01 527.851C307.522 525.825 309.457 523.177 309.457 520.411C309.457 517.644 307.522 514.996 304.01 512.97C299.78 510.73 295.047 509.605 290.26 509.701Z" fill="#4CBDC7"/>
<path d="M302.8 519.007H291.982V512.826L288.563 514.844V519.007H281.044L277.745 520.982H288.563V527.213L291.982 525.144V520.982H299.492L302.8 519.007Z" fill="#4CBDC7"/>
<path d="M43.3825 576C43.2332 576.001 43.0862 575.963 42.9563 575.89L0.426238 551.389C0.297397 551.315 0.190264 551.208 0.115489 551.08C0.0407133 550.952 0.000897973 550.806 0 550.657L0 516.733H1.70495V550.189L42.53 573.702V541.208H44.235V575.149C44.2356 575.299 44.1965 575.446 44.1216 575.576C44.0468 575.707 43.9388 575.815 43.8087 575.89C43.6788 575.963 43.5318 576.001 43.3825 576Z" fill="#4CBDC7"/>
<path d="M83.741 551.406L82.889 552.881L121.693 575.235L122.545 573.76L83.741 551.406Z" fill="#4CBDC7"/>
<path d="M88.2057 512.579L87.3532 511.106L120.412 492.088L102.954 482.035L103.806 480.562L122.56 491.356C122.69 491.431 122.797 491.539 122.871 491.668C122.946 491.797 122.985 491.944 122.985 492.093C122.985 492.242 122.946 492.388 122.871 492.518C122.797 492.647 122.69 492.754 122.56 492.829L88.2057 512.579Z" fill="#4CBDC7"/>
<path d="M121.418 387.141C121.269 387.142 121.122 387.104 120.992 387.031L78.4278 362.531C78.2989 362.456 78.1918 362.35 78.117 362.221C78.0422 362.093 78.0024 361.947 78.0015 361.798C78.0009 361.648 78.04 361.501 78.1149 361.371C78.1897 361.241 78.2977 361.133 78.4278 361.058L106.039 345.139L106.892 346.62L80.5931 361.798L121.418 385.311L161.305 362.326L136.933 348.288L137.786 346.816L163.437 361.586C163.566 361.66 163.673 361.768 163.748 361.897C163.822 362.026 163.861 362.173 163.861 362.322C163.861 362.471 163.822 362.618 163.748 362.747C163.673 362.876 163.566 362.984 163.437 363.058L121.844 387.039C121.714 387.11 121.567 387.145 121.418 387.141Z" fill="#4CBDC7"/>
<path d="M163.437 469.197L162.584 467.724L183.973 455.44L162.823 443.19L163.675 441.717L186.147 454.657C186.278 454.731 186.387 454.839 186.463 454.969C186.539 455.099 186.579 455.247 186.579 455.398C186.579 455.548 186.539 455.696 186.463 455.826C186.387 455.956 186.278 456.064 186.147 456.138L163.437 469.197Z" fill="#4CBDC7"/>
<path d="M43.3825 542.059C43.2336 542.057 43.0874 542.019 42.9563 541.948L0.426242 517.448C0.237283 517.339 0.097465 517.162 0.0356089 516.952C-0.0262473 516.743 -0.00542753 516.519 0.0937767 516.324L78.1294 361.39C78.1814 361.286 78.2538 361.194 78.3425 361.12C78.4311 361.045 78.534 360.99 78.6449 360.956C78.7558 360.923 78.8723 360.912 78.9874 360.925C79.1025 360.938 79.2138 360.975 79.3144 361.032L121.844 385.532C122.033 385.64 122.173 385.815 122.236 386.022C122.299 386.23 122.281 386.453 122.185 386.647L44.1412 541.582C44.0898 541.685 44.018 541.777 43.9301 541.852C43.8421 541.926 43.74 541.982 43.6297 542.016C43.5499 542.043 43.4666 542.057 43.3825 542.059ZM1.97775 516.376L43.0245 540.016L120.301 386.63L79.2803 362.982L1.97775 516.376Z" fill="#4CBDC7"/>
<path d="M43.3825 576C43.1564 576 42.9396 575.91 42.7797 575.751C42.6198 575.591 42.53 575.375 42.53 575.149V541.208C42.5308 541.075 42.5629 540.943 42.6238 540.825L120.659 385.89C120.735 385.743 120.85 385.619 120.992 385.532L162.584 361.552C162.714 361.477 162.861 361.438 163.01 361.438C163.16 361.438 163.307 361.477 163.437 361.552C163.567 361.627 163.675 361.735 163.75 361.865C163.824 361.995 163.864 362.142 163.863 362.292V467.001L185.252 454.666C185.381 454.591 185.528 454.552 185.678 454.552C185.827 454.552 185.974 454.591 186.104 454.666C186.234 454.741 186.342 454.849 186.417 454.979C186.492 455.109 186.531 455.256 186.53 455.406V493.127C186.529 493.276 186.49 493.421 186.415 493.55C186.34 493.678 186.233 493.785 186.104 493.859L163.863 506.68V550.947C163.864 551.097 163.824 551.244 163.75 551.374C163.675 551.504 163.567 551.612 163.437 551.687L122.518 575.259C122.388 575.334 122.241 575.374 122.092 575.374C121.942 575.374 121.795 575.334 121.665 575.259C121.535 575.184 121.427 575.076 121.353 574.946C121.278 574.816 121.239 574.669 121.239 574.519V531.205L43.8087 575.889C43.6788 575.963 43.5318 576.001 43.3825 576ZM44.235 541.412V573.676L121.699 529.017C121.829 528.943 121.976 528.903 122.126 528.903C122.275 528.903 122.422 528.943 122.552 529.017C122.682 529.092 122.79 529.2 122.865 529.33C122.94 529.46 122.979 529.608 122.978 529.758V573.004L162.192 550.41V506.186C162.191 506.036 162.231 505.888 162.305 505.758C162.38 505.628 162.488 505.52 162.618 505.445L184.859 492.625V456.871L163.471 469.197C163.341 469.272 163.194 469.311 163.045 469.311C162.895 469.311 162.748 469.272 162.618 469.197C162.489 469.123 162.382 469.016 162.308 468.888C162.233 468.759 162.193 468.614 162.192 468.465V363.756L122.126 386.869L44.235 541.412ZM87.805 512.69C87.6597 512.689 87.5169 512.652 87.3902 512.581C87.2635 512.51 87.1571 512.407 87.0811 512.284C87.0051 512.16 86.962 512.019 86.9559 511.874C86.9498 511.729 86.9809 511.585 87.0463 511.455L121.393 444.203C121.48 444.034 121.621 443.898 121.795 443.818C121.968 443.739 122.163 443.719 122.349 443.763C122.534 443.807 122.7 443.913 122.819 444.062C122.937 444.211 123.003 444.396 123.004 444.586V492.046C123.004 492.196 122.965 492.343 122.89 492.473C122.816 492.603 122.708 492.711 122.578 492.786L88.2313 512.587C88.1005 512.658 87.9536 512.693 87.805 512.69ZM121.299 448.162L89.8424 509.668L121.273 491.544L121.299 448.162Z" fill="#4CBDC7"/>
<path d="M375.439 392.249C374.172 392.184 372.951 391.759 371.918 391.023C371.769 390.917 371.661 390.764 371.611 390.589C371.479 390.23 371.457 389.841 371.546 389.47C371.636 389.099 371.834 388.762 372.114 388.503C372.55 388.164 373.005 387.851 373.478 387.567C374.809 386.775 375.892 385.628 376.607 384.255C376.949 383.692 377.368 383.179 377.851 382.731L379.002 383.983C378.637 384.328 378.319 384.721 378.056 385.149C377.208 386.743 375.94 388.076 374.39 389.005C373.974 389.267 373.573 389.551 373.188 389.857C373.879 390.282 375.268 390.887 376.3 390.402C377.653 389.817 378.876 388.969 379.897 387.907C380.01 387.773 380.161 387.676 380.33 387.63C380.499 387.585 380.679 387.592 380.844 387.652C381.024 387.716 381.177 387.839 381.278 388.001L381.986 387.643C382.229 386.501 382.366 385.338 382.395 384.17C382.347 384.085 382.29 384.005 382.225 383.932L383.529 382.834C383.702 383.032 383.848 383.253 383.964 383.489C384.058 383.693 384.339 384.289 383.665 387.924C383.645 388.176 383.56 388.418 383.418 388.627C383.276 388.836 383.082 389.005 382.855 389.116L380.946 390.087C380.816 390.161 380.669 390.201 380.52 390.201C380.37 390.201 380.223 390.161 380.093 390.087C379.14 390.829 378.105 391.46 377.008 391.968C376.512 392.175 375.976 392.271 375.439 392.249Z" fill="#4CBDC7"/>
<path d="M395.711 403.579C394.448 403.509 393.231 403.084 392.199 402.354C392.051 402.243 391.943 402.088 391.892 401.911C391.758 401.553 391.734 401.163 391.823 400.791C391.913 400.42 392.112 400.083 392.395 399.825C392.915 399.425 393.358 399.144 393.759 398.889C395.091 398.099 396.175 396.952 396.887 395.577C397.195 395.076 397.561 394.613 397.978 394.198L399.172 395.416C398.844 395.733 398.557 396.09 398.319 396.48C397.472 398.072 396.204 399.403 394.654 400.328C394.239 400.59 393.837 400.874 393.452 401.179C394.142 401.596 395.532 402.209 396.563 401.715C397.915 401.132 399.138 400.288 400.161 399.229C400.247 399.125 400.357 399.043 400.481 398.99C400.605 398.937 400.74 398.914 400.875 398.923C401.01 398.932 401.141 398.973 401.257 399.043C401.373 399.112 401.47 399.208 401.542 399.323L402.249 398.957C402.494 397.806 402.631 396.635 402.659 395.458C402.659 395.458 402.659 395.458 402.607 395.399L404.005 394.428C404.092 394.548 404.166 394.677 404.227 394.811C404.321 395.007 404.602 395.611 403.929 399.246C403.904 399.501 403.812 399.745 403.663 399.953C403.513 400.161 403.311 400.325 403.076 400.43L401.158 401.409C401.029 401.483 400.882 401.523 400.732 401.523C400.582 401.523 400.435 401.483 400.306 401.409C399.351 402.151 398.316 402.785 397.22 403.299C396.741 403.493 396.228 403.588 395.711 403.579Z" fill="#4CBDC7"/>
<path d="M380.272 385.728C379.781 385.739 379.295 385.628 378.857 385.404C378.587 385.271 378.357 385.068 378.191 384.817C378.025 384.566 377.928 384.275 377.911 383.974V383.659L378.764 383.557L379.616 383.498L378.764 383.557H379.616V383.881C379.834 383.986 380.073 384.041 380.315 384.041C380.557 384.041 380.796 383.986 381.014 383.881L381.108 383.557L382.762 383.932C382.73 384.196 382.644 384.452 382.511 384.683C382.378 384.914 382.199 385.116 381.986 385.277C381.462 385.569 380.873 385.724 380.272 385.728Z" fill="#4CBDC7"/>
<path d="M400.74 397.638C400.624 397.646 400.507 397.646 400.391 397.638C400.07 397.609 399.759 397.514 399.476 397.361C399.193 397.207 398.944 396.997 398.746 396.744C398.431 396.201 398.25 395.591 398.217 394.965L399.922 394.701C399.958 395.063 400.035 395.42 400.152 395.765C400.279 395.874 400.437 395.94 400.604 395.952C400.961 395.979 401.316 395.883 401.61 395.68C401.693 395.431 401.761 395.178 401.815 394.922L403.477 395.297C403.425 395.904 403.177 396.478 402.769 396.931C402.196 397.395 401.478 397.644 400.74 397.638Z" fill="#4CBDC7"/>
<path d="M373.922 267.305L372.259 266.931C373.325 262.206 375.516 259.482 378.269 259.456C379.544 259.417 380.818 259.537 382.063 259.814L381.671 261.474C380.551 261.231 379.406 261.125 378.261 261.159C376.419 261.202 374.783 263.5 373.922 267.305Z" fill="#4CBDC7"/>
<path d="M385.404 263.568H384.918C380.656 263.168 379.718 258.29 379.181 255.379C378.991 253.996 378.891 252.603 378.883 251.207C378.883 250.075 378.883 249.198 378.883 249.198H380.588C380.588 249.198 380.588 250.05 380.588 251.165C380.597 252.469 380.688 253.771 380.861 255.064C381.602 259.099 382.566 261.644 385.123 261.874C385.754 261.897 386.384 261.789 386.971 261.556C387.558 261.323 388.09 260.97 388.533 260.52L389.718 261.746C388.569 262.887 387.024 263.539 385.404 263.568Z" fill="#4CBDC7"/>
<path d="M393.264 246.568C392.821 245.538 392.906 244.44 390.408 243.163C388.277 242.082 383.435 241.698 380.503 244.388C378.048 246.636 377.945 251.514 380.341 251.633C381.099 251.676 381.858 250.96 382.293 251.173C382.579 251.422 382.932 251.582 383.307 251.633C384.111 251.618 384.899 251.414 385.609 251.037C387.987 249.845 388.056 249.292 389.241 250.135C389.547 250.369 389.807 250.657 390.008 250.986C390.237 251.685 390.385 252.407 390.451 253.14C390.451 253.14 390.562 253.14 391.09 252.765C392.156 251.956 392.582 252.825 392.582 252.825C392.582 252.825 394.526 249.513 393.264 246.568Z" fill="#4CBDC7"/>
<path d="M345.705 0H344V231.679H345.705V0Z" fill="#4CBDC7"/>
<path d="M349.907 241.332C349.817 240.228 349.59 239.139 349.234 238.089C348.339 235.535 346.676 234.037 344.486 233.756C343.176 233.634 341.857 233.854 340.658 234.394L340.002 232.828C341.476 232.167 343.099 231.906 344.707 232.07C347.546 232.428 349.72 234.369 350.837 237.527C351.243 238.705 351.501 239.929 351.604 241.171L349.907 241.332Z" fill="#4CBDC7"/>
<path d="M239.188 442.518L210.135 420.461L211.167 419.107L240.219 441.164L239.188 442.518ZM185.738 392.24C181.475 380.11 180.392 364.556 182.609 347.25C185.899 321.524 195.959 294.631 210.937 271.485C227.603 245.776 248.88 226.979 272.485 217.113C292.425 208.779 309.185 208.975 320.957 217.692L360.393 247.725L359.361 249.079L319.934 219.097C308.682 210.762 292.502 210.635 273.142 218.73C222.948 239.706 190.452 299.373 184.297 347.463C182.114 364.488 183.172 379.812 187.349 391.67L185.738 392.24ZM267.865 359.466L266.646 358.265C279.05 345.768 288.896 323.363 291.734 301.229L293.439 301.45C290.541 323.933 280.507 346.713 267.865 359.466Z" fill="#4CBDC7"/>
<path d="M260.696 449.09C255.485 449.156 250.317 448.151 245.513 446.136C236.332 442.186 229.512 434.49 225.258 423.253L226.852 422.649C230.936 433.443 237.44 440.815 246.187 444.578C256.919 449.184 270.525 448.119 286.611 441.394C339.132 419.439 369.48 359.27 375.448 312.654C376.01 308.286 376.368 303.97 376.505 299.833L378.21 299.884C378.065 304.081 377.707 308.448 377.144 312.866C373.845 338.643 363.811 365.519 348.901 388.555C332.278 414.247 310.958 433.06 287.267 442.961C277.541 447.047 268.641 449.09 260.696 449.09ZM222.786 414.928C220.271 404.091 219.888 390.955 221.678 376.943C224.977 351.209 235.036 324.316 250.014 301.178C266.68 275.469 287.958 256.664 311.554 246.806C330.556 238.855 346.148 238.566 357.887 245.955C369.821 253.446 377.042 269.059 378.15 289.907L376.445 290.001C375.354 269.715 368.44 254.587 356.974 247.436C345.73 240.388 330.667 240.728 312.211 248.441C262.026 269.391 229.529 329.058 223.349 377.122C221.576 390.938 221.951 403.869 224.423 414.51L222.786 414.928ZM283.661 400.958C280.498 401.007 277.411 399.991 274.898 398.072C267.175 392.207 264.029 377.301 266.476 358.198C269.792 332.352 283.525 300.31 305.911 290.946C313.276 287.864 319.389 288.111 324.069 291.678C331.741 297.501 334.836 312.424 332.38 331.603C329.073 357.448 315.331 389.491 292.945 398.855C290.02 400.162 286.865 400.877 283.661 400.958ZM315.305 290.495C312.289 290.577 309.319 291.257 306.567 292.495C284.821 301.578 271.42 333.033 268.206 358.41C265.836 376.909 268.735 391.228 275.964 396.719C280.132 399.885 285.631 400.081 292.323 397.28C314.069 388.189 327.47 356.742 330.684 331.356L331.537 331.467L330.684 331.356C333.062 312.798 330.207 298.454 323.012 293.006C320.795 291.337 318.081 290.458 315.305 290.512V290.495Z" fill="#4CBDC7"/>
<path d="M221.175 298.973C220.703 298.974 220.239 298.844 219.837 298.599C216.341 296.521 214.85 291.354 215.736 284.425C216.785 276.218 221.115 266.548 228.404 263.534C229.877 262.866 231.501 262.602 233.11 262.768C235.948 263.134 238.122 265.075 239.239 268.225C239.939 270.391 240.228 272.669 240.091 274.941C240.084 275.429 239.973 275.909 239.764 276.349C239.555 276.79 239.254 277.181 238.881 277.495C238.509 277.808 238.076 278.041 237.609 278.179C237.143 278.317 236.653 278.356 236.17 278.295C235.562 278.215 235.008 277.906 234.62 277.431C234.232 276.957 234.039 276.353 234.081 275.741C234.299 273.907 234.142 272.048 233.621 270.276C233.11 268.837 232.538 268.769 232.351 268.744C231.785 268.72 231.223 268.837 230.714 269.084C225.906 271.051 222.496 278.687 221.644 285.182C221.064 289.762 221.857 292.665 222.837 293.423C223.209 293.727 223.496 294.122 223.669 294.569C223.842 295.017 223.896 295.502 223.826 295.977L223.732 296.717C223.68 297.143 223.522 297.548 223.271 297.896C223.021 298.244 222.687 298.524 222.3 298.709C221.95 298.882 221.565 298.972 221.175 298.973ZM232.155 264.411C231.09 264.433 230.041 264.667 229.069 265.1C222.394 267.884 218.413 276.925 217.424 284.637C216.64 290.775 217.867 295.449 220.706 297.143C220.837 297.212 220.984 297.248 221.132 297.248C221.281 297.248 221.427 297.212 221.559 297.143C221.689 297.08 221.801 296.986 221.884 296.868C221.968 296.751 222.02 296.614 222.036 296.47L222.138 295.721C222.169 295.54 222.153 295.354 222.094 295.18C222.034 295.006 221.932 294.85 221.797 294.725C220.092 293.389 219.351 289.618 219.956 284.927C220.851 277.946 224.602 269.697 230.041 267.424C230.826 267.058 231.691 266.897 232.555 266.956C233.749 267.109 234.644 268.003 235.215 269.612C235.821 271.607 236.012 273.704 235.778 275.776C235.758 275.956 235.81 276.136 235.921 276.279C236.032 276.422 236.195 276.516 236.375 276.542C236.622 276.573 236.874 276.552 237.114 276.48C237.353 276.408 237.574 276.287 237.764 276.125C237.953 275.97 238.106 275.777 238.213 275.558C238.321 275.339 238.38 275.1 238.386 274.856C238.508 272.795 238.251 270.729 237.628 268.761C236.733 266.207 235.07 264.7 232.879 264.428C232.639 264.405 232.396 264.399 232.155 264.411Z" fill="#4CBDC7"/>
<path d="M184.834 515.635C183.845 515.533 182.884 515.244 182.004 514.783C181.236 514.571 181.151 513.43 181.091 512.919C180.977 511.922 181.026 510.913 181.236 509.931L182.941 510.297C182.772 511.091 182.732 511.908 182.822 512.715C182.822 513.013 182.882 513.191 182.899 513.311C183.514 513.596 184.165 513.796 184.834 513.907C184.977 513.768 185.11 513.62 185.235 513.464V513.149C185.245 512.97 185.311 512.799 185.424 512.659C185.538 512.52 185.692 512.421 185.865 512.374C186.348 512.26 186.821 512.11 187.28 511.923C188.51 511.226 189.639 510.367 190.639 509.369L191.884 510.535C190.779 511.661 189.525 512.632 188.159 513.421C187.756 513.625 187.333 513.785 186.897 513.898C186.882 514.056 186.823 514.206 186.726 514.332C186.408 514.846 185.957 515.267 185.422 515.55C185.233 515.615 185.034 515.644 184.834 515.635ZM182.276 513.149C182.35 513.141 182.424 513.141 182.498 513.149C182.424 513.14 182.35 513.14 182.276 513.149Z" fill="#4CBDC7"/>
<path d="M187.698 508.705L187.118 507.105C187.466 506.979 187.8 506.819 188.116 506.628C188.647 506.308 189.25 506.126 189.869 506.099C190.489 506.072 191.106 506.202 191.662 506.475L190.886 507.99C190.59 507.852 190.265 507.787 189.938 507.802C189.612 507.817 189.293 507.911 189.011 508.075C188.598 508.333 188.158 508.544 187.698 508.705Z" fill="#4CBDC7"/>
<path d="M195.797 519.73L192.088 519.585C191.947 519.58 191.809 519.541 191.687 519.469C191.565 519.398 191.463 519.297 191.389 519.177L191.125 518.734C190.878 518.47 190.852 517.976 190.818 517.091L192.523 517.014C192.523 517.474 192.523 517.713 192.583 517.866V517.942L195.208 518.044L195.328 517.747C195.383 517.617 195.47 517.504 195.58 517.416C195.69 517.329 195.82 517.269 195.959 517.244C195.959 517.244 197.263 516.997 197.664 516.929C200.221 516.512 201.67 515.533 202.267 514.69C202.233 514.585 202.19 514.483 202.139 514.384C202.1 514.333 202.066 514.279 202.037 514.222C201.849 513.848 200.775 513.371 199.394 513.669C198.913 513.776 198.426 513.855 197.936 513.907L197.766 512.205C198.179 512.163 198.588 512.097 198.993 512.009C200.886 511.549 202.872 512.162 203.537 513.405C203.747 513.68 203.886 514.003 203.941 514.345C203.996 514.686 203.965 515.036 203.853 515.363C202.932 516.955 200.775 518.138 197.936 518.598L196.7 518.819L196.521 519.236C196.457 519.376 196.355 519.496 196.227 519.583C196.1 519.67 195.951 519.721 195.797 519.73Z" fill="#4CBDC7"/>
<path d="M190.835 517.218C190.712 516.09 190.819 514.949 191.151 513.864C191.274 513.591 191.435 513.336 191.628 513.106L192.924 514.222C192.836 514.321 192.764 514.433 192.711 514.554C192.498 515.387 192.438 516.252 192.532 517.108L190.835 517.218Z" fill="#4CBDC7"/>
<path d="M194.578 515.984C194.144 516.018 193.71 515.941 193.314 515.761C192.919 515.581 192.576 515.303 192.319 514.954C192.139 514.648 192.012 514.314 191.943 513.966L193.648 513.592C193.677 513.752 193.728 513.907 193.802 514.051C193.973 514.165 194.166 514.241 194.369 514.276C194.571 514.311 194.779 514.305 194.978 514.256C195.447 514.179 195.771 513.975 195.831 513.822L197.485 514.23C197.326 514.703 197.029 515.118 196.633 515.421C196.236 515.725 195.758 515.903 195.26 515.933C195.034 515.972 194.806 515.989 194.578 515.984Z" fill="#4CBDC7"/>
<path d="M220.195 435.461C219.93 435.461 219.7 435.461 219.521 435.461C218.865 435.41 217.211 435.086 217.023 435.044C216.836 435.001 212.761 433.835 211.371 431.408L209.76 430.693L210.451 429.136L212.284 429.987C212.424 430.05 212.545 430.15 212.633 430.276L212.795 430.506C213.707 432.098 216.444 433.154 217.424 433.426C217.833 433.503 219.189 433.758 219.658 433.801C220.23 433.858 220.808 433.809 221.362 433.656C221.597 433.205 221.777 432.728 221.9 432.234C221.777 432.2 221.663 432.138 221.567 432.055C221.471 431.971 221.396 431.866 221.345 431.749L220.391 429.416C220.335 429.245 220.335 429.06 220.391 428.889C220.067 428.667 219.436 428.352 218.958 428.105L218.063 427.646C217.543 427.373 215.719 427.569 214.33 427.918C214.2 427.951 214.064 427.952 213.934 427.922C213.804 427.893 213.682 427.833 213.579 427.748L211.994 426.437L213.076 425.126L214.338 426.165C215.378 425.935 217.697 425.535 218.856 426.165C219.155 426.326 219.444 426.471 219.709 426.607C221.132 427.331 222.07 427.799 222.189 428.65C222.215 428.827 222.2 429.008 222.147 429.178L222.769 430.676C223.029 430.774 223.253 430.949 223.408 431.179C223.971 432.03 223.408 433.494 222.854 434.584C222.377 435.299 221.107 435.461 220.195 435.461Z" fill="#4CBDC7"/>
<path d="M208.703 431.553C208.541 431.556 208.38 431.533 208.226 431.485C207.7 431.292 207.19 431.059 206.7 430.787L207.501 429.28C207.901 429.509 208.32 429.703 208.754 429.859C209.536 429.381 210.175 428.702 210.604 427.892C211.213 427.091 211.585 426.136 211.678 425.134C210.779 424.409 209.946 423.606 209.189 422.733L210.451 421.593C211.145 422.4 211.912 423.141 212.744 423.806C213.639 424.453 213.596 425.875 212.616 427.799C211.866 429.28 210.272 431.553 208.703 431.553Z" fill="#4CBDC7"/>
<path d="M211.047 390.904L209.709 389.891C210.875 388.363 211.953 386.772 212.94 385.124L214.398 385.975C213.383 387.685 212.264 389.331 211.047 390.904Z" fill="#4CBDC7"/>
<path d="M194.902 514.954C194.493 514.951 194.085 514.914 193.683 514.843C191.56 514.452 190.273 513.141 190.324 511.549V511.259C190.631 504.662 191.628 488.717 194.407 481.941C194.186 480.834 193.964 479.736 193.742 478.655C193.325 480.357 192.839 482.06 192.284 483.695C189.974 490.454 188.099 508.501 188.073 508.68C187.954 509.889 186.624 510.723 184.501 510.919C182.745 511.072 180.554 510.774 180.162 509.412C179.429 506.858 179.156 502.602 179.31 496.404H181.015C180.853 502.363 181.117 506.569 181.782 508.901C183.013 509.313 184.345 509.313 185.575 508.901C186.155 508.705 186.36 508.484 186.36 508.425C186.36 508.365 188.278 490.003 190.622 483.056C191.585 480.213 192.32 477.298 192.822 474.339C192.856 474.139 192.961 473.958 193.117 473.828C193.273 473.699 193.471 473.629 193.674 473.632C193.87 473.627 194.062 473.689 194.217 473.809C194.372 473.928 194.481 474.097 194.526 474.288C195.098 476.722 195.626 479.242 196.121 481.788C196.148 481.955 196.127 482.126 196.061 482.281C193.325 488.658 192.327 504.662 192.02 511.225V511.625C192.02 512.477 193.052 512.987 193.981 513.158C195.353 513.413 197.05 513.073 197.391 512.068C198.337 508.382 203.776 485.559 203.836 485.329C204.088 484.327 204.223 483.298 204.236 482.264C203.878 477.795 204.194 470.84 204.526 463.476C204.824 456.921 205.131 450.145 204.901 445.548C204.824 443.922 204.62 440.1 204.407 437.274L206.112 437.146C206.316 439.989 206.529 443.829 206.606 445.463C206.845 450.145 206.529 456.956 206.231 463.553C205.916 470.542 205.583 477.761 205.933 482.086C205.943 483.308 205.797 484.527 205.498 485.712C205.438 485.95 199.991 508.791 199.019 512.553C198.473 514.222 196.709 514.954 194.902 514.954Z" fill="#4CBDC7"/>
<path d="M178.568 451.797L178.381 450.418C177.579 444.527 176.948 439.879 176.948 438.61C177.074 435.102 177.73 431.632 178.892 428.318L180.503 428.863C179.405 432.002 178.782 435.288 178.653 438.61C178.653 439.768 179.31 444.569 180.069 450.188L180.265 451.567L178.568 451.797Z" fill="#4CBDC7"/>
<path d="M199.735 440.117C198.567 440.109 197.4 440.038 196.24 439.904C187.545 438.968 179.19 431.391 178.577 427.909C178.177 425.382 178.75 422.797 180.179 420.673C182.507 416.545 182.865 413.403 183.589 407.155C183.862 404.754 184.177 402.047 184.663 398.642C186.368 386.724 187.903 382.059 192.966 379.573C195.729 378.22 200.042 377.487 204.901 381.71C204.999 381.795 205.076 381.902 205.126 382.021C205.176 382.141 205.198 382.27 205.191 382.399C205.184 382.529 205.148 382.656 205.084 382.77C205.02 382.883 204.932 382.981 204.824 383.055C204.508 383.288 204.246 383.587 204.056 383.931C203.867 384.275 203.753 384.655 203.725 385.047C203.725 386.119 204.731 387.311 206.572 388.452C207.847 389.116 209.234 389.538 210.664 389.695C210.781 389.709 210.893 389.748 210.995 389.808C211.096 389.868 211.184 389.948 211.252 390.044C214.006 393.798 215.31 395.901 216.231 400.259C216.316 400.717 216.353 401.182 216.341 401.647V401.894L214.636 401.945V401.673C214.646 401.319 214.621 400.965 214.56 400.617C213.707 396.667 212.599 394.786 210.084 391.338C208.53 391.127 207.028 390.634 205.651 389.882C203.264 388.358 202.045 386.724 202.02 385.021C202.022 384.036 202.389 383.087 203.051 382.357C199.948 379.982 196.811 379.539 193.674 381.063C189.582 383.072 188.065 386.724 186.309 398.846C185.823 402.209 185.516 404.916 185.243 407.3C184.527 413.582 184.135 417.038 181.637 421.465C180.414 423.253 179.911 425.436 180.23 427.577C180.665 430.131 188.269 437.299 196.428 438.167C200.4 438.602 202.796 438.346 203.972 437.384C204.322 437.057 204.6 436.662 204.79 436.222C204.979 435.783 205.075 435.309 205.072 434.83C205.37 431.527 207.109 426.513 208.857 421.652L210.442 417.26L212.053 417.839L210.459 422.24C208.823 426.786 207.049 431.893 206.768 435.009C206.757 435.711 206.6 436.402 206.306 437.04C206.013 437.678 205.589 438.247 205.063 438.712C203.921 439.657 202.258 440.117 199.735 440.117Z" fill="#4CBDC7"/>
<path d="M223.775 371.162C222.837 366.412 216.392 365.033 216.392 365.033C215.211 364.57 213.95 364.345 212.681 364.373C211.412 364.401 210.161 364.68 209.002 365.195C203.887 367.442 204.475 372.473 204.5 374.082C204.5 377.343 205.404 378.194 206.052 380.476C207.143 384.315 212.326 381.736 212.65 380.39C212.855 379.539 212.531 378.364 213.162 377.624C214.116 376.509 214.773 380.016 216.401 379.42C217.433 379.037 218.635 377.036 219.351 374.661C220.859 375.027 221.755 375.683 222.76 375.649C223.766 375.615 224.525 374.959 223.775 371.162Z" fill="#4CBDC7"/>
<path d="M225.906 423.696C222.189 423.696 218.038 423.168 215.421 421.525C215.114 421.321 214.781 421.125 214.432 420.912C210.672 418.631 204.986 415.183 204.918 405.24C204.87 403.408 205.534 401.629 206.77 400.276C208.007 398.922 209.72 398.099 211.55 397.978C212.135 397.913 212.727 397.966 213.29 398.137C213.853 398.307 214.375 398.59 214.825 398.968C215.275 399.346 215.643 399.812 215.907 400.337C216.17 400.862 216.324 401.436 216.358 402.022C217.211 411.463 220.578 412.782 223.042 413.753C224.704 414.408 228.574 414.493 230.876 414.536H232.018C232.337 414.549 232.648 414.641 232.923 414.803C233.198 414.965 233.429 415.192 233.595 415.464C234.755 417.115 234.763 420.963 234.448 422.019C234.362 422.215 234.232 422.388 234.068 422.525C233.904 422.663 233.71 422.76 233.502 422.811C231.022 423.451 228.467 423.749 225.906 423.696ZM206.623 405.214C206.683 414.204 211.678 417.226 215.318 419.439L216.333 420.061C220.783 422.87 231.038 421.891 232.854 421.244C232.999 420.248 232.922 417.481 232.197 416.46C232.155 416.392 232.053 416.256 231.967 416.247H230.842C228.114 416.187 224.363 416.111 222.42 415.345C218.967 413.991 215.523 411.863 214.653 402.184C214.634 401.816 214.539 401.457 214.374 401.129C214.209 400.8 213.977 400.509 213.693 400.275C213.409 400.04 213.08 399.867 212.726 399.766C212.372 399.666 212.001 399.639 211.636 399.689C210.244 399.79 208.946 400.424 208.012 401.458C207.077 402.492 206.58 403.848 206.623 405.24V405.214Z" fill="#4CBDC7"/>
<path d="M239.767 421.652H239.307C238.261 421.72 237.212 421.554 236.238 421.167L233.868 421.457L233.655 419.754L236.272 419.431C236.442 419.409 236.614 419.438 236.767 419.516C237.57 419.867 238.45 420.011 239.324 419.933H239.784C240.898 419.798 241.988 419.511 243.024 419.081L243.143 419.03C243.894 418.795 244.629 418.51 245.343 418.179C245.75 417.902 246.117 417.57 246.434 417.192C246.408 417.08 246.408 416.963 246.434 416.851L246.834 414.51C246.025 414.578 243.996 414.638 243.748 414.646C243.587 414.651 243.427 414.609 243.288 414.526C243.149 414.443 243.037 414.322 242.964 414.178C242.908 414.07 242.876 413.951 242.87 413.829C242.24 413.838 241.611 413.884 240.986 413.965C239.902 414.296 238.898 414.847 238.037 415.583L236.647 416.783C236.506 416.909 236.325 416.982 236.136 416.987L233.169 417.141L233.084 415.438L235.752 415.302L236.946 414.28C237.201 414.067 239.273 412.433 240.799 412.271C242.819 412.05 243.817 412.041 244.396 412.569C244.501 412.667 244.587 412.782 244.652 412.91C245.573 412.91 246.553 412.842 246.843 412.799C247.198 412.748 247.56 412.819 247.87 412.999C248.179 413.18 248.418 413.461 248.548 413.795C248.597 413.952 248.617 414.116 248.608 414.28L248.147 416.936C248.207 417.354 248.11 417.778 247.874 418.128C247.409 418.719 246.85 419.231 246.221 419.643C245.445 420.021 244.645 420.345 243.825 420.614H243.774C242.493 421.145 241.145 421.494 239.767 421.652Z" fill="#4CBDC7"/>
<path d="M228.583 0H226.878V262.112H228.583V0Z" fill="#4CBDC7"/>
<path d="M348.876 239.289L347.29 238.651C347.545 238.002 347.675 237.312 347.674 236.616C347.674 234.403 346.378 232.53 344.852 232.53C344.524 232.545 344.203 232.629 343.909 232.775C343.616 232.922 343.356 233.128 343.147 233.381L341.843 232.3C342.211 231.851 342.672 231.487 343.195 231.233C343.717 230.979 344.288 230.84 344.869 230.827C347.367 230.827 349.396 233.424 349.396 236.616C349.391 237.532 349.214 238.438 348.876 239.289Z" fill="#4CBDC7"/>
<path d="M360.64 301.655C359.344 301.655 356.881 301.468 356.591 300.071C356.301 298.675 355.781 294.964 358.21 294.019C359.182 293.653 361.757 293.057 365.03 292.316C369.293 291.329 374.629 290.086 377.817 289.022C382.208 287.532 384.526 283.241 386.777 279.096C388.524 275.878 390.187 272.83 392.744 270.915C398.157 266.88 401.047 268.412 402.036 269.263C403.741 270.745 404.125 273.52 402.889 275.912C398.302 284.561 391.542 295.492 385.37 298.445C380.903 300.591 373.146 300.999 366.914 301.306C364.936 301.408 363.07 301.51 361.501 301.646C361.45 301.629 361.109 301.655 360.64 301.655ZM358.227 299.586C359.215 299.903 360.255 300.021 361.288 299.935C362.89 299.791 364.774 299.697 366.761 299.595C372.847 299.28 380.4 298.888 384.569 296.896C389.13 294.708 394.918 287.174 401.329 275.095C402.181 273.452 402.011 271.494 400.894 270.54C399.479 269.331 396.802 269.97 393.733 272.243C391.465 273.945 389.905 276.823 388.252 279.904C385.848 284.348 383.358 288.937 378.337 290.631C375.089 291.729 369.719 292.972 365.405 293.976C362.336 294.691 359.677 295.304 358.807 295.628C357.938 295.951 357.886 297.875 358.227 299.586Z" fill="#4CBDC7"/>
<path d="M352.073 301.587C350.845 301.587 349.566 301.527 349.515 301.527C348.567 301.423 347.627 301.252 346.702 301.016C345.988 300.727 345.323 300.328 344.733 299.833C344.631 299.731 344.332 299.39 343.88 298.812C343.194 298.072 342.745 297.144 342.593 296.147C342.636 295.852 342.723 295.566 342.849 295.296C342.901 295.176 342.946 295.054 342.985 294.93C343.066 294.562 343.266 294.232 343.554 293.99C343.843 293.749 344.203 293.609 344.579 293.593C345.148 293.574 345.718 293.591 346.284 293.644C346.326 293.458 346.414 293.285 346.54 293.142C347.06 292.728 347.72 292.533 348.381 292.597C349.067 292.591 349.748 292.482 350.402 292.274C350.964 292.061 351.825 292.172 354.246 293.423L354.374 293.491C354.639 293.627 356.48 294.206 358.023 294.657L357.546 296.292C356.167 295.926 354.812 295.477 353.488 294.947C352.695 294.466 351.832 294.11 350.93 293.891C350.137 294.15 349.309 294.288 348.475 294.3H347.947C347.941 294.425 347.927 294.551 347.904 294.674C347.866 294.871 347.76 295.048 347.604 295.174C347.448 295.3 347.252 295.368 347.052 295.364L346.429 295.321C345.875 295.321 345.116 295.228 344.724 295.253C344.705 295.247 344.684 295.247 344.665 295.253C344.607 295.466 344.533 295.674 344.443 295.875C344.443 295.968 344.358 296.087 344.332 296.173C344.501 296.631 344.727 297.065 345.006 297.467C345.066 297.511 345.12 297.562 345.168 297.62C345.168 297.62 345.807 298.386 345.96 298.531C346.368 298.876 346.821 299.162 347.307 299.382C348.099 299.572 348.902 299.714 349.711 299.808C350.461 299.808 352.772 299.91 353.675 299.808C354.783 299.68 357.298 299.05 357.324 299.041L357.742 300.693C357.631 300.693 355.082 301.357 353.871 301.493C353.274 301.558 352.673 301.589 352.073 301.587Z" fill="#4CBDC7"/>
<path d="M393.69 244.95C392.616 242.771 391.696 243.052 390.818 242.626C388.942 241.724 389.113 240.643 383.069 241.775C380.631 242.234 379.659 244.907 379.139 246.882C378.758 248.756 378.982 250.702 379.778 252.441C379.778 252.016 379.778 251.59 379.735 251.19C379.735 250.075 379.735 249.206 379.735 249.206C379.13 246.533 390.775 246.074 391.389 248.806C391.389 248.806 391.389 250.56 391.389 252.484L391.627 252.441C392.523 252.356 392.847 252.782 392.702 253.684C392.623 254.123 392.421 254.531 392.119 254.86C391.817 255.188 391.428 255.424 390.997 255.54C390.997 255.983 391.235 256.196 391.21 256.519C391.261 257.285 391.195 258.054 391.014 258.801C391.329 258.707 391.261 258.562 391.423 258.332C392.847 256.238 394.04 256.783 394.296 253.523C394.355 252.382 395.617 248.866 393.69 244.95Z" fill="#4CBDC7"/>
<path d="M227.705 272.838C227.295 272.842 226.891 272.744 226.528 272.554C226.165 272.364 225.855 272.087 225.625 271.749C225.545 271.597 225.513 271.425 225.533 271.255C225.553 271.085 225.623 270.925 225.736 270.795L227.04 271.893C227.155 271.752 227.221 271.576 227.229 271.394C227.236 271.212 227.185 271.032 227.083 270.88C227.262 271.049 227.501 271.14 227.748 271.136C229.359 271.042 230.62 269.246 230.62 267.05C230.62 264.853 229.325 262.963 227.799 262.963C227.471 262.979 227.15 263.063 226.856 263.21C226.563 263.356 226.303 263.562 226.094 263.815C225.687 264.311 225.387 264.885 225.213 265.501C225.038 266.118 224.993 266.764 225.079 267.399L223.374 267.526C223.269 266.658 223.345 265.777 223.597 264.939C223.85 264.101 224.273 263.324 224.841 262.657C225.217 262.234 225.677 261.895 226.193 261.66C226.708 261.426 227.267 261.301 227.833 261.295C230.331 261.295 232.359 263.891 232.359 267.084C232.359 270.276 230.433 272.719 227.884 272.864L227.705 272.838Z" fill="#4CBDC7"/>
<path d="M187.752 452.432L186.123 452.934L192.884 474.824L194.513 474.323L187.752 452.432Z" fill="#4CBDC7"/>
<path d="M216.009 387.388C215.419 387.354 214.843 387.194 214.319 386.92C213.796 386.645 213.337 386.262 212.974 385.796C212.444 385.109 212.089 384.302 211.943 383.447L213.605 383.064C213.687 383.635 213.906 384.179 214.244 384.647C214.456 384.937 214.726 385.18 215.037 385.358C215.349 385.537 215.694 385.649 216.052 385.685C216.793 385.685 217.646 385.047 218.609 383.864C220.314 381.676 221.823 377.283 221.644 374.815L223.349 374.695C223.587 377.905 221.746 382.663 219.939 384.911C218.652 386.528 217.381 387.337 216.12 387.371L216.009 387.388Z" fill="#4CBDC7"/>
<path d="M204.85 383.012L203.818 381.659C204.698 380.927 205.529 380.139 206.308 379.301L207.561 380.459C206.713 381.367 205.808 382.22 204.85 383.012Z" fill="#4CBDC7"/>
<path d="M401.235 396.08C399.924 396.19 398.622 395.78 397.612 394.939C397.368 394.705 397.173 394.425 397.039 394.115C396.904 393.806 396.832 393.472 396.828 393.135C396.828 391.432 393.699 369.094 392.369 363.527C392.08 362.622 391.724 361.74 391.304 360.888C390.872 360.016 390.504 359.114 390.204 358.189C388.772 352.843 387.501 341.614 386.871 335.4C385.824 339.252 385.334 343.234 385.413 347.224C385.413 347.846 385.618 349.421 385.779 350.953C385.959 352.656 386.155 354.477 386.18 355.21C386.393 360.317 385.66 368.932 385.072 375.887C384.884 378.16 384.705 380.255 384.577 381.991C384.538 382.473 384.362 382.933 384.071 383.319C383.78 383.704 383.385 384 382.932 384.17C382.072 384.538 381.136 384.694 380.204 384.625C379.271 384.557 378.368 384.267 377.57 383.779C377.291 383.641 377.054 383.433 376.882 383.174C376.709 382.916 376.609 382.616 376.59 382.306L376.53 381.812C375.396 370.175 374.569 360.224 374.203 353.779C374.035 352.597 373.731 351.437 373.299 350.323C372.904 349.315 372.619 348.268 372.447 347.199C372.114 341.285 372.097 335.357 372.396 329.441L374.101 329.509C373.807 335.354 373.822 341.211 374.143 347.054C374.305 347.984 374.556 348.897 374.893 349.778C375.377 351.037 375.709 352.349 375.882 353.686C376.24 360.105 377.067 370.039 378.201 381.651C378.201 381.889 378.244 382.068 378.252 382.178C378.817 382.591 379.48 382.848 380.175 382.926C380.87 383.004 381.574 382.899 382.216 382.621C382.753 382.383 382.838 382.093 382.855 381.864C382.983 380.161 383.154 378.024 383.35 375.743C383.938 368.839 384.663 360.249 384.45 355.312C384.45 354.639 384.236 352.869 384.057 351.166C383.878 349.463 383.725 348.016 383.691 347.352C383.282 339.58 386.351 331.084 386.479 330.726C386.546 330.547 386.673 330.396 386.837 330.297C387.002 330.199 387.195 330.159 387.385 330.183C387.576 330.208 387.752 330.296 387.886 330.433C388.02 330.57 388.104 330.749 388.124 330.939C388.124 331.135 389.871 350.519 391.824 357.78C392.102 358.617 392.438 359.434 392.829 360.224C393.302 361.171 393.696 362.157 394.006 363.169C395.404 369.026 398.498 391.347 398.507 393.169C398.512 393.282 398.539 393.393 398.588 393.495C398.636 393.597 398.704 393.689 398.788 393.765C399.508 394.284 400.396 394.515 401.278 394.412C401.639 394.437 402.001 394.372 402.331 394.224C402.661 394.075 402.95 393.847 403.17 393.56C403.17 392.709 403.707 372.414 402.633 364.327C402.548 363.697 402.181 362.114 401.857 360.726C401.576 359.526 401.303 358.393 401.209 357.815C400.442 353.252 401.252 344.73 401.959 337.205C402.369 332.889 402.752 328.803 402.752 326.257C402.752 323.712 402.002 318.8 400.587 312.449L402.249 312.075C403.255 316.595 404.457 322.716 404.457 326.257C404.457 328.879 404.074 332.999 403.656 337.367C402.957 344.781 402.164 353.192 402.889 357.534C402.982 358.053 403.238 359.16 403.511 360.334C403.869 361.841 404.227 363.39 404.321 364.106C405.412 372.321 404.892 392.726 404.875 393.594C404.875 394.914 403.17 396.106 401.295 396.148L401.235 396.08ZM378.286 382.23V382.289V382.23Z" fill="#4CBDC7"/>
<path d="M397.518 314.977C386.675 314.977 379.505 313.275 376.206 310.031L377.408 308.831C380.366 311.776 387.126 313.266 397.501 313.275C398.218 313.212 398.91 312.982 399.52 312.602C400.13 312.221 400.642 311.702 401.013 311.087C402.565 308.278 402.335 306.252 402.045 303.672C401.427 299.63 401.844 295.498 403.255 291.66C404.057 289.345 405.813 273.102 402.454 270.072C399.731 267.835 396.799 265.865 393.699 264.189C393.894 264.796 393.947 265.439 393.854 266.069C393.761 266.699 393.524 267.3 393.162 267.824C391.627 270.25 386.871 270.421 384.697 269.246C384.05 268.9 383.495 268.404 383.08 267.8C382.664 267.195 382.4 266.5 382.31 265.773C382.254 265.023 382.394 264.272 382.717 263.593C383.04 262.914 383.534 262.33 384.151 261.899L385.234 263.219C384.843 263.481 384.525 263.838 384.311 264.257C384.096 264.675 383.991 265.141 384.006 265.611C384.071 266.06 384.24 266.487 384.501 266.858C384.762 267.23 385.106 267.534 385.507 267.748C387.212 268.659 390.801 268.369 391.713 266.896C392.091 266.365 392.251 265.709 392.161 265.063C392.071 264.418 391.737 263.831 391.227 263.423C391.131 263.347 391.052 263.252 390.996 263.143C390.94 263.035 390.908 262.915 390.903 262.793V262.087C390.898 261.941 390.93 261.796 390.998 261.666C391.065 261.536 391.164 261.426 391.286 261.346C391.416 261.271 391.563 261.232 391.713 261.232C391.862 261.232 392.009 261.271 392.139 261.346L393.222 261.959C396.384 263.764 400.715 266.215 403.579 268.769C407.978 272.728 405.369 290.698 404.849 292.18C403.516 295.779 403.129 299.659 403.724 303.451C404.031 306.209 404.304 308.559 402.488 311.879C401.976 312.761 401.256 313.505 400.389 314.046C399.523 314.586 398.537 314.906 397.518 314.977Z" fill="#4CBDC7"/>
<path d="M466.066 193.771L465.213 195.031L463.602 194.801L462.264 194.392L462.076 193.243V192.758C461.139 193.266 460.346 194.004 459.774 194.903C457.635 197.976 456.919 199.16 454.233 200.368C453.981 200.522 453.77 200.737 453.621 200.993C453.473 201.248 453.39 201.537 453.381 201.833C453.825 202.65 454.534 203.293 455.393 203.654C455.901 203.803 456.435 203.842 456.959 203.77C457.483 203.698 457.987 203.517 458.436 203.237C460.162 202.158 461.827 200.984 463.423 199.721L463.355 200.147C464.099 199.823 464.796 199.399 465.426 198.887C465.86 197.828 466.102 196.702 466.142 195.559C466.279 194.876 466.238 194.169 466.023 193.507L466.066 193.771Z" fill="#4CBDC7"/>
<path d="M456.995 189.557L456.544 190.051L455.265 190.834L453.671 190.578L452.929 189.846L452.716 188.995L452.92 188.391C452.064 189.021 451.338 189.81 450.781 190.715C448.692 193.822 448.309 194.401 445.666 195.618C445.421 195.78 445.221 196 445.082 196.259C444.944 196.517 444.872 196.806 444.873 197.099C445.188 197.691 445.617 198.214 446.135 198.64C446.646 199.066 447.797 199.415 449.323 198.64C450.67 197.934 453.952 195.771 453.952 195.771L453.841 196.495C453.841 196.495 455.691 195.558 456.271 195.329C456.518 195.226 456.893 194.605 456.902 191.923C456.902 191.336 457.132 190.272 457.098 189.889C457.082 189.773 457.047 189.661 456.995 189.557Z" fill="#4CBDC7"/>
<path d="M503.14 82.0559C502.271 80.6962 501.106 79.5499 499.732 78.7023C498.358 77.8548 496.81 77.3279 495.203 77.1609C495.203 77.1609 493.149 75.5265 492.143 75.3477C487.139 74.4538 483.618 78.4975 481.385 82.8391C478.827 87.7936 480.532 95.7276 480.703 102.504L480.899 101.823L481.649 99.601L483.149 97.7962L484.377 97.2599L486.5 96.9449L488.153 96.7491L488.204 95.8979C485.894 95.2083 484.795 93.8207 484.292 90.7901C484.138 88.607 484.339 86.4134 484.888 84.2948C486.014 80.8896 495.195 82.3027 495.485 84.6778C495.485 84.6778 495.485 86.8742 495.34 88.8747C495.628 88.6494 495.988 88.5347 496.354 88.5512C497.147 88.5512 497.471 89.3089 497.207 90.1431C497.107 90.5277 496.889 90.8712 496.583 91.1249C496.277 91.3786 495.898 91.5295 495.502 91.5563C495.376 91.5428 495.252 91.5112 495.135 91.4626L494.393 97.7111L495.331 98.0601L498.562 99.5243L501.264 101.661L502.756 103.313L503.958 105.866L504.427 107.569C504.942 106.68 505.311 105.715 505.518 104.709C507.155 96.3831 506.635 87.8191 503.14 82.0559Z" fill="#4CBDC7"/>
<path d="M454.779 191.676C454.068 191.691 453.373 191.462 452.81 191.03C452.457 190.759 452.195 190.388 452.06 189.965C451.924 189.542 451.921 189.088 452.051 188.663C452.233 188.027 452.403 187.363 452.562 186.671L454.267 187.071C454.097 187.778 453.918 188.467 453.73 189.131C453.693 189.233 453.691 189.345 453.725 189.449C453.759 189.552 453.827 189.641 453.918 189.701C454.155 189.862 454.43 189.957 454.716 189.978C455.002 189.999 455.288 189.945 455.546 189.821C455.973 189.139 456.313 188.407 456.561 187.641L458.146 188.254C457.294 190.459 456.859 191.055 456.441 191.293C455.929 191.56 455.357 191.692 454.779 191.676Z" fill="#4CBDC7"/>
<path d="M466.867 192.136C465.311 192.014 463.809 191.511 462.494 190.672C460.508 189.574 461.283 187.045 461.641 185.956L461.71 185.717C462.028 184.465 462.27 183.194 462.434 181.912L459.374 187.369C459.161 187.769 458.129 189.301 455.026 188.561C454.533 188.473 454.063 188.288 453.642 188.017C453.222 187.746 452.859 187.395 452.575 186.983C452.291 186.572 452.092 186.108 451.989 185.619C451.886 185.13 451.881 184.625 451.974 184.134C454.037 175.068 455.384 167.883 456.237 163.124C456.578 161.277 456.85 159.787 457.089 158.663C457.855 155.69 459.193 152.894 461.028 150.431L462.434 151.393C460.731 153.671 459.484 156.255 458.76 159.004C458.53 160.119 458.257 161.6 457.908 163.431C457.055 168.198 455.7 175.417 453.645 184.517C453.565 185.07 453.707 185.632 454.041 186.081C454.375 186.529 454.873 186.827 455.427 186.909C457.012 187.284 457.711 186.867 457.865 186.594L463.065 177.315C463.16 177.144 463.311 177.011 463.493 176.938C463.674 176.865 463.875 176.857 464.062 176.915C464.25 176.973 464.411 177.093 464.52 177.256C464.628 177.419 464.678 177.614 464.659 177.809C464.401 180.625 463.968 183.423 463.363 186.186L463.278 186.458C462.912 187.65 462.673 188.807 463.355 189.182C465.35 190.289 466.765 190.655 467.617 190.306C468.282 190.033 468.811 189.25 469.211 187.905C470.746 182.797 476.031 170.394 478.29 165.286C478.991 163.662 480.296 162.374 481.93 161.694C489.415 158.553 500.779 151.547 501.435 145.094C501.78 141.7 501.843 138.283 501.622 134.878L503.327 134.768C503.558 138.28 503.496 141.805 503.14 145.307C502.347 153.053 489.364 160.46 482.604 163.303C481.372 163.811 480.387 164.779 479.859 166.001C477.651 171.109 472.357 183.444 470.857 188.424C470.285 190.323 469.459 191.429 468.299 191.915C467.842 192.086 467.355 192.161 466.867 192.136Z" fill="#4CBDC7"/>
<path d="M475.145 136.927L474.293 138.401L480.391 141.917L481.243 140.443L475.145 136.927Z" fill="#4CBDC7"/>
<path d="M471.632 157.395C471.553 157.408 471.473 157.408 471.394 157.395C471.279 157.362 471.174 157.306 471.083 157.23C470.991 157.153 470.917 157.059 470.865 156.952L462.647 140.148C462.551 139.955 462.531 139.732 462.593 139.525C462.655 139.318 462.793 139.142 462.98 139.033L469.953 134.972L470.805 136.445L464.514 140.105L471.982 155.369L487.48 146.005L486.227 145.29L487.079 143.817L489.577 145.256C489.704 145.331 489.81 145.438 489.883 145.567C489.956 145.695 489.994 145.84 489.994 145.988C489.994 146.136 489.956 146.281 489.883 146.409C489.81 146.537 489.704 146.645 489.577 146.72L472.041 157.276C471.917 157.35 471.777 157.391 471.632 157.395Z" fill="#4CBDC7"/>
<path d="M471.573 140.778C471.453 140.78 471.334 140.757 471.224 140.71C471.114 140.663 471.015 140.593 470.933 140.505C470.77 140.527 470.607 140.558 470.447 140.599C470.129 140.705 469.785 140.705 469.467 140.599C468.913 140.446 467.916 140.054 467.899 139.135C468.004 138.215 468.341 137.336 468.879 136.581C468.964 136.419 469.041 136.292 469.083 136.215C469.729 135.081 470.482 134.012 471.334 133.023C472.187 132.069 474.19 131.218 475.076 130.877L479.415 122.083L480.95 122.841L476.457 131.95C476.356 132.146 476.186 132.297 475.98 132.376C474.768 132.765 473.634 133.364 472.63 134.146C471.909 134.998 471.253 135.903 470.669 136.853C470.573 137.061 470.465 137.263 470.345 137.458C470.062 137.91 469.825 138.389 469.638 138.888C469.734 138.932 469.834 138.969 469.936 138.999H470.055C470.57 138.847 471.118 138.847 471.632 138.999C471.948 138.522 472.749 137.364 473.337 137.253C473.889 137.087 474.407 136.822 474.863 136.47C475.443 135.908 478.341 132.682 479.799 131.056L481.069 132.188C480.89 132.384 476.807 136.947 476.057 137.688C475.422 138.212 474.693 138.611 473.908 138.862C473.578 139.253 473.271 139.662 472.988 140.088C472.625 140.494 472.117 140.742 471.573 140.778Z" fill="#4CBDC7"/>
<path d="M471.632 157.395C471.483 157.396 471.336 157.358 471.206 157.284L451.94 146.217C451.813 146.143 451.707 146.038 451.633 145.911L440.253 126.484C440.161 126.323 440.125 126.137 440.15 125.954C440.174 125.77 440.257 125.599 440.387 125.468C440.517 125.336 440.687 125.25 440.87 125.223C441.054 125.196 441.241 125.229 441.404 125.318L463.218 137.662C463.368 137.749 463.486 137.88 463.559 138.036L472.4 156.22C472.461 156.35 472.489 156.493 472.481 156.636C472.473 156.779 472.428 156.918 472.351 157.04C472.275 157.161 472.169 157.261 472.043 157.331C471.917 157.4 471.776 157.437 471.632 157.437V157.395ZM452.989 144.813L469.655 154.424L462.144 138.973L443.288 128.315L452.989 144.813Z" fill="#4CBDC7"/>
<path d="M489.142 136.207C488.349 135.977 487.667 135.764 487.113 135.551C485.545 135.022 484.072 134.246 482.749 133.253L483.84 131.95C485.021 132.816 486.329 133.494 487.719 133.959C488.23 134.147 488.869 134.359 489.611 134.572L489.142 136.207Z" fill="#4CBDC7"/>
<path d="M491.026 107.084C489.652 107.077 488.294 106.787 487.037 106.233C485.996 105.802 485.106 105.073 484.479 104.139L485.903 103.202C486.337 103.854 486.954 104.363 487.676 104.666C488.779 105.164 489.978 105.412 491.188 105.39V107.093L491.026 107.084Z" fill="#4CBDC7"/>
<path d="M481.137 124.127C480.619 123.764 480.129 123.363 479.671 122.926C479.512 122.775 479.417 122.567 479.407 122.347C479.407 122.347 479.296 119.342 479.262 118.67C478.478 105.9 480.924 98.5623 481.035 98.2388L482.646 98.7836C482.646 98.8602 480.2 106.113 480.941 118.542C480.941 119.078 481.052 121.096 481.078 121.896C481.399 122.18 481.735 122.447 482.084 122.696L481.137 124.127Z" fill="#4CBDC7"/>
<path d="M483.047 134.555C482.852 134.556 482.662 134.49 482.51 134.368L479.867 132.205C479.738 132.1 479.642 131.959 479.592 131.801C479.542 131.642 479.54 131.472 479.586 131.312C479.586 131.243 481.496 124.569 480.762 119.547L480.524 117.946C479.552 111.417 478.708 105.773 480.294 100.733C481.146 97.975 482.851 96.4768 485.229 96.2895C486.184 96.2214 488.332 95.7787 488.358 95.7787C488.519 95.7501 488.686 95.7686 488.837 95.832C488.988 95.8955 489.118 96.0011 489.21 96.1363C489.304 96.2761 489.354 96.4405 489.354 96.6087C489.354 96.7769 489.304 96.9413 489.21 97.0812C489.142 97.1748 482.723 106.982 484.206 117.112C485.263 124.34 483.917 133.448 483.865 133.831C483.844 133.981 483.783 134.122 483.688 134.24C483.594 134.359 483.47 134.45 483.328 134.504C483.238 134.535 483.143 134.552 483.047 134.555ZM481.342 131.235L482.374 132.086C482.706 129.183 483.294 122.654 482.519 117.367C481.299 109.016 484.957 101.133 486.781 97.7878C486.244 97.8814 485.698 97.958 485.306 97.9921C483.601 98.1198 482.527 99.1583 481.896 101.244C480.43 105.909 481.24 111.374 482.186 117.699L482.425 119.3C483.124 123.88 481.828 129.481 481.368 131.235H481.342Z" fill="#4CBDC7"/>
<path d="M489.441 97.0471C489.087 97.0481 488.735 97.0052 488.392 96.9194C485.434 96.1703 484.053 94.5188 483.473 91.0285C483.293 88.7086 483.503 86.3749 484.096 84.1245L485.715 84.6608C485.21 86.6478 485.02 88.7017 485.153 90.7475C485.621 93.5568 486.542 94.6975 488.81 95.2679C489.506 95.3545 490.213 95.2781 490.874 95.0446C491.535 94.8111 492.133 94.4271 492.62 93.9229L493.78 95.1743C492.614 96.3109 491.069 96.9778 489.441 97.0471Z" fill="#4CBDC7"/>
<path d="M498.528 81.7239C498.363 80.7855 497.965 79.9035 497.369 79.1596C496.773 78.4157 495.999 77.8337 495.118 77.4675C492.833 76.5395 487.301 76.1139 484.189 79.17C481.632 81.7239 482.715 86.8827 482.715 86.8827C483.315 86.4805 483.938 86.1138 484.581 85.7846C487.838 84.5502 489.483 85.8441 493.959 85.8527L494.223 89.9474C494.738 89.7022 495.214 89.3839 495.638 89.0024C495.737 88.8945 495.86 88.8102 495.996 88.7558C496.132 88.7013 496.279 88.6782 496.426 88.688C496.572 88.6978 496.714 88.7403 496.842 88.8124C496.97 88.8845 497.08 88.9844 497.164 89.1046C497.164 89.1046 499.969 86.389 498.528 81.7239Z" fill="#4CBDC7"/>
<path d="M490.668 138.139C489.713 137.901 489.108 137.679 489.083 137.671C488.892 137.6 488.733 137.463 488.634 137.285C488.536 137.107 488.504 136.9 488.546 136.7C488.546 136.641 489.841 129.89 488.315 117.376C487.463 110.566 494.121 97.9667 494.402 97.4304C494.504 97.2406 494.674 97.0965 494.878 97.027C495.082 96.9575 495.305 96.9678 495.502 97.0558C495.689 97.1324 500.139 99.1074 501.895 101.21L500.582 102.3C499.466 100.963 496.823 99.5756 495.544 98.9542C494.155 101.721 489.355 111.724 490.012 117.172C491.29 127.753 490.643 134.198 490.336 136.283L491.077 136.479L490.668 138.139Z" fill="#4CBDC7"/>
<path d="M481.257 148.124C481.122 148.123 480.987 148.106 480.856 148.073C480.535 147.987 480.26 147.78 480.089 147.494C479.649 147.214 479.187 146.969 478.708 146.762C477.898 146.379 477.591 146.243 477.463 145.809C477.216 145.009 477.728 144.106 478.316 143.102L478.452 142.872C479.424 141.169 480.004 140.871 480.157 140.761C481.886 139.753 483.859 139.241 485.86 139.279C487.301 139.279 490.054 137.304 493.243 133.984L494.47 135.168C491.913 137.824 488.358 140.982 485.86 140.982C484.149 140.953 482.463 141.391 480.984 142.25C480.534 142.672 480.165 143.171 479.893 143.723L479.739 143.987C479.514 144.344 479.314 144.716 479.143 145.102L479.39 145.213C480.063 145.479 480.695 145.84 481.265 146.286L481.393 146.2C481.524 146.109 481.677 146.056 481.836 146.047H482.203L482.476 145.724C482.758 145.332 483.093 144.983 483.473 144.685C484.681 144.097 485.977 143.712 487.309 143.544C487.943 143.432 488.569 143.281 489.185 143.093C489.603 142.906 491.188 141.952 496.678 137.134L497.803 138.411C493.635 142.055 490.984 144.14 489.875 144.626C489.154 144.875 488.413 145.06 487.659 145.179C486.556 145.341 485.475 145.626 484.437 146.03C484.203 146.255 483.987 146.497 483.789 146.754C483.328 147.316 483.115 147.605 482.749 147.648C482.555 147.689 482.358 147.709 482.16 147.707L481.93 147.869C481.738 148.022 481.502 148.111 481.257 148.124Z" fill="#4CBDC7"/>
<path d="M497.982 138.65C497.135 138.569 496.353 138.163 495.8 137.517C493.388 135.236 492.603 134.427 492.612 133.508C492.615 133.319 492.658 133.133 492.737 132.961C492.816 132.79 492.93 132.637 493.072 132.512C498.409 127.651 497.931 116.635 497.156 113.179C496.482 110.191 496.209 102.504 499.534 101.176C499.99 100.985 500.491 100.927 500.98 101.006C501.468 101.086 501.924 101.301 502.296 101.627C506.447 104.913 507.854 121.087 507.087 126.153C506.32 131.218 503.524 135.73 499.935 137.883L499.756 137.986C499.239 138.37 498.624 138.6 497.982 138.65ZM494.385 133.653C495.167 134.603 496.022 135.491 496.942 136.309C497.855 137.16 497.914 137.16 498.852 136.564L499.031 136.462C502.151 134.589 504.7 130.358 505.373 125.931C506.166 120.704 504.47 105.577 501.213 102.998C501.076 102.859 500.9 102.765 500.709 102.727C500.517 102.69 500.319 102.709 500.139 102.785L499.824 102.002L500.139 102.785C498.34 103.508 498.034 109.476 498.792 112.838C499.432 115.546 500.557 127.77 494.385 133.653Z" fill="#4CBDC7"/>
<path d="M464.599 177.852L462.894 177.605L465.452 160.094C465.458 160.038 465.472 159.984 465.494 159.932C465.674 159.421 466.347 157.744 467.361 157.31L468.026 158.876C467.62 159.327 467.312 159.858 467.123 160.434L464.599 177.852Z" fill="#4CBDC7"/>
<path d="M464.079 195.882C463.792 195.884 463.506 195.85 463.227 195.78C462.603 195.668 462.048 195.314 461.682 194.797C461.317 194.279 461.171 193.638 461.275 193.013C461.403 192.043 461.582 190.919 461.778 189.702L463.483 189.983C463.287 191.174 463.116 192.29 462.988 193.243C462.988 193.413 462.894 193.941 463.67 194.094C464.25 194.239 464.881 194.094 464.974 193.796C465.333 192.834 465.673 191.864 466.014 190.902L467.626 191.464C467.285 192.434 466.935 193.413 466.577 194.384C466.363 194.858 466.009 195.255 465.563 195.523C465.116 195.791 464.599 195.916 464.079 195.882Z" fill="#4CBDC7"/>
<path d="M521.391 430.676C521.033 431.451 520.667 432.234 520.283 433.026C519.516 435.231 517.658 437.334 514.699 439.036C506.712 443.642 493.763 443.642 485.775 439.036C482.953 437.41 481.129 435.427 480.302 433.333C479.867 432.43 479.45 431.545 479.04 430.668H478.887C478.488 431.521 478.278 432.45 478.273 433.392C478.273 439.76 488.111 444.919 500.241 444.919C512.372 444.919 522.21 439.76 522.21 433.392C522.203 432.454 521.997 431.529 521.605 430.676H521.391Z" fill="#E9F1F2"/>
<path d="M500.233 443.327C494.845 443.327 489.449 442.143 485.349 439.777C482.459 438.074 480.438 435.988 479.509 433.647C464.472 402.516 466.807 390.138 466.91 389.627L468.615 389.976C468.615 390.095 466.364 402.439 481.103 432.966C482.163 435.265 483.964 437.141 486.218 438.295C493.959 442.765 506.55 442.765 514.29 438.295C516.967 436.746 518.774 434.822 519.499 432.745C519.494 432.714 519.494 432.682 519.499 432.651C534.11 402.269 531.885 390.087 531.86 389.968L533.565 389.619C533.667 390.121 536.003 402.328 521.093 433.349C520.241 435.801 518.16 438.023 515.126 439.768C511.017 442.143 505.629 443.327 500.233 443.327Z" fill="#4CBDC7"/>
<path d="M500.241 410.186C491.759 410.186 483.286 408.33 476.824 404.601C471.036 401.273 467.532 396.795 466.961 392.019C466.458 387.865 468.129 383.821 471.794 380.314L472.971 381.548C469.714 384.664 468.214 388.214 468.649 391.815C469.16 396.071 472.365 400.072 477.676 403.129C490.123 410.305 510.369 410.305 522.815 403.129C527.819 400.243 530.888 396.625 531.698 392.649C531.989 391.074 531.933 389.454 531.536 387.902C531.139 386.35 530.408 384.902 529.396 383.66L530.76 382.638C531.923 384.07 532.758 385.738 533.209 387.526C533.659 389.314 533.714 391.179 533.369 392.99C532.456 397.45 529.106 401.503 523.667 404.61C517.206 408.33 508.724 410.186 500.241 410.186Z" fill="#4CBDC7"/>
<path d="M524.656 379.25C524.077 378.85 523.454 378.458 522.807 378.092C522.005 377.624 521.144 377.181 520.249 376.764L520.974 375.223C521.903 375.657 522.807 376.126 523.659 376.619C524.341 377.011 525.006 377.419 525.62 377.845L524.656 379.25Z" fill="#4CBDC7"/>
<path d="M515.126 374.823C510.997 373.597 506.729 372.901 502.424 372.754L502.492 371.052C506.941 371.208 511.353 371.929 515.62 373.197L515.126 374.823Z" fill="#4CBDC7"/>
<path d="M478.912 377.42L478.12 375.904C484.385 372.661 492.458 370.916 500.889 371.018V372.72C492.731 372.627 484.931 374.295 478.912 377.42Z" fill="#4CBDC7"/>
<path d="M529.507 398.318C527.699 396.115 525.485 394.277 522.986 392.904C510.446 385.677 490.037 385.677 477.497 392.904C474.998 394.277 472.784 396.115 470.976 398.318L469.638 397.271C471.578 394.896 473.957 392.913 476.645 391.432C489.662 383.932 510.829 383.932 523.838 391.432C526.527 392.916 528.908 394.897 530.854 397.271L529.507 398.318Z" fill="#4CBDC7"/>
<path d="M486.619 386.954C486.504 386.953 486.39 386.927 486.286 386.877C483.848 385.83 481.513 385.03 479.253 384.255C474.991 382.808 471.027 381.437 466.466 378.603C464.148 377.155 461.556 375.785 459.041 374.457C456.049 372.873 452.946 371.239 450.201 369.409C443.381 364.871 439.971 359.193 436.664 353.753C434.319 349.872 432.103 346.203 428.821 343.3C428.681 343.178 428.585 343.014 428.547 342.833C428.509 342.652 428.531 342.463 428.611 342.296C428.69 342.128 428.821 341.991 428.985 341.905C429.149 341.819 429.337 341.788 429.52 341.818C435.325 342.755 439.187 345.045 442.912 347.267C444.865 348.49 446.898 349.579 448.999 350.527C451.122 351.433 453.293 352.22 455.503 352.885C456.791 353.294 458.121 353.736 459.826 354.332C463.909 355.797 466.969 359.014 469.927 362.13L471.249 363.501C473.056 365.365 474.463 368.055 475.937 370.898C477.702 374.304 479.526 377.777 481.973 379.497C483.064 380.254 486.38 382.578 487.437 385.856C487.48 385.987 487.491 386.127 487.468 386.263C487.444 386.399 487.389 386.527 487.305 386.637C487.221 386.747 487.111 386.835 486.986 386.893C486.861 386.951 486.723 386.978 486.585 386.971L486.619 386.954ZM432.06 344.091C434.373 346.816 436.42 349.755 438.173 352.868C441.378 358.18 444.694 363.671 451.198 367.996C453.875 369.775 456.936 371.401 459.894 372.95C462.451 374.295 465.009 375.674 467.421 377.155C471.316 379.489 475.485 381.333 479.833 382.646C481.461 383.208 483.124 383.779 484.846 384.443C483.778 383.046 482.484 381.838 481.018 380.867C478.23 378.918 476.312 375.232 474.454 371.665C473.03 368.932 471.683 366.353 470.055 364.667C469.62 364.224 469.203 363.765 468.742 363.296C465.921 360.334 462.997 357.261 459.305 355.933C457.601 355.328 456.313 354.911 455.043 354.511C452.787 353.826 450.57 353.019 448.402 352.093C446.229 351.105 444.127 349.968 442.111 348.688C439.001 346.679 435.616 345.13 432.06 344.091Z" fill="#4CBDC7"/>
<path d="M519.303 388.239C519.089 388.241 518.882 388.162 518.723 388.018C518.603 387.907 518.517 387.763 518.476 387.605C518.435 387.446 518.441 387.279 518.493 387.124C518.612 386.741 518.723 386.4 518.817 386.086C519.294 384.545 519.618 383.532 520.709 382.765C522.645 381.429 524.222 378.833 525.756 376.321C526.808 374.419 528.069 372.64 529.515 371.018C531.962 368.54 534.733 365.731 538.449 364.412C541.919 363.186 546.974 361.475 546.974 361.475C547.124 361.432 547.282 361.43 547.433 361.471C547.583 361.511 547.719 361.592 547.827 361.705C547.938 361.823 548.014 361.971 548.044 362.131C548.074 362.291 548.058 362.456 547.997 362.607C547.213 364.488 540.223 381.037 535.389 382.229C530.769 383.527 526.259 385.19 521.903 387.201L519.635 388.188C519.528 388.225 519.416 388.243 519.303 388.239ZM545.678 363.705C543.905 364.318 541.169 365.263 539.021 366.021C535.67 367.204 533.156 369.749 530.726 372.209C529.38 373.745 528.202 375.42 527.214 377.207C525.586 379.871 523.906 382.629 521.673 384.17C521.204 384.494 520.991 384.911 520.675 385.873L521.238 385.626C525.683 383.583 530.28 381.889 534.988 380.561C537.759 379.888 542.703 370.507 545.678 363.705Z" fill="#4CBDC7"/>
<path d="M491.623 408.619C490.668 403.29 488.111 394.079 486.099 391.193C484.308 388.758 482.275 386.51 480.029 384.485L481.189 383.234C483.519 385.348 485.632 387.69 487.497 390.223C489.952 393.73 492.484 403.741 493.294 408.321L491.623 408.619Z" fill="#4CBDC7"/>
<path d="M495.289 408.781L493.584 408.705C494.257 393.262 491.342 368.481 486.764 351.064L488.409 350.638C492.995 368.192 495.928 393.186 495.289 408.781Z" fill="#4CBDC7"/>
<path d="M511.145 408.721L509.542 408.151C511.92 401.502 517.078 392.223 522.073 385.575L523.437 386.596C518.527 393.126 513.472 402.217 511.145 408.721Z" fill="#4CBDC7"/>
<path d="M505.203 409.266L503.498 409.155C504.095 399.978 507.99 379.045 515.901 361.926L517.453 362.649C509.644 379.547 505.8 400.208 505.203 409.266Z" fill="#4CBDC7"/>
<path d="M498.878 409.258C498.847 406.25 499.158 403.248 499.807 400.311C502.04 393.066 503.293 383.438 503.762 369.937L505.467 369.996C504.99 383.617 503.72 393.424 501.452 400.753C500.865 403.515 500.58 406.332 500.6 409.155L498.878 409.258Z" fill="#4CBDC7"/>
<path d="M493.183 361.126C493.05 361.128 492.919 361.099 492.799 361.041L492.032 360.658C491.878 360.579 491.751 360.456 491.669 360.304C491.587 360.152 491.553 359.978 491.572 359.807C491.572 359.568 492.109 353.95 483.439 348.612C482.638 351.396 481.061 357.568 481.044 357.636C481.016 357.746 480.966 357.849 480.897 357.94C480.828 358.031 480.742 358.107 480.643 358.164C480.545 358.221 480.436 358.258 480.323 358.272C480.211 358.287 480.096 358.279 479.987 358.249L479.253 358.044C479.078 357.995 478.922 357.891 478.81 357.746C478.461 357.304 470.285 346.824 468.657 344.585C465.929 340.84 462.954 331.705 460.985 325.661C460.354 323.72 459.808 322.043 459.45 321.124C458.556 318.908 457.49 316.764 456.262 314.714C455.023 312.629 453.93 310.462 452.989 308.227C449.749 300.191 446.911 299.867 444.626 299.612C444.202 299.571 443.781 299.509 443.364 299.425C443.191 299.388 443.033 299.299 442.912 299.169L442.23 298.411C442.127 298.299 442.055 298.16 442.024 298.01C441.992 297.861 442.002 297.705 442.051 297.56C442.096 297.42 442.176 297.294 442.283 297.194C442.391 297.095 442.522 297.024 442.665 296.99C443.126 296.871 454.046 294.249 460.627 296.564C463.463 297.457 465.998 299.116 467.95 301.357C470.417 304.012 473.335 306.211 476.568 307.852C482.604 311.155 485.093 316.306 488.017 322.265C488.869 324.061 489.799 325.925 490.847 327.832C493.626 332.863 500.284 355.422 493.72 360.922C493.57 361.05 493.38 361.122 493.183 361.126ZM482.953 346.458C483.103 346.457 483.25 346.495 483.379 346.569C491.768 351.362 493.106 356.733 493.277 358.955C497.539 353.328 492.228 333.834 489.372 328.666C488.298 326.717 487.386 324.836 486.5 323.022C483.72 317.319 481.325 312.398 475.767 309.351C472.382 307.624 469.327 305.319 466.739 302.54C464.975 300.484 462.664 298.97 460.073 298.173C455.955 296.717 449.681 297.432 446.024 298.054C448.454 298.488 451.488 299.893 454.549 307.563C455.464 309.728 456.524 311.83 457.72 313.854C458.985 315.978 460.088 318.195 461.019 320.485C461.394 321.456 461.871 323.039 462.579 325.108C464.514 331.067 467.43 340.031 470.004 343.555C471.394 345.471 477.83 353.771 479.646 356.061C480.251 353.72 481.623 348.45 482.101 347.029C482.158 346.86 482.267 346.713 482.412 346.609C482.558 346.505 482.732 346.449 482.911 346.45L482.953 346.458Z" fill="#4CBDC7"/>
<path d="M508.596 346.237C508.384 346.238 508.179 346.16 508.021 346.018C507.864 345.877 507.764 345.681 507.743 345.471C506.891 336.66 506.038 332.429 504.589 327.142C503.681 328.594 502.503 329.86 501.12 330.871C499.125 332.531 497.232 334.089 497.045 337.366C497.033 337.547 496.964 337.719 496.849 337.858C496.733 337.996 496.575 338.095 496.4 338.138C496.224 338.182 496.039 338.169 495.871 338.1C495.704 338.032 495.562 337.912 495.468 337.758C492.654 333.152 494.769 324.324 497.173 314.1C499.039 306.286 500.975 298.198 500.821 291.38C500.693 286.093 500.284 282.237 499.969 278.832C499.227 271.757 498.681 266.65 501.426 255.174C501.708 254.025 502.04 252.774 502.398 251.454C503.754 246.448 505.442 240.226 505.032 234.19C505.022 234.005 505.072 233.822 505.175 233.669C505.278 233.515 505.429 233.399 505.604 233.339C505.782 233.277 505.976 233.276 506.155 233.336C506.334 233.396 506.488 233.514 506.592 233.671C509.15 237.587 510.394 241.332 511.92 246.048C512.858 248.96 513.915 252.246 515.501 256.17C516.115 257.703 516.89 259.311 517.717 261.023C520.982 267.833 525.458 277.129 526.856 294.793C528.186 311.598 513.847 341.538 509.192 346.007C509.031 346.158 508.817 346.24 508.596 346.237ZM504.632 323.252C504.822 323.244 505.009 323.301 505.164 323.412C505.318 323.523 505.431 323.682 505.484 323.865C507.406 330.174 508.674 336.664 509.269 343.232C514.239 336.072 526.395 310.159 525.193 294.904C523.812 277.546 519.422 268.412 516.217 261.704C515.364 260.001 514.589 258.298 513.958 256.749C512.347 252.774 511.273 249.445 510.335 246.534C509.419 243.362 508.238 240.272 506.806 237.297C506.609 242.515 505.228 247.615 504.078 251.863C503.728 253.174 503.396 254.417 503.123 255.54C500.446 266.726 500.975 271.715 501.699 278.619C502.066 282.024 502.475 285.948 502.552 291.311C502.722 298.343 500.761 306.541 498.869 314.467C497.019 322.205 495.254 329.602 496.022 334.225C496.874 332.105 498.579 330.76 500.028 329.526C501.904 327.977 503.523 326.631 503.771 324.001C503.79 323.803 503.878 323.618 504.02 323.478C504.162 323.338 504.348 323.252 504.546 323.235L504.632 323.252Z" fill="#4CBDC7"/>
<path d="M505.689 359.125H503.984C503.984 354.443 503.984 349.599 503.873 344.926C503.754 337.622 503.651 330.735 503.984 325.346L505.689 325.448C505.356 330.752 505.459 337.613 505.578 344.875C505.655 349.574 505.731 354.426 505.689 359.125Z" fill="#4CBDC7"/>
<path d="M132.296 351.149L131.486 355.661L131.989 356.401L132.688 357.602L133.839 359.755L135.126 361.458L136.831 362.752L137.3 363.305L137.249 363.986L135.791 365.127L135.066 365.323H134.546L132.594 364.301L130.429 362.36L129.628 361.509L129.38 362.113L128.008 361.194L127.726 359.781L127.59 358.078L127.761 356.444C127.886 356.166 127.997 355.882 128.093 355.592C128.093 355.533 127.999 354.954 127.999 354.954L127.769 352.4L127.692 350.042C125.438 349.675 123.157 349.492 120.873 349.497C117.961 349.471 115.054 349.757 112.203 350.348L111.674 351.668L110.174 354.222L108.81 356.912L106.56 358.93L105.571 359.313L104.002 357.84L104.062 355.703C104.062 355.703 104.633 354.128 104.744 354.001C104.855 353.873 106.048 352.715 106.577 352.204C102.101 354.145 99.2794 356.98 99.2794 360.138C99.2794 365.97 108.929 370.703 120.83 370.703C132.731 370.703 142.381 365.97 142.381 360.138C142.406 356.333 138.365 353.022 132.296 351.149Z" fill="#E9F1F2"/>
<path d="M100.405 166.266L96.6793 164.12C96.4882 164.011 96.3468 163.832 96.2848 163.621C96.2228 163.41 96.2451 163.183 96.3469 162.988L116.116 124.527C116.167 124.424 116.239 124.332 116.327 124.257C116.415 124.183 116.517 124.127 116.627 124.093C116.739 124.06 116.857 124.051 116.973 124.065C117.089 124.08 117.2 124.118 117.301 124.178L121.018 126.323L120.165 127.796L117.224 126.093L98.2394 163.048L101.257 164.793L100.405 166.266Z" fill="#4CBDC7"/>
<path d="M113.088 157.474L102.232 163.726L103.084 165.201L113.94 158.949L113.088 157.474Z" fill="#4CBDC7"/>
<path d="M113.524 200.76C113.375 200.761 113.228 200.723 113.098 200.649L109.373 198.504C109.243 198.429 109.135 198.321 109.06 198.191C108.985 198.061 108.946 197.913 108.946 197.763V161.83L101.274 166.266C101.115 166.357 100.93 166.395 100.748 166.373C100.566 166.351 100.395 166.271 100.262 166.145C100.129 166.019 100.04 165.853 100.009 165.672C99.9778 165.491 100.006 165.305 100.089 165.142L119.85 126.672C119.907 126.56 119.989 126.462 120.09 126.386C120.19 126.309 120.306 126.256 120.429 126.23C120.553 126.202 120.682 126.201 120.806 126.229C120.93 126.257 121.046 126.313 121.145 126.391L140.914 142.055C141.024 142.141 141.111 142.253 141.168 142.381C141.224 142.508 141.248 142.648 141.238 142.787C141.227 142.925 141.183 143.059 141.109 143.176C141.034 143.293 140.933 143.391 140.812 143.46L128.553 150.525V192.239C128.554 192.392 128.513 192.542 128.435 192.674C128.357 192.806 128.245 192.914 128.11 192.988L113.95 200.692C113.817 200.751 113.67 200.774 113.524 200.76ZM113.524 157.344C113.75 157.344 113.967 157.434 114.127 157.594C114.287 157.753 114.377 157.97 114.377 158.195V198.462L126.831 191.651V151.811C126.831 149.504 126.831 149.393 127.334 149.257L138.86 142.608L120.881 128.366L102.911 163.346L113.089 157.472C113.219 157.398 113.366 157.36 113.516 157.361L113.524 157.344ZM110.66 197.261L112.68 198.419V159.685L110.668 160.843L110.66 197.261Z" fill="#4CBDC7"/>
<path d="M136.396 210.328L136.123 209.639C135.301 207.426 134.315 205.278 133.174 203.212C132.424 202.769 130.292 201.509 129.764 201.041C129.235 200.573 128.059 198.938 128.238 197.891C128.282 197.586 128.441 197.309 128.681 197.116C128.698 196.405 128.617 195.695 128.443 195.005C128.179 194.087 127.982 193.151 127.854 192.204C127.828 191.923 127.898 191.641 128.053 191.405C128.208 191.168 128.438 190.991 128.707 190.902C128.815 190.871 128.927 190.856 129.039 190.859L131.486 191.021C131.726 190.999 131.968 191.037 132.19 191.132C132.412 191.228 132.607 191.377 132.756 191.566L132.833 191.651C132.833 191.651 133.617 192.656 133.907 193.039C134.197 193.422 135.271 194.903 135.271 194.903C135.94 195.66 136.528 196.485 137.027 197.363C137.515 198.446 137.717 199.636 137.615 200.819C139.239 203.051 140.706 205.392 142.005 207.826L140.488 208.6C139.174 206.153 137.69 203.8 136.047 201.56C135.98 201.469 135.932 201.366 135.906 201.256C135.879 201.147 135.875 201.033 135.893 200.922C136.013 199.958 135.875 198.98 135.493 198.087C135.039 197.331 134.517 196.619 133.933 195.959C133.89 195.899 132.884 194.503 132.552 194.077L131.52 192.741L129.662 192.613C129.772 193.209 129.986 194.179 130.105 194.537C130.685 197.014 130.344 197.942 129.994 198.291C130.211 198.835 130.526 199.334 130.923 199.764C131.247 200.053 133.054 201.16 134.239 201.849C134.353 201.917 134.449 202.01 134.521 202.122C135.777 204.324 136.847 206.628 137.718 209.009L137.999 209.69L136.396 210.328Z" fill="#4CBDC7"/>
<path d="M136.771 241.162L135.757 239.792C140.156 236.523 143.889 225.89 144.077 221.812C144.213 218.858 143.395 212.789 141.758 209.622C141.682 209.454 141.565 209.307 141.417 209.196C140.131 209.423 138.923 209.971 137.905 210.788C138.016 211.623 138.178 212.45 138.391 213.265C138.976 215.341 139.286 217.485 139.312 219.642C139.073 223.157 136.311 229.006 133.293 232.343L132.023 231.211C134.99 227.899 137.419 222.315 137.615 219.531C137.576 217.542 137.29 215.566 136.763 213.648C136.243 211.367 136.072 210.541 136.422 209.988C137.274 208.634 139.883 207.792 141.153 207.528C141.606 207.474 142.065 207.574 142.454 207.812C142.844 208.05 143.142 208.411 143.301 208.839C145.143 212.389 145.952 218.816 145.816 221.897C145.569 226.443 141.707 237.51 136.771 241.162Z" fill="#4CBDC7"/>
<path d="M108.955 219.105L107.25 218.918L108.264 209.903C108.283 209.74 108.348 209.587 108.452 209.46L109.304 208.43C109.458 208.192 110.157 207.11 110.438 206.566C110.597 205.876 110.626 205.163 110.524 204.463C110.435 204.616 110.299 204.736 110.136 204.804C109.972 204.872 109.791 204.883 109.62 204.837C109.441 204.791 109.282 204.688 109.166 204.544C109.051 204.4 108.986 204.222 108.981 204.037L108.895 202.863L108.767 202.752L108.358 202.658C108.188 202.658 108.009 202.565 107.898 202.548C107.631 202.678 107.386 202.851 107.173 203.058L106.525 204.029C106.202 204.816 105.95 205.631 105.775 206.463C105.685 207.334 105.82 208.214 106.167 209.017C106.254 209.182 106.284 209.37 106.253 209.554L104.727 218.671L103.022 218.39L104.505 209.52C104.089 208.486 103.937 207.366 104.062 206.259C104.242 205.245 104.528 204.252 104.914 203.297C104.931 203.239 104.957 203.184 104.991 203.135L105.733 202.037L105.801 201.952C106.333 201.341 107.069 200.945 107.872 200.836C108.162 200.851 108.448 200.903 108.725 200.99C108.851 201.025 108.979 201.053 109.108 201.075C109.507 201.183 109.863 201.408 110.131 201.722L110.191 201.773C110.287 201.846 110.366 201.938 110.423 202.044C110.48 202.149 110.515 202.266 110.524 202.386V202.505C110.643 202.47 110.766 202.45 110.89 202.445C111.056 202.44 111.222 202.476 111.371 202.55C111.519 202.624 111.647 202.735 111.743 202.871C112.332 204.298 112.374 205.892 111.862 207.349C111.504 207.987 110.668 209.324 110.668 209.324C110.651 209.356 110.628 209.384 110.6 209.409L109.884 210.26L108.955 219.105Z" fill="#4CBDC7"/>
<path d="M115.86 345.922L115.647 345.871C114.799 345.702 113.985 345.397 113.234 344.968C112.29 344.301 111.575 343.358 111.188 342.27L112.791 341.691C113.05 342.406 113.505 343.035 114.104 343.504C114.708 343.846 115.365 344.085 116.048 344.211L116.261 344.262L115.86 345.922Z" fill="#4CBDC7"/>
<path d="M130.659 351.293C129.398 351.316 128.161 350.954 127.113 350.255L128.076 348.85C128.835 349.346 129.726 349.604 130.633 349.591C131.213 349.593 131.79 349.498 132.338 349.31L132.91 350.91C132.187 351.165 131.425 351.294 130.659 351.293Z" fill="#4CBDC7"/>
<path d="M115.647 246.355C111.061 246.355 103.849 237.621 102.365 234.028C101.283 231.398 100.916 219.173 102.57 218.126C103.636 217.445 108.316 217.598 109.39 219.088C109.739 219.573 109.782 220.51 109.816 223.268C109.816 225.268 109.884 228.01 110.251 228.81C111.197 230.878 114.888 234.113 117.701 235.331C119.551 236.139 119.816 238.838 119.406 241.102C118.997 243.597 117.753 246.21 115.903 246.346L115.647 246.355ZM103.601 219.522C103.022 221.182 102.8 230.589 103.942 233.381C105.554 237.297 112.663 244.916 115.792 244.652C116.431 244.593 117.403 243.009 117.761 240.83C118.085 238.872 117.761 237.221 117.028 236.897C113.788 235.492 109.824 231.977 108.699 229.516C108.222 228.469 108.154 226.273 108.111 223.293C108.128 222.205 108.079 221.116 107.966 220.033C107.412 219.531 104.548 219.267 103.601 219.522Z" fill="#4CBDC7"/>
<path d="M125.229 241.068C123.913 241.068 122.621 240.709 121.495 240.03C119.722 238.966 118.579 237.263 118.588 235.688C118.588 234.65 119.705 233.705 120.046 233.449C120.686 232.878 121.407 232.405 122.185 232.045L122.919 233.577C122.273 233.884 121.673 234.279 121.137 234.752C120.782 235.003 120.491 235.332 120.284 235.714C120.383 236.32 120.622 236.894 120.984 237.391C121.345 237.888 121.818 238.293 122.364 238.574C123.272 239.097 124.301 239.372 125.348 239.372C126.396 239.372 127.425 239.097 128.332 238.574C130.361 237.484 130.378 235.058 130.199 233.705C130.199 233.407 130.037 233.109 129.346 232.973L129.67 231.27C130.235 231.33 130.764 231.58 131.168 231.979C131.572 232.378 131.829 232.903 131.895 233.466C132.125 235.246 132.066 238.472 129.142 240.047C127.941 240.703 126.597 241.053 125.229 241.068Z" fill="#4CBDC7"/>
<path d="M122.075 235.577C122.075 235.416 121.665 231.517 121.699 227.575H123.404C123.404 231.423 123.771 235.347 123.771 235.382L122.075 235.577Z" fill="#4CBDC7"/>
<path d="M128.907 232.704L127.203 232.762L127.282 235.076L128.986 235.018L128.907 232.704Z" fill="#4CBDC7"/>
<path d="M128.136 233.424C126.659 233.27 125.274 232.639 124.189 231.628L125.297 230.334C126.088 231.114 127.123 231.6 128.229 231.713C129.053 231.343 129.776 230.781 130.336 230.075C130.897 229.368 131.28 228.537 131.452 227.652C131.742 225.725 131.742 223.765 131.452 221.838L133.097 221.412C133.451 223.591 133.451 225.813 133.097 227.993C132.424 231.262 129.755 233.143 128.536 233.381C128.404 233.408 128.27 233.422 128.136 233.424Z" fill="#4CBDC7"/>
<path d="M119.901 219.25C120.105 218.305 120.898 216.849 123.225 215.845C125.288 214.994 127.59 214.185 130.523 216.628C132.978 218.68 133.08 223.694 133.08 223.694L126.047 225.243L125.033 223.54C125.171 224.161 125.195 224.802 125.101 225.43C124.828 225.95 122.901 226.111 122.901 226.111L121.154 225.771C121.154 225.771 118.997 223.438 119.901 219.25Z" fill="#4CBDC7"/>
<path d="M116.474 232.538C116.414 233.756 116.54 234.976 116.849 236.156C118.303 235.072 119.832 234.093 121.427 233.228C121.874 232.96 122.342 232.727 122.825 232.53C122.825 232.011 122.825 231.474 122.825 230.921C122.825 230.58 122.825 229.372 122.825 228.061C122.825 227.984 122.782 227.907 122.765 227.822C122.748 227.737 122.825 227.703 122.816 227.584C122.64 227.626 122.456 227.626 122.279 227.584C121.879 227.515 121.511 227.323 121.227 227.035C120.942 226.746 120.756 226.375 120.694 225.975C120.497 225.124 120.898 224.383 121.699 224.46C122.034 224.483 122.353 224.611 122.612 224.826C122.612 223.123 122.671 221.48 122.671 221.48C123.046 219.25 131.392 218.322 132.245 221.625C132.569 223.678 132.569 225.769 132.245 227.822C131.942 229.264 131.172 230.565 130.054 231.525H130.829C131.18 231.524 131.529 231.564 131.87 231.645C133.14 225.081 135.177 221.684 132.927 217.173C131.026 213.35 129.099 211.571 123.831 211.622C122.126 211.622 119.176 212.227 116.678 216.185C115.144 218.62 115.4 223.225 115.655 225.115C116.056 227.763 116.687 230.078 116.474 232.538Z" fill="#4CBDC7"/>
<path d="M130.141 230.689L130.065 232.39L131.087 232.436L131.163 230.735L130.141 230.689Z" fill="#4CBDC7"/>
<path d="M110.762 352L109.628 351.642L108.631 350.732V349.599L109.006 349.021C108.23 349.778 107.403 351.276 106.858 351.923C106.312 352.57 104.838 353.626 104.497 354.375C104.104 355.269 103.712 357.057 104.028 357.823C104.147 358.112 105.196 359.27 105.528 359.296C106.295 359.347 107.779 357.925 108.426 357.312C109.279 356.503 110.004 354.239 110.634 353.268C111.298 352.294 111.82 351.231 112.186 350.11L110.762 352Z" fill="#4CBDC7"/>
<path d="M110.617 352.851H110.524C109.988 352.793 109.478 352.595 109.043 352.279C108.607 351.962 108.263 351.537 108.043 351.047C107.89 350.687 107.84 350.292 107.899 349.906C107.958 349.519 108.123 349.157 108.375 348.859C109.347 347.684 111.785 340.022 113.806 333.868C115.331 329.143 116.772 324.674 117.625 322.801L119.185 323.49C118.375 325.312 116.943 329.739 115.425 334.429C112.672 342.942 110.788 348.646 109.697 349.974C109.638 350.035 109.6 350.113 109.588 350.197C109.576 350.281 109.59 350.367 109.628 350.442C109.768 350.732 110.011 350.96 110.31 351.081C112.39 348.586 123.456 334.983 125.86 324.64C125.942 324.115 125.993 323.586 126.013 323.056L127.718 323.167C127.692 323.789 127.627 324.409 127.522 325.023C124.785 336.804 111.819 351.957 111.265 352.596C111.181 352.682 111.08 352.749 110.969 352.793C110.857 352.837 110.737 352.857 110.617 352.851Z" fill="#4CBDC7"/>
<path d="M137.044 362.913C134.998 361.602 134.188 360.709 132.841 357.916C132.536 357.188 132.113 356.515 131.588 355.924H131.443L131.247 356.997L130.514 357.738L129.304 357.899L128.161 356.733L127.999 356.018C127.896 356.15 127.818 356.3 127.769 356.461C127.665 356.951 127.608 357.449 127.599 357.95C127.613 359.041 127.753 360.127 128.016 361.185L129.389 362.105L129.662 361.441C130.722 362.8 132.022 363.954 133.498 364.846C133.862 365.121 134.301 365.28 134.757 365.303C135.213 365.326 135.665 365.211 136.055 364.974C136.545 364.695 136.978 364.329 137.334 363.892C137.398 363.72 137.405 363.531 137.352 363.355C137.3 363.178 137.192 363.023 137.044 362.913Z" fill="#4CBDC7"/>
<path d="M129.807 358.751C129.442 358.753 129.081 358.672 128.753 358.512C128.424 358.353 128.137 358.12 127.914 357.831C126.209 355.618 126.55 334.148 127.522 327.644C127.675 326.614 127.846 324.98 128.016 322.911L129.721 323.048C129.551 325.184 129.38 326.81 129.218 327.9C128.11 335.315 128.144 355.022 129.269 356.793C129.36 356.9 129.48 356.98 129.615 357.02C129.749 357.061 129.893 357.062 130.028 357.023C130.157 356.99 130.274 356.921 130.364 356.822C130.453 356.724 130.512 356.601 130.531 356.469C130.855 353.677 132.083 347.556 133.515 340.465C134.819 333.953 136.302 326.572 137.24 320.936C137.394 320.042 137.53 319.072 137.666 318.025L139.371 318.246C139.226 319.31 139.081 320.306 138.928 321.217C137.99 326.878 136.507 334.276 135.194 340.797C133.771 347.846 132.552 353.941 132.228 356.656C132.177 357.121 131.987 357.56 131.683 357.915C131.379 358.271 130.974 358.526 130.523 358.648C130.29 358.715 130.049 358.75 129.807 358.751Z" fill="#4CBDC7"/>
<path d="M122.433 324.512C121.715 324.514 120.997 324.471 120.284 324.384C115.886 323.848 115.17 321.736 115.101 320.528C115.101 319.881 115.059 319.225 115.033 318.561C114.944 314.177 114.617 309.8 114.053 305.451C113.627 302.285 113.03 298.939 112.51 295.985C111.957 293.373 111.567 290.729 111.342 288.068C111.342 274.992 117.113 261.329 117.36 260.759L118.929 261.431C118.869 261.567 113.021 275.341 113.047 288.059C113.277 290.633 113.655 293.191 114.181 295.721C114.718 298.692 115.314 302.055 115.741 305.264C116.317 309.669 116.65 314.102 116.738 318.544C116.738 319.208 116.781 319.855 116.806 320.494C116.866 322.051 119.142 322.562 120.489 322.732C126.704 323.49 137.914 320.179 139.482 314.73C139.704 313.981 139.704 310.636 139.695 307.069C139.695 304.004 139.695 300.182 139.815 296.368C139.874 294.35 139.951 292.358 140.019 290.409C140.309 282.322 140.565 275.341 139.96 271.97C138.981 267.342 137.396 262.862 135.245 258.647L136.754 257.847C138.992 262.214 140.635 266.861 141.639 271.664C142.278 275.213 142.023 282.288 141.724 290.469C141.656 292.393 141.579 294.385 141.52 296.428C141.4 300.216 141.4 304.021 141.4 307.077C141.4 311.751 141.4 314.237 141.127 315.182C139.422 321.021 129.431 324.512 122.433 324.512Z" fill="#4CBDC7"/>
<path d="M123.848 263.295C123.089 263.295 122.296 263.295 121.469 263.202C119.764 263.066 117.207 262.24 117.122 260.835C117.099 260.291 117.136 259.746 117.233 259.209C117.301 258.804 117.344 258.394 117.36 257.983C117.36 255.923 116.508 252.441 115.596 249.079C115.306 247.981 115.016 246.874 114.743 245.81L116.397 245.41C116.661 246.465 116.943 247.555 117.25 248.645C118.204 252.288 119.099 255.719 119.065 258.009C119.047 258.494 118.998 258.977 118.92 259.456C118.853 259.83 118.816 260.209 118.81 260.588C119.64 261.144 120.607 261.462 121.606 261.508C130.898 262.231 135.203 258.332 135.458 257.251C135.389 256.522 135.252 255.801 135.049 255.098C134.715 253.913 134.501 252.698 134.41 251.471C134.48 250.304 134.616 249.141 134.819 247.989C135.215 245.846 135.432 243.673 135.467 241.494C135.183 239.121 134.61 236.791 133.762 234.556C133.225 233.024 132.33 232.368 130.898 232.385V230.683C131.911 230.638 132.908 230.941 133.724 231.543C134.54 232.144 135.125 233.006 135.382 233.986C136.277 236.341 136.884 238.797 137.189 241.298C137.351 242.66 136.916 245.623 136.533 248.236C136.337 249.598 136.132 251.011 136.14 251.437C136.232 252.54 136.429 253.632 136.729 254.697C137.067 255.644 137.209 256.649 137.146 257.651C136.618 259.729 132.134 263.295 123.848 263.295Z" fill="#4CBDC7"/>
<path d="M117.642 236.658L116.559 235.347C117.643 234.474 118.811 233.71 120.046 233.066C120.387 232.879 120.711 232.691 121.009 232.513L121.861 233.977C121.546 234.164 121.205 234.351 120.838 234.556C119.709 235.154 118.638 235.858 117.642 236.658Z" fill="#4CBDC7"/>
<path d="M392.532 255.714L390.827 255.734L390.91 262.834L392.615 262.814L392.532 255.714Z" fill="#4CBDC7"/>
<path d="M514.273 383.208C514.051 383.21 513.837 383.124 513.676 382.97C513.579 382.875 513.506 382.759 513.463 382.63C513.42 382.501 513.408 382.364 513.429 382.229C513.429 382.102 515.134 370.558 515.987 363.825C514.032 365.941 511.562 367.516 508.817 368.396C506.49 369.298 504.47 370.099 502.603 373.01C502.539 373.111 502.454 373.197 502.354 373.263C502.254 373.329 502.141 373.373 502.023 373.393L500.932 373.58C500.793 373.604 500.65 373.593 500.516 373.548C500.383 373.503 500.262 373.425 500.166 373.322C500.07 373.219 500 373.094 499.964 372.958C499.929 372.822 499.927 372.679 499.96 372.542C500.062 372.125 502.518 362.224 504.384 358.07C508.212 349.557 519.388 342.644 526.071 338.49C527.401 337.639 528.544 336.958 529.328 336.413C531.732 334.753 535.866 327.696 539.506 321.464C543.888 313.99 546.676 309.376 548.534 308.414C548.678 308.342 548.839 308.311 548.999 308.326C549.159 308.341 549.312 308.401 549.439 308.499C549.567 308.597 549.664 308.729 549.719 308.879C549.775 309.03 549.787 309.193 549.753 309.351C548.816 313.692 548.901 319.294 548.901 324.231C548.901 325.568 548.901 326.87 548.901 328.121C548.901 333.791 545.747 338.09 542.933 341.887C542.558 342.389 542.192 342.883 541.851 343.377C539.191 347.131 537.819 351.489 536.497 355.712C535.639 358.763 534.498 361.727 533.087 364.565C530.834 369.099 527.27 372.853 522.858 375.343C520.172 377.045 517.854 378.492 516.038 382.544C515.981 382.672 515.894 382.784 515.784 382.87C515.674 382.956 515.545 383.014 515.407 383.038L514.316 383.226L514.273 383.208ZM517.146 360.096C517.245 360.096 517.343 360.113 517.436 360.147C517.609 360.209 517.758 360.326 517.859 360.479C517.96 360.633 518.009 360.815 517.998 360.998C517.606 365.178 516.14 375.402 515.441 380.059C517.342 376.79 519.644 375.343 522.056 373.827C526.218 371.494 529.574 367.956 531.681 363.68C533.026 360.948 534.117 358.099 534.937 355.167C536.301 350.825 537.708 346.331 540.529 342.355C540.879 341.861 541.245 341.359 541.621 340.848C544.238 337.264 547.204 333.187 547.221 328.079C547.221 326.845 547.221 325.525 547.221 324.214C547.079 320.013 547.216 315.807 547.631 311.623C545.823 313.999 543.283 318.34 540.973 322.29C537.06 328.981 533.011 335.911 530.291 337.784C529.439 338.345 528.305 339.069 526.967 339.903C520.871 343.683 509.542 350.715 505.927 358.725C504.64 361.577 503.029 367.434 502.185 370.643C504.095 368.353 506.175 367.553 508.152 366.77C511.563 365.703 514.486 363.465 516.404 360.454C516.488 360.336 516.599 360.242 516.729 360.179C516.859 360.117 517.002 360.088 517.146 360.096Z" fill="#4CBDC7"/>
</g>
</svg>
