<svg width="18" height="18" viewBox="0 0 18 18" fill="none" xmlns="http://www.w3.org/2000/svg">
<path fill-rule="evenodd" clip-rule="evenodd" d="M9.06081 1.88178C9.20595 2.13932 9.18627 2.45809 9.01055 2.69582C8.36989 3.56256 8.0616 4.63046 8.14175 5.7053C8.2219 6.78013 8.68518 7.7905 9.44731 8.55263C10.2094 9.31476 11.2198 9.77804 12.2946 9.85819C13.3695 9.93834 14.4374 9.63005 15.3041 8.98939C15.5318 8.82109 15.8349 8.79536 16.0877 8.92286C16.3405 9.05036 16.4999 9.30935 16.4999 9.59249L16.4999 9.74999C16.4999 9.77304 16.4989 9.79608 16.4967 9.81903C16.3634 11.2615 15.8173 12.4526 14.962 13.5589C14.0906 14.6858 12.9163 15.5414 11.5765 16.0253C10.2367 16.5093 8.78673 16.6016 7.39633 16.2916C6.00593 15.9816 4.73257 15.282 3.72527 14.2747C2.71796 13.2674 2.01836 11.994 1.70833 10.6036C1.39831 9.21321 1.49067 7.76327 1.97463 6.42344C2.45858 5.08362 3.3141 3.90933 4.44109 3.03799C5.56807 2.16664 6.91991 1.63428 8.33841 1.50319C8.63278 1.47599 8.91566 1.62424 9.06081 1.88178ZM6.98722 3.32931C6.40401 3.54032 5.85413 3.84153 5.35858 4.22467C4.457 4.92174 3.77258 5.86117 3.38542 6.93303C2.99825 8.00489 2.92436 9.16484 3.17238 10.2772C3.4204 11.3895 3.98008 12.4082 4.78593 13.214C5.59177 14.0199 6.61045 14.5795 7.72278 14.8276C8.8351 15.0756 9.99505 15.0017 11.0669 14.6145C12.1388 14.2274 13.0782 13.5429 13.7753 12.6414C14.1885 12.1069 14.5006 11.5708 14.7101 10.9983C13.909 11.2945 13.0477 11.4185 12.1831 11.354C10.75 11.2472 9.40283 10.6295 8.38665 9.61329C7.37047 8.59711 6.75277 7.24996 6.6459 5.81685C6.58248 4.96637 6.70146 4.11915 6.98722 3.32931Z" fill="#090C0D"/>
</svg>
