<svg width="44" height="44" viewBox="0 0 44 44" fill="none" xmlns="http://www.w3.org/2000/svg">
<g filter="url(#filter0_d_554_7784)">
<circle cx="20" cy="18" r="12" fill="#E5D75C"/>
<path fill-rule="evenodd" clip-rule="evenodd" d="M20.0608 10.8818C20.2059 11.1393 20.1863 11.4581 20.0106 11.6958C19.3699 12.5626 19.0616 13.6305 19.1417 14.7053C19.2219 15.7801 19.6852 16.7905 20.4473 17.5526C21.2094 18.3148 22.2198 18.778 23.2946 18.8582C24.3695 18.9383 25.4374 18.6301 26.3041 17.9894C26.5318 17.8211 26.8349 17.7954 27.0877 17.9229C27.3405 18.0504 27.4999 18.3094 27.4999 18.5925L27.4999 18.75C27.4999 18.773 27.4989 18.7961 27.4967 18.819C27.3634 20.2615 26.8173 21.4526 25.962 22.5589C25.0906 23.6858 23.9163 24.5414 22.5765 25.0253C21.2367 25.5093 19.7867 25.6016 18.3963 25.2916C17.0059 24.9816 15.7326 24.282 14.7253 23.2747C13.718 22.2674 13.0184 20.994 12.7083 19.6036C12.3983 18.2132 12.4907 16.7633 12.9746 15.4234C13.4586 14.0836 14.3141 12.9093 15.4411 12.038C16.5681 11.1666 17.9199 10.6343 19.3384 10.5032C19.6328 10.476 19.9157 10.6242 20.0608 10.8818ZM17.9872 12.3293C17.404 12.5403 16.8541 12.8415 16.3586 13.2247C15.457 13.9217 14.7726 14.8612 14.3854 15.933C13.9983 17.0049 13.9244 18.1648 14.1724 19.2772C14.4204 20.3895 14.9801 21.4082 15.7859 22.214C16.5918 23.0199 17.6105 23.5795 18.7228 23.8276C19.8351 24.0756 20.9951 24.0017 22.0669 23.6145C23.1388 23.2274 24.0782 22.5429 24.7753 21.6414C25.1885 21.1069 25.5006 20.5708 25.7101 19.9983C24.909 20.2945 24.0477 20.4185 23.1831 20.354C21.75 20.2472 20.4028 19.6295 19.3866 18.6133C18.3705 17.5971 17.7528 16.25 17.6459 14.8168C17.5825 13.9664 17.7015 13.1191 17.9872 12.3293Z" fill="#090C0D"/>
</g>
<defs>
<filter id="filter0_d_554_7784" x="0" y="0" width="44" height="44" filterUnits="userSpaceOnUse" color-interpolation-filters="sRGB">
<feFlood flood-opacity="0" result="BackgroundImageFix"/>
<feColorMatrix in="SourceAlpha" type="matrix" values="0 0 0 0 0 0 0 0 0 0 0 0 0 0 0 0 0 0 127 0" result="hardAlpha"/>
<feOffset dx="2" dy="4"/>
<feGaussianBlur stdDeviation="5"/>
<feComposite in2="hardAlpha" operator="out"/>
<feColorMatrix type="matrix" values="0 0 0 0 0.956863 0 0 0 0 0.933333 0 0 0 0 0.72549 0 0 0 0.2 0"/>
<feBlend mode="normal" in2="BackgroundImageFix" result="effect1_dropShadow_554_7784"/>
<feBlend mode="normal" in="SourceGraphic" in2="effect1_dropShadow_554_7784" result="shape"/>
</filter>
</defs>
</svg>
