<svg width="18" height="18" viewBox="0 0 18 18" fill="none" xmlns="http://www.w3.org/2000/svg">
<path fill-rule="evenodd" clip-rule="evenodd" d="M9.00008 6.00012C7.34318 6.00012 6 7.34331 6 9.00021C6 10.6571 7.34318 12.0003 9.00008 12.0003C10.657 12.0003 12.0002 10.6571 12.0002 9.00021C12.0002 7.34331 10.657 6.00012 9.00008 6.00012ZM4.5 9.00021C4.5 6.51488 6.51476 4.50012 9.00008 4.50012C11.4854 4.50012 13.5002 6.51488 13.5002 9.00021C13.5002 11.4855 11.4854 13.5003 9.00008 13.5003C6.51476 13.5003 4.5 11.4855 4.5 9.00021Z" fill="white"/>
<path fill-rule="evenodd" clip-rule="evenodd" d="M9.00024 0C9.41446 0 9.75024 0.335786 9.75024 0.75V2.25003C9.75024 2.66425 9.41446 3.00003 9.00024 3.00003C8.58603 3.00003 8.25024 2.66425 8.25024 2.25003V0.75C8.25024 0.335786 8.58603 0 9.00024 0Z" fill="white"/>
<path fill-rule="evenodd" clip-rule="evenodd" d="M9 15C9.41421 15 9.75 15.3358 9.75 15.75V17.25C9.75 17.6642 9.41421 18 9 18C8.58579 18 8.25 17.6642 8.25 17.25V15.75C8.25 15.3358 8.58579 15 9 15Z" fill="white"/>
<path fill-rule="evenodd" clip-rule="evenodd" d="M2.63471 2.63471C2.9276 2.34182 3.40248 2.34182 3.69537 2.63471L4.76039 3.69973C5.05329 3.99263 5.05329 4.4675 4.76039 4.76039C4.4675 5.05329 3.99263 5.05329 3.69973 4.76039L2.63471 3.69537C2.34182 3.40248 2.34182 2.9276 2.63471 2.63471Z" fill="white"/>
<path fill-rule="evenodd" clip-rule="evenodd" d="M13.2397 13.2397C13.5326 12.9468 14.0075 12.9468 14.3003 13.2397L15.3654 14.3047C15.6582 14.5976 15.6582 15.0725 15.3654 15.3654C15.0725 15.6582 14.5976 15.6582 14.3047 15.3654L13.2397 14.3003C12.9468 14.0075 12.9468 13.5326 13.2397 13.2397Z" fill="white"/>
<path fill-rule="evenodd" clip-rule="evenodd" d="M0 9.00024C0 8.58603 0.335786 8.25024 0.75 8.25024H2.25003C2.66425 8.25024 3.00003 8.58603 3.00003 9.00024C3.00003 9.41446 2.66425 9.75024 2.25003 9.75024H0.75C0.335786 9.75024 0 9.41446 0 9.00024Z" fill="white"/>
<path fill-rule="evenodd" clip-rule="evenodd" d="M15 9C15 8.58579 15.3358 8.25 15.75 8.25H17.25C17.6642 8.25 18 8.58579 18 9C18 9.41421 17.6642 9.75 17.25 9.75H15.75C15.3358 9.75 15 9.41421 15 9Z" fill="white"/>
<path fill-rule="evenodd" clip-rule="evenodd" d="M4.76037 13.2397C5.05326 13.5326 5.05326 14.0075 4.76037 14.3003L3.69537 15.3654C3.40248 15.6582 2.9276 15.6582 2.63471 15.3654C2.34182 15.0725 2.34182 14.5976 2.63471 14.3047L3.69971 13.2397C3.9926 12.9468 4.46748 12.9468 4.76037 13.2397Z" fill="white"/>
<path fill-rule="evenodd" clip-rule="evenodd" d="M15.3654 2.63471C15.6582 2.9276 15.6582 3.40248 15.3654 3.69537L14.3003 4.76037C14.0075 5.05326 13.5326 5.05326 13.2397 4.76037C12.9468 4.46748 12.9468 3.9926 13.2397 3.69971L14.3047 2.63471C14.5976 2.34182 15.0725 2.34182 15.3654 2.63471Z" fill="white"/>
</svg>
