<?xml version="1.0" encoding="utf-8"?>
<!-- Generator: Adobe Illustrator 25.3.1, SVG Export Plug-In . SVG Version: 6.00 Build 0)  -->
<svg version="1.1" id="Layer_1" xmlns="http://www.w3.org/2000/svg" xmlns:xlink="http://www.w3.org/1999/xlink" x="0px" y="0px"
	 viewBox="0 0 40 40" style="enable-background:new 0 0 40 40;" xml:space="preserve">
<style type="text/css">
	.st0{fill:#FFFFFF;}
</style>
<path class="st0" d="M31.1,10.9C29,10,26.8,9.4,24.5,9c-0.3,0.5-0.6,1.1-0.8,1.6c-2.4-0.3-4.9-0.3-7.3,0c-0.3-0.5-0.5-1.1-0.8-1.6
	c-2.3,0.4-4.5,1-6.6,1.9c-4.2,5.8-5.3,11.4-4.7,17c2.4,1.7,5.2,3,8.1,3.8c0.7-0.8,1.2-1.7,1.7-2.6c-0.9-0.3-1.9-0.7-2.7-1.2
	c0.2-0.2,0.5-0.3,0.7-0.5c2.5,1.1,5.3,1.7,8.1,1.7s5.6-0.6,8.1-1.7c0.2,0.2,0.4,0.3,0.7,0.5c-0.9,0.5-1.8,0.9-2.7,1.2
	c0.5,0.9,1.1,1.8,1.7,2.6c2.9-0.8,5.7-2.1,8.1-3.8l0,0C36.5,21.4,34.7,15.8,31.1,10.9z M14.7,24.5c-1.6,0-2.9-1.3-2.9-3
	c0-1.6,1.3-3,2.9-3s2.9,1.4,2.9,3C17.5,23.1,16.3,24.5,14.7,24.5z M25.3,24.5c-1.6,0-2.9-1.3-2.9-3c0-1.6,1.3-3,2.9-3s2.9,1.4,2.9,3
	C28.2,23.1,26.9,24.5,25.3,24.5z"/>
</svg>
