<svg width="32" height="33" viewBox="0 0 32 33" fill="none" xmlns="http://www.w3.org/2000/svg">
<g clip-path="url(#clip0_592_14659)">
<path d="M11.9998 25.8333C5.33317 27.8333 5.33317 22.5 2.6665 21.8333M21.3332 29.8333V24.6733C21.3832 24.0375 21.2973 23.3984 21.0812 22.7984C20.8651 22.1984 20.5237 21.6512 20.0798 21.1933C24.2665 20.7267 28.6665 19.14 28.6665 11.86C28.6662 9.99843 27.9501 8.20826 26.6665 6.86C27.2743 5.23134 27.2313 3.43113 26.5465 1.83333C26.5465 1.83333 24.9732 1.36666 21.3332 3.80666C18.2772 2.97843 15.0558 2.97843 11.9998 3.80666C8.35984 1.36666 6.7865 1.83333 6.7865 1.83333C6.10167 3.43113 6.0587 5.23134 6.6665 6.86C5.37334 8.21826 4.65653 10.0246 4.6665 11.9C4.6665 19.1267 9.0665 20.7133 13.2532 21.2333C12.8145 21.6866 12.4762 22.2272 12.2602 22.8199C12.0443 23.4126 11.9556 24.0441 11.9998 24.6733V29.8333" stroke="#4CBDC7" stroke-width="2" stroke-linecap="round" stroke-linejoin="round"/>
</g>
<defs>
<clipPath id="clip0_592_14659">
<rect width="32" height="32" fill="white" transform="translate(0 0.5)"/>
</clipPath>
</defs>
</svg>
