<svg width="27" height="27" viewBox="0 0 27 27" fill="none" xmlns="http://www.w3.org/2000/svg">
<path fill-rule="evenodd" clip-rule="evenodd" d="M13.058 0C5.84347 0 0 5.99127 0 13.3883C0 19.3127 3.73786 24.3165 8.92843 26.0905C9.58133 26.2076 9.82617 25.806 9.82617 25.4546C9.82617 25.1366 9.80985 24.0822 9.80985 22.961C6.52902 23.5802 5.68025 22.1409 5.41909 21.3878C5.27218 21.0029 4.6356 19.8147 4.08064 19.4967C3.6236 19.2457 2.9707 18.6265 4.06431 18.6098C5.09263 18.593 5.82715 19.5804 6.07199 19.9821C7.24721 22.0071 9.1243 21.4381 9.87514 21.0866C9.9894 20.2164 10.3322 19.6306 10.7076 19.2959C7.80218 18.9612 4.76618 17.8065 4.76618 12.6854C4.76618 11.2295 5.27218 10.0245 6.10463 9.08733C5.97405 8.75262 5.51702 7.38031 6.23521 5.53942C6.23521 5.53942 7.32882 5.18798 9.82617 6.91172C10.8708 6.61048 11.9807 6.45987 13.0907 6.45987C14.2006 6.45987 15.3105 6.61048 16.3552 6.91172C18.8525 5.17124 19.9461 5.53942 19.9461 5.53942C20.6643 7.38031 20.2073 8.75262 20.0767 9.08733C20.9092 10.0245 21.4152 11.2127 21.4152 12.6854C21.4152 17.8232 18.3629 18.9612 15.4574 19.2959C15.9308 19.7143 16.3389 20.5176 16.3389 21.7728C16.3389 23.5634 16.3225 25.0027 16.3225 25.4546C16.3225 25.806 16.5674 26.2244 17.2203 26.0905C19.8125 25.1932 22.065 23.485 23.6608 21.2064C25.2566 18.9278 26.1153 16.1935 26.1161 13.3883C26.1161 5.99127 20.2726 0 13.058 0Z" fill="white"/>
</svg>
