<svg width="156" height="33" viewBox="0 0 156 33" fill="none" xmlns="http://www.w3.org/2000/svg">
<g clip-path="url(#clip0_614_2792)">
<path d="M20.8941 6.43824C20.8674 8.64466 19.7711 10.4198 17.8535 11.7367C16.1805 12.8881 14.4578 13.9739 12.8611 15.2293C10.2522 17.2855 8.54473 19.9501 8.49126 23.3772C8.43396 27.1046 10.107 29.9734 13.2125 32.0026C13.2698 32.0412 13.3347 32.072 13.392 32.1066C13.6671 32.276 13.8924 32.5263 13.6938 32.8267C13.5983 32.9692 13.2431 33.0385 13.0444 32.9846C11.3714 32.5764 9.76325 31.9795 8.29263 31.0669C3.53318 28.1135 0.752374 23.8316 0.11065 18.2559C-0.802279 10.2735 3.93807 2.88025 11.486 0.492848C13.35 -0.100151 15.2294 -0.231072 17.0858 0.550608C19.454 1.54022 20.9705 3.82365 20.8941 6.43824Z" fill="currentColor"/>
<path d="M32.0938 19.1761C32.0556 20.647 31.643 22.2951 30.1075 23.4542C28.3198 24.8019 26.0165 24.7133 24.6108 23.2501C24.2097 22.8265 23.9042 22.3221 23.7246 21.7637C23.5451 21.2054 23.4878 20.6162 23.5604 20.0386C23.6368 19.4572 23.8392 18.9027 24.1563 18.4098C24.4733 17.9208 24.8935 17.5049 25.39 17.2007C25.581 17.0813 25.7758 16.9658 25.9707 16.8542C27.575 15.9493 28.2969 14.5322 28.3504 12.7224C28.3733 12.5453 28.4153 12.3682 28.4726 12.1987C28.6521 12.2757 28.8584 12.3142 29.0074 12.4336C30.9784 13.9816 32.0938 16.3035 32.0938 19.1761Z" fill="currentColor"/>
<path d="M81.2885 15.726C82.3924 15.726 83.0456 16.192 83.0456 16.192L83.9661 14.5824C83.5078 14.2975 82.5375 13.7969 80.9982 13.7969C77.6215 13.7969 75.5894 16.2497 75.5894 19.2571C75.5894 22.2644 77.6215 24.7173 80.9982 24.7173C82.5872 24.7173 83.6109 24.1667 83.9661 23.9356L83.0418 22.3299C82.507 22.638 81.8996 22.7997 81.2847 22.7958C79.2029 22.7958 77.95 21.2132 77.95 19.2648C77.9538 17.4011 79.2105 15.726 81.2885 15.726Z" fill="currentColor"/>
<path d="M71.6438 8.02468C71.2503 8.02853 70.876 8.18255 70.5972 8.46365C70.3183 8.7409 70.1579 9.11826 70.1541 9.51488C70.1502 9.71511 70.1884 9.91534 70.261 10.1002C70.3374 10.285 70.4482 10.4544 70.5895 10.5969C70.727 10.7394 70.8913 10.851 71.0746 10.9281C71.258 11.0051 71.4528 11.0436 71.6514 11.0397C71.8462 11.0436 72.041 11.0051 72.2206 10.9281C72.4001 10.851 72.5644 10.7394 72.698 10.5969C72.8394 10.4583 72.9502 10.2927 73.0266 10.1079C73.1029 9.92304 73.1411 9.72666 73.1373 9.52643C73.1411 9.33004 73.1029 9.13366 73.0266 8.94883C72.9502 8.76785 72.8394 8.60227 72.698 8.46365C72.5605 8.32118 72.3963 8.20951 72.2129 8.1325C72.0372 8.05933 71.8424 8.02083 71.6438 8.02468Z" fill="currentColor"/>
<path d="M70.4712 24.4707H71.2008C71.6324 24.4707 72.0449 24.2975 72.3505 23.9894C72.6561 23.6814 72.828 23.2655 72.828 22.8304V14.0933H70.475V24.4707H70.4712Z" fill="currentColor"/>
<path d="M92.0109 13.793C90.6014 13.793 89.5281 14.3436 88.8749 15.2485V7.65894L86.5181 8.67551V24.4708H88.8749V18.3368C88.8749 16.2497 90.2309 15.4642 91.5182 15.4642C92.6641 15.4642 93.1607 16.269 93.1607 17.6514V24.4708H93.8902C94.3219 24.4708 94.7344 24.2976 95.04 23.9895C95.3456 23.6815 95.5175 23.2656 95.5175 22.8305V17.9825C95.5175 15.5643 94.4097 13.793 92.0109 13.793Z" fill="currentColor"/>
<path d="M112.042 7.65894L109.685 8.67551V24.4708H112.042V7.65894Z" fill="currentColor"/>
<path d="M49.9932 24.4707H52.35V9.93457L49.9932 10.3312V22.9844" fill="currentColor"/>
<path d="M64.7643 15.5643C64.1951 14.6247 63.0377 13.793 61.3685 13.793C58.2133 13.793 56.292 16.2381 56.292 19.2532C56.292 22.2682 58.2133 24.7134 61.3685 24.7134C63.3357 24.7134 64.3365 23.4003 64.7643 22.9459V24.4631H65.4939C65.7078 24.4631 65.9179 24.4207 66.1165 24.3399C66.3151 24.259 66.4908 24.1358 66.6436 23.9856C66.7926 23.8354 66.9148 23.6545 66.995 23.4542C67.0752 23.254 67.1173 23.0422 67.1173 22.8266V14.0933H64.7643V15.5643ZM61.7963 22.7881C59.8329 22.7881 58.6526 21.2055 58.6526 19.257C58.6526 17.3086 59.8329 15.7221 61.7963 15.7221C63.7597 15.7221 64.94 17.3048 64.94 19.257C64.94 21.2093 63.7559 22.7881 61.7963 22.7881Z" fill="currentColor"/>
<path d="M127.879 15.5643C127.309 14.6247 126.152 13.793 124.483 13.793C121.328 13.793 119.406 16.2381 119.406 19.2532C119.406 22.2682 121.328 24.7134 124.483 24.7134C126.45 24.7134 127.451 23.4003 127.879 22.9459V24.4631H128.608C129.04 24.4631 129.452 24.2898 129.758 23.9818C130.063 23.6737 130.232 23.2578 130.232 22.8227V14.0933H127.879V15.5643ZM124.911 22.7881C122.947 22.7881 121.767 21.2055 121.767 19.257C121.767 17.3086 122.947 15.7221 124.911 15.7221C126.874 15.7221 128.054 17.3048 128.054 19.257C128.054 21.2093 126.878 22.7881 124.914 22.7881H124.911Z" fill="currentColor"/>
<path d="M100.048 11.0397C100.242 11.0435 100.437 11.005 100.617 10.928C100.796 10.851 100.961 10.7393 101.098 10.5969C101.239 10.4582 101.35 10.2926 101.427 10.1078C101.503 9.92299 101.541 9.7266 101.537 9.52637C101.541 9.32999 101.507 9.13361 101.43 8.94878C101.358 8.76394 101.243 8.60222 101.102 8.46359C100.964 8.32112 100.8 8.20945 100.617 8.13244C100.433 8.05543 100.239 8.01692 100.04 8.02077C99.6466 8.02462 99.2722 8.1825 98.9934 8.45974C98.7145 8.73699 98.5541 9.11435 98.5503 9.51097C98.5503 9.7112 98.5847 9.90759 98.6611 10.0924C98.7375 10.2772 98.8482 10.4467 98.9857 10.5853C99.1271 10.7278 99.2913 10.8394 99.4747 10.9165C99.658 10.9935 99.8528 11.032 100.051 11.032L100.048 11.0397Z" fill="currentColor"/>
<path d="M98.8638 24.4707H99.5934C100.025 24.4707 100.438 24.2975 100.743 23.9894C101.049 23.6814 101.221 23.2655 101.221 22.8304V14.0933H98.8676V24.4707H98.8638Z" fill="currentColor"/>
<path d="M139.086 13.793C137.676 13.793 136.603 14.3436 135.95 15.2485V14.0933H133.593V24.4708H135.95V18.3367C135.95 16.2497 137.302 15.4641 138.593 15.4641C139.739 15.4641 140.235 16.2689 140.235 17.6513V24.4708H140.965C141.397 24.4708 141.809 24.2975 142.115 23.9895C142.42 23.6814 142.592 23.2655 142.592 22.8304V17.9825C142.592 15.5643 141.484 13.793 139.086 13.793Z" fill="currentColor"/>
<path d="M46.1694 8.96802H56.1773V9.93453C56.1773 10.0616 56.1505 10.1887 56.1047 10.3042C56.055 10.4197 55.9863 10.5275 55.8984 10.6161C55.8106 10.7047 55.7036 10.7778 55.589 10.824C55.4744 10.8741 55.3484 10.8972 55.2223 10.8972H46.1733V8.96802H46.1694Z" fill="currentColor"/>
<path d="M112.042 22.4224H118.173V22.8344C118.173 23.2695 118.001 23.6854 117.699 23.9934C117.394 24.3015 116.981 24.4748 116.549 24.4748H112.042V22.4224Z" fill="currentColor"/>
<path d="M153.628 15.5643C153.058 14.6247 151.901 13.793 150.232 13.793C147.077 13.793 145.155 16.2381 145.155 19.2532C145.155 22.2682 147.077 24.7134 150.232 24.7134C152.199 24.7134 153.2 23.4003 153.628 22.9459V25.6414C153.628 27.4165 152.256 28.2675 151.087 28.2675C148.891 28.2675 147.982 27.0892 147.512 26.7735L146.546 28.4601C146.737 28.6487 147.837 30.2006 151.129 30.2006C153.712 30.2006 155.984 28.7989 155.984 25.395V14.0933H153.628V15.5643ZM150.66 22.7881C148.696 22.7881 147.516 21.2055 147.516 19.257C147.516 17.3086 148.696 15.7221 150.66 15.7221C152.623 15.7221 153.803 17.3048 153.803 19.257C153.803 21.2093 152.623 22.7881 150.66 22.7881Z" fill="currentColor"/>
</g>
<defs>
<clipPath id="clip0_614_2792">
<rect width="156" height="33" fill="white"/>
</clipPath>
</defs>
</svg>
