<svg width="32" height="33" viewBox="0 0 32 33" fill="none" xmlns="http://www.w3.org/2000/svg">
<path d="M28 15.8333C28.0046 17.5931 27.5934 19.3292 26.8 20.9C25.8592 22.7823 24.413 24.3655 22.6233 25.4724C20.8335 26.5792 18.771 27.1658 16.6667 27.1666C14.9068 27.1712 13.1708 26.7601 11.6 25.9666L4 28.5L6.53333 20.9C5.73991 19.3292 5.32875 17.5931 5.33333 15.8333C5.33415 13.729 5.92082 11.6664 7.02763 9.87671C8.13444 8.08698 9.71767 6.64073 11.6 5.69998C13.1708 4.90655 14.9068 4.49539 16.6667 4.49998H17.3333C20.1125 4.6533 22.7374 5.82633 24.7055 7.79446C26.6737 9.76259 27.8467 12.3875 28 15.1666V15.8333Z" stroke="#4CBDC7" stroke-width="2" stroke-linecap="round" stroke-linejoin="round"/>
</svg>
