<svg width="31" height="24" viewBox="0 0 31 24" fill="none" xmlns="http://www.w3.org/2000/svg">
<path d="M30.8211 9.27233V17.7722C30.8206 18.3866 30.5761 18.9759 30.1414 19.4103C29.7068 19.8449 29.1177 20.0894 28.5031 20.0902H27.7306V23.1809V23.1807C27.7303 23.4805 27.5567 23.7532 27.2853 23.8804C27.014 24.0077 26.6934 23.9663 26.4629 23.7746L22.0419 20.0901H14.5951C13.9807 20.0893 13.3913 19.8449 12.957 19.4102C12.5223 18.9758 12.2779 18.3865 12.2771 17.7721V16.9994H20.004C21.0282 16.9981 22.0103 16.5909 22.7344 15.8665C23.4588 15.1421 23.8663 14.1603 23.8673 13.1361V6.95454H28.5033C29.118 6.95532 29.7071 7.19979 30.1417 7.63445C30.5763 8.06882 30.8208 8.65815 30.8213 9.27255L30.8211 9.27233ZM20.0039 15.4539H9.54239L5.13711 20.592C4.92678 20.8373 4.58606 20.9255 4.28289 20.8135C3.97994 20.7015 3.77867 20.4128 3.77815 20.0899V15.4539H3.00539C2.39096 15.4531 1.80161 15.2086 1.36728 14.774C0.932657 14.3396 0.688173 13.7503 0.687378 13.1358V2.31801C0.688154 1.70359 0.932631 1.11424 1.36728 0.679906C1.80165 0.245278 2.39098 0.000794747 3.00539 0H20.0044C20.6191 0.000776137 21.2081 0.245252 21.6427 0.679906C22.0774 1.11427 22.3216 1.70361 22.3224 2.31801V13.1358C22.3216 13.7503 22.0774 14.3396 21.6427 14.774C21.2081 15.2086 20.619 15.4531 20.0044 15.4539L20.0039 15.4539ZM17.6859 9.27259V9.27233C17.6859 9.06743 17.6044 8.87108 17.4595 8.72594C17.3147 8.58107 17.118 8.49983 16.9131 8.49983H6.09597C5.66936 8.49983 5.32321 8.84573 5.32321 9.27233C5.32321 9.69919 5.66936 10.0451 6.09597 10.0451H16.9131C17.118 10.0451 17.3147 9.96359 17.4595 9.81872C17.6044 9.67384 17.6859 9.47723 17.6859 9.27233V9.27259ZM17.6859 5.40933V5.40907C17.6859 5.20417 17.6044 5.00756 17.4595 4.86268C17.3147 4.7178 17.118 4.63631 16.9131 4.63631H6.09597C5.66936 4.63631 5.32321 4.98246 5.32321 5.40907C5.32321 5.83568 5.66936 6.18183 6.09597 6.18183H16.9131C17.118 6.18183 17.3147 6.10033 17.4595 5.95546C17.6044 5.81058 17.6859 5.61397 17.6859 5.40907V5.40933Z" fill="white"/>
</svg>
