<svg width="27" height="27" viewBox="0 0 27 27" fill="none" xmlns="http://www.w3.org/2000/svg">
<path fill-rule="evenodd" clip-rule="evenodd" d="M9.79117 0C9.09853 0.000157418 8.43431 0.275459 7.94465 0.765342C7.45499 1.25522 7.18 1.91956 7.18015 2.6122C7.18031 3.30484 7.45561 3.96905 7.94549 4.45871C8.43538 4.94837 9.09971 5.22337 9.79235 5.22321H12.404V2.61161C12.4033 1.91916 12.128 1.25525 11.6383 0.765616C11.1487 0.275981 10.4848 0.000628642 9.79235 0H9.79117ZM9.79117 6.96468H2.82767C2.13503 6.96468 1.47076 7.23983 0.980986 7.7296C0.491215 8.21937 0.216064 8.88365 0.216064 9.57629C0.216064 10.2689 0.491215 10.9332 0.980986 11.423C1.47076 11.9127 2.13503 12.1879 2.82767 12.1879H9.79117C10.4838 12.1879 11.1481 11.9127 11.6379 11.423C12.1276 10.9332 12.4028 10.2689 12.4028 9.57629C12.4028 8.88365 12.1276 8.21937 11.6379 7.7296C11.1481 7.23983 10.4838 6.96468 9.79117 6.96468ZM26.3321 9.5751C26.3321 8.88246 26.057 8.21819 25.5672 7.72842C25.0774 7.23865 24.4132 6.96349 23.7205 6.96349C23.0279 6.96349 22.3636 7.23865 21.8738 7.72842C21.3841 8.21819 21.1089 8.88246 21.1089 9.5751V12.1867H23.7205C24.4132 12.1867 25.0774 11.9116 25.5672 11.4218C26.057 10.932 26.3321 10.2677 26.3321 9.5751ZM19.3675 9.5751V2.61161C19.3675 1.91897 19.0923 1.25469 18.6025 0.764922C18.1128 0.275151 17.4485 0 16.7558 0C16.0632 0 15.3989 0.275151 14.9092 0.764922C14.4194 1.25469 14.1442 1.91897 14.1442 2.61161V9.5751C14.1442 10.2677 14.4194 10.932 14.9092 11.4218C15.3989 11.9116 16.0632 12.1867 16.7558 12.1867C17.4485 12.1867 18.1128 11.9116 18.6025 11.4218C19.0923 10.932 19.3675 10.2677 19.3675 9.5751ZM16.7558 26.1161C17.4485 26.1161 18.1128 25.8409 18.6025 25.3512C19.0923 24.8614 19.3675 24.1971 19.3675 23.5045C19.3675 22.8118 19.0923 22.1476 18.6025 21.6578C18.1128 21.168 17.4485 20.8929 16.7558 20.8929H14.1442V23.5045C14.1446 24.197 14.4198 24.8611 14.9095 25.3508C15.3992 25.8405 16.0633 26.1158 16.7558 26.1161ZM16.7558 19.1502H23.7205C24.4132 19.1502 25.0774 18.8751 25.5672 18.3853C26.057 17.8955 26.3321 17.2312 26.3321 16.5386C26.3321 15.846 26.057 15.1817 25.5672 14.6919C25.0774 14.2021 24.4132 13.927 23.7205 13.927H16.757C16.0644 13.9268 15.4001 14.2018 14.9102 14.6915C14.4203 15.1812 14.145 15.8454 14.1448 16.538C14.1447 17.2306 14.4197 17.895 14.9093 18.3849C15.399 18.8747 16.0632 19.15 16.7558 19.1502ZM0.216064 16.5398C0.216064 17.2324 0.491215 17.8967 0.980986 18.3865C1.47076 18.8762 2.13503 19.1514 2.82767 19.1514C3.52031 19.1514 4.18459 18.8762 4.67436 18.3865C5.16413 17.8967 5.43928 17.2324 5.43928 16.5398V13.9282H2.82767C2.13503 13.9282 1.47076 14.2033 0.980986 14.6931C0.491215 15.1829 0.216064 15.8471 0.216064 16.5398ZM7.18075 16.5398V23.5033C7.18059 24.1959 7.45559 24.8603 7.94525 25.3501C8.43491 25.84 9.09912 26.1153 9.79176 26.1155C10.4844 26.1156 11.1487 25.8406 11.6386 25.351C12.1285 24.8613 12.4038 24.1971 12.404 23.5045V16.541C12.4041 15.8483 12.1291 15.184 11.6395 14.6941C11.1498 14.2042 10.4856 13.9289 9.79295 13.9288C9.10031 13.9286 8.43597 14.2036 7.94609 14.6933C7.45621 15.1829 7.1809 15.8471 7.18075 16.5398Z" fill="currentColor"/>
</svg>
