<svg width="32" height="33" viewBox="0 0 32 33" fill="none" xmlns="http://www.w3.org/2000/svg">
<path d="M19.3335 13.8334C18.2268 13.8334 17.3335 12.94 17.3335 11.8334V5.16669C17.3335 4.06002 18.2268 3.16669 19.3335 3.16669C20.4402 3.16669 21.3335 4.06002 21.3335 5.16669V11.8334C21.3335 12.94 20.4402 13.8334 19.3335 13.8334Z" fill="#4CBDC7" stroke="#4CBDC7" stroke-linecap="round" stroke-linejoin="round"/>
<path d="M27.3335 13.8333H25.3335V11.8333C25.3335 10.7266 26.2268 9.83331 27.3335 9.83331C28.4402 9.83331 29.3335 10.7266 29.3335 11.8333C29.3335 12.94 28.4402 13.8333 27.3335 13.8333Z" fill="#4CBDC7" stroke="#4CBDC7" stroke-linecap="round" stroke-linejoin="round"/>
<path d="M12.6665 19.1667C13.7732 19.1667 14.6665 20.06 14.6665 21.1667V27.8334C14.6665 28.94 13.7732 29.8334 12.6665 29.8334C11.5598 29.8334 10.6665 28.94 10.6665 27.8334V21.1667C10.6665 20.06 11.5598 19.1667 12.6665 19.1667Z" fill="#4CBDC7" stroke="#4CBDC7" stroke-linecap="round" stroke-linejoin="round"/>
<path d="M4.6665 19.1667H6.6665V21.1667C6.6665 22.2734 5.77317 23.1667 4.6665 23.1667C3.55984 23.1667 2.6665 22.2734 2.6665 21.1667C2.6665 20.06 3.55984 19.1667 4.6665 19.1667Z" fill="#4CBDC7" stroke="#4CBDC7" stroke-linecap="round" stroke-linejoin="round"/>
<path d="M18.6665 19.8333C18.6665 18.7266 19.5598 17.8333 20.6665 17.8333H27.3332C28.4398 17.8333 29.3332 18.7266 29.3332 19.8333C29.3332 20.94 28.4398 21.8333 27.3332 21.8333H20.6665C19.5598 21.8333 18.6665 20.94 18.6665 19.8333Z" fill="#4CBDC7" stroke="#4CBDC7" stroke-linecap="round" stroke-linejoin="round"/>
<path d="M20.6665 25.8333H18.6665V27.8333C18.6665 28.94 19.5598 29.8333 20.6665 29.8333C21.7732 29.8333 22.6665 28.94 22.6665 27.8333C22.6665 26.7266 21.7732 25.8333 20.6665 25.8333Z" fill="#4CBDC7" stroke="#4CBDC7" stroke-linecap="round" stroke-linejoin="round"/>
<path d="M13.3332 13.1667C13.3332 12.06 12.4398 11.1667 11.3332 11.1667H4.6665C3.55984 11.1667 2.6665 12.06 2.6665 13.1667C2.6665 14.2734 3.55984 15.1667 4.6665 15.1667H11.3332C12.4398 15.1667 13.3332 14.2734 13.3332 13.1667Z" fill="#4CBDC7" stroke="#4CBDC7" stroke-linecap="round" stroke-linejoin="round"/>
<path d="M11.3335 7.16669H13.3335V5.16669C13.3335 4.06002 12.4402 3.16669 11.3335 3.16669C10.2268 3.16669 9.3335 4.06002 9.3335 5.16669C9.3335 6.27335 10.2268 7.16669 11.3335 7.16669Z" fill="#4CBDC7" stroke="#4CBDC7" stroke-linecap="round" stroke-linejoin="round"/>
</svg>
