<svg xmlns="http://www.w3.org/2000/svg" viewBox="0 0 752 272"><path d="M576.49,132.2c-25.37,0-46,21.74-46,48.46s20.64,48.46,46,48.46a44.15,44.15,0,0,0,26-8.46l-8.21-14.22a27.22,27.22,0,0,1-14.29,4.09c-15.65,0-28.38-13.4-28.38-29.87s12.73-29.87,28.38-29.87a27.23,27.23,0,0,1,15.28,4.71l8.16-14.14A44.08,44.08,0,0,0,576.49,132.2Z"/><path d="M498,78a13.4,13.4,0,0,0-13.31,13.23,13.1,13.1,0,0,0,3.92,9.58,13,13,0,0,0,9.49,3.93,12.68,12.68,0,0,0,9.39-3.92,13,13,0,0,0,3.92-9.5,12.7,12.7,0,0,0-3.91-9.39A13,13,0,0,0,498,78Z"/><path d="M738.12,78a13.4,13.4,0,0,0-13.31,13.23,13.1,13.1,0,0,0,3.92,9.58,13,13,0,0,0,9.49,3.93,12.68,12.68,0,0,0,9.39-3.92,13,13,0,0,0,3.93-9.5,12.68,12.68,0,0,0-3.92-9.39A13,13,0,0,0,738.12,78Z"/><rect x="487.54" y="134.87" width="21.08" height="92.03"/><rect x="727.63" y="134.87" width="21.08" height="92.03"/><path d="M664.74,151.2c7.77,0,12.52,5.67,13.78,7.4,2.77,3.79,3.53,6.9,3.53,14.46V226.9h21.08V171c0-13-2.71-22.62-8-28.53-6.29-6.8-14.8-10.25-25.31-10.25-10,0-20.39,5.92-25.36,14.39l-.67,1.14V55.11L622.67,67.27V226.9h21.07V183.23C643.74,156.75,655.16,151.2,664.74,151.2Z"/><path d="M461.35,227v-92H440.18v8.37l-.59-.49a45.83,45.83,0,0,0-28.94-10.55c-25.35,0-45.21,21.28-45.21,48.43,0,13.09,4.42,25.26,12.45,34.27a41.69,41.69,0,0,0,31.47,14.17,47.65,47.65,0,0,0,30.23-11.18l.59-.49V227Zm-46.54-16.46c-15.65,0-28.38-13.39-28.38-29.85s12.73-29.86,28.38-29.86c9.68,0,21.86,5.46,25.35,15.58l0,0a21.5,21.5,0,0,1,.58,2.14l.05.26c.05.2.09.4.13.61s.08.56.11.85a19.17,19.17,0,0,1,.14,2.12v17.07c0,.77-.06,1.52-.11,2.08l-.09.76c-.05.4-.12.8-.2,1.19l-.05.26c0,.22-.08.44-.14.65C438.21,204.32,428.33,210.49,414.81,210.49Z"/><path d="M308.44,173.88v31.73a23.13,23.13,0,0,0,23.11,23.11h14.91V213.35h-9.61a7.35,7.35,0,0,1-7.34-7.34V150.24h16.95V134.87H329.51V99.25l-21.07,12.17v23.45H298v15.37h10.48v23.64Z"/><polygon points="73.32 231.31 50.33 271.12 96.3 271.12 73.32 231.31"/><path d="M72.94,147.09A78.82,78.82,0,1,0,46.21,36c-.71,1.15-1.44,2.28-2.12,3.46S42.8,41.8,42.15,43A78.84,78.84,0,0,0,72.94,147.09Z"/><polygon points="72.94 147.09 24.31 147.09 0 189.2 24.31 231.31 72.94 231.31 97.25 189.2 72.94 147.09"/><circle cx="168.37" cy="226.23" r="19.91"/></svg>
