<svg width="25" height="26" viewBox="0 0 25 26" fill="none"
  xmlns="http://www.w3.org/2000/svg">
  <style>
    path {
      fill: #f5f6f7;
    }
    @media (prefers-color-scheme: dark) {
      path {
        fill: #EDF9FA;
      }
    }
  </style>
  <path d="M16.0725 5.12747C16.052 6.799 15.2087 8.14381 13.7337 9.14147C12.4467 10.0137 11.1215 10.8363 9.8933 11.7873C7.88644 13.3451 6.57302 15.3638 6.53189 17.96C6.48781 20.7838 7.77479 22.9571 10.1636 24.4944C10.2077 24.5236 10.2576 24.547 10.3017 24.5732C10.5133 24.7016 10.6866 24.8912 10.5338 25.1187C10.4604 25.2267 10.1871 25.2792 10.0343 25.2383C8.74736 24.9291 7.51034 24.4769 6.3791 23.7856C2.71798 21.5481 0.578899 18.3043 0.0852656 14.0802C-0.616987 8.03296 3.02944 2.43202 8.83551 0.623387C10.2694 0.174145 11.715 0.0749618 13.1431 0.667144C14.9648 1.41685 16.1313 3.14672 16.0725 5.12747Z"/>
  <path d="M24.6873 14.7774C24.6579 15.8917 24.3406 17.1403 23.1594 18.0184C21.7843 19.0394 20.0125 18.9723 18.9312 17.8637C18.6226 17.5429 18.3876 17.1607 18.2495 16.7377C18.1114 16.3147 18.0673 15.8684 18.1231 15.4308C18.1819 14.9904 18.3376 14.5703 18.5815 14.1969C18.8254 13.8264 19.1486 13.5114 19.5306 13.2809C19.6775 13.1905 19.8274 13.103 19.9772 13.0184C21.2113 12.3328 21.7666 11.2593 21.8078 9.88825C21.8254 9.75406 21.8577 9.61987 21.9018 9.49152C22.0399 9.54986 22.1986 9.57903 22.3131 9.66946C23.8293 10.8422 24.6873 12.6012 24.6873 14.7774Z"/>
</svg>
