<svg xmlns="http://www.w3.org/2000/svg" viewBox="0 0 288.11 106.3"><g id="Layer_2" data-name="Layer 2"><g id="Layer_1-2" data-name="Layer 1"><path d="M221,50.68c-9.72,0-17.63,8.33-17.63,18.58S211.28,87.83,221,87.83A16.92,16.92,0,0,0,231,84.59l-3.15-5.45a10.42,10.42,0,0,1-5.47,1.57c-6,0-10.88-5.14-10.88-11.45s4.88-11.45,10.88-11.45a10.42,10.42,0,0,1,5.85,1.8l3.13-5.42A16.88,16.88,0,0,0,221,50.68Z"/><path d="M190.92,29.9a5.14,5.14,0,0,0-5.1,5.07,5.06,5.06,0,0,0,1.5,3.68,5,5,0,0,0,3.64,1.5,4.83,4.83,0,0,0,3.6-1.5A5,5,0,0,0,196.07,35a4.84,4.84,0,0,0-1.51-3.6A5,5,0,0,0,190.92,29.9Z"/><path d="M283,29.9A5.16,5.16,0,0,0,277.86,35a5,5,0,0,0,1.51,3.68,4.94,4.94,0,0,0,3.63,1.5,4.83,4.83,0,0,0,3.6-1.5A5,5,0,0,0,288.11,35a4.87,4.87,0,0,0-1.5-3.6A5,5,0,0,0,283,29.9Z"/><rect x="186.9" y="51.7" width="8.08" height="35.28"/><rect x="278.94" y="51.7" width="8.08" height="35.28"/><path d="M254.83,58a6.82,6.82,0,0,1,5.29,2.84c1.06,1.45,1.35,2.65,1.35,5.54V87h8.08V65.56c0-5-1-8.67-3.09-10.93a12.61,12.61,0,0,0-9.7-3.93A11.77,11.77,0,0,0,247,56.21l-.25.44V21.13l-8.08,4.66V87h8.08V70.24C246.79,60.09,251.16,58,254.83,58Z"/><path d="M176.86,87V51.72h-8.11v3.21l-.23-.18a17.53,17.53,0,0,0-11.09-4c-9.72,0-17.33,8.16-17.33,18.57a19.61,19.61,0,0,0,4.77,13.13,16,16,0,0,0,12.06,5.43,18.29,18.29,0,0,0,11.59-4.28l.23-.19V87ZM159,80.69c-6,0-10.88-5.13-10.88-11.44S153,57.8,159,57.8c3.71,0,8.38,2.1,9.72,6v0a7.64,7.64,0,0,1,.22.81l0,.1c0,.08,0,.16,0,.24s0,.21,0,.33a6.64,6.64,0,0,1,0,.81v6.54c0,.3,0,.58,0,.8l0,.29c0,.15-.05.31-.08.46l0,.09a1.84,1.84,0,0,1-.05.25C168,78.33,164.2,80.69,159,80.69Z"/><path d="M118.24,66.66V78.82a8.87,8.87,0,0,0,8.86,8.86h5.72V81.79h-3.69A2.81,2.81,0,0,1,126.32,79V57.6h6.5V51.7h-6.5V38.05l-8.08,4.66v9h-4v5.9h4v9.06Z"/><polygon points="28.1 88.67 28.1 106.3 43.36 97.49 28.1 88.67"/><path d="M28,56.39a30.22,30.22,0,1,0-10.25-42.6c-.27.44-.55.87-.81,1.32s-.49.91-.74,1.37A30.22,30.22,0,0,0,28,56.39Z"/><polygon points="27.96 56.39 9.32 56.39 0 72.53 9.32 88.67 27.96 88.67 37.28 72.53 27.96 56.39"/><circle cx="73.29" cy="82.55" r="7.63"/></g></g></svg>