<svg width="1632" height="1243" xmlns="http://www.w3.org/2000/svg" xmlns:xlink="http://www.w3.org/1999/xlink" xml:space="preserve" overflow="hidden"><rect x="0" y="0" width="100%" height="100%" fill="white" /><defs><clipPath id="clip0"><rect x="2720" y="637" width="1632" height="1243"/></clipPath></defs><g clip-path="url(#clip0)" transform="translate(-2720 -637)"><path d="M3405 932C3405 771.838 3535.06 642 3695.5 642 3855.94 642 3986 771.838 3986 932 3986 1092.16 3855.94 1222 3695.5 1222 3535.06 1222 3405 1092.16 3405 932Z" stroke="#000000" stroke-width="10.3125" stroke-miterlimit="8" fill="none" fill-rule="evenodd"/><path d="M3677.5 936.5C3677.5 927.664 3684.66 920.5 3693.5 920.5 3702.34 920.5 3709.5 927.664 3709.5 936.5 3709.5 945.337 3702.34 952.5 3693.5 952.5 3684.66 952.5 3677.5 945.337 3677.5 936.5Z" stroke="#000000" stroke-width="4.58333" stroke-miterlimit="8" fill-rule="evenodd"/><path d="M2984 1363.5C2984 1203.06 3114.06 1073 3274.5 1073 3434.94 1073 3565 1203.06 3565 1363.5 3565 1523.94 3434.94 1654 3274.5 1654 3114.06 1654 2984 1523.94 2984 1363.5Z" stroke="#000000" stroke-width="10.3125" stroke-miterlimit="8" fill="none" fill-rule="evenodd"/><path d="M3256.5 1368C3256.5 1358.89 3263.66 1351.5 3272.5 1351.5 3281.34 1351.5 3288.5 1358.89 3288.5 1368 3288.5 1377.11 3281.34 1384.5 3272.5 1384.5 3263.66 1384.5 3256.5 1377.11 3256.5 1368Z" stroke="#000000" stroke-width="4.58333" stroke-miterlimit="8" fill-rule="evenodd"/><path d="M3053 1142C3053 981.838 3183.06 852 3343.5 852 3503.94 852 3634 981.838 3634 1142 3634 1302.16 3503.94 1432 3343.5 1432 3183.06 1432 3053 1302.16 3053 1142Z" stroke="#000000" stroke-width="10.3125" stroke-miterlimit="8" stroke-dasharray="41.25 30.9375" fill="none" fill-rule="evenodd"/><path d="M3326.5 1146.5C3326.5 1137.66 3333.66 1130.5 3342.5 1130.5 3351.34 1130.5 3358.5 1137.66 3358.5 1146.5 3358.5 1155.34 3351.34 1162.5 3342.5 1162.5 3333.66 1162.5 3326.5 1155.34 3326.5 1146.5Z" stroke="#000000" stroke-width="4.58333" stroke-miterlimit="8" fill-rule="evenodd"/><path d="M2986 1585C2986 1424.84 3115.84 1295 3276 1295 3436.16 1295 3566 1424.84 3566 1585 3566 1745.16 3436.16 1875 3276 1875 3115.84 1875 2986 1745.16 2986 1585Z" stroke="#000000" stroke-width="10.3125" stroke-miterlimit="8" fill="none" fill-rule="evenodd"/><path d="M3258.5 1589.5C3258.5 1580.66 3265.66 1573.5 3274.5 1573.5 3283.34 1573.5 3290.5 1580.66 3290.5 1589.5 3290.5 1598.34 3283.34 1605.5 3274.5 1605.5 3265.66 1605.5 3258.5 1598.34 3258.5 1589.5Z" stroke="#000000" stroke-width="4.58333" stroke-miterlimit="8" fill-rule="evenodd"/><path d="M3265.81 1573.39 3264.37 1424.18 3280.41 1424.02 3281.85 1573.24ZM3248.4 1432.36 3272 1384 3296.53 1431.89Z" fill="#4472C4"/><path d="M7.68338-2.30207 54.3521 153.46 38.9854 158.064-7.68338 2.30207ZM67.4168 141.172 58.1791 194.179 21.3166 154.984Z" fill="#4472C4" transform="matrix(1 0 0 -1 3272 1351.18)"/><path d="M4.18828-6.84048 17.8692 1.53608 9.49267 15.217-4.18828 6.84048ZM31.5502 9.91263 45.2311 18.2892 36.8546 31.9701 23.1736 23.5936ZM58.9121 26.6657 72.593 35.0423 64.2165 48.7232 50.5355 40.3467ZM86.274 43.4188 99.9549 51.7954 91.5784 65.4763 77.8974 57.0998ZM113.636 60.172 127.317 68.5485 118.94 82.2295 105.259 73.8529ZM140.998 76.9251 154.679 85.3016 146.302 98.9826 132.621 90.606ZM168.36 93.6782 182.041 102.055 173.664 115.736 159.983 107.359ZM195.722 110.431 209.403 118.808 201.026 132.489 187.345 124.112ZM223.084 127.184 236.764 135.561 228.388 149.242 214.707 140.865ZM250.445 143.937 264.126 152.314 255.75 165.995 242.069 157.618ZM277.807 160.691 291.488 169.067 283.112 182.748 269.431 174.372ZM295.629 152.792 324.107 198.444 270.499 193.835Z" fill="#548235" transform="matrix(1 0 0 -1 3353 1134.44)"/><path d="M2760.31 1387.01C2759.56 1390.32 2759.37 1391 2755.24 1391 2754.11 1391 2753.08 1391 2753.08 1392.86 2753.08 1393.64 2753.55 1394.03 2754.3 1394.03 2756.84 1394.03 2759.56 1393.73 2762.19 1393.73 2765.28 1393.73 2768.48 1394.03 2771.48 1394.03 2771.95 1394.03 2773.17 1394.03 2773.17 1392.08 2773.17 1391 2772.23 1391 2770.92 1391 2766.22 1391 2766.22 1390.32 2766.22 1389.45 2766.22 1388.28 2770.17 1372.39 2770.82 1369.95 2772.04 1372.78 2774.67 1376.19 2779.46 1376.19 2790.35 1376.19 2802.08 1361.95 2802.08 1347.62 2802.08 1338.46 2796.73 1332.03 2789.6 1332.03 2784.9 1332.03 2780.4 1335.54 2777.3 1339.34 2776.36 1334.07 2772.32 1332.03 2768.85 1332.03 2764.53 1332.03 2762.75 1335.83 2761.9 1337.58 2760.22 1340.9 2758.99 1346.75 2758.99 1347.04 2758.99 1348.01 2759.93 1348.01 2760.12 1348.01 2761.06 1348.01 2761.15 1347.92 2761.72 1345.77 2763.31 1338.85 2765.19 1334.17 2768.57 1334.17 2770.17 1334.17 2771.48 1334.95 2771.48 1338.66 2771.48 1340.9 2771.2 1341.97 2770.82 1343.63L2760.31 1387.01ZM2776.83 1344.7C2777.49 1342.07 2780.02 1339.34 2781.71 1337.88 2785 1334.85 2787.72 1334.17 2789.31 1334.17 2793.07 1334.17 2795.32 1337.58 2795.32 1343.33 2795.32 1349.09 2792.22 1360.3 2790.54 1364 2787.34 1370.83 2782.84 1374.04 2779.36 1374.04 2773.17 1374.04 2771.95 1365.95 2771.95 1365.37 2771.95 1365.17 2771.95 1364.98 2772.23 1363.81L2776.83 1344.7Z" fill-rule="evenodd"/><path d="M2824.98 1345.97C2824.98 1344.1 2824.85 1344.03 2823.01 1344.03 2818.79 1348.39 2812.79 1348.46 2810.08 1348.46L2810.08 1350.96C2811.67 1350.96 2816.02 1350.96 2819.64 1349.02L2819.64 1384.35C2819.64 1386.63 2819.64 1387.53 2813.05 1387.53L2810.54 1387.53 2810.54 1390.03C2811.73 1389.96 2819.84 1389.75 2822.28 1389.75 2824.32 1389.75 2832.63 1389.96 2834.08 1390.03L2834.08 1387.53 2831.58 1387.53C2824.98 1387.53 2824.98 1386.63 2824.98 1384.35L2824.98 1345.97Z" fill-rule="evenodd"/><path d="M2854.32 1388.78C2854.32 1392.53 2853.69 1396.89 2849.4 1401.25 2849.15 1401.53 2848.96 1401.73 2848.96 1402.07 2848.96 1402.55 2849.47 1403.03 2849.84 1403.03 2850.73 1403.03 2856.08 1397.57 2856.08 1389.46 2856.08 1385.23 2854.57 1382.03 2851.67 1382.03 2849.59 1382.03 2848.08 1383.8 2848.08 1385.91 2848.08 1388.1 2849.53 1389.87 2851.73 1389.87 2853.25 1389.87 2854.25 1388.78 2854.32 1388.78Z" fill-rule="evenodd"/><path d="M2870.99 1385.17C2870.73 1386.04 2870.34 1387.7 2870.34 1387.9 2870.34 1389.36 2871.52 1390.03 2872.57 1390.03 2873.74 1390.03 2874.79 1389.16 2875.12 1388.56 2875.45 1387.96 2875.97 1385.84 2876.3 1384.44 2876.62 1383.18 2877.34 1380.12 2877.74 1378.45 2878.13 1376.99 2878.52 1375.53 2878.85 1374 2879.57 1371.27 2879.7 1370.74 2881.6 1368.01 2883.43 1365.35 2886.51 1361.89 2891.42 1361.89 2895.22 1361.89 2895.28 1365.28 2895.28 1366.55 2895.28 1370.54 2892.47 1377.92 2891.42 1380.71 2890.7 1382.58 2890.44 1383.18 2890.44 1384.31 2890.44 1387.83 2893.32 1390.03 2896.66 1390.03 2903.2 1390.03 2906.08 1380.85 2906.08 1379.85 2906.08 1378.98 2905.23 1378.98 2905.04 1378.98 2904.12 1378.98 2904.06 1379.38 2903.79 1380.12 2902.29 1385.44 2899.47 1388.16 2896.85 1388.16 2895.48 1388.16 2895.22 1387.23 2895.22 1385.84 2895.22 1384.31 2895.54 1383.44 2896.72 1380.45 2897.51 1378.39 2900.19 1371.33 2900.19 1367.61 2900.19 1361.16 2895.15 1360.03 2891.68 1360.03 2886.25 1360.03 2882.58 1363.42 2880.62 1366.08 2880.16 1361.49 2876.3 1360.03 2873.61 1360.03 2870.8 1360.03 2869.29 1362.09 2868.44 1363.62 2867 1366.08 2866.08 1369.87 2866.08 1370.2 2866.08 1371.07 2867 1371.07 2867.2 1371.07 2868.11 1371.07 2868.18 1370.87 2868.64 1369.07 2869.62 1365.15 2870.86 1361.89 2873.42 1361.89 2875.12 1361.89 2875.58 1363.35 2875.58 1365.15 2875.58 1366.41 2874.99 1368.87 2874.53 1370.67 2874.07 1372.47 2873.42 1375.19 2873.09 1376.66L2870.99 1385.17Z" fill-rule="evenodd"/><path d="M2761.63 1088.03 2749.08 1100.39 2750.77 1102.03 2761.63 1092.75 2772.4 1102.03 2774.08 1100.39 2761.63 1088.03Z" fill="#548235" fill-rule="evenodd"/><path d="M2735.16 1160.69C2734.42 1163.68 2734.24 1164.3 2730.19 1164.3 2729.09 1164.3 2728.08 1164.3 2728.08 1165.97 2728.08 1166.67 2728.54 1167.03 2729.27 1167.03 2731.76 1167.03 2734.42 1166.76 2737 1166.76 2740.03 1166.76 2743.16 1167.03 2746.1 1167.03 2746.56 1167.03 2747.76 1167.03 2747.76 1165.27 2747.76 1164.3 2746.84 1164.3 2745.55 1164.3 2740.95 1164.3 2740.95 1163.68 2740.95 1162.89 2740.95 1161.83 2744.81 1147.48 2745.46 1145.28 2746.65 1147.83 2749.23 1150.91 2753.92 1150.91 2764.59 1150.91 2776.08 1138.06 2776.08 1125.11 2776.08 1116.84 2770.84 1111.03 2763.85 1111.03 2759.25 1111.03 2754.84 1114.2 2751.8 1117.63 2750.88 1112.88 2746.93 1111.03 2743.53 1111.03 2739.3 1111.03 2737.55 1114.46 2736.72 1116.05 2735.07 1119.04 2733.87 1124.32 2733.87 1124.59 2733.87 1125.47 2734.79 1125.47 2734.98 1125.47 2735.9 1125.47 2735.99 1125.38 2736.54 1123.44 2738.1 1117.19 2739.94 1112.96 2743.25 1112.96 2744.81 1112.96 2746.1 1113.67 2746.1 1117.01 2746.1 1119.04 2745.83 1120.01 2745.46 1121.5L2735.16 1160.69ZM2751.34 1122.47C2751.99 1120.1 2754.47 1117.63 2756.13 1116.31 2759.34 1113.58 2762.01 1112.96 2763.57 1112.96 2767.25 1112.96 2769.46 1116.05 2769.46 1121.24 2769.46 1126.44 2766.42 1136.56 2764.77 1139.91 2761.64 1146.07 2757.23 1148.98 2753.83 1148.98 2747.76 1148.98 2746.56 1141.67 2746.56 1141.14 2746.56 1140.96 2746.56 1140.79 2746.84 1139.73L2751.34 1122.47Z" fill="#548235" fill-rule="evenodd"/><path d="M2798.98 1123.76C2798.98 1122.09 2798.85 1122.03 2797.01 1122.03 2792.79 1125.92 2786.79 1125.98 2784.08 1125.98L2784.08 1128.2C2785.67 1128.2 2790.02 1128.2 2793.64 1126.47L2793.64 1157.96C2793.64 1160 2793.64 1160.8 2787.05 1160.8L2784.54 1160.8 2784.54 1163.03C2785.73 1162.97 2793.84 1162.78 2796.28 1162.78 2798.32 1162.78 2806.63 1162.97 2808.08 1163.03L2808.08 1160.8 2805.58 1160.8C2798.98 1160.8 2798.98 1160 2798.98 1157.96L2798.98 1123.76Z" fill="#548235" fill-rule="evenodd"/><path d="M2827.32 1162.46C2827.32 1166.03 2826.69 1170.18 2822.4 1174.34 2822.15 1174.6 2821.96 1174.8 2821.96 1175.12 2821.96 1175.57 2822.47 1176.03 2822.84 1176.03 2823.73 1176.03 2829.08 1170.83 2829.08 1163.11 2829.08 1159.08 2827.57 1156.03 2824.67 1156.03 2822.59 1156.03 2821.08 1157.72 2821.08 1159.73 2821.08 1161.81 2822.53 1163.5 2824.73 1163.5 2826.25 1163.5 2827.25 1162.46 2827.32 1162.46Z" fill="#548235" fill-rule="evenodd"/><path d="M2843.87 1159.5C2843.61 1160.3 2843.23 1161.85 2843.23 1162.04 2843.23 1163.41 2844.38 1164.03 2845.4 1164.03 2846.55 1164.03 2847.57 1163.22 2847.89 1162.66 2848.21 1162.1 2848.72 1160.12 2849.04 1158.81 2849.36 1157.63 2850.06 1154.78 2850.44 1153.22 2850.83 1151.86 2851.21 1150.49 2851.53 1149.07 2852.23 1146.52 2852.36 1146.02 2854.21 1143.48 2856 1140.99 2859 1137.77 2863.78 1137.77 2867.49 1137.77 2867.55 1140.93 2867.55 1142.11 2867.55 1145.84 2864.81 1152.73 2863.78 1155.34 2863.08 1157.07 2862.83 1157.63 2862.83 1158.69 2862.83 1161.98 2865.64 1164.03 2868.89 1164.03 2875.27 1164.03 2878.08 1155.46 2878.08 1154.53 2878.08 1153.72 2877.25 1153.72 2877.06 1153.72 2876.17 1153.72 2876.1 1154.09 2875.85 1154.78 2874.38 1159.74 2871.64 1162.29 2869.08 1162.29 2867.74 1162.29 2867.49 1161.42 2867.49 1160.12 2867.49 1158.69 2867.81 1157.88 2868.96 1155.09 2869.72 1153.16 2872.34 1146.58 2872.34 1143.11 2872.34 1137.08 2867.42 1136.03 2864.04 1136.03 2858.74 1136.03 2855.17 1139.19 2853.25 1141.68 2852.81 1137.39 2849.04 1136.03 2846.42 1136.03 2843.68 1136.03 2842.21 1137.95 2841.38 1139.38 2839.98 1141.68 2839.08 1145.22 2839.08 1145.53 2839.08 1146.33 2839.98 1146.33 2840.17 1146.33 2841.06 1146.33 2841.12 1146.15 2841.57 1144.47 2842.53 1140.81 2843.74 1137.77 2846.23 1137.77 2847.89 1137.77 2848.34 1139.13 2848.34 1140.81 2848.34 1141.99 2847.76 1144.28 2847.32 1145.96 2846.87 1147.64 2846.23 1150.18 2845.91 1151.55L2843.87 1159.5Z" fill="#548235" fill-rule="evenodd"/><path d="M2911.18 1149.56 2930.72 1149.56C2931.55 1149.56 2933.08 1149.56 2933.08 1148.06 2933.08 1146.5 2931.62 1146.5 2930.72 1146.5L2911.18 1146.5 2911.18 1127.34C2911.18 1126.53 2911.18 1125.03 2909.65 1125.03 2908.05 1125.03 2908.05 1126.46 2908.05 1127.34L2908.05 1146.5 2888.45 1146.5C2887.62 1146.5 2886.08 1146.5 2886.08 1148 2886.08 1149.56 2887.55 1149.56 2888.45 1149.56L2908.05 1149.56 2908.05 1168.72C2908.05 1169.53 2908.05 1171.03 2909.58 1171.03 2911.18 1171.03 2911.18 1169.59 2911.18 1168.72L2911.18 1149.56Z" fill="#548235" fill-rule="evenodd"/><path d="M2959.37 1123.76C2959.37 1122.09 2959.24 1122.03 2957.47 1122.03 2953.43 1125.92 2947.68 1125.98 2945.09 1125.98L2945.09 1128.2C2946.6 1128.2 2950.77 1128.2 2954.25 1126.47L2954.25 1157.96C2954.25 1160 2954.25 1160.8 2947.93 1160.8L2945.53 1160.8 2945.53 1163.03C2946.67 1162.97 2954.44 1162.78 2956.78 1162.78 2958.73 1162.78 2966.7 1162.97 2968.09 1163.03L2968.09 1160.8 2965.68 1160.8C2959.37 1160.8 2959.37 1160 2959.37 1157.96L2959.37 1123.76Z" fill="#548235" fill-rule="evenodd"/><path d="M2727.16 1623.01C2726.42 1626.32 2726.24 1627.01 2722.19 1627.01 2721.09 1627.01 2720.08 1627.01 2720.08 1628.86 2720.08 1629.64 2720.54 1630.03 2721.27 1630.03 2723.76 1630.03 2726.42 1629.73 2729 1629.73 2732.03 1629.73 2735.16 1630.03 2738.1 1630.03 2738.56 1630.03 2739.76 1630.03 2739.76 1628.08 2739.76 1627.01 2738.84 1627.01 2737.55 1627.01 2732.95 1627.01 2732.95 1626.32 2732.95 1625.45 2732.95 1624.28 2736.81 1608.39 2737.46 1605.95 2738.65 1608.78 2741.23 1612.19 2745.92 1612.19 2756.58 1612.19 2768.08 1597.95 2768.08 1583.62 2768.08 1574.46 2762.84 1568.03 2755.85 1568.03 2751.25 1568.03 2746.84 1571.54 2743.8 1575.34 2742.88 1570.07 2738.93 1568.03 2735.53 1568.03 2731.3 1568.03 2729.55 1571.83 2728.72 1573.58 2727.07 1576.9 2725.87 1582.75 2725.87 1583.04 2725.87 1584.01 2726.79 1584.01 2726.98 1584.01 2727.9 1584.01 2727.99 1583.92 2728.54 1581.77 2730.1 1574.85 2731.94 1570.17 2735.25 1570.17 2736.81 1570.17 2738.1 1570.95 2738.1 1574.66 2738.1 1576.9 2737.83 1577.97 2737.46 1579.63L2727.16 1623.01ZM2743.34 1580.7C2743.99 1578.07 2746.47 1575.34 2748.13 1573.88 2751.34 1570.85 2754.01 1570.17 2755.57 1570.17 2759.25 1570.17 2761.46 1573.58 2761.46 1579.33 2761.46 1585.09 2758.42 1596.3 2756.77 1600 2753.64 1606.83 2749.23 1610.04 2745.83 1610.04 2739.76 1610.04 2738.56 1601.95 2738.56 1601.37 2738.56 1601.17 2738.56 1600.98 2738.84 1599.81L2743.34 1580.7Z" fill-rule="evenodd"/><path d="M2790.98 1581.97C2790.98 1580.1 2790.85 1580.03 2789.01 1580.03 2784.79 1584.39 2778.79 1584.46 2776.08 1584.46L2776.08 1586.96C2777.67 1586.96 2782.02 1586.96 2785.64 1585.02L2785.64 1620.35C2785.64 1622.63 2785.64 1623.53 2779.05 1623.53L2776.54 1623.53 2776.54 1626.03C2777.73 1625.96 2785.84 1625.75 2788.28 1625.75 2790.32 1625.75 2798.63 1625.96 2800.08 1626.03L2800.08 1623.53 2797.58 1623.53C2790.98 1623.53 2790.98 1622.63 2790.98 1620.35L2790.98 1581.97Z" fill-rule="evenodd"/><path d="M2819.32 1624.78C2819.32 1628.53 2818.69 1632.89 2814.4 1637.26 2814.15 1637.53 2813.96 1637.73 2813.96 1638.07 2813.96 1638.55 2814.47 1639.03 2814.84 1639.03 2815.73 1639.03 2821.08 1633.57 2821.08 1625.46 2821.08 1621.23 2819.57 1618.03 2816.67 1618.03 2814.59 1618.03 2813.08 1619.8 2813.08 1621.91 2813.08 1624.1 2814.53 1625.87 2816.73 1625.87 2818.25 1625.87 2819.25 1624.78 2819.32 1624.78Z" fill-rule="evenodd"/><path d="M2835.87 1621.01C2835.61 1621.9 2835.23 1623.62 2835.23 1623.83 2835.23 1625.34 2836.38 1626.03 2837.4 1626.03 2838.55 1626.03 2839.57 1625.13 2839.89 1624.52 2840.21 1623.9 2840.72 1621.7 2841.04 1620.25 2841.36 1618.95 2842.06 1615.79 2842.44 1614.07 2842.83 1612.56 2843.21 1611.04 2843.53 1609.46 2844.23 1606.64 2844.36 1606.09 2846.21 1603.28 2848 1600.53 2851 1596.95 2855.78 1596.95 2859.49 1596.95 2859.55 1600.46 2859.55 1601.76 2859.55 1605.89 2856.81 1613.52 2855.78 1616.4 2855.08 1618.33 2854.83 1618.95 2854.83 1620.12 2854.83 1623.76 2857.64 1626.03 2860.89 1626.03 2867.27 1626.03 2870.08 1616.54 2870.08 1615.51 2870.08 1614.62 2869.25 1614.62 2869.06 1614.62 2868.17 1614.62 2868.1 1615.03 2867.85 1615.79 2866.38 1621.28 2863.64 1624.1 2861.08 1624.1 2859.74 1624.1 2859.49 1623.14 2859.49 1621.7 2859.49 1620.12 2859.81 1619.22 2860.96 1616.13 2861.72 1614 2864.34 1606.71 2864.34 1602.86 2864.34 1596.2 2859.42 1595.03 2856.04 1595.03 2850.74 1595.03 2847.17 1598.53 2845.25 1601.28 2844.81 1596.54 2841.04 1595.03 2838.42 1595.03 2835.68 1595.03 2834.21 1597.16 2833.38 1598.74 2831.98 1601.28 2831.08 1605.2 2831.08 1605.54 2831.08 1606.44 2831.98 1606.44 2832.17 1606.44 2833.06 1606.44 2833.13 1606.23 2833.57 1604.38 2834.53 1600.32 2835.74 1596.95 2838.23 1596.95 2839.89 1596.95 2840.34 1598.46 2840.34 1600.32 2840.34 1601.63 2839.76 1604.17 2839.32 1606.03 2838.87 1607.88 2838.23 1610.7 2837.91 1612.21L2835.87 1621.01Z" fill-rule="evenodd"/><path d="M2921.48 1610.02C2922.52 1610.02 2924.09 1610.02 2924.09 1608.56 2924.09 1607.02 2922.59 1607.02 2921.48 1607.02L2882.69 1607.02C2881.65 1607.02 2880.09 1607.02 2880.09 1608.49 2880.09 1610.02 2881.58 1610.02 2882.69 1610.02L2921.48 1610.02Z" fill-rule="evenodd"/><path d="M2952.99 1581.97C2952.99 1580.1 2952.86 1580.03 2951.01 1580.03 2946.79 1584.39 2940.79 1584.46 2938.09 1584.46L2938.09 1586.96C2939.67 1586.96 2944.02 1586.96 2947.65 1585.02L2947.65 1620.35C2947.65 1622.63 2947.65 1623.53 2941.06 1623.53L2938.55 1623.53 2938.55 1626.03C2939.74 1625.96 2947.85 1625.75 2950.29 1625.75 2952.33 1625.75 2960.64 1625.96 2962.09 1626.03L2962.09 1623.53 2959.58 1623.53C2952.99 1623.53 2952.99 1622.63 2952.99 1620.35L2952.99 1581.97Z" fill-rule="evenodd"/><path d="M3882.5 1668.5C3882.5 1659.66 3889.66 1652.5 3898.5 1652.5 3907.34 1652.5 3914.5 1659.66 3914.5 1668.5 3914.5 1677.34 3907.34 1684.5 3898.5 1684.5 3889.66 1684.5 3882.5 1677.34 3882.5 1668.5Z" stroke="#000000" stroke-width="4.58333" stroke-miterlimit="8" fill-rule="evenodd"/><path d="M3952.5 1447C3952.5 1437.89 3959.66 1430.5 3968.5 1430.5 3977.34 1430.5 3984.5 1437.89 3984.5 1447 3984.5 1456.11 3977.34 1463.5 3968.5 1463.5 3959.66 1463.5 3952.5 1456.11 3952.5 1447Z" stroke="#000000" stroke-width="4.58333" stroke-miterlimit="8" fill-rule="evenodd"/><path d="M7.68338-2.30207 54.3521 153.46 38.9854 158.064-7.68338 2.30207ZM67.4168 141.172 58.1791 194.179 21.3166 154.984Z" fill="#4472C4" transform="matrix(1 0 0 -1 3898 1652.18)"/><path d="M4.18828-6.84048 17.8692 1.53608 9.49267 15.217-4.18828 6.84048ZM31.5502 9.91263 45.2311 18.2892 36.8546 31.9701 23.1736 23.5936ZM58.9121 26.6657 72.593 35.0423 64.2165 48.7232 50.5355 40.3467ZM86.274 43.4188 99.9549 51.7954 91.5784 65.4763 77.8974 57.0998ZM113.636 60.172 127.317 68.5485 118.94 82.2295 105.259 73.8529ZM140.998 76.9251 154.679 85.3016 146.302 98.9826 132.621 90.606ZM168.36 93.6782 182.041 102.055 173.664 115.736 159.983 107.359ZM195.722 110.431 209.403 118.808 201.026 132.489 187.345 124.112ZM223.084 127.184 236.764 135.561 228.388 149.242 214.707 140.865ZM250.445 143.937 264.126 152.314 255.75 165.995 242.069 157.618ZM277.807 160.691 291.488 169.067 283.112 182.748 269.431 174.372ZM295.629 152.792 324.107 198.444 270.499 193.835Z" fill="#548235" transform="matrix(1 0 0 -1 3979 1435.44)"/><path d="M4303.5 1237.5C4303.5 1228.66 4310.66 1221.5 4319.5 1221.5 4328.34 1221.5 4335.5 1228.66 4335.5 1237.5 4335.5 1246.34 4328.34 1253.5 4319.5 1253.5 4310.66 1253.5 4303.5 1246.34 4303.5 1237.5Z" stroke="#000000" stroke-width="4.58333" stroke-miterlimit="8" fill-rule="evenodd"/><path d="M3891.5 1622.5C3891.5 1613.66 3898.66 1606.5 3907.5 1606.5 3916.34 1606.5 3923.5 1613.66 3923.5 1622.5 3923.5 1631.34 3916.34 1638.5 3907.5 1638.5 3898.66 1638.5 3891.5 1631.34 3891.5 1622.5Z" stroke="#BF9000" stroke-width="4.58333" stroke-miterlimit="8" fill="#BF9000" fill-rule="evenodd"/><path d="M5.67604-5.66712 17.0103 5.68497 5.6582 17.0192-5.67604 5.66712ZM28.3445 17.0371 39.6788 28.3891 28.3267 39.7234 16.9924 28.3713ZM51.013 39.7412 62.3473 51.0933 50.9952 62.4276 39.6609 51.0755ZM73.6815 62.4454 85.0158 73.7975 73.6637 85.1318 62.3294 73.7797ZM96.35 85.1496 107.684 96.5017 96.3321 107.836 84.9979 96.4838ZM119.018 107.854 130.353 119.206 119.001 130.54 107.666 119.188ZM141.687 130.558 153.021 141.91 141.669 153.244 130.335 141.892ZM164.355 153.262 175.69 164.614 164.338 175.949 153.003 164.596ZM187.024 175.966 198.358 187.318 187.006 198.653 175.672 187.301ZM209.692 198.671 221.027 210.023 209.675 221.357 198.34 210.005ZM232.361 221.375 243.695 232.727 232.343 244.061 221.009 232.709ZM255.029 244.079 266.364 255.431 255.012 266.765 243.677 255.413ZM277.698 266.783 289.032 278.135 277.68 289.469 266.346 278.117ZM300.366 289.487 311.701 300.839 300.349 312.174 289.014 300.822ZM323.035 312.191 334.369 323.544 323.017 334.878 311.683 323.526ZM345.703 334.896 357.038 346.248 345.686 357.582 334.351 346.23ZM373.137 339.668 390.111 390.726 339.08 373.671Z" fill="#BF9000" transform="matrix(1 0 0 -1 3913 1627.73)"/><path d="M3708.31 1737.01C3707.56 1740.32 3707.37 1741 3703.24 1741 3702.11 1741 3701.08 1741 3701.08 1742.86 3701.08 1743.64 3701.55 1744.03 3702.3 1744.03 3704.84 1744.03 3707.56 1743.73 3710.19 1743.73 3713.28 1743.73 3716.48 1744.03 3719.48 1744.03 3719.95 1744.03 3721.17 1744.03 3721.17 1742.08 3721.17 1741 3720.23 1741 3718.92 1741 3714.22 1741 3714.22 1740.32 3714.22 1739.45 3714.22 1738.28 3718.17 1722.39 3718.82 1719.95 3720.04 1722.78 3722.67 1726.19 3727.46 1726.19 3738.35 1726.19 3750.08 1711.95 3750.08 1697.62 3750.08 1688.46 3744.73 1682.03 3737.6 1682.03 3732.9 1682.03 3728.4 1685.54 3725.3 1689.34 3724.36 1684.07 3720.32 1682.03 3716.85 1682.03 3712.53 1682.03 3710.75 1685.83 3709.9 1687.58 3708.22 1690.9 3707 1696.75 3707 1697.04 3707 1698.01 3707.93 1698.01 3708.12 1698.01 3709.06 1698.01 3709.15 1697.92 3709.72 1695.77 3711.31 1688.85 3713.19 1684.17 3716.57 1684.17 3718.17 1684.17 3719.48 1684.95 3719.48 1688.66 3719.48 1690.9 3719.2 1691.97 3718.82 1693.63L3708.31 1737.01ZM3724.83 1694.7C3725.49 1692.07 3728.02 1689.34 3729.71 1687.88 3733 1684.85 3735.72 1684.17 3737.31 1684.17 3741.07 1684.17 3743.32 1687.58 3743.32 1693.33 3743.32 1699.09 3740.22 1710.3 3738.54 1714 3735.34 1720.83 3730.84 1724.04 3727.36 1724.04 3721.17 1724.04 3719.95 1715.95 3719.95 1715.37 3719.95 1715.17 3719.95 1714.98 3720.23 1713.81L3724.83 1694.7Z" fill-rule="evenodd"/><path d="M3773.98 1695.97C3773.98 1694.1 3773.85 1694.03 3772.01 1694.03 3767.79 1698.39 3761.79 1698.46 3759.08 1698.46L3759.08 1700.96C3760.67 1700.96 3765.02 1700.96 3768.64 1699.02L3768.64 1734.35C3768.64 1736.63 3768.64 1737.53 3762.05 1737.53L3759.54 1737.53 3759.54 1740.03C3760.73 1739.96 3768.84 1739.75 3771.28 1739.75 3773.32 1739.75 3781.63 1739.96 3783.08 1740.03L3783.08 1737.53 3780.58 1737.53C3773.98 1737.53 3773.98 1736.63 3773.98 1734.35L3773.98 1695.97Z" fill-rule="evenodd"/><path d="M3803.11 1738.78C3803.11 1742.53 3802.4 1746.89 3797.58 1751.26 3797.3 1751.53 3797.08 1751.73 3797.08 1752.07 3797.08 1752.55 3797.65 1753.03 3798.08 1753.03 3799.07 1753.03 3805.09 1747.57 3805.09 1739.46 3805.09 1735.23 3803.39 1732.03 3800.13 1732.03 3797.79 1732.03 3796.09 1733.8 3796.09 1735.91 3796.09 1738.1 3797.72 1739.87 3800.2 1739.87 3801.9 1739.87 3803.04 1738.78 3803.11 1738.78Z" fill-rule="evenodd"/><path d="M3819.12 1735.17C3818.85 1736.04 3818.45 1737.7 3818.45 1737.9 3818.45 1739.36 3819.66 1740.03 3820.73 1740.03 3821.94 1740.03 3823.01 1739.16 3823.35 1738.56 3823.68 1737.96 3824.22 1735.84 3824.55 1734.44 3824.89 1733.18 3825.63 1730.12 3826.03 1728.45 3826.43 1726.99 3826.84 1725.53 3827.17 1724 3827.91 1721.27 3828.04 1720.74 3829.99 1718.01 3831.87 1715.35 3835.02 1711.89 3840.06 1711.89 3843.95 1711.89 3844.02 1715.28 3844.02 1716.55 3844.02 1720.54 3841.13 1727.92 3840.06 1730.71 3839.32 1732.58 3839.05 1733.18 3839.05 1734.31 3839.05 1737.83 3842 1740.03 3845.42 1740.03 3852.13 1740.03 3855.09 1730.85 3855.09 1729.85 3855.09 1728.98 3854.21 1728.98 3854.01 1728.98 3853.07 1728.98 3853.01 1729.38 3852.74 1730.12 3851.2 1735.44 3848.31 1738.16 3845.63 1738.16 3844.22 1738.16 3843.95 1737.23 3843.95 1735.84 3843.95 1734.31 3844.28 1733.44 3845.49 1730.45 3846.3 1728.39 3849.05 1721.33 3849.05 1717.61 3849.05 1711.16 3843.88 1710.03 3840.32 1710.03 3834.75 1710.03 3831 1713.42 3828.98 1716.08 3828.51 1711.49 3824.55 1710.03 3821.8 1710.03 3818.92 1710.03 3817.37 1712.09 3816.5 1713.62 3815.03 1716.08 3814.09 1719.87 3814.09 1720.2 3814.09 1721.07 3815.03 1721.07 3815.23 1721.07 3816.17 1721.07 3816.23 1720.87 3816.7 1719.07 3817.71 1715.15 3818.99 1711.89 3821.6 1711.89 3823.35 1711.89 3823.82 1713.35 3823.82 1715.15 3823.82 1716.41 3823.21 1718.87 3822.74 1720.67 3822.27 1722.47 3821.6 1725.19 3821.27 1726.66L3819.12 1735.17Z" fill-rule="evenodd"/><path d="M3730.63 1388.03 3718.08 1400.39 3719.77 1402.03 3730.63 1392.75 3741.4 1402.03 3743.08 1400.39 3730.63 1388.03Z" fill="#548235" fill-rule="evenodd"/><path d="M3704.16 1460.69C3703.42 1463.68 3703.24 1464.3 3699.19 1464.3 3698.09 1464.3 3697.08 1464.3 3697.08 1465.97 3697.08 1466.68 3697.54 1467.03 3698.27 1467.03 3700.76 1467.03 3703.42 1466.76 3706 1466.76 3709.03 1466.76 3712.16 1467.03 3715.1 1467.03 3715.56 1467.03 3716.76 1467.03 3716.76 1465.27 3716.76 1464.3 3715.84 1464.3 3714.55 1464.3 3709.95 1464.3 3709.95 1463.68 3709.95 1462.89 3709.95 1461.83 3713.81 1447.48 3714.46 1445.28 3715.65 1447.83 3718.23 1450.91 3722.92 1450.91 3733.59 1450.91 3745.08 1438.06 3745.08 1425.11 3745.08 1416.84 3739.84 1411.03 3732.85 1411.03 3728.25 1411.03 3723.84 1414.2 3720.8 1417.63 3719.88 1412.88 3715.93 1411.03 3712.53 1411.03 3708.3 1411.03 3706.55 1414.46 3705.72 1416.05 3704.07 1419.04 3702.87 1424.32 3702.87 1424.59 3702.87 1425.47 3703.79 1425.47 3703.98 1425.47 3704.9 1425.47 3704.99 1425.38 3705.54 1423.44 3707.1 1417.19 3708.94 1412.96 3712.25 1412.96 3713.81 1412.96 3715.1 1413.67 3715.1 1417.01 3715.1 1419.04 3714.83 1420.01 3714.46 1421.5L3704.16 1460.69ZM3720.34 1422.47C3720.99 1420.1 3723.47 1417.63 3725.13 1416.31 3728.34 1413.58 3731.01 1412.96 3732.57 1412.96 3736.25 1412.96 3738.46 1416.05 3738.46 1421.24 3738.46 1426.44 3735.42 1436.56 3733.77 1439.91 3730.64 1446.07 3726.23 1448.98 3722.83 1448.98 3716.76 1448.98 3715.56 1441.67 3715.56 1441.14 3715.56 1440.96 3715.56 1440.79 3715.84 1439.73L3720.34 1422.47Z" fill="#548235" fill-rule="evenodd"/><path d="M3767.98 1423.76C3767.98 1422.09 3767.85 1422.03 3766.01 1422.03 3761.79 1425.92 3755.79 1425.98 3753.08 1425.98L3753.08 1428.2C3754.67 1428.2 3759.02 1428.2 3762.64 1426.47L3762.64 1457.96C3762.64 1460 3762.64 1460.8 3756.05 1460.8L3753.54 1460.8 3753.54 1463.03C3754.73 1462.97 3762.84 1462.78 3765.28 1462.78 3767.32 1462.78 3775.63 1462.97 3777.08 1463.03L3777.08 1460.8 3774.58 1460.8C3767.98 1460.8 3767.98 1460 3767.98 1457.96L3767.98 1423.76Z" fill="#548235" fill-rule="evenodd"/><path d="M3796.32 1462.46C3796.32 1466.03 3795.69 1470.18 3791.4 1474.34 3791.15 1474.6 3790.96 1474.8 3790.96 1475.12 3790.96 1475.57 3791.47 1476.03 3791.84 1476.03 3792.73 1476.03 3798.08 1470.83 3798.08 1463.11 3798.08 1459.08 3796.57 1456.03 3793.67 1456.03 3791.59 1456.03 3790.08 1457.72 3790.08 1459.73 3790.08 1461.81 3791.53 1463.5 3793.73 1463.5 3795.25 1463.5 3796.25 1462.46 3796.32 1462.46Z" fill="#548235" fill-rule="evenodd"/><path d="M3812.87 1459.5C3812.61 1460.3 3812.23 1461.85 3812.23 1462.04 3812.23 1463.41 3813.38 1464.03 3814.4 1464.03 3815.55 1464.03 3816.57 1463.22 3816.89 1462.66 3817.21 1462.1 3817.72 1460.12 3818.04 1458.81 3818.36 1457.63 3819.06 1454.78 3819.44 1453.22 3819.83 1451.86 3820.21 1450.49 3820.53 1449.07 3821.23 1446.52 3821.36 1446.02 3823.21 1443.48 3825 1440.99 3828 1437.77 3832.78 1437.77 3836.49 1437.77 3836.55 1440.93 3836.55 1442.11 3836.55 1445.84 3833.81 1452.73 3832.78 1455.34 3832.08 1457.07 3831.83 1457.63 3831.83 1458.69 3831.83 1461.98 3834.64 1464.03 3837.89 1464.03 3844.27 1464.03 3847.08 1455.46 3847.08 1454.53 3847.08 1453.72 3846.25 1453.72 3846.06 1453.72 3845.17 1453.72 3845.1 1454.09 3844.85 1454.78 3843.38 1459.74 3840.64 1462.29 3838.08 1462.29 3836.74 1462.29 3836.49 1461.42 3836.49 1460.12 3836.49 1458.69 3836.81 1457.88 3837.96 1455.09 3838.72 1453.16 3841.34 1446.58 3841.34 1443.1 3841.34 1437.08 3836.42 1436.03 3833.04 1436.03 3827.74 1436.03 3824.17 1439.19 3822.25 1441.68 3821.81 1437.39 3818.04 1436.03 3815.42 1436.03 3812.68 1436.03 3811.21 1437.95 3810.38 1439.38 3808.98 1441.68 3808.08 1445.22 3808.08 1445.53 3808.08 1446.33 3808.98 1446.33 3809.17 1446.33 3810.06 1446.33 3810.12 1446.15 3810.57 1444.47 3811.53 1440.81 3812.74 1437.77 3815.23 1437.77 3816.89 1437.77 3817.34 1439.13 3817.34 1440.81 3817.34 1441.99 3816.76 1444.28 3816.32 1445.96 3815.87 1447.64 3815.23 1450.18 3814.91 1451.55L3812.87 1459.5Z" fill="#548235" fill-rule="evenodd"/><path d="M3880.18 1449.56 3899.72 1449.56C3900.55 1449.56 3902.08 1449.56 3902.08 1448.06 3902.08 1446.5 3900.62 1446.5 3899.72 1446.5L3880.18 1446.5 3880.18 1427.34C3880.18 1426.53 3880.18 1425.03 3878.65 1425.03 3877.05 1425.03 3877.05 1426.46 3877.05 1427.34L3877.05 1446.5 3857.45 1446.5C3856.62 1446.5 3855.08 1446.5 3855.08 1448 3855.08 1449.56 3856.55 1449.56 3857.45 1449.56L3877.05 1449.56 3877.05 1468.72C3877.05 1469.53 3877.05 1471.03 3878.58 1471.03 3880.18 1471.03 3880.18 1469.59 3880.18 1468.72L3880.18 1449.56Z" fill="#548235" fill-rule="evenodd"/><path d="M3928.37 1423.76C3928.37 1422.09 3928.24 1422.03 3926.47 1422.03 3922.43 1425.92 3916.68 1425.98 3914.09 1425.98L3914.09 1428.2C3915.6 1428.2 3919.77 1428.2 3923.25 1426.47L3923.25 1457.96C3923.25 1460 3923.25 1460.8 3916.93 1460.8L3914.53 1460.8 3914.53 1463.03C3915.67 1462.97 3923.44 1462.78 3925.78 1462.78 3927.73 1462.78 3935.7 1462.97 3937.09 1463.03L3937.09 1460.8 3934.68 1460.8C3928.37 1460.8 3928.37 1460 3928.37 1457.96L3928.37 1423.76Z" fill="#548235" fill-rule="evenodd"/><path d="M3684.08 1576.03 3684.08 1573.03 3651.08 1573.03 3651.08 1576.03 3684.08 1576.03Z" fill="#BF9000" fill-rule="evenodd"/><path d="M3640.31 1637.58C3639.56 1640.62 3639.37 1641.25 3635.24 1641.25 3634.11 1641.25 3633.08 1641.25 3633.08 1642.95 3633.08 1643.67 3633.55 1644.03 3634.3 1644.03 3636.84 1644.03 3639.56 1643.76 3642.19 1643.76 3645.28 1643.76 3648.48 1644.03 3651.48 1644.03 3651.95 1644.03 3653.17 1644.03 3653.17 1642.24 3653.17 1641.25 3652.23 1641.25 3650.92 1641.25 3646.22 1641.25 3646.22 1640.62 3646.22 1639.82 3646.22 1638.74 3650.17 1624.13 3650.82 1621.89 3652.04 1624.49 3654.67 1627.63 3659.46 1627.63 3670.35 1627.63 3682.08 1614.54 3682.08 1601.37 3682.08 1592.94 3676.73 1587.03 3669.6 1587.03 3664.9 1587.03 3660.4 1590.26 3657.3 1593.75 3656.36 1588.91 3652.32 1587.03 3648.85 1587.03 3644.53 1587.03 3642.75 1590.52 3641.9 1592.14 3640.22 1595.18 3638.99 1600.56 3638.99 1600.83 3638.99 1601.73 3639.93 1601.73 3640.12 1601.73 3641.06 1601.73 3641.15 1601.64 3641.72 1599.67 3643.31 1593.3 3645.19 1589 3648.57 1589 3650.17 1589 3651.48 1589.72 3651.48 1593.12 3651.48 1595.18 3651.2 1596.17 3650.82 1597.69L3640.31 1637.58ZM3656.83 1598.68C3657.49 1596.26 3660.02 1593.75 3661.71 1592.41 3665 1589.63 3667.72 1589 3669.31 1589 3673.07 1589 3675.32 1592.14 3675.32 1597.43 3675.32 1602.71 3672.22 1613.02 3670.53 1616.43 3667.34 1622.7 3662.84 1625.66 3659.36 1625.66 3653.17 1625.66 3651.95 1618.22 3651.95 1617.68 3651.95 1617.5 3651.95 1617.32 3652.23 1616.25L3656.83 1598.68Z" fill="#BF9000" fill-rule="evenodd"/><path d="M3704.98 1599.8C3704.98 1598.09 3704.85 1598.03 3703.01 1598.03 3698.79 1602.01 3692.79 1602.08 3690.08 1602.08L3690.08 1604.36C3691.67 1604.36 3696.02 1604.36 3699.64 1602.58L3699.64 1634.84C3699.64 1636.93 3699.64 1637.75 3693.05 1637.75L3690.54 1637.75 3690.54 1640.03C3691.73 1639.97 3699.84 1639.78 3702.28 1639.78 3704.32 1639.78 3712.63 1639.97 3714.08 1640.03L3714.08 1637.75 3711.58 1637.75C3704.98 1637.75 3704.98 1636.93 3704.98 1634.84L3704.98 1599.8Z" fill="#BF9000" fill-rule="evenodd"/><path d="M3734.32 1639.14C3734.32 1642.53 3733.69 1646.48 3729.4 1650.43 3729.15 1650.67 3728.96 1650.86 3728.96 1651.17 3728.96 1651.6 3729.47 1652.03 3729.84 1652.03 3730.73 1652.03 3736.08 1647.09 3736.08 1639.75 3736.08 1635.93 3734.57 1633.03 3731.67 1633.03 3729.59 1633.03 3728.08 1634.63 3728.08 1636.55 3728.08 1638.52 3729.53 1640.12 3731.73 1640.12 3733.25 1640.12 3734.25 1639.14 3734.32 1639.14Z" fill="#BF9000" fill-rule="evenodd"/><path d="M3750.99 1635.5C3750.73 1636.3 3750.34 1637.86 3750.34 1638.04 3750.34 1639.41 3751.52 1640.03 3752.57 1640.03 3753.74 1640.03 3754.79 1639.22 3755.12 1638.66 3755.45 1638.1 3755.97 1636.12 3756.3 1634.81 3756.62 1633.63 3757.34 1630.78 3757.74 1629.23 3758.13 1627.86 3758.52 1626.49 3758.85 1625.07 3759.57 1622.52 3759.7 1622.03 3761.6 1619.48 3763.43 1617 3766.51 1613.77 3771.42 1613.77 3775.22 1613.77 3775.28 1616.93 3775.28 1618.11 3775.28 1621.84 3772.47 1628.73 3771.42 1631.34 3770.7 1633.08 3770.44 1633.63 3770.44 1634.69 3770.44 1637.98 3773.32 1640.03 3776.66 1640.03 3783.2 1640.03 3786.08 1631.46 3786.08 1630.53 3786.08 1629.72 3785.23 1629.72 3785.04 1629.72 3784.12 1629.72 3784.06 1630.1 3783.79 1630.78 3782.29 1635.75 3779.47 1638.29 3776.85 1638.29 3775.48 1638.29 3775.22 1637.42 3775.22 1636.12 3775.22 1634.69 3775.54 1633.88 3776.72 1631.09 3777.51 1629.16 3780.19 1622.58 3780.19 1619.11 3780.19 1613.08 3775.15 1612.03 3771.68 1612.03 3766.25 1612.03 3762.58 1615.2 3760.62 1617.68 3760.16 1613.39 3756.3 1612.03 3753.61 1612.03 3750.8 1612.03 3749.29 1613.95 3748.44 1615.38 3747 1617.68 3746.08 1621.22 3746.08 1621.53 3746.08 1622.34 3747 1622.34 3747.2 1622.34 3748.11 1622.34 3748.18 1622.15 3748.64 1620.47 3749.62 1616.81 3750.86 1613.77 3753.42 1613.77 3755.12 1613.77 3755.58 1615.13 3755.58 1616.81 3755.58 1617.99 3754.99 1620.29 3754.53 1621.96 3754.07 1623.64 3753.42 1626.18 3753.09 1627.55L3750.99 1635.5Z" fill="#BF9000" fill-rule="evenodd"/><path d="M3819.72 1625.56 3839.67 1625.56C3840.52 1625.56 3842.09 1625.56 3842.09 1624.06 3842.09 1622.5 3840.59 1622.5 3839.67 1622.5L3819.72 1622.5 3819.72 1603.34C3819.72 1602.53 3819.72 1601.03 3818.15 1601.03 3816.52 1601.03 3816.52 1602.46 3816.52 1603.34L3816.52 1622.5 3796.5 1622.5C3795.65 1622.5 3794.09 1622.5 3794.09 1624 3794.09 1625.56 3795.59 1625.56 3796.5 1625.56L3816.52 1625.56 3816.52 1644.72C3816.52 1645.53 3816.52 1647.03 3818.09 1647.03 3819.72 1647.03 3819.72 1645.59 3819.72 1644.72L3819.72 1625.56Z" fill="#BF9000" fill-rule="evenodd"/><path d="M3868.37 1599.8C3868.37 1598.09 3868.24 1598.03 3866.47 1598.03 3862.43 1602.01 3856.68 1602.08 3854.09 1602.08L3854.09 1604.36C3855.6 1604.36 3859.77 1604.36 3863.25 1602.58L3863.25 1634.84C3863.25 1636.93 3863.25 1637.75 3856.93 1637.75L3854.53 1637.75 3854.53 1640.03C3855.67 1639.97 3863.44 1639.78 3865.78 1639.78 3867.73 1639.78 3875.7 1639.97 3877.09 1640.03L3877.09 1637.75 3874.69 1637.75C3868.37 1637.75 3868.37 1636.93 3868.37 1634.84L3868.37 1599.8Z" fill="#BF9000" fill-rule="evenodd"/><path d="M4.25652-6.79822 83.6516 42.9128 75.1386 56.5093-4.25652 6.79822ZM85.3665 25.0599 113.386 70.9937 59.8274 65.8492Z" fill="#548235" transform="matrix(1 0 0 -1 4074 1299.99)"/><path d="M4021.63 1227.03 4009.09 1239.39 4010.77 1241.03 4021.63 1231.75 4032.4 1241.03 4034.09 1239.39 4021.63 1227.03Z" fill="#548235" fill-rule="evenodd"/><path d="M4002.42 1282.85C4002.15 1284.17 4001.6 1286.2 4001.6 1286.64 4001.6 1288.23 4002.87 1289.03 4004.22 1289.03 4005.31 1289.03 4006.94 1288.32 4007.57 1286.55 4007.66 1286.38 4008.74 1282.23 4009.29 1280.02L4011.28 1272.07C4011.82 1270.13 4012.36 1268.19 4012.81 1266.16 4013.18 1264.66 4013.9 1262.1 4013.99 1261.74 4015.34 1259 4020.14 1250.97 4028.72 1250.97 4032.79 1250.97 4033.61 1254.24 4033.61 1257.15 4033.61 1262.63 4029.18 1273.93 4027.73 1277.72 4026.92 1279.76 4026.83 1280.82 4026.83 1281.79 4026.83 1285.94 4029.99 1289.03 4034.24 1289.03 4042.74 1289.03 4046.08 1276.14 4046.08 1275.43 4046.08 1274.55 4045.27 1274.55 4045 1274.55 4044.09 1274.55 4044.09 1274.81 4043.64 1276.14 4041.83 1282.14 4038.85 1287.08 4034.42 1287.08 4032.88 1287.08 4032.25 1286.2 4032.25 1284.17 4032.25 1281.96 4033.06 1279.84 4033.88 1277.9 4035.6 1273.22 4039.39 1263.51 4039.39 1258.48 4039.39 1252.56 4035.51 1249.03 4029 1249.03 4020.86 1249.03 4016.43 1254.68 4014.89 1256.71 4014.44 1251.76 4010.73 1249.03 4006.58 1249.03 4002.42 1249.03 4000.7 1252.47 3999.79 1254.06 3998.35 1257.06 3997.08 1262.27 3997.08 1262.63 3997.08 1263.51 3997.99 1263.51 3998.17 1263.51 3999.07 1263.51 3999.16 1263.42 3999.7 1261.48 4001.24 1255.21 4003.05 1250.97 4006.3 1250.97 4008.11 1250.97 4009.11 1252.12 4009.11 1255.03 4009.11 1256.89 4008.84 1257.86 4007.66 1262.45L4002.42 1282.85Z" fill="#548235" fill-rule="evenodd"/><path d="M4103.08 1587.02 4103.08 1585.02 4070.08 1585.02 4070.08 1587.02 4103.08 1587.02Z" fill="#BF9000" fill-rule="evenodd"/><path d="M4067.42 1632.69C4067.15 1634.05 4066.6 1636.13 4066.6 1636.58 4066.6 1638.21 4067.87 1639.03 4069.22 1639.03 4070.31 1639.03 4071.94 1638.3 4072.57 1636.49 4072.66 1636.31 4073.74 1632.06 4074.29 1629.8L4076.28 1621.65C4076.82 1619.66 4077.36 1617.67 4077.81 1615.59 4078.17 1614.05 4078.9 1611.42 4078.99 1611.06 4080.34 1608.25 4085.14 1600.02 4093.72 1600.02 4097.79 1600.02 4098.61 1603.37 4098.61 1606.35 4098.61 1611.97 4094.18 1623.55 4092.73 1627.44 4091.92 1629.52 4091.83 1630.61 4091.83 1631.61 4091.83 1635.86 4094.99 1639.03 4099.24 1639.03 4107.74 1639.03 4111.08 1625.81 4111.08 1625.09 4111.08 1624.18 4110.27 1624.18 4110 1624.18 4109.09 1624.18 4109.09 1624.46 4108.64 1625.81 4106.83 1631.97 4103.85 1637.04 4099.42 1637.04 4097.88 1637.04 4097.25 1636.13 4097.25 1634.05 4097.25 1631.79 4098.06 1629.61 4098.88 1627.62 4100.6 1622.83 4104.39 1612.87 4104.39 1607.71 4104.39 1601.65 4100.5 1598.03 4094 1598.03 4085.86 1598.03 4081.43 1603.82 4079.89 1605.9 4079.44 1600.83 4075.73 1598.03 4071.57 1598.03 4067.42 1598.03 4065.7 1601.56 4064.79 1603.19 4063.35 1606.26 4062.08 1611.6 4062.08 1611.97 4062.08 1612.87 4062.99 1612.87 4063.17 1612.87 4064.07 1612.87 4064.16 1612.78 4064.7 1610.79 4066.24 1604.36 4068.05 1600.02 4071.3 1600.02 4073.11 1600.02 4074.11 1601.19 4074.11 1604.18 4074.11 1606.08 4073.83 1607.08 4072.66 1611.78L4067.42 1632.69Z" fill="#BF9000" fill-rule="evenodd"/><path d="M5.67604-5.66713 62.6889 51.4354 51.3368 62.7697-5.67604 5.66713ZM68.3739 34.4251 85.3485 85.4828 34.3176 68.4279Z" fill="#BF9000" transform="matrix(1 0 0 -1 4146 1650.48)"/></g></svg>