<svg width="1291" height="1243" xmlns="http://www.w3.org/2000/svg" xmlns:xlink="http://www.w3.org/1999/xlink" xml:space="preserve" overflow="hidden"><rect x="0" y="0" width="100%" height="100%" fill="white" /><defs><clipPath id="clip0"><rect x="27" y="649" width="1291" height="1243"/></clipPath></defs><g clip-path="url(#clip0)" transform="translate(-27 -649)"><path d="M732 944.5C732 784.061 862.061 654 1022.5 654 1182.94 654 1313 784.061 1313 944.5 1313 1104.94 1182.94 1235 1022.5 1235 862.061 1235 732 1104.94 732 944.5Z" stroke="#000000" stroke-width="10.3125" stroke-miterlimit="8" fill="none" fill-rule="evenodd"/><path d="M1004.5 948.5C1004.5 939.664 1011.89 932.5 1021 932.5 1030.11 932.5 1037.5 939.664 1037.5 948.5 1037.5 957.337 1030.11 964.5 1021 964.5 1011.89 964.5 1004.5 957.337 1004.5 948.5Z" stroke="#000000" stroke-width="4.58333" stroke-miterlimit="8" fill-rule="evenodd"/><path d="M311 1375.5C311 1215.06 440.837 1085 601 1085 761.163 1085 891 1215.06 891 1375.5 891 1535.94 761.163 1666 601 1666 440.837 1666 311 1535.94 311 1375.5Z" stroke="#000000" stroke-width="10.3125" stroke-miterlimit="8" fill="none" fill-rule="evenodd"/><path d="M583.5 1380C583.5 1370.89 590.663 1363.5 599.5 1363.5 608.337 1363.5 615.5 1370.89 615.5 1380 615.5 1389.11 608.337 1396.5 599.5 1396.5 590.663 1396.5 583.5 1389.11 583.5 1380Z" stroke="#000000" stroke-width="4.58333" stroke-miterlimit="8" fill-rule="evenodd"/><path d="M381 1154C381 993.837 510.837 864 671 864 831.163 864 961 993.837 961 1154 961 1314.16 831.163 1444 671 1444 510.837 1444 381 1314.16 381 1154Z" stroke="#000000" stroke-width="10.3125" stroke-miterlimit="8" stroke-dasharray="41.25 30.9375" fill="none" fill-rule="evenodd"/><path d="M653.5 1158.5C653.5 1149.66 660.663 1142.5 669.5 1142.5 678.336 1142.5 685.5 1149.66 685.5 1158.5 685.5 1167.34 678.336 1174.5 669.5 1174.5 660.663 1174.5 653.5 1167.34 653.5 1158.5Z" stroke="#000000" stroke-width="4.58333" stroke-miterlimit="8" fill-rule="evenodd"/><path d="M40.309 1406.57C39.5579 1409.62 39.3702 1410.25 35.2399 1410.25 34.1137 1410.25 33.0809 1410.25 33.0809 1411.95 33.0809 1412.67 33.5504 1413.03 34.3014 1413.03 36.836 1413.03 39.5579 1412.76 42.1864 1412.76 45.2842 1412.76 48.4756 1413.03 51.4796 1413.03 51.949 1413.03 53.1691 1413.03 53.1691 1411.23 53.1691 1410.25 52.2306 1410.25 50.9162 1410.25 46.2227 1410.25 46.2227 1409.62 46.2227 1408.82 46.2227 1407.74 50.1655 1393.13 50.8224 1390.89 52.0429 1393.49 54.6713 1396.63 59.4587 1396.63 70.3476 1396.63 82.0815 1383.54 82.0815 1370.37 82.0815 1361.94 76.7307 1356.03 69.5965 1356.03 64.903 1356.03 60.3972 1359.25 57.2997 1362.75 56.3609 1357.91 52.3245 1356.03 48.8511 1356.03 44.5331 1356.03 42.7497 1359.52 41.9047 1361.14 40.2151 1364.18 38.995 1369.56 38.995 1369.83 38.995 1370.73 39.9335 1370.73 40.1212 1370.73 41.0601 1370.73 41.154 1370.64 41.7169 1368.66 43.313 1362.3 45.1903 1358 48.5695 1358 50.1655 1358 51.4796 1358.72 51.4796 1362.12 51.4796 1364.18 51.1979 1365.17 50.8224 1366.69L40.309 1406.57ZM56.8303 1367.68C57.4875 1365.26 60.0217 1362.75 61.7116 1361.4 64.9969 1358.63 67.7192 1358 69.3149 1358 73.0699 1358 75.3228 1361.14 75.3228 1366.42 75.3228 1371.71 72.225 1382.02 70.5354 1385.42 67.3436 1391.7 62.8379 1394.65 59.3648 1394.65 53.1691 1394.65 51.949 1387.22 51.949 1386.68 51.949 1386.5 51.949 1386.32 52.2306 1385.24L56.8303 1367.68Z" fill-rule="evenodd"/><path d="M104.367 1319.4C104.367 1318.4 103.575 1317.03 101.727 1317.03 99.9445 1317.03 98.0305 1318.65 98.0305 1320.46 98.0305 1321.52 98.8883 1322.83 100.671 1322.83 102.585 1322.83 104.367 1321.08 104.367 1319.4ZM90.9015 1351.1C90.6378 1351.91 90.3075 1352.66 90.3075 1353.72 90.3075 1356.65 92.9478 1359.03 96.5782 1359.03 103.179 1359.03 106.083 1350.41 106.083 1349.48 106.083 1348.67 105.225 1348.67 105.027 1348.67 104.103 1348.67 104.037 1349.04 103.773 1349.73 102.255 1354.72 99.3504 1357.28 96.7762 1357.28 95.4563 1357.28 95.126 1356.47 95.126 1355.09 95.126 1353.66 95.5882 1352.47 96.1822 1351.1 96.8424 1349.41 97.5683 1347.73 98.2942 1346.11 98.8883 1344.61 101.265 1338.93 101.529 1338.18 101.727 1337.56 101.925 1336.81 101.925 1336.18 101.925 1333.25 99.2843 1330.88 95.6543 1330.88 89.1194 1330.88 86.083 1339.37 86.083 1340.43 86.083 1341.24 87.0074 1341.24 87.2054 1341.24 88.1293 1341.24 88.1954 1340.93 88.3935 1340.24 90.1095 1334.87 93.0139 1332.63 95.4563 1332.63 96.5121 1332.63 97.1061 1333.13 97.1061 1334.81 97.1061 1336.25 96.7101 1337.18 95.0602 1341.05L90.9015 1351.1Z" fill-rule="evenodd"/><path d="M104.984 1377.76C104.984 1376.09 104.853 1376.03 103.006 1376.03 98.7866 1379.92 92.7866 1379.98 90.0831 1379.98L90.0831 1382.2C91.6655 1382.2 96.0174 1382.2 99.6438 1380.47L99.6438 1411.96C99.6438 1414 99.6438 1414.8 93.0501 1414.8L90.5447 1414.8 90.5447 1417.03C91.7315 1416.97 99.8416 1416.78 102.281 1416.78 104.325 1416.78 112.633 1416.97 114.084 1417.03L114.084 1414.8 111.578 1414.8C104.984 1414.8 104.984 1414 104.984 1411.96L104.984 1377.76Z" fill-rule="evenodd"/><path d="M135.107 1416.13C135.107 1419.53 134.398 1423.48 129.579 1427.42 129.296 1427.67 129.083 1427.86 129.083 1428.16 129.083 1428.6 129.65 1429.03 130.075 1429.03 131.067 1429.03 137.091 1424.09 137.091 1416.75 137.091 1412.93 135.39 1410.03 132.13 1410.03 129.791 1410.03 128.091 1411.63 128.091 1413.54 128.091 1415.52 129.721 1417.12 132.201 1417.12 133.902 1417.12 135.036 1416.13 135.107 1416.13Z" fill-rule="evenodd"/><path d="M151.12 1413.5C150.851 1414.3 150.449 1415.86 150.449 1416.04 150.449 1417.41 151.656 1418.03 152.73 1418.03 153.938 1418.03 155.012 1417.22 155.347 1416.66 155.683 1416.1 156.22 1414.12 156.555 1412.81 156.891 1411.63 157.629 1408.78 158.031 1407.23 158.434 1405.86 158.837 1404.49 159.172 1403.07 159.91 1400.52 160.044 1400.02 161.991 1397.48 163.869 1394.99 167.023 1391.77 172.056 1391.77 175.948 1391.77 176.015 1394.93 176.015 1396.11 176.015 1399.84 173.129 1406.73 172.056 1409.34 171.318 1411.07 171.049 1411.63 171.049 1412.69 171.049 1415.98 174.002 1418.03 177.424 1418.03 184.134 1418.03 187.087 1409.46 187.087 1408.53 187.087 1407.72 186.215 1407.72 186.013 1407.72 185.074 1407.72 185.007 1408.09 184.738 1408.78 183.195 1413.74 180.31 1416.29 177.625 1416.29 176.216 1416.29 175.948 1415.42 175.948 1414.12 175.948 1412.69 176.283 1411.88 177.491 1409.09 178.297 1407.16 181.048 1400.58 181.048 1397.11 181.048 1391.08 175.881 1390.03 172.324 1390.03 166.755 1390.03 162.997 1393.19 160.984 1395.68 160.514 1391.39 156.555 1390.03 153.804 1390.03 150.918 1390.03 149.375 1391.95 148.503 1393.38 147.026 1395.68 146.087 1399.22 146.087 1399.53 146.087 1400.33 147.026 1400.33 147.228 1400.33 148.167 1400.33 148.234 1400.15 148.704 1398.47 149.711 1394.81 150.986 1391.77 153.603 1391.77 155.347 1391.77 155.817 1393.13 155.817 1394.81 155.817 1395.99 155.213 1398.28 154.743 1399.96 154.273 1401.64 153.603 1404.18 153.267 1405.55L151.12 1413.5Z" fill-rule="evenodd"/><path d="M64.1227 1113.03 52.0777 1125.39 53.6957 1127.03 64.1227 1117.75 74.46 1127.03 76.0777 1125.39 64.1227 1113.03Z" fill="#548235" fill-rule="evenodd"/><path d="M37.1595 1185.57C36.4242 1188.62 36.2403 1189.25 32.194 1189.25 31.0908 1189.25 30.0791 1189.25 30.0791 1190.95 30.0791 1191.67 30.5391 1192.03 31.2744 1192.03 33.7575 1192.03 36.4242 1191.76 38.9987 1191.76 42.0332 1191.76 45.1599 1192.03 48.1023 1192.03 48.5622 1192.03 49.7575 1192.03 49.7575 1190.23 49.7575 1189.25 48.8379 1189.25 47.5505 1189.25 42.9528 1189.25 42.9528 1188.62 42.9528 1187.82 42.9528 1186.74 46.8148 1172.13 47.4587 1169.89 48.654 1172.49 51.2289 1175.63 55.9184 1175.63 66.5851 1175.63 78.0796 1162.54 78.0796 1149.37 78.0796 1140.94 72.838 1135.03 65.8497 1135.03 61.2517 1135.03 56.838 1138.25 53.8035 1141.75 52.8838 1136.91 48.9297 1135.03 45.5277 1135.03 41.2975 1135.03 39.5505 1138.52 38.723 1140.14 37.0677 1143.18 35.8724 1148.56 35.8724 1148.83 35.8724 1149.73 36.792 1149.73 36.9759 1149.73 37.8952 1149.73 37.9873 1149.64 38.5391 1147.66 40.1022 1141.3 41.9414 1137 45.2517 1137 46.8148 1137 48.1023 1137.72 48.1023 1141.12 48.1023 1143.18 47.8266 1144.17 47.4587 1145.69L37.1595 1185.57ZM53.3438 1146.68C53.9874 1144.26 56.4701 1141.75 58.1254 1140.4 61.3438 1137.63 64.0105 1137 65.5737 1137 69.2517 1137 71.4588 1140.14 71.4588 1145.42 71.4588 1150.71 68.4243 1161.02 66.769 1164.42 63.6427 1170.7 59.2289 1173.65 55.8266 1173.65 49.7575 1173.65 48.5622 1166.22 48.5622 1165.68 48.5622 1165.5 48.5622 1165.32 48.8379 1164.24L53.3438 1146.68Z" fill="#548235" fill-rule="evenodd"/><path d="M100.449 1098.45C100.449 1097.43 99.6964 1096.03 97.9404 1096.03 96.2472 1096.03 94.4288 1097.69 94.4288 1099.54 94.4288 1100.63 95.244 1101.97 96.9373 1101.97 98.7557 1101.97 100.449 1100.18 100.449 1098.45ZM87.6563 1130.91C87.4056 1131.74 87.0921 1132.51 87.0921 1133.59 87.0921 1136.6 89.6002 1139.03 93.0494 1139.03 99.3202 1139.03 102.079 1130.21 102.079 1129.25 102.079 1128.42 101.264 1128.42 101.076 1128.42 100.198 1128.42 100.135 1128.8 99.8844 1129.51 98.4422 1134.62 95.683 1137.24 93.2374 1137.24 91.9831 1137.24 91.6697 1136.41 91.6697 1135 91.6697 1133.53 92.1087 1132.32 92.6732 1130.91 93.3001 1129.19 93.9898 1127.46 94.6795 1125.8 95.244 1124.27 97.5014 1118.45 97.7525 1117.69 97.9404 1117.05 98.1287 1116.28 98.1287 1115.64 98.1287 1112.64 95.6203 1110.21 92.1714 1110.21 85.9634 1110.21 83.0787 1118.9 83.0787 1119.99 83.0787 1120.82 83.9567 1120.82 84.1447 1120.82 85.0227 1120.82 85.0854 1120.5 85.2737 1119.79 86.9038 1114.3 89.663 1112 91.9831 1112 92.9866 1112 93.5508 1112.51 93.5508 1114.24 93.5508 1115.7 93.1746 1116.66 91.6069 1120.62L87.6563 1130.91Z" fill="#548235" fill-rule="evenodd"/><path d="M101.36 1156.8C101.36 1155.09 101.233 1155.03 99.4644 1155.03 95.4203 1159.01 89.6704 1159.08 87.0795 1159.08L87.0795 1161.35C88.5959 1161.35 92.7665 1161.35 96.2417 1159.58L96.2417 1191.84C96.2417 1193.93 96.2417 1194.75 89.923 1194.75L87.5218 1194.75 87.5218 1197.03C88.6592 1196.96 96.4311 1196.78 98.769 1196.78 100.728 1196.78 108.69 1196.96 110.08 1197.03L110.08 1194.75 107.679 1194.75C101.36 1194.75 101.36 1193.93 101.36 1191.84L101.36 1156.8Z" fill="#548235" fill-rule="evenodd"/><path d="M130.317 1196.13C130.317 1199.53 129.687 1203.48 125.404 1207.42 125.152 1207.67 124.963 1207.86 124.963 1208.16 124.963 1208.6 125.467 1209.03 125.845 1209.03 126.726 1209.03 132.081 1204.09 132.081 1196.75 132.081 1192.93 130.569 1190.03 127.671 1190.03 125.593 1190.03 124.081 1191.63 124.081 1193.54 124.081 1195.52 125.529 1197.12 127.734 1197.12 129.246 1197.12 130.254 1196.13 130.317 1196.13Z" fill="#548235" fill-rule="evenodd"/><path d="M145.995 1193.33C145.733 1194.17 145.34 1195.78 145.34 1195.97 145.34 1197.39 146.518 1198.03 147.566 1198.03 148.744 1198.03 149.792 1197.19 150.119 1196.61 150.447 1196.04 150.97 1193.98 151.297 1192.63 151.625 1191.41 152.345 1188.45 152.738 1186.84 153.131 1185.43 153.523 1184.01 153.851 1182.53 154.571 1179.9 154.702 1179.38 156.6 1176.74 158.434 1174.17 161.51 1170.83 166.42 1170.83 170.218 1170.83 170.283 1174.11 170.283 1175.33 170.283 1179.19 167.468 1186.33 166.42 1189.03 165.7 1190.83 165.439 1191.41 165.439 1192.5 165.439 1195.91 168.319 1198.03 171.658 1198.03 178.205 1198.03 181.085 1189.16 181.085 1188.19 181.085 1187.35 180.234 1187.35 180.038 1187.35 179.121 1187.35 179.056 1187.74 178.794 1188.45 177.288 1193.59 174.473 1196.23 171.854 1196.23 170.479 1196.23 170.218 1195.33 170.218 1193.98 170.218 1192.5 170.545 1191.66 171.723 1188.77 172.509 1186.78 175.193 1179.96 175.193 1176.36 175.193 1170.12 170.152 1169.03 166.683 1169.03 161.249 1169.03 157.582 1172.31 155.618 1174.88 155.16 1170.44 151.297 1169.03 148.613 1169.03 145.798 1169.03 144.293 1171.02 143.442 1172.5 142.001 1174.88 141.085 1178.55 141.085 1178.87 141.085 1179.7 142.001 1179.7 142.198 1179.7 143.114 1179.7 143.18 1179.51 143.638 1177.77 144.62 1173.98 145.864 1170.83 148.417 1170.83 150.119 1170.83 150.577 1172.24 150.577 1173.98 150.577 1175.2 149.988 1177.58 149.53 1179.32 149.072 1181.05 148.417 1183.69 148.09 1185.1L145.995 1193.33Z" fill="#548235" fill-rule="evenodd"/><path d="M213.717 1183.09 233.674 1183.09C234.521 1183.09 236.087 1183.09 236.087 1181.56 236.087 1179.97 234.587 1179.97 233.674 1179.97L213.717 1179.97 213.717 1160.39C213.717 1159.56 213.717 1158.03 212.152 1158.03 210.521 1158.03 210.521 1159.5 210.521 1160.39L210.521 1179.97 190.499 1179.97C189.652 1179.97 188.086 1179.97 188.086 1181.5 188.086 1183.09 189.586 1183.09 190.499 1183.09L210.521 1183.09 210.521 1202.67C210.521 1203.5 210.521 1205.03 212.086 1205.03 213.717 1205.03 213.717 1203.56 213.717 1202.67L213.717 1183.09Z" fill="#548235" fill-rule="evenodd"/><path d="M262.366 1156.8C262.366 1155.09 262.24 1155.03 260.47 1155.03 256.426 1159.01 250.676 1159.08 248.086 1159.08L248.086 1161.35C249.602 1161.35 253.772 1161.35 257.248 1159.58L257.248 1191.84C257.248 1193.93 257.248 1194.75 250.929 1194.75L248.528 1194.75 248.528 1197.03C249.665 1196.96 257.437 1196.78 259.775 1196.78 261.734 1196.78 269.696 1196.96 271.086 1197.03L271.086 1194.75 268.685 1194.75C262.366 1194.75 262.366 1193.93 262.366 1191.84L262.366 1156.8Z" fill="#548235" fill-rule="evenodd"/><path d="M313 1597C313 1436.84 442.838 1307 603 1307 763.163 1307 893 1436.84 893 1597 893 1757.16 763.163 1887 603 1887 442.838 1887 313 1757.16 313 1597Z" stroke="#000000" stroke-width="10.3125" stroke-miterlimit="8" fill="none" fill-rule="evenodd"/><path d="M585.5 1601.5C585.5 1592.66 592.663 1585.5 601.5 1585.5 610.336 1585.5 617.5 1592.66 617.5 1601.5 617.5 1610.34 610.336 1617.5 601.5 1617.5 592.663 1617.5 585.5 1610.34 585.5 1601.5Z" stroke="#000000" stroke-width="4.58333" stroke-miterlimit="8" fill-rule="evenodd"/><path d="M34.1597 1642.57C33.4244 1645.62 33.2405 1646.25 29.1942 1646.25 28.0907 1646.25 27.0793 1646.25 27.0793 1647.95 27.0793 1648.67 27.5393 1649.03 28.2746 1649.03 30.7574 1649.03 33.4244 1648.76 35.9989 1648.76 39.0334 1648.76 42.16 1649.03 45.1024 1649.03 45.562 1649.03 46.7577 1649.03 46.7577 1647.23 46.7577 1646.25 45.8381 1646.25 44.5506 1646.25 39.953 1646.25 39.953 1645.62 39.953 1644.81 39.953 1643.74 43.8149 1629.13 44.4588 1626.89 45.6541 1629.49 48.229 1632.63 52.9184 1632.63 63.585 1632.63 75.0795 1619.54 75.0795 1606.37 75.0795 1597.94 69.838 1592.03 62.8497 1592.03 58.2517 1592.03 53.838 1595.25 50.8035 1598.75 49.8839 1593.91 45.9298 1592.03 42.5275 1592.03 38.2977 1592.03 36.5507 1595.52 35.7232 1597.14 34.0679 1600.18 32.8726 1605.56 32.8726 1605.83 32.8726 1606.72 33.7919 1606.72 33.9758 1606.72 34.8954 1606.72 34.9875 1606.64 35.5393 1604.66 37.1024 1598.3 38.9416 1594 42.2518 1594 43.8149 1594 45.1024 1594.72 45.1024 1598.12 45.1024 1600.18 44.8267 1601.17 44.4588 1602.69L34.1597 1642.57ZM50.3439 1603.68C50.9874 1601.26 53.4702 1598.75 55.1255 1597.4 58.3439 1594.63 61.0105 1594 62.5737 1594 66.2517 1594 68.4587 1597.14 68.4587 1602.42 68.4587 1607.71 65.4242 1618.02 63.769 1621.42 60.6427 1627.7 56.229 1630.65 52.8266 1630.65 46.7577 1630.65 45.562 1623.22 45.562 1622.68 45.562 1622.5 45.562 1622.32 45.8381 1621.24L50.3439 1603.68Z" fill-rule="evenodd"/><path d="M97.4488 1555.4C97.4488 1554.4 96.696 1553.03 94.9404 1553.03 93.2472 1553.03 91.4289 1554.65 91.4289 1556.46 91.4289 1557.52 92.2441 1558.83 93.9373 1558.83 95.7556 1558.83 97.4488 1557.08 97.4488 1555.4ZM84.6565 1587.1C84.4058 1587.91 84.0923 1588.66 84.0923 1589.72 84.0923 1592.65 86.6003 1595.03 90.0495 1595.03 96.3198 1595.03 99.0789 1586.41 99.0789 1585.48 99.0789 1584.67 98.2637 1584.67 98.0757 1584.67 97.1978 1584.67 97.135 1585.04 96.8843 1585.73 95.4422 1590.72 92.6831 1593.28 90.2374 1593.28 88.9832 1593.28 88.6698 1592.47 88.6698 1591.09 88.6698 1589.66 89.1087 1588.47 89.6733 1587.1 90.3002 1585.41 90.9899 1583.73 91.6796 1582.11 92.2441 1580.61 94.5014 1574.93 94.7521 1574.18 94.9404 1573.56 95.1283 1572.81 95.1283 1572.18 95.1283 1569.25 92.6203 1566.88 89.1715 1566.88 82.9636 1566.88 80.079 1575.37 80.079 1576.43 80.079 1577.24 80.957 1577.24 81.1449 1577.24 82.0229 1577.24 82.0856 1576.93 82.2739 1576.24 83.904 1570.87 86.6631 1568.63 88.9832 1568.63 89.9867 1568.63 90.5509 1569.13 90.5509 1570.81 90.5509 1572.25 90.1747 1573.18 88.607 1577.05L84.6565 1587.1Z" fill-rule="evenodd"/><path d="M98.3598 1613.76C98.3598 1612.09 98.2333 1612.03 96.4643 1612.03 92.4202 1615.92 86.6703 1615.98 84.0794 1615.98L84.0794 1618.2C85.5958 1618.2 89.7664 1618.2 93.2416 1616.47L93.2416 1647.96C93.2416 1650 93.2416 1650.8 86.9229 1650.8L84.5217 1650.8 84.5217 1653.03C85.6591 1652.97 93.431 1652.78 95.7689 1652.78 97.7277 1652.78 105.689 1652.97 107.08 1653.03L107.08 1650.8 104.679 1650.8C98.3598 1650.8 98.3598 1650 98.3598 1647.96L98.3598 1613.76Z" fill-rule="evenodd"/><path d="M127.107 1652.46C127.107 1656.03 126.398 1660.18 121.579 1664.34 121.295 1664.6 121.083 1664.8 121.083 1665.12 121.083 1665.57 121.65 1666.03 122.075 1666.03 123.067 1666.03 129.091 1660.83 129.091 1653.11 129.091 1649.08 127.39 1646.03 124.13 1646.03 121.791 1646.03 120.091 1647.72 120.091 1649.73 120.091 1651.81 121.721 1653.5 124.201 1653.5 125.902 1653.5 127.036 1652.46 127.107 1652.46Z" fill-rule="evenodd"/><path d="M142.994 1649.5C142.733 1650.3 142.34 1651.86 142.34 1652.04 142.34 1653.41 143.518 1654.03 144.566 1654.03 145.744 1654.03 146.792 1653.22 147.119 1652.66 147.446 1652.1 147.97 1650.12 148.297 1648.81 148.625 1647.63 149.345 1644.78 149.738 1643.23 150.131 1641.86 150.523 1640.49 150.851 1639.07 151.571 1636.52 151.702 1636.02 153.6 1633.48 155.433 1630.99 158.51 1627.77 163.42 1627.77 167.218 1627.77 167.283 1630.93 167.283 1632.11 167.283 1635.84 164.468 1642.73 163.42 1645.34 162.7 1647.07 162.439 1647.63 162.439 1648.69 162.439 1651.98 165.319 1654.03 168.658 1654.03 175.204 1654.03 178.085 1645.46 178.085 1644.53 178.085 1643.72 177.234 1643.72 177.038 1643.72 176.121 1643.72 176.056 1644.09 175.794 1644.78 174.288 1649.74 171.473 1652.29 168.854 1652.29 167.479 1652.29 167.218 1651.42 167.218 1650.12 167.218 1648.69 167.545 1647.88 168.723 1645.09 169.509 1643.16 172.193 1636.58 172.193 1633.11 172.193 1627.08 167.152 1626.03 163.682 1626.03 158.249 1626.03 154.582 1629.19 152.618 1631.68 152.16 1627.39 148.297 1626.03 145.613 1626.03 142.798 1626.03 141.293 1627.95 140.441 1629.38 139.001 1631.68 138.084 1635.22 138.084 1635.53 138.084 1636.33 139.001 1636.33 139.198 1636.33 140.114 1636.33 140.179 1636.15 140.638 1634.47 141.62 1630.81 142.864 1627.77 145.417 1627.77 147.119 1627.77 147.577 1629.13 147.577 1630.81 147.577 1631.99 146.988 1634.28 146.53 1635.96 146.072 1637.64 145.417 1640.18 145.089 1641.55L142.994 1649.5Z" fill-rule="evenodd"/><path d="M228.54 1639.03C229.557 1639.03 231.084 1639.03 231.084 1637.56 231.084 1636.03 229.621 1636.03 228.54 1636.03L190.629 1636.03C189.611 1636.03 188.084 1636.03 188.084 1637.5 188.084 1639.03 189.547 1639.03 190.629 1639.03L228.54 1639.03Z" fill-rule="evenodd"/><path d="M259.991 1613.76C259.991 1612.09 259.859 1612.03 258.013 1612.03 253.793 1615.92 247.793 1615.98 245.09 1615.98L245.09 1618.2C246.672 1618.2 251.024 1618.2 254.65 1616.47L254.65 1647.96C254.65 1650 254.65 1650.8 248.056 1650.8L245.551 1650.8 245.551 1653.03C246.738 1652.97 254.848 1652.78 257.288 1652.78 259.331 1652.78 267.639 1652.97 269.09 1653.03L269.09 1650.8 266.584 1650.8C259.991 1650.8 259.991 1650 259.991 1647.96L259.991 1613.76Z" fill-rule="evenodd"/><path d="M592.957 1585.48 591.398 1436.19 607.439 1436.02 608.998 1585.31ZM575.441 1444.37 599 1396 623.564 1443.87Z" fill="#4472C4"/><path d="M7.68153-2.30821 54.4639 153.38 39.1009 157.996-7.68153 2.30821ZM67.5188 141.082 58.3235 194.096 21.4296 154.931Z" fill="#4472C4" transform="matrix(1 0 0 -1 599 1363.1)"/><path d="M4.18828-6.84048 17.8692 1.53608 9.49267 15.217-4.18828 6.84048ZM31.5502 9.91263 45.2311 18.2892 36.8546 31.9701 23.1736 23.5936ZM58.9121 26.6657 72.593 35.0423 64.2165 48.7232 50.5355 40.3467ZM86.274 43.4188 99.9549 51.7954 91.5784 65.4763 77.8974 57.0998ZM113.636 60.172 127.317 68.5485 118.94 82.2295 105.259 73.8529ZM140.998 76.9251 154.679 85.3016 146.302 98.9826 132.621 90.606ZM168.36 93.6782 182.041 102.055 173.664 115.736 159.983 107.359ZM195.722 110.431 209.403 118.808 201.026 132.489 187.345 124.112ZM223.084 127.184 236.764 135.561 228.388 149.242 214.707 140.865ZM250.445 143.937 264.126 152.314 255.75 165.995 242.069 157.618ZM277.807 160.691 291.488 169.067 283.112 182.748 269.431 174.372ZM295.629 152.792 324.107 198.444 270.499 193.835Z" fill="#548235" transform="matrix(1 0 0 -1 680 1146.44)"/><path d="M4.25652-6.79822 83.6516 42.9128 75.1386 56.5093-4.25652 6.79822ZM85.3665 25.0599 113.386 70.9937 59.8274 65.8492Z" fill="#548235" transform="matrix(1 0 0 -1 466 844.994)"/><path d="M372.126 778.029 360.081 791.276 361.699 793.029 372.126 783.094 382.464 793.029 384.082 791.276 372.126 778.029Z" fill="#548235" fill-rule="evenodd"/><path d="M352.526 836.691C352.249 838.049 351.696 840.13 351.696 840.583 351.696 842.212 352.987 843.027 354.371 843.027 355.478 843.027 357.139 842.302 357.785 840.492 357.877 840.311 358.984 836.058 359.537 833.795L361.567 825.649C362.12 823.658 362.674 821.667 363.135 819.585 363.504 818.047 364.242 815.422 364.335 815.06 365.718 812.254 370.608 804.018 379.371 804.018 383.523 804.018 384.353 807.367 384.353 810.353 384.353 815.965 379.833 827.55 378.357 831.442 377.526 833.523 377.434 834.609 377.434 835.605 377.434 839.859 380.663 843.027 384.999 843.027 393.671 843.027 397.084 829.812 397.084 829.088 397.084 828.183 396.253 828.183 395.977 828.183 395.054 828.183 395.054 828.455 394.593 829.812 392.748 835.967 389.704 841.036 385.183 841.036 383.615 841.036 382.969 840.13 382.969 838.049 382.969 835.786 383.799 833.614 384.63 831.622 386.383 826.826 390.257 816.87 390.257 811.711 390.257 805.647 386.29 802.027 379.648 802.027 371.345 802.027 366.825 807.819 365.257 809.901 364.796 804.832 361.013 802.027 356.77 802.027 352.526 802.027 350.773 805.557 349.851 807.186 348.375 810.263 347.083 815.603 347.083 815.965 347.083 816.87 348.006 816.87 348.19 816.87 349.113 816.87 349.205 816.779 349.758 814.788 351.327 808.362 353.172 804.018 356.493 804.018 358.338 804.018 359.353 805.195 359.353 808.181 359.353 810.082 359.076 811.078 357.877 815.784L352.526 836.691Z" fill="#548235" fill-rule="evenodd"/><path d="M420.372 764.454C420.372 763.431 419.579 762.026 417.731 762.026 415.949 762.026 414.035 763.687 414.035 765.54 414.035 766.626 414.893 767.968 416.675 767.968 418.589 767.968 420.372 766.178 420.372 764.454ZM406.906 796.911C406.642 797.742 406.312 798.509 406.312 799.595 406.312 802.598 408.952 805.026 412.583 805.026 419.183 805.026 422.088 796.208 422.088 795.25 422.088 794.419 421.23 794.419 421.032 794.419 420.108 794.419 420.042 794.803 419.777 795.506 418.259 800.617 415.355 803.237 412.781 803.237 411.46 803.237 411.131 802.406 411.131 801 411.131 799.531 411.593 798.317 412.187 796.911 412.847 795.186 413.573 793.461 414.299 791.8 414.893 790.266 417.269 784.452 417.533 783.685 417.731 783.046 417.929 782.28 417.929 781.641 417.929 778.638 415.289 776.21 411.659 776.21 405.124 776.21 402.087 784.899 402.087 785.986 402.087 786.816 403.012 786.816 403.209 786.816 404.134 786.816 404.2 786.497 404.398 785.794 406.114 780.299 409.018 777.999 411.46 777.999 412.516 777.999 413.111 778.51 413.111 780.235 413.111 781.705 412.715 782.663 411.064 786.625L406.906 796.911Z" fill="#548235" fill-rule="evenodd"/></g></svg>