<svg width="1248" height="1187" xmlns="http://www.w3.org/2000/svg" xmlns:xlink="http://www.w3.org/1999/xlink" xml:space="preserve" overflow="hidden"><rect x="0" y="0" width="100%" height="100%" fill="white" /><defs><clipPath id="clip0"><rect x="1392" y="650" width="1248" height="1187"/></clipPath></defs><g clip-path="url(#clip0)" transform="translate(-1392 -650)"><path d="M2054 945.5C2054 785.061 2184.06 655 2344.5 655 2504.94 655 2635 785.061 2635 945.5 2635 1105.94 2504.94 1236 2344.5 1236 2184.06 1236 2054 1105.94 2054 945.5Z" stroke="#000000" stroke-width="10.3125" stroke-miterlimit="8" fill="none" fill-rule="evenodd"/><path d="M2327.5 950.5C2327.5 941.664 2334.66 934.5 2343.5 934.5 2352.34 934.5 2359.5 941.664 2359.5 950.5 2359.5 959.337 2352.34 966.5 2343.5 966.5 2334.66 966.5 2327.5 959.337 2327.5 950.5Z" stroke="#000000" stroke-width="4.58333" stroke-miterlimit="8" fill-rule="evenodd"/><path d="M1664 1339.5C1664 1179.06 1793.84 1049 1954 1049 2114.16 1049 2244 1179.06 2244 1339.5 2244 1499.94 2114.16 1630 1954 1630 1793.84 1630 1664 1499.94 1664 1339.5Z" stroke="#000000" stroke-width="10.3125" stroke-miterlimit="8" stroke-dasharray="41.25 30.9375" fill="none" fill-rule="evenodd"/><path d="M1936.5 1343.5C1936.5 1334.66 1943.66 1327.5 1952.5 1327.5 1961.34 1327.5 1968.5 1334.66 1968.5 1343.5 1968.5 1352.34 1961.34 1359.5 1952.5 1359.5 1943.66 1359.5 1936.5 1352.34 1936.5 1343.5Z" stroke="#000000" stroke-width="4.58333" stroke-miterlimit="8" fill-rule="evenodd"/><path d="M1426.12 1302.03 1414.08 1313.51 1415.7 1315.03 1426.12 1306.42 1436.46 1315.03 1438.08 1313.51 1426.12 1302.03Z" fill="#C00000" fill-rule="evenodd"/><path d="M1399.16 1374.57C1398.43 1377.62 1398.24 1378.25 1394.2 1378.25 1393.09 1378.25 1392.08 1378.25 1392.08 1379.95 1392.08 1380.67 1392.54 1381.03 1393.28 1381.03 1395.76 1381.03 1398.43 1380.76 1401 1380.76 1404.04 1380.76 1407.16 1381.03 1410.1 1381.03 1410.56 1381.03 1411.76 1381.03 1411.76 1379.23 1411.76 1378.25 1410.84 1378.25 1409.55 1378.25 1404.96 1378.25 1404.96 1377.62 1404.96 1376.81 1404.96 1375.74 1408.82 1361.13 1409.46 1358.89 1410.66 1361.49 1413.23 1364.63 1417.92 1364.63 1428.59 1364.63 1440.08 1351.54 1440.08 1338.37 1440.08 1329.94 1434.84 1324.03 1427.85 1324.03 1423.25 1324.03 1418.84 1327.25 1415.81 1330.75 1414.89 1325.91 1410.93 1324.03 1407.53 1324.03 1403.3 1324.03 1401.55 1327.52 1400.73 1329.14 1399.07 1332.18 1397.87 1337.56 1397.87 1337.83 1397.87 1338.73 1398.79 1338.73 1398.98 1338.73 1399.9 1338.73 1399.99 1338.64 1400.54 1336.66 1402.1 1330.3 1403.94 1326 1407.25 1326 1408.82 1326 1410.1 1326.72 1410.1 1330.12 1410.1 1332.18 1409.83 1333.17 1409.46 1334.69L1399.16 1374.57ZM1415.35 1335.68C1415.99 1333.26 1418.47 1330.75 1420.13 1329.4 1423.35 1326.63 1426.01 1326 1427.58 1326 1431.25 1326 1433.46 1329.14 1433.46 1334.42 1433.46 1339.71 1430.43 1350.02 1428.77 1353.42 1425.64 1359.7 1421.23 1362.65 1417.83 1362.65 1411.76 1362.65 1410.56 1355.22 1410.56 1354.68 1410.56 1354.5 1410.56 1354.32 1410.84 1353.24L1415.35 1335.68Z" fill="#C00000" fill-rule="evenodd"/><path d="M1462.37 1286.4C1462.37 1285.4 1461.58 1284.03 1459.73 1284.03 1457.95 1284.03 1456.03 1285.65 1456.03 1287.46 1456.03 1288.52 1456.89 1289.83 1458.67 1289.83 1460.59 1289.83 1462.37 1288.08 1462.37 1286.4ZM1448.9 1318.1C1448.64 1318.91 1448.31 1319.66 1448.31 1320.72 1448.31 1323.65 1450.95 1326.03 1454.58 1326.03 1461.18 1326.03 1464.09 1317.41 1464.09 1316.48 1464.09 1315.67 1463.23 1315.67 1463.03 1315.67 1462.11 1315.67 1462.04 1316.04 1461.78 1316.73 1460.26 1321.72 1457.35 1324.28 1454.78 1324.28 1453.46 1324.28 1453.13 1323.47 1453.13 1322.09 1453.13 1320.66 1453.59 1319.47 1454.18 1318.1 1454.84 1316.41 1455.57 1314.73 1456.3 1313.11 1456.89 1311.61 1459.27 1305.93 1459.53 1305.18 1459.73 1304.56 1459.93 1303.81 1459.93 1303.18 1459.93 1300.25 1457.29 1297.88 1453.66 1297.88 1447.12 1297.88 1444.09 1306.37 1444.09 1307.43 1444.09 1308.24 1445.01 1308.24 1445.21 1308.24 1446.13 1308.24 1446.2 1307.93 1446.4 1307.24 1448.11 1301.87 1451.02 1299.63 1453.46 1299.63 1454.51 1299.63 1455.11 1300.13 1455.11 1301.81 1455.11 1303.25 1454.71 1304.18 1453.06 1308.05L1448.9 1318.1Z" fill="#C00000" fill-rule="evenodd"/><path d="M1497.18 1311.55 1516.72 1311.55C1517.55 1311.55 1519.08 1311.55 1519.08 1310.06 1519.08 1308.5 1517.62 1308.5 1516.72 1308.5L1497.18 1308.5 1497.18 1289.33C1497.18 1288.52 1497.18 1287.03 1495.65 1287.03 1494.05 1287.03 1494.05 1288.46 1494.05 1289.33L1494.05 1308.5 1474.45 1308.5C1473.62 1308.5 1472.08 1308.5 1472.08 1309.99 1472.08 1311.55 1473.55 1311.55 1474.45 1311.55L1494.05 1311.55 1494.05 1330.72C1494.05 1331.53 1494.05 1333.03 1495.58 1333.03 1497.18 1333.03 1497.18 1331.59 1497.18 1330.72L1497.18 1311.55Z" fill="#C00000" fill-rule="evenodd"/><path d="M1544.37 1285.75C1544.37 1284.09 1544.24 1284.02 1542.47 1284.02 1538.43 1287.91 1532.68 1287.98 1530.08 1287.98L1530.08 1290.2C1531.6 1290.2 1535.77 1290.2 1539.25 1288.47L1539.25 1319.96C1539.25 1322 1539.25 1322.8 1532.93 1322.8L1530.53 1322.8 1530.53 1325.03C1531.66 1324.96 1539.44 1324.78 1541.77 1324.78 1543.73 1324.78 1551.7 1324.96 1553.09 1325.03L1553.09 1322.8 1550.68 1322.8C1544.37 1322.8 1544.37 1322 1544.37 1319.96L1544.37 1285.75Z" fill="#C00000" fill-rule="evenodd"/><path d="M1462.99 1347.8C1462.99 1346.09 1462.85 1346.03 1461.01 1346.03 1456.79 1350.01 1450.79 1350.08 1448.09 1350.08L1448.09 1352.35C1449.67 1352.35 1454.02 1352.35 1457.65 1350.58L1457.65 1382.84C1457.65 1384.93 1457.65 1385.75 1451.05 1385.75L1448.55 1385.75 1448.55 1388.03C1449.73 1387.97 1457.84 1387.78 1460.28 1387.78 1462.33 1387.78 1470.64 1387.97 1472.09 1388.03L1472.09 1385.75 1469.58 1385.75C1462.99 1385.75 1462.99 1384.93 1462.99 1382.84L1462.99 1347.8Z" fill="#C00000" fill-rule="evenodd"/><path d="M1491.32 1386.46C1491.32 1390.03 1490.69 1394.18 1486.41 1398.34 1486.15 1398.6 1485.96 1398.8 1485.96 1399.12 1485.96 1399.57 1486.47 1400.03 1486.85 1400.03 1487.73 1400.03 1493.08 1394.83 1493.08 1387.11 1493.08 1383.08 1491.57 1380.03 1488.67 1380.03 1486.59 1380.03 1485.08 1381.72 1485.08 1383.73 1485.08 1385.81 1486.53 1387.5 1488.74 1387.5 1490.25 1387.5 1491.26 1386.46 1491.32 1386.46Z" fill="#C00000" fill-rule="evenodd"/><path d="M1507 1383.5C1506.74 1384.3 1506.34 1385.86 1506.34 1386.04 1506.34 1387.41 1507.52 1388.03 1508.57 1388.03 1509.75 1388.03 1510.79 1387.22 1511.12 1386.66 1511.45 1386.1 1511.97 1384.12 1512.3 1382.81 1512.63 1381.63 1513.35 1378.78 1513.74 1377.23 1514.13 1375.86 1514.53 1374.49 1514.85 1373.07 1515.57 1370.52 1515.7 1370.02 1517.6 1367.48 1519.44 1364.99 1522.51 1361.77 1527.42 1361.77 1531.22 1361.77 1531.29 1364.93 1531.29 1366.11 1531.29 1369.84 1528.47 1376.73 1527.42 1379.34 1526.7 1381.07 1526.44 1381.63 1526.44 1382.69 1526.44 1385.98 1529.32 1388.03 1532.66 1388.03 1539.21 1388.03 1542.09 1379.46 1542.09 1378.53 1542.09 1377.72 1541.24 1377.72 1541.04 1377.72 1540.12 1377.72 1540.06 1378.09 1539.8 1378.78 1538.29 1383.74 1535.48 1386.29 1532.86 1386.29 1531.48 1386.29 1531.22 1385.42 1531.22 1384.12 1531.22 1382.69 1531.55 1381.88 1532.73 1379.09 1533.51 1377.16 1536.2 1370.58 1536.2 1367.11 1536.2 1361.08 1531.15 1360.03 1527.68 1360.03 1522.25 1360.03 1518.58 1363.19 1516.62 1365.68 1516.16 1361.39 1512.3 1360.03 1509.62 1360.03 1506.8 1360.03 1505.29 1361.95 1504.44 1363.38 1503 1365.68 1502.09 1369.22 1502.09 1369.53 1502.09 1370.33 1503 1370.33 1503.2 1370.33 1504.12 1370.33 1504.18 1370.15 1504.64 1368.47 1505.62 1364.81 1506.87 1361.77 1509.42 1361.77 1511.12 1361.77 1511.58 1363.13 1511.58 1364.81 1511.58 1365.99 1510.99 1368.28 1510.53 1369.96 1510.07 1371.64 1509.42 1374.18 1509.09 1375.55L1507 1383.5Z" fill="#C00000" fill-rule="evenodd"/><path d="M1662 1541.5C1662 1381.06 1792.06 1251 1952.5 1251 2112.94 1251 2243 1381.06 2243 1541.5 2243 1701.94 2112.94 1832 1952.5 1832 1792.06 1832 1662 1701.94 1662 1541.5Z" stroke="#000000" stroke-width="10.3125" stroke-miterlimit="8" fill="none" fill-rule="evenodd"/><path d="M1934.5 1546C1934.5 1536.89 1941.66 1529.5 1950.5 1529.5 1959.34 1529.5 1966.5 1536.89 1966.5 1546 1966.5 1555.11 1959.34 1562.5 1950.5 1562.5 1941.66 1562.5 1934.5 1555.11 1934.5 1546Z" stroke="#000000" stroke-width="4.58333" stroke-miterlimit="8" fill-rule="evenodd"/><path d="M1408.16 1637.57C1407.42 1640.62 1407.24 1641.25 1403.19 1641.25 1402.09 1641.25 1401.08 1641.25 1401.08 1642.95 1401.08 1643.67 1401.54 1644.03 1402.27 1644.03 1404.76 1644.03 1407.42 1643.76 1410 1643.76 1413.03 1643.76 1416.16 1644.03 1419.1 1644.03 1419.56 1644.03 1420.76 1644.03 1420.76 1642.23 1420.76 1641.25 1419.84 1641.25 1418.55 1641.25 1413.95 1641.25 1413.95 1640.62 1413.95 1639.82 1413.95 1638.74 1417.81 1624.13 1418.46 1621.89 1419.65 1624.49 1422.23 1627.63 1426.92 1627.63 1437.58 1627.63 1449.08 1614.54 1449.08 1601.37 1449.08 1592.94 1443.84 1587.03 1436.85 1587.03 1432.25 1587.03 1427.84 1590.25 1424.8 1593.75 1423.88 1588.91 1419.93 1587.03 1416.53 1587.03 1412.3 1587.03 1410.55 1590.52 1409.72 1592.14 1408.07 1595.18 1406.87 1600.56 1406.87 1600.83 1406.87 1601.73 1407.79 1601.73 1407.98 1601.73 1408.9 1601.73 1408.99 1601.64 1409.54 1599.66 1411.1 1593.3 1412.94 1589 1416.25 1589 1417.81 1589 1419.1 1589.72 1419.1 1593.12 1419.1 1595.18 1418.83 1596.17 1418.46 1597.69L1408.16 1637.57ZM1424.34 1598.68C1424.99 1596.26 1427.47 1593.75 1429.13 1592.4 1432.34 1589.63 1435.01 1589 1436.57 1589 1440.25 1589 1442.46 1592.14 1442.46 1597.42 1442.46 1602.71 1439.42 1613.02 1437.77 1616.42 1434.64 1622.7 1430.23 1625.65 1426.83 1625.65 1420.76 1625.65 1419.56 1618.22 1419.56 1617.68 1419.56 1617.5 1419.56 1617.32 1419.84 1616.24L1424.34 1598.68Z" fill-rule="evenodd"/><path d="M1471.45 1549.4C1471.45 1548.4 1470.7 1547.03 1468.94 1547.03 1467.25 1547.03 1465.43 1548.65 1465.43 1550.46 1465.43 1551.52 1466.24 1552.83 1467.94 1552.83 1469.76 1552.83 1471.45 1551.08 1471.45 1549.4ZM1458.66 1581.1C1458.41 1581.91 1458.09 1582.66 1458.09 1583.72 1458.09 1586.65 1460.6 1589.03 1464.05 1589.03 1470.32 1589.03 1473.08 1580.41 1473.08 1579.48 1473.08 1578.67 1472.26 1578.67 1472.08 1578.67 1471.2 1578.67 1471.14 1579.04 1470.88 1579.73 1469.44 1584.72 1466.68 1587.28 1464.24 1587.28 1462.98 1587.28 1462.67 1586.47 1462.67 1585.09 1462.67 1583.66 1463.11 1582.47 1463.67 1581.1 1464.3 1579.41 1464.99 1577.73 1465.68 1576.11 1466.24 1574.61 1468.5 1568.93 1468.75 1568.18 1468.94 1567.56 1469.13 1566.81 1469.13 1566.18 1469.13 1563.25 1466.62 1560.88 1463.17 1560.88 1456.96 1560.88 1454.08 1569.37 1454.08 1570.43 1454.08 1571.24 1454.96 1571.24 1455.14 1571.24 1456.02 1571.24 1456.09 1570.93 1456.27 1570.24 1457.9 1564.87 1460.66 1562.63 1462.98 1562.63 1463.99 1562.63 1464.55 1563.13 1464.55 1564.81 1464.55 1566.25 1464.17 1567.18 1462.61 1571.05L1458.66 1581.1Z" fill-rule="evenodd"/><path d="M1506.71 1574.55 1526.67 1574.55C1527.52 1574.55 1529.08 1574.55 1529.08 1573.06 1529.08 1571.5 1527.58 1571.5 1526.67 1571.5L1506.71 1571.5 1506.71 1552.33C1506.71 1551.52 1506.71 1550.03 1505.15 1550.03 1503.52 1550.03 1503.52 1551.46 1503.52 1552.33L1503.52 1571.5 1483.5 1571.5C1482.65 1571.5 1481.08 1571.5 1481.08 1572.99 1481.08 1574.55 1482.58 1574.55 1483.5 1574.55L1503.52 1574.55 1503.52 1593.72C1503.52 1594.53 1503.52 1596.03 1505.08 1596.03 1506.71 1596.03 1506.71 1594.59 1506.71 1593.72L1506.71 1574.55Z" fill-rule="evenodd"/><path d="M1554.99 1548.75C1554.99 1547.09 1554.86 1547.02 1553.01 1547.02 1548.79 1550.91 1542.79 1550.98 1540.09 1550.98L1540.09 1553.2C1541.67 1553.2 1546.02 1553.2 1549.65 1551.47L1549.65 1582.96C1549.65 1585 1549.65 1585.8 1543.05 1585.8L1540.55 1585.8 1540.55 1588.03C1541.73 1587.96 1549.84 1587.78 1552.28 1587.78 1554.33 1587.78 1562.64 1587.96 1564.09 1588.03L1564.09 1585.8 1561.58 1585.8C1554.99 1585.8 1554.99 1585 1554.99 1582.96L1554.99 1548.75Z" fill-rule="evenodd"/><path d="M1472.36 1610.8C1472.36 1609.09 1472.23 1609.03 1470.46 1609.03 1466.42 1613.01 1460.67 1613.08 1458.08 1613.08L1458.08 1615.35C1459.6 1615.35 1463.77 1615.35 1467.24 1613.58L1467.24 1645.84C1467.24 1647.93 1467.24 1648.75 1460.92 1648.75L1458.52 1648.75 1458.52 1651.03C1459.66 1650.97 1467.43 1650.78 1469.77 1650.78 1471.73 1650.78 1479.69 1650.97 1481.08 1651.03L1481.08 1648.75 1478.68 1648.75C1472.36 1648.75 1472.36 1647.93 1472.36 1645.84L1472.36 1610.8Z" fill-rule="evenodd"/><path d="M1501.32 1649.46C1501.32 1653.03 1500.69 1657.18 1496.4 1661.34 1496.15 1661.6 1495.96 1661.8 1495.96 1662.12 1495.96 1662.57 1496.47 1663.03 1496.84 1663.03 1497.73 1663.03 1503.08 1657.83 1503.08 1650.11 1503.08 1646.08 1501.57 1643.03 1498.67 1643.03 1496.59 1643.03 1495.08 1644.72 1495.08 1646.73 1495.08 1648.81 1496.53 1650.5 1498.73 1650.5 1500.25 1650.5 1501.25 1649.46 1501.32 1649.46Z" fill-rule="evenodd"/><path d="M1516.99 1646.5C1516.73 1647.3 1516.34 1648.86 1516.34 1649.04 1516.34 1650.41 1517.52 1651.03 1518.57 1651.03 1519.74 1651.03 1520.79 1650.22 1521.12 1649.66 1521.45 1649.1 1521.97 1647.12 1522.3 1645.81 1522.63 1644.63 1523.35 1641.78 1523.74 1640.23 1524.13 1638.86 1524.52 1637.49 1524.85 1636.07 1525.57 1633.52 1525.7 1633.02 1527.6 1630.48 1529.43 1627.99 1532.51 1624.77 1537.42 1624.77 1541.22 1624.77 1541.28 1627.93 1541.28 1629.11 1541.28 1632.84 1538.47 1639.73 1537.42 1642.34 1536.7 1644.07 1536.44 1644.63 1536.44 1645.69 1536.44 1648.98 1539.32 1651.03 1542.66 1651.03 1549.2 1651.03 1552.08 1642.46 1552.08 1641.53 1552.08 1640.72 1551.23 1640.72 1551.04 1640.72 1550.12 1640.72 1550.06 1641.09 1549.79 1641.78 1548.29 1646.74 1545.47 1649.29 1542.85 1649.29 1541.48 1649.29 1541.22 1648.42 1541.22 1647.12 1541.22 1645.69 1541.54 1644.88 1542.72 1642.09 1543.51 1640.16 1546.19 1633.58 1546.19 1630.11 1546.19 1624.08 1541.15 1623.03 1537.68 1623.03 1532.25 1623.03 1528.58 1626.19 1526.62 1628.68 1526.16 1624.39 1522.3 1623.03 1519.61 1623.03 1516.8 1623.03 1515.29 1624.95 1514.44 1626.38 1513 1628.68 1512.08 1632.22 1512.08 1632.53 1512.08 1633.33 1513 1633.33 1513.2 1633.33 1514.11 1633.33 1514.18 1633.15 1514.64 1631.47 1515.62 1627.81 1516.86 1624.77 1519.42 1624.77 1521.12 1624.77 1521.58 1626.13 1521.58 1627.81 1521.58 1628.99 1520.99 1631.28 1520.53 1632.96 1520.07 1634.64 1519.42 1637.18 1519.09 1638.55L1516.99 1646.5Z" fill-rule="evenodd"/><path d="M1602.54 1636.03C1603.56 1636.03 1605.08 1636.03 1605.08 1634.56 1605.08 1633.03 1603.62 1633.03 1602.54 1633.03L1564.63 1633.03C1563.61 1633.03 1562.08 1633.03 1562.08 1634.5 1562.08 1636.03 1563.55 1636.03 1564.63 1636.03L1602.54 1636.03Z" fill-rule="evenodd"/><path d="M1633.99 1610.8C1633.99 1609.09 1633.86 1609.03 1632.01 1609.03 1627.79 1613.01 1621.79 1613.08 1619.09 1613.08L1619.09 1615.35C1620.67 1615.35 1625.02 1615.35 1628.65 1613.58L1628.65 1645.84C1628.65 1647.93 1628.65 1648.75 1622.06 1648.75L1619.55 1648.75 1619.55 1651.03C1620.74 1650.97 1628.85 1650.78 1631.29 1650.78 1633.33 1650.78 1641.64 1650.97 1643.09 1651.03L1643.09 1648.75 1640.58 1648.75C1633.99 1648.75 1633.99 1647.93 1633.99 1645.84L1633.99 1610.8Z" fill-rule="evenodd"/><path d="M8.02037-0.0864026 9.42169 129.992-6.61905 130.165-8.02037 0.0864026ZM25.376 121.799 1.83333 170.18-22.7462 122.317Z" fill="#4472C4" transform="matrix(1 0 0 -1 1950 1529.18)"/><path d="M5.57291-5.76858 17.1101 5.37724 5.96424 16.9144-5.57291 5.76858ZM28.6472 16.5231 40.1844 27.6689 29.0385 39.206 17.5014 28.0602ZM51.7215 38.8147 63.2587 49.9605 52.1129 61.4977 40.5757 50.3518ZM74.7958 61.1063 86.333 72.2521 75.1871 83.7893 63.65 72.6435ZM97.8701 83.398 109.407 94.5438 98.2614 106.081 86.7243 94.9351ZM120.944 105.69 132.482 116.835 121.336 128.373 109.799 117.227ZM144.019 127.981 155.556 139.127 144.41 150.664 132.873 139.518ZM167.093 150.273 178.63 161.419 167.484 172.956 155.947 161.81ZM190.167 172.565 201.704 183.71 190.559 195.247 179.022 184.102ZM213.242 194.856 224.779 206.002 213.633 217.539 202.096 206.393ZM236.316 217.148 247.853 228.294 236.707 239.831 225.17 228.685ZM259.39 239.439 270.927 250.585 259.782 262.122 248.244 250.977ZM282.465 261.731 294.002 272.877 282.856 284.414 271.319 273.268ZM305.539 284.023 317.076 295.169 305.93 306.706 294.393 295.56ZM328.613 306.314 340.15 317.46 329.004 328.997 317.467 317.851ZM351.687 328.606 355.811 332.59 344.666 344.127 340.542 340.143ZM361.189 315.48 379.082 366.223 327.752 350.092Z" fill="#C00000" transform="matrix(1 0 0 -1 1952 1327.22)"/><path d="M5.57291-5.76858 76.432 62.6869 65.2861 74.2241-5.57291 5.76858ZM81.8092 45.5769 99.7019 96.32 48.3718 80.1883Z" fill="#C00000" transform="matrix(1 0 0 -1 1917 950.32)"/><path d="M1723.13 886.029 1711.08 899.276 1712.7 901.029 1723.13 891.094 1733.46 901.029 1735.08 899.276 1723.13 886.029Z" fill="#C00000" fill-rule="evenodd"/><path d="M1704.3 944.691C1704.04 946.049 1703.51 948.131 1703.51 948.583 1703.51 950.212 1704.75 951.027 1706.08 951.027 1707.14 951.027 1708.73 950.303 1709.35 948.493 1709.44 948.312 1710.5 944.058 1711.04 941.795L1712.98 933.649C1713.52 931.658 1714.05 929.667 1714.49 927.585 1714.84 926.047 1715.55 923.422 1715.64 923.06 1716.97 920.254 1721.66 912.018 1730.08 912.018 1734.06 912.018 1734.86 915.367 1734.86 918.353 1734.86 923.965 1730.52 935.55 1729.1 939.442 1728.3 941.524 1728.22 942.61 1728.22 943.605 1728.22 947.859 1731.32 951.027 1735.48 951.027 1743.8 951.027 1747.08 937.813 1747.08 937.089 1747.08 936.183 1746.28 936.183 1746.02 936.183 1745.13 936.183 1745.13 936.455 1744.69 937.813 1742.92 943.967 1739.99 949.036 1735.66 949.036 1734.15 949.036 1733.53 948.131 1733.53 946.049 1733.53 943.786 1734.33 941.614 1735.12 939.623 1736.81 934.826 1740.53 924.87 1740.53 919.711 1740.53 913.647 1736.72 910.027 1730.34 910.027 1722.37 910.027 1718.03 915.819 1716.53 917.901 1716.08 912.832 1712.45 910.027 1708.38 910.027 1704.3 910.027 1702.62 913.557 1701.74 915.186 1700.32 918.263 1699.08 923.603 1699.08 923.965 1699.08 924.87 1699.97 924.87 1700.14 924.87 1701.03 924.87 1701.12 924.779 1701.65 922.788 1703.15 916.362 1704.92 912.018 1708.11 912.018 1709.88 912.018 1710.86 913.195 1710.86 916.181 1710.86 918.082 1710.59 919.078 1709.44 923.784L1704.3 944.691Z" fill="#C00000" fill-rule="evenodd"/><path d="M1770.45 872.454C1770.45 871.431 1769.7 870.026 1767.94 870.026 1766.25 870.026 1764.43 871.687 1764.43 873.54 1764.43 874.626 1765.25 875.968 1766.94 875.968 1768.76 875.968 1770.45 874.178 1770.45 872.454ZM1757.66 904.911C1757.41 905.742 1757.1 906.508 1757.1 907.595 1757.1 910.598 1759.6 913.026 1763.05 913.026 1769.32 913.026 1772.08 904.208 1772.08 903.25 1772.08 902.419 1771.27 902.419 1771.08 902.419 1770.2 902.419 1770.14 902.803 1769.89 903.506 1768.45 908.617 1765.69 911.237 1763.24 911.237 1761.99 911.237 1761.67 910.406 1761.67 909 1761.67 907.531 1762.11 906.317 1762.68 904.911 1763.3 903.186 1763.99 901.461 1764.68 899.8 1765.25 898.266 1767.51 892.452 1767.76 891.685 1767.94 891.046 1768.13 890.28 1768.13 889.641 1768.13 886.638 1765.62 884.21 1762.18 884.21 1755.97 884.21 1753.08 892.899 1753.08 893.986 1753.08 894.816 1753.96 894.816 1754.15 894.816 1755.03 894.816 1755.09 894.497 1755.28 893.794 1756.91 888.299 1759.67 885.999 1761.99 885.999 1762.99 885.999 1763.55 886.51 1763.55 888.235 1763.55 889.704 1763.18 890.663 1761.61 894.624L1757.66 904.911Z" fill="#C00000" fill-rule="evenodd"/><path d="M1804.65 898.088 1823.77 898.088C1824.58 898.088 1826.08 898.088 1826.08 896.557 1826.08 894.963 1824.65 894.963 1823.77 894.963L1804.65 894.963 1804.65 875.385C1804.65 874.556 1804.65 873.026 1803.15 873.026 1801.58 873.026 1801.58 874.492 1801.58 875.385L1801.58 894.963 1782.4 894.963C1781.58 894.963 1780.08 894.963 1780.08 896.494 1780.08 898.088 1781.52 898.088 1782.4 898.088L1801.58 898.088 1801.58 917.666C1801.58 918.495 1801.58 920.025 1803.08 920.025 1804.65 920.025 1804.65 918.559 1804.65 917.666L1804.65 898.088Z" fill="#C00000" fill-rule="evenodd"/><path d="M1852.37 871.796C1852.37 870.089 1852.24 870.025 1850.47 870.025 1846.43 874.01 1840.68 874.073 1838.09 874.073L1838.09 876.351C1839.6 876.351 1843.77 876.351 1847.25 874.579L1847.25 906.839C1847.25 908.926 1847.25 909.748 1840.93 909.748L1838.53 909.748 1838.53 912.025C1839.67 911.962 1847.44 911.772 1849.78 911.772 1851.73 911.772 1859.7 911.962 1861.09 912.025L1861.09 909.748 1858.69 909.748C1852.37 909.748 1852.37 908.926 1852.37 906.839L1852.37 871.796Z" fill="#C00000" fill-rule="evenodd"/></g></svg>