<svg width="331" height="268" viewBox="0 0 331 268" fill="none" xmlns="http://www.w3.org/2000/svg">
<g opacity="0.5">
<path d="M217.059 -1.12323C216.752 24.2178 204.157 44.6056 182.128 59.7306C162.906 72.9539 143.115 85.4254 124.772 99.8428C94.7991 123.459 75.1831 154.063 74.5687 193.423C73.9105 236.233 93.1315 269.181 128.809 292.488C129.467 292.93 130.213 293.284 130.871 293.682C134.031 295.628 136.62 298.502 134.338 301.952C133.241 303.588 129.16 304.384 126.878 303.765C107.657 299.077 89.182 292.222 72.2868 281.741C17.6078 247.82 -14.3395 198.642 -21.712 134.604C-32.2002 42.925 22.2594 -41.9873 108.973 -69.4069C130.389 -76.2175 151.979 -77.7212 173.307 -68.7435C200.515 -57.3776 217.937 -31.1521 217.059 -1.12323Z" fill="#E9F1F2"/>
<path d="M345.524 145.132C345.085 162.029 340.342 180.96 322.689 194.274C302.137 209.755 275.656 208.738 259.496 191.93C254.885 187.064 251.372 181.27 249.308 174.856C247.244 168.443 246.585 161.675 247.419 155.04C248.298 148.361 250.625 141.992 254.27 136.33C257.915 130.713 262.745 125.936 268.454 122.441C270.65 121.07 272.89 119.743 275.129 118.46C293.573 108.066 301.873 91.7886 302.488 70.9996C302.751 68.9649 303.234 66.9303 303.893 64.9841C305.957 65.8687 308.329 66.311 310.041 67.6822C332.701 85.4635 345.524 112.135 345.524 145.132Z" fill="#E9F1F2"/>
</g>
</svg>
