<svg width="10" height="11" viewBox="0 0 10 11" fill="none" xmlns="http://www.w3.org/2000/svg">
<path fill-rule="evenodd" clip-rule="evenodd" d="M5 1.19803C5.15859 1.19803 5.30343 1.28806 5.37363 1.43027L6.56428 3.84239L9.22693 4.23158C9.38383 4.25451 9.51411 4.36451 9.56302 4.51535C9.61193 4.66618 9.57098 4.83171 9.45739 4.94234L7.53105 6.8186L7.98567 9.46926C8.01248 9.62559 7.94822 9.78358 7.81989 9.8768C7.69157 9.97002 7.52145 9.9823 7.38106 9.90848L5 8.6563L2.61894 9.90848C2.47856 9.9823 2.30844 9.97002 2.18011 9.8768C2.05179 9.78358 1.98752 9.62559 2.01433 9.46926L2.46895 6.8186L0.542613 4.94234C0.429022 4.83171 0.388075 4.66618 0.436983 4.51535C0.48589 4.36451 0.616174 4.25451 0.773074 4.23158L3.43573 3.84239L4.62637 1.43027C4.69657 1.28806 4.84141 1.19803 5 1.19803ZM5 2.55605L4.08613 4.40746C4.02549 4.53031 3.90833 4.6155 3.77276 4.63531L1.72851 4.93411L3.20739 6.37455C3.30567 6.47027 3.35053 6.60824 3.32734 6.74346L2.97841 8.77789L4.80606 7.81675C4.92747 7.7529 5.07253 7.7529 5.19394 7.81675L7.02159 8.77789L6.67267 6.74346C6.64947 6.60824 6.69433 6.47027 6.79261 6.37455L8.2715 4.93411L6.22724 4.63531C6.09168 4.6155 5.97452 4.53031 5.91387 4.40746L5 2.55605Z" fill="currentColor"/>
</svg>
