<svg width="328" height="328" viewBox="0 0 328 328" fill="none" xmlns="http://www.w3.org/2000/svg">
<path d="M286.475 111.438H18.04V294.511H286.475V111.438Z" fill="#F7FCFC"/>
<path d="M286.409 294.79H18.0398C17.9578 294.79 17.8758 294.757 17.8266 294.708C17.7774 294.659 17.7446 294.577 17.7446 294.495V111.438C17.7446 111.356 17.7774 111.274 17.8266 111.225C17.8758 111.175 17.9578 111.143 18.0398 111.143H286.409C286.491 111.143 286.573 111.175 286.623 111.225C286.688 111.274 286.705 111.356 286.705 111.438V294.495C286.705 294.577 286.672 294.659 286.623 294.708C286.557 294.757 286.491 294.79 286.409 294.79ZM18.335 294.183H286.098V111.733H18.335V294.183Z" fill="#141E1F"/>
<path d="M322.588 99.9746V221.892H286.409V111.438H18.0398C18.0234 107.551 18.7778 103.714 20.2538 100.122C21.7298 96.5306 23.911 93.267 26.6498 90.5282C29.3886 87.7894 32.6522 85.6082 36.2438 84.1322C39.8354 82.6562 43.673 81.9018 47.5598 81.9182H304.548C306.926 81.9182 309.271 82.3774 311.469 83.2794C313.666 84.1814 315.651 85.5098 317.34 87.199C319.013 88.8718 320.341 90.8726 321.259 93.0702C322.129 95.2514 322.588 97.613 322.588 99.9746Z" fill="#F7FCFC"/>
<path d="M322.588 222.204H286.409C286.327 222.187 286.262 222.154 286.213 222.105C286.163 222.056 286.114 221.974 286.114 221.908V111.733H18.0398C17.9578 111.733 17.8758 111.7 17.8266 111.651C17.7774 111.602 17.7446 111.52 17.7446 111.438C17.7446 103.533 20.877 95.9399 26.4694 90.3311C32.0618 84.7223 39.6386 81.5735 47.5598 81.5571H304.548C306.959 81.5571 309.353 82.0327 311.567 82.9511C313.797 83.8695 315.815 85.2307 317.504 86.9527C320.948 90.4131 322.883 95.1035 322.899 99.9743V221.892C322.899 221.974 322.867 222.056 322.817 222.105C322.735 222.171 322.67 222.204 322.588 222.204ZM286.705 221.597H322.276V99.9743C322.276 95.2675 320.407 90.7411 317.077 87.3955C313.748 84.0499 309.238 82.1803 304.515 82.1639H47.527C39.8354 82.1803 32.439 85.2307 26.9778 90.6427C21.5166 96.0711 18.4006 103.418 18.3186 111.126H286.393C286.475 111.126 286.557 111.159 286.606 111.208C286.672 111.258 286.688 111.34 286.688 111.422V221.597H286.705Z" fill="#141E1F"/>
<path d="M269.386 74.1115C277.914 74.1115 284.835 67.1907 284.835 58.6627C284.835 50.1347 277.914 43.2139 269.386 43.2139C260.858 43.2139 253.938 50.1347 253.938 58.6627C253.938 67.1907 260.842 74.1115 269.386 74.1115Z" fill="#F7FCFC"/>
<path d="M269.386 74.4723C267.041 74.4559 264.712 73.9147 262.597 72.8979C259.809 71.5367 257.463 69.4047 255.889 66.7315C254.298 64.0583 253.544 60.9751 253.691 57.8755C253.839 54.7759 254.905 51.7911 256.758 49.2819C258.595 46.7891 261.137 44.8703 264.056 43.8043C267.992 42.3939 272.322 42.6071 276.11 44.3947C279.882 46.1823 282.818 49.3803 284.228 53.3163C284.933 55.2679 285.261 57.3343 285.147 59.4007C285.048 61.4671 284.523 63.5007 283.621 65.3703C282.752 67.2399 281.506 68.9291 279.981 70.3231C278.455 71.7171 276.668 72.7995 274.716 73.4883C272.994 74.1115 271.207 74.4395 269.386 74.4723ZM269.386 43.5091C267.648 43.4927 265.926 43.7715 264.302 44.3619C260.514 45.7231 257.414 48.5275 255.692 52.1519C253.97 55.7927 253.757 59.9583 255.085 63.7467C256.611 67.3055 259.431 70.1427 262.974 71.7007C266.516 73.2423 270.518 73.3899 274.159 72.0943C277.799 70.7987 280.817 68.1583 282.588 64.7143C284.359 61.2703 284.753 57.2851 283.687 53.5787C282.637 50.6267 280.702 48.0847 278.127 46.2807C275.569 44.4603 272.519 43.4927 269.386 43.5091Z" fill="#141E1F"/>
<path d="M269.386 70.1594C275.75 70.1594 280.899 65.0098 280.899 58.6466C280.899 52.2834 275.75 47.1338 269.386 47.1338C263.023 47.1338 257.874 52.2834 257.874 58.6466C257.874 65.0098 263.023 70.1594 269.386 70.1594Z" fill="#141E1F"/>
<path d="M269.387 66.0428C273.47 66.0428 276.783 62.73 276.783 58.6464C276.783 54.5628 273.47 51.25 269.387 51.25C265.303 51.25 261.99 54.5628 261.99 58.6464C261.99 62.73 265.303 66.0428 269.387 66.0428Z" fill="#F7FCFC"/>
<path d="M269.386 66.3543C268.255 66.3707 267.123 66.0919 266.106 65.5671C265.188 65.1571 264.384 64.5503 263.695 63.8123C263.023 63.0743 262.498 62.2051 262.17 61.2539C261.809 60.3027 261.645 59.3023 261.695 58.2855C261.727 57.2687 261.973 56.2847 262.4 55.3663C262.826 54.4479 263.433 53.6279 264.187 52.9555C264.942 52.2831 265.811 51.7583 266.779 51.4303C267.73 51.0695 268.73 50.9219 269.747 50.9711C270.764 51.0203 271.748 51.2827 272.65 51.7419C273.568 52.1519 274.388 52.7587 275.061 53.4967C275.733 54.2347 276.258 55.1039 276.586 56.0551C276.947 57.0063 277.111 58.0067 277.045 59.0235C276.996 60.0403 276.733 61.0243 276.274 61.9263C275.864 62.8447 275.257 63.6647 274.519 64.3371C273.781 65.0095 272.912 65.5343 271.961 65.8623C271.157 66.1739 270.272 66.3379 269.386 66.3543ZM269.386 51.5615C268.583 51.5779 267.779 51.7255 267.025 51.9879C265.385 52.7095 264.073 54.0215 263.351 55.6615C262.629 57.3015 262.58 59.1547 263.171 60.8603C263.777 62.5495 264.991 63.9435 266.582 64.7799C268.173 65.5999 270.026 65.7967 271.748 65.3211C273.503 64.6815 274.946 63.3695 275.749 61.6803C276.159 60.8439 276.389 59.9419 276.438 59.0071C276.487 58.0887 276.356 57.1539 276.045 56.2847C275.733 55.4155 275.257 54.6119 274.634 53.9231C274.011 53.2343 273.257 52.6767 272.42 52.2831C271.469 51.8075 270.436 51.5615 269.386 51.5615Z" fill="#141E1F"/>
<path d="M269.387 61.4344C270.928 61.4344 272.175 60.188 272.175 58.6464C272.175 57.1048 270.928 55.8584 269.387 55.8584C267.845 55.8584 266.599 57.1048 266.599 58.6464C266.599 60.188 267.845 61.4344 269.387 61.4344Z" fill="#141E1F"/>
<path d="M286.098 41.6234L287.853 36.6542C287.919 36.4246 288.05 36.2278 288.214 36.0638C288.378 35.8998 288.591 35.785 288.821 35.7358C289.05 35.6866 289.28 35.6866 289.509 35.7522C289.739 35.8178 289.936 35.949 290.1 36.113L293.314 39.3274C293.462 39.4914 293.577 39.6882 293.642 39.9014C293.708 40.1146 293.708 40.3442 293.659 40.5738C293.609 40.787 293.511 41.0002 293.363 41.1806C293.216 41.361 293.035 41.4922 292.822 41.5742L287.919 43.3946C287.673 43.493 287.394 43.5094 287.148 43.4602C286.885 43.411 286.639 43.2798 286.459 43.0994C286.262 42.919 286.131 42.673 286.065 42.427C286 42.1482 286.016 41.8858 286.098 41.6234Z" fill="#87BEFF"/>
<path d="M270.584 58.0396L270.403 57.9248C270.354 57.8756 270.321 57.7936 270.321 57.7116C270.321 57.6296 270.354 57.564 270.403 57.4984L292.888 36.4736C292.937 36.4244 293.019 36.3916 293.101 36.3916C293.183 36.3916 293.265 36.4244 293.314 36.4736C293.363 36.5556 293.38 36.6376 293.38 36.736C293.363 36.818 293.33 36.9 293.248 36.9656L270.83 57.9248L270.584 58.0396Z" fill="#141E1F"/>
<path d="M270.961 55.3174L268.714 59.1878L273.142 57.679L270.961 55.3174Z" fill="#87BEFF"/>
<path d="M286.409 111.733C286.327 111.733 286.245 111.701 286.196 111.651C286.147 111.602 286.114 111.52 286.114 111.438C286.393 107.633 287 103.861 287.935 100.171C289.394 94.661 292.231 87.3302 297.758 83.8698C301.94 81.2622 307.024 81.1474 312.912 83.6238C313.027 83.6894 313.158 83.8698 313.027 83.9846C313.027 84.0174 313.01 84.0666 312.977 84.0994C312.961 84.1322 312.928 84.165 312.895 84.1814C312.863 84.1978 312.813 84.2142 312.781 84.2142C312.748 84.2142 312.699 84.1978 312.666 84.1814C306.975 81.8198 302.055 81.8854 298.07 84.3618C287.885 90.8398 286.803 111.258 286.737 111.455C286.737 111.537 286.705 111.619 286.655 111.668C286.557 111.701 286.491 111.733 286.409 111.733Z" fill="#141E1F"/>
<path d="M69.8478 193.963H39.967C37.343 193.963 34.8338 192.929 32.9806 191.076C31.1274 189.223 30.0942 186.714 30.0942 184.09V157.177C30.0942 154.553 31.1274 152.044 32.9806 150.191C34.8338 148.338 37.343 147.305 39.967 147.305H69.8478C71.1434 147.305 72.4226 147.567 73.6198 148.059C74.817 148.551 75.8994 149.289 76.8178 150.207C77.7362 151.126 78.4578 152.208 78.9662 153.405C79.4582 154.603 79.7206 155.882 79.7206 157.177V184.09C79.7206 185.385 79.4582 186.665 78.9662 187.862C78.4742 189.059 77.7362 190.141 76.8178 191.06C75.8994 191.978 74.817 192.7 73.6198 193.208C72.4226 193.7 71.1434 193.963 69.8478 193.963ZM39.967 147.911C38.7534 147.911 37.5398 148.157 36.4246 148.617C35.293 149.076 34.2762 149.765 33.4234 150.634C32.5706 151.487 31.8818 152.52 31.4062 153.635C30.947 154.767 30.701 155.964 30.701 157.177V184.09C30.7174 186.55 31.7014 188.895 33.4398 190.633C35.1782 192.372 37.5234 193.356 39.9834 193.372H69.8642C72.3242 193.356 74.6694 192.372 76.4078 190.633C78.1462 188.895 79.1302 186.55 79.1466 184.09V157.177C79.1466 155.964 78.9006 154.75 78.4414 153.635C77.9822 152.503 77.2934 151.487 76.4242 150.634C75.5714 149.781 74.5382 149.092 73.423 148.617C72.2914 148.157 71.0942 147.911 69.8806 147.911H39.967Z" fill="#141E1F"/>
<path d="M37.7854 211.052C41.2622 211.052 44.083 208.231 44.083 204.754C44.083 201.277 41.2622 198.457 37.7854 198.457C34.3086 198.457 31.4878 201.277 31.4878 204.754C31.4878 208.231 34.3086 211.052 37.7854 211.052Z" fill="#87BEFF"/>
<path d="M34.0955 209.411C32.7835 209.411 31.5043 209.018 30.4219 208.296C29.3395 207.575 28.4867 206.541 27.9947 205.328C27.5027 204.114 27.3715 202.786 27.6175 201.507C27.8799 200.227 28.5031 199.047 29.4215 198.128C30.3399 197.21 31.5207 196.57 32.7999 196.324C34.0791 196.062 35.4075 196.193 36.6211 196.701C37.8347 197.193 38.8515 198.046 39.5895 199.129C40.3111 200.211 40.7047 201.49 40.7047 202.802C40.7047 203.671 40.5407 204.524 40.1963 205.328C39.8683 206.131 39.3763 206.853 38.7695 207.476C38.1627 208.083 37.4247 208.575 36.6211 208.903C35.8175 209.247 34.9647 209.411 34.0955 209.411ZM34.0955 196.816C32.9147 196.816 31.7503 197.161 30.7663 197.833C29.7823 198.489 29.0115 199.424 28.5523 200.523C28.0931 201.621 27.9783 202.819 28.2079 203.983C28.4375 205.147 29.0115 206.213 29.8479 207.05C30.6843 207.886 31.7503 208.46 32.9147 208.69C34.0791 208.919 35.2927 208.805 36.3751 208.345C37.4739 207.886 38.4087 207.115 39.0647 206.131C39.7207 205.147 40.0815 203.983 40.0815 202.802C40.0815 201.211 39.4419 199.686 38.3267 198.555C37.2115 197.423 35.6863 196.816 34.0955 196.816Z" fill="#141E1F"/>
<path d="M73.7179 201.359H46.3299C46.2479 201.359 46.1659 201.326 46.1167 201.277C46.0675 201.228 46.0347 201.146 46.0347 201.064C46.0347 200.982 46.0675 200.9 46.1167 200.851C46.1659 200.802 46.2479 200.752 46.3299 200.752H73.7179C73.7999 200.752 73.8819 200.785 73.9311 200.851C73.9803 200.9 74.0131 200.982 74.0131 201.064C74.0131 201.146 73.9803 201.228 73.9311 201.277C73.8819 201.326 73.7999 201.359 73.7179 201.359Z" fill="#141E1F"/>
<path d="M57.5967 205.656H46.3299C46.2479 205.656 46.1659 205.623 46.1167 205.574C46.0675 205.525 46.0347 205.443 46.0347 205.361C46.0347 205.279 46.0675 205.197 46.1167 205.147C46.1659 205.098 46.2479 205.065 46.3299 205.065H57.5967C57.6787 205.082 57.7443 205.115 57.7935 205.164C57.8427 205.213 57.8919 205.295 57.8919 205.361C57.8919 205.393 57.8919 205.443 57.8755 205.475C57.8591 205.508 57.8427 205.541 57.8099 205.574C57.7771 205.607 57.7443 205.623 57.7115 205.639C57.6787 205.656 57.6459 205.656 57.5967 205.656Z" fill="#141E1F"/>
<path d="M71.6682 209.412H45.9202C45.8382 209.412 45.7562 209.379 45.707 209.33C45.6578 209.28 45.625 209.198 45.625 209.116C45.625 209.034 45.6578 208.952 45.707 208.903C45.7562 208.854 45.8382 208.821 45.9202 208.821H71.6682C71.7502 208.821 71.8322 208.854 71.8814 208.903C71.9306 208.952 71.9634 209.034 71.9634 209.116C71.9634 209.198 71.9306 209.28 71.8814 209.33C71.8158 209.379 71.7338 209.412 71.6682 209.412Z" fill="#141E1F"/>
<path d="M314.519 231.223C318.127 231.223 321.063 228.288 321.063 224.68C321.063 221.072 318.127 218.136 314.519 218.136C310.911 218.136 307.976 221.072 307.976 224.68C307.976 228.288 310.911 231.223 314.519 231.223Z" fill="#4CBDC7"/>
<path d="M310.944 238.079C309.583 238.079 308.271 237.685 307.139 236.931C306.008 236.177 305.138 235.111 304.614 233.864C304.089 232.618 303.958 231.24 304.22 229.912C304.482 228.583 305.138 227.37 306.09 226.402C307.041 225.451 308.271 224.795 309.599 224.533C310.928 224.27 312.305 224.401 313.552 224.926C314.798 225.451 315.864 226.32 316.618 227.452C317.373 228.583 317.766 229.895 317.766 231.257C317.766 232.159 317.586 233.044 317.242 233.881C316.897 234.717 316.389 235.471 315.766 236.095C315.126 236.734 314.372 237.243 313.552 237.587C312.732 237.899 311.846 238.079 310.944 238.079ZM310.944 224.992C309.714 224.992 308.5 225.353 307.467 226.041C306.45 226.73 305.647 227.698 305.171 228.846C304.696 229.994 304.581 231.24 304.81 232.454C305.056 233.667 305.647 234.783 306.516 235.652C307.385 236.521 308.5 237.128 309.714 237.357C310.928 237.603 312.174 237.472 313.322 236.997C314.47 236.521 315.438 235.717 316.126 234.701C316.815 233.667 317.176 232.47 317.176 231.24C317.176 230.42 317.012 229.617 316.7 228.846C316.389 228.091 315.93 227.403 315.356 226.829C314.782 226.255 314.093 225.795 313.338 225.484C312.584 225.139 311.764 224.992 310.944 224.992Z" fill="#141E1F"/>
<path d="M47.7895 175.907C54.4151 175.907 59.7943 170.527 59.7943 163.902C59.7943 157.276 54.4151 151.897 47.7895 151.897C41.1639 151.897 35.7847 157.276 35.7847 163.902C35.7847 170.527 41.1639 175.907 47.7895 175.907Z" fill="#00919B"/>
<path d="M47.7897 163.901V177.595C44.1653 177.579 40.6885 176.136 38.1301 173.561C35.5717 171.003 34.1121 167.526 34.0957 163.901H47.7897Z" fill="#87BEFF"/>
<path d="M76.1454 160.507H62.0906C62.0086 160.507 61.9266 160.474 61.8774 160.425C61.8282 160.376 61.7954 160.294 61.7954 160.212C61.7954 160.13 61.8282 160.048 61.8774 159.999C61.9266 159.949 62.0086 159.917 62.0906 159.917H76.1454C76.2274 159.917 76.3094 159.949 76.3586 159.999C76.4078 160.048 76.4406 160.13 76.4406 160.212C76.4406 160.294 76.4078 160.376 76.3586 160.425C76.3094 160.474 76.2274 160.507 76.1454 160.507Z" fill="#141E1F"/>
<path d="M74.3902 163.541H63.845C63.763 163.541 63.681 163.508 63.6318 163.459C63.5826 163.409 63.5498 163.327 63.5498 163.245C63.5498 163.163 63.5826 163.081 63.6318 163.032C63.681 162.983 63.763 162.95 63.845 162.95H74.3902C74.4722 162.95 74.5542 162.983 74.6034 163.032C74.6526 163.081 74.6854 163.163 74.6854 163.245C74.6854 163.327 74.6526 163.409 74.6034 163.459C74.5378 163.508 74.4722 163.541 74.3902 163.541Z" fill="#141E1F"/>
<path d="M73.718 180.81H34.7024C34.6204 180.81 34.5384 180.777 34.4892 180.712C34.44 180.662 34.4072 180.58 34.4072 180.498C34.4072 180.416 34.44 180.334 34.4892 180.285C34.5384 180.236 34.6204 180.203 34.7024 180.203H73.718C73.8 180.203 73.882 180.236 73.9312 180.285C73.9804 180.334 74.0132 180.416 74.0132 180.498C74.0132 180.58 73.9804 180.662 73.9312 180.712C73.882 180.777 73.8 180.81 73.718 180.81Z" fill="#141E1F"/>
<path d="M73.718 183.959H51.1844C51.1024 183.959 51.0204 183.926 50.9712 183.877C50.922 183.827 50.8892 183.745 50.8892 183.663C50.8892 183.581 50.922 183.499 50.9712 183.45C51.0204 183.401 51.1024 183.368 51.1844 183.368H73.718C73.8 183.368 73.882 183.401 73.9312 183.45C73.9804 183.516 74.0132 183.581 74.0132 183.663C74.0132 183.745 73.9804 183.827 73.9312 183.877C73.882 183.926 73.8 183.959 73.718 183.959Z" fill="#141E1F"/>
<path d="M70.4542 187.961H58.8758C58.7938 187.961 58.7118 187.928 58.6626 187.879C58.6134 187.829 58.5806 187.747 58.5806 187.665C58.5806 187.583 58.6134 187.501 58.6626 187.452C58.7118 187.403 58.7938 187.37 58.8758 187.37H70.4542C70.5362 187.37 70.6182 187.403 70.6674 187.452C70.7166 187.518 70.7494 187.583 70.7494 187.665C70.7494 187.747 70.7166 187.829 70.6674 187.879C70.6018 187.928 70.5362 187.961 70.4542 187.961Z" fill="#141E1F"/>
<path d="M195.751 231.224C192.831 231.207 189.961 232.077 187.518 233.684C185.074 235.307 183.172 237.603 182.04 240.309C180.909 243.015 180.613 245.984 181.171 248.854C181.729 251.724 183.139 254.364 185.205 256.431C187.272 258.513 189.912 259.924 192.782 260.498C195.652 261.072 198.621 260.777 201.327 259.661C204.033 258.546 206.345 256.644 207.969 254.217C209.592 251.789 210.461 248.919 210.461 246C210.461 242.097 208.903 238.341 206.148 235.57C203.409 232.815 199.67 231.24 195.751 231.224ZM195.751 255.168C193.93 255.184 192.159 254.659 190.65 253.659C189.141 252.659 187.961 251.232 187.255 249.559C186.55 247.886 186.37 246.049 186.714 244.262C187.059 242.474 187.928 240.851 189.207 239.555C190.486 238.276 192.11 237.39 193.897 237.029C195.669 236.669 197.522 236.849 199.195 237.538C200.867 238.227 202.294 239.407 203.311 240.9C204.311 242.409 204.853 244.18 204.853 245.984C204.836 248.395 203.869 250.707 202.179 252.413C200.474 254.151 198.161 255.135 195.751 255.168Z" fill="#F7FCFC"/>
<path d="M195.767 261.039C192.782 261.055 189.846 260.17 187.354 258.53C184.861 256.873 182.926 254.528 181.778 251.756C180.63 249.001 180.318 245.967 180.908 243.032C181.482 240.096 182.926 237.406 185.041 235.291C187.157 233.175 189.846 231.732 192.782 231.158C195.718 230.584 198.752 230.879 201.507 232.027C204.262 233.175 206.624 235.127 208.28 237.603C209.936 240.096 210.806 243.015 210.789 246C210.773 249.985 209.182 253.79 206.361 256.611C203.557 259.432 199.736 261.022 195.767 261.039ZM195.767 231.535C192.897 231.519 190.092 232.355 187.698 233.946C185.304 235.537 183.45 237.784 182.335 240.44C181.22 243.097 180.941 246 181.482 248.804C182.04 251.625 183.418 254.2 185.435 256.234C187.452 258.267 190.043 259.645 192.848 260.219C195.652 260.776 198.571 260.498 201.228 259.399C203.885 258.3 206.148 256.447 207.739 254.069C209.33 251.691 210.182 248.886 210.182 246.016C210.182 242.179 208.674 238.505 205.968 235.799C203.262 233.077 199.588 231.552 195.767 231.535ZM195.767 255.463C193.897 255.479 192.06 254.938 190.502 253.905C188.944 252.872 187.714 251.396 186.993 249.674C186.271 247.952 186.074 246.049 186.435 244.212C186.796 242.376 187.682 240.686 189.01 239.358C190.322 238.03 192.011 237.128 193.848 236.75C195.685 236.39 197.587 236.57 199.326 237.275C201.064 237.98 202.54 239.194 203.573 240.752C204.606 242.31 205.164 244.13 205.164 246.016C205.164 248.509 204.18 250.904 202.409 252.675C200.638 254.446 198.26 255.446 195.767 255.463ZM195.767 237.16C194.012 237.144 192.29 237.652 190.83 238.62C189.371 239.588 188.223 240.965 187.55 242.572C186.878 244.18 186.681 245.967 187.026 247.689C187.354 249.411 188.206 250.986 189.436 252.232C190.666 253.478 192.241 254.331 193.963 254.676C195.685 255.02 197.456 254.856 199.08 254.184C200.703 253.511 202.081 252.38 203.065 250.92C204.049 249.46 204.557 247.755 204.557 246C204.557 243.671 203.639 241.424 201.982 239.768C200.326 238.128 198.096 237.177 195.767 237.16Z" fill="#141E1F"/>
<path d="M181.942 241.834L186.73 243.048C186.124 244.983 186.124 247.05 186.73 248.985L181.942 250.313C181.942 250.313 180.482 246.804 181.942 241.834Z" fill="#87BEFF"/>
<path d="M181.941 250.313L186.73 248.985C187.337 250.707 188.403 252.232 189.83 253.364C191.257 254.495 192.979 255.2 194.783 255.414L195.701 260.448C195.701 260.432 185.336 260.744 181.941 250.313Z" fill="#87BEFF"/>
<path d="M182.843 247.525H182.729L173.577 242.982H159.949C159.867 242.982 159.785 242.95 159.736 242.9C159.687 242.835 159.654 242.769 159.654 242.687C159.654 242.605 159.687 242.523 159.736 242.474C159.785 242.425 159.867 242.392 159.949 242.392H173.758L183.024 246.935C183.089 246.968 183.122 247.033 183.155 247.099C183.171 247.164 183.171 247.23 183.155 247.296C183.139 247.361 183.106 247.427 183.04 247.476C182.991 247.509 182.925 247.525 182.843 247.525Z" fill="#141E1F"/>
<path d="M157.096 244.491C156.735 244.507 156.374 244.409 156.062 244.212C155.751 244.015 155.521 243.737 155.374 243.409C155.226 243.081 155.177 242.703 155.242 242.359C155.308 241.998 155.472 241.67 155.718 241.408C155.964 241.145 156.292 240.965 156.653 240.899C157.014 240.817 157.374 240.85 157.719 240.998C158.047 241.129 158.342 241.359 158.539 241.67C158.736 241.965 158.85 242.326 158.85 242.687C158.85 242.917 158.818 243.163 158.736 243.376C158.654 243.589 158.522 243.802 158.358 243.966C158.194 244.13 157.998 244.278 157.784 244.36C157.571 244.458 157.342 244.491 157.096 244.491ZM157.096 241.523C156.784 241.523 156.505 241.637 156.276 241.867C156.062 242.08 155.931 242.375 155.931 242.687C155.931 242.999 156.046 243.294 156.276 243.507C156.489 243.72 156.784 243.851 157.096 243.851C157.407 243.851 157.686 243.737 157.916 243.507C158.129 243.294 158.26 242.999 158.26 242.687C158.26 242.375 158.145 242.097 157.916 241.867C157.702 241.654 157.407 241.523 157.096 241.523Z" fill="#141E1F"/>
<path d="M193.274 268.074H179.875C179.81 268.074 179.744 268.058 179.695 268.025C179.646 267.992 179.597 267.943 179.564 267.878C179.547 267.812 179.547 267.746 179.547 267.697C179.564 267.632 179.58 267.566 179.613 267.517L190.585 256.791C190.65 256.676 190.88 256.676 191.011 256.791C191.06 256.84 191.093 256.922 191.093 257.004C191.093 257.086 191.06 257.152 191.011 257.218L180.597 267.451H193.258C193.34 267.451 193.422 267.484 193.471 267.533C193.52 267.582 193.553 267.664 193.553 267.746C193.553 267.828 193.52 267.91 193.471 267.96C193.438 268.042 193.356 268.074 193.274 268.074Z" fill="#141E1F"/>
<path d="M196.357 269.583C195.997 269.567 195.636 269.468 195.324 269.288C195.111 269.157 194.93 268.993 194.783 268.796C194.635 268.599 194.537 268.37 194.471 268.14C194.389 267.648 194.488 267.156 194.767 266.746C194.898 266.533 195.062 266.352 195.259 266.205C195.455 266.057 195.685 265.959 195.915 265.893C196.407 265.811 196.899 265.91 197.309 266.188C197.522 266.32 197.702 266.484 197.85 266.68C197.997 266.877 198.096 267.107 198.161 267.336C198.243 267.828 198.129 268.32 197.866 268.73C197.735 268.944 197.571 269.124 197.374 269.272C197.177 269.419 196.948 269.518 196.718 269.583H196.357ZM196.357 266.5H196.062C195.734 266.566 195.439 266.779 195.259 267.058C195.078 267.336 195.013 267.681 195.078 268.009C195.16 268.337 195.357 268.599 195.652 268.78C195.931 268.96 196.275 269.009 196.587 268.944C196.915 268.878 197.194 268.681 197.374 268.402C197.555 268.124 197.62 267.796 197.571 267.468C197.522 267.189 197.358 266.943 197.145 266.762C196.931 266.582 196.653 266.484 196.357 266.5Z" fill="#141E1F"/>
<path d="M54.9891 267.468H29.5528C26.7483 267.468 24.4688 269.747 24.4688 272.552C24.4688 275.373 26.7483 277.636 29.5528 277.636H55.0056C57.81 277.636 60.0896 275.356 60.0896 272.552C60.0896 269.747 57.8099 267.468 54.9891 267.468Z" fill="#87BEFF"/>
<path d="M59.7288 280.194H34.276C32.8492 280.194 31.4716 279.62 30.4548 278.62C29.438 277.603 28.8804 276.242 28.8804 274.815C28.8804 273.388 29.4544 272.01 30.4548 271.01C31.4716 269.993 32.8328 269.436 34.276 269.436H59.7288C61.1556 269.436 62.5332 270.01 63.55 271.01C64.5668 272.027 65.1244 273.388 65.1244 274.815C65.1244 276.242 64.5504 277.619 63.55 278.62C62.5168 279.62 61.1556 280.194 59.7288 280.194ZM34.276 270.01C33.0132 270.01 31.7832 270.518 30.8976 271.404C29.9956 272.306 29.5036 273.519 29.5036 274.782C29.5036 276.045 30.012 277.275 30.8976 278.16C31.7832 279.046 33.0132 279.571 34.276 279.571H59.7288C60.9916 279.571 62.2216 279.062 63.1072 278.16C63.9928 277.258 64.5012 276.045 64.5012 274.782C64.5012 273.519 63.9928 272.289 63.1072 271.404C62.2052 270.502 60.9916 270.01 59.7288 270.01H34.276Z" fill="#141E1F"/>
<path d="M66.8134 288.312C66.387 288.312 65.977 288.197 65.5998 288.017C65.2226 287.82 64.8946 287.558 64.6322 287.23C64.2058 286.656 64.009 285.918 64.1074 285.212C64.2058 284.491 64.5994 283.851 65.1734 283.425L84.9846 268.271C85.4438 267.878 86.0178 267.664 86.6246 267.664H106.747L163.344 212.511C163.869 212.019 164.557 211.74 165.279 211.724H199.276L269.075 121.918C269.288 121.606 269.55 121.344 269.862 121.147C270.173 120.95 270.534 120.819 270.895 120.753C271.256 120.688 271.649 120.704 272.01 120.802C272.371 120.901 272.715 121.065 273.011 121.294C273.306 121.524 273.552 121.803 273.732 122.131C273.913 122.459 274.027 122.82 274.06 123.197C274.093 123.574 274.06 123.935 273.929 124.296C273.814 124.656 273.634 124.984 273.371 125.263L202.72 216.086C202.474 216.414 202.146 216.677 201.785 216.857C201.425 217.038 201.015 217.12 200.605 217.12H166.378L109.781 272.256C109.257 272.748 108.568 273.027 107.846 273.044H87.543L68.4534 287.656C68.0106 288.066 67.4202 288.312 66.8134 288.312Z" fill="#4CBDC7"/>
<path d="M257.267 121.376L283.556 100.155L279.374 133.66L257.267 121.376Z" fill="#4CBDC7"/>
<path d="M291.92 268.075C298.808 268.075 304.4 262.482 304.4 255.594C304.4 248.706 298.808 243.114 291.92 243.114C285.032 243.114 279.439 248.706 279.439 255.594C279.439 262.482 285.032 268.075 291.92 268.075Z" fill="#87BEFF"/>
<path d="M286.409 241.342C289.05 241.342 291.198 239.194 291.198 236.553C291.198 233.913 289.05 231.765 286.409 231.765C283.769 231.765 281.621 233.913 281.621 236.553C281.621 239.21 283.769 241.342 286.409 241.342Z" fill="#F7FCFC"/>
<path d="M286.41 241.654C285.409 241.654 284.425 241.359 283.589 240.801C282.752 240.243 282.096 239.456 281.719 238.521C281.342 237.587 281.227 236.57 281.424 235.586C281.621 234.602 282.113 233.683 282.818 232.978C283.523 232.273 284.442 231.781 285.426 231.584C286.41 231.387 287.443 231.486 288.361 231.879C289.296 232.257 290.083 232.913 290.641 233.749C291.198 234.585 291.494 235.569 291.494 236.57C291.494 237.915 290.952 239.21 290.001 240.161C289.05 241.113 287.754 241.654 286.41 241.654ZM286.41 232.076C285.524 232.076 284.655 232.339 283.917 232.831C283.179 233.323 282.605 234.028 282.26 234.848C281.916 235.668 281.834 236.57 281.998 237.439C282.178 238.308 282.605 239.112 283.228 239.735C283.851 240.358 284.655 240.785 285.524 240.965C286.393 241.145 287.295 241.047 288.115 240.703C288.935 240.358 289.64 239.784 290.132 239.046C290.624 238.308 290.887 237.439 290.887 236.553C290.887 235.373 290.411 234.225 289.575 233.388C288.738 232.552 287.59 232.076 286.41 232.076Z" fill="#141E1F"/>
<path d="M261.35 225.927L261.301 225.959C258.644 227.157 257.463 230.273 258.644 232.929L272.387 263.532C273.585 266.189 276.701 267.369 279.357 266.172L279.407 266.156C282.063 264.959 283.244 261.843 282.047 259.186L268.304 228.583C267.123 225.927 264.007 224.729 261.35 225.927Z" fill="#F7FCFC"/>
<path d="M277.144 267.156C276.455 267.156 275.782 267.025 275.143 266.795C274.454 266.549 273.831 266.155 273.306 265.663C272.781 265.171 272.355 264.565 272.06 263.892L258.3 233.29C257.71 231.945 257.677 230.42 258.185 229.042C258.562 227.993 259.251 227.074 260.153 226.418C261.055 225.762 262.138 225.401 263.253 225.369C264.368 225.336 265.467 225.647 266.418 226.238C267.369 226.845 268.107 227.714 268.55 228.731L282.244 259.267C282.556 259.94 282.72 260.661 282.736 261.383C282.752 262.121 282.638 262.843 282.375 263.531C282.113 264.22 281.719 264.843 281.227 265.385C280.719 265.926 280.128 266.352 279.456 266.647C278.718 267.008 277.931 267.189 277.144 267.156ZM263.433 226.025C262.728 226.041 262.023 226.189 261.367 226.451C260.17 227.009 259.235 228.009 258.759 229.239C258.513 229.846 258.398 230.502 258.398 231.158C258.415 231.814 258.546 232.453 258.808 233.06L272.568 263.663C273.126 264.86 274.126 265.795 275.356 266.254C276.586 266.713 277.964 266.68 279.161 266.139C280.358 265.581 281.293 264.581 281.752 263.351C282.211 262.121 282.178 260.743 281.637 259.546L267.943 229.009C267.55 228.124 266.926 227.386 266.106 226.845C265.352 226.303 264.401 226.025 263.433 226.025Z" fill="#141E1F"/>
<path d="M266.106 270.485C268.681 270.485 270.78 268.403 270.78 265.828C270.78 263.253 268.698 261.154 266.106 261.154C263.515 261.154 261.449 263.237 261.449 265.828C261.449 268.403 263.532 270.485 266.106 270.485Z" fill="#87BEFF"/>
<path d="M307.073 268.304C309.222 268.304 310.96 266.566 310.96 264.434C310.96 262.285 309.222 260.547 307.073 260.547C304.925 260.547 303.187 262.285 303.187 264.434C303.187 266.582 304.925 268.304 307.073 268.304Z" fill="#4CBDC7"/>
<path d="M281.621 281.703L281.375 281.588L265.926 266.074C265.877 266.025 265.86 265.943 265.86 265.877C265.86 265.811 265.893 265.729 265.942 265.68C265.992 265.631 266.057 265.598 266.139 265.598C266.205 265.598 266.287 265.615 266.336 265.664L281.785 281.178C281.834 281.227 281.867 281.309 281.867 281.391C281.867 281.473 281.834 281.539 281.785 281.605L281.621 281.703Z" fill="#141E1F"/>
<path d="M286.295 283.031C286.213 283.031 286.131 282.999 286.082 282.949C286.032 282.884 286 282.818 286 282.736L286.114 236.57C286.114 236.488 286.147 236.406 286.196 236.357C286.262 236.308 286.328 236.275 286.41 236.275C286.492 236.275 286.573 236.308 286.623 236.357C286.688 236.406 286.705 236.488 286.705 236.57L286.59 282.736C286.59 282.818 286.557 282.9 286.492 282.949C286.442 282.999 286.36 283.031 286.295 283.031Z" fill="#141E1F"/>
<path d="M291.92 279.226H291.674C291.625 279.161 291.608 279.079 291.625 278.997C291.641 278.915 291.674 278.849 291.74 278.8L306.828 264.319C306.86 264.286 306.893 264.253 306.926 264.237C306.959 264.22 307.008 264.204 307.057 264.204C307.106 264.204 307.139 264.204 307.188 264.22C307.221 264.237 307.27 264.253 307.303 264.286C307.336 264.319 307.352 264.352 307.369 264.401C307.385 264.45 307.385 264.483 307.385 264.532C307.385 264.581 307.369 264.614 307.352 264.663C307.336 264.696 307.303 264.729 307.27 264.762L292.117 279.243H291.92V279.226Z" fill="#141E1F"/>
<path d="M290.28 290.362H290.214C290.099 290.362 289.919 290.182 289.968 290.051L291.608 255.512C291.608 255.479 291.608 255.447 291.625 255.397C291.641 255.365 291.657 255.332 291.69 255.315C291.723 255.299 291.756 255.283 291.789 255.266C291.821 255.266 291.871 255.266 291.903 255.266C291.985 255.266 292.067 255.299 292.117 255.348C292.166 255.397 292.199 255.479 292.199 255.561L290.559 290.034C290.526 290.247 290.411 290.362 290.28 290.362Z" fill="#141E1F"/>
<path d="M289.624 289.706C289.558 289.706 289.493 289.689 289.444 289.657C289.394 289.624 289.345 289.575 289.312 289.525L263.745 232.503C263.728 232.47 263.712 232.421 263.712 232.371C263.712 232.322 263.712 232.289 263.745 232.24C263.761 232.207 263.794 232.158 263.827 232.142C263.86 232.109 263.892 232.093 263.942 232.076C263.974 232.06 264.007 232.043 264.056 232.043C264.089 232.043 264.138 232.043 264.171 232.076C264.204 232.093 264.237 232.125 264.27 232.158C264.286 232.191 264.302 232.224 264.319 232.273L289.886 289.296C289.903 289.329 289.919 289.378 289.919 289.411C289.919 289.443 289.919 289.493 289.919 289.542C289.903 289.575 289.886 289.624 289.87 289.657C289.837 289.689 289.804 289.706 289.772 289.739H289.624V289.706Z" fill="#141E1F"/>
<path d="M309.976 291.822C309.976 299.513 299.612 305.762 286.885 305.762C274.159 305.762 263.794 299.513 263.794 291.822C263.794 286.377 269.075 281.637 276.701 279.407L270.83 272.978H302.941L297.611 279.522C304.942 281.883 309.976 286.492 309.976 291.822Z" fill="#F7FCFC"/>
<path d="M286.885 306.057C273.979 306.057 263.499 299.693 263.499 291.821C263.499 286.491 268.353 281.637 276.16 279.226L270.649 273.224C270.6 273.175 270.567 273.125 270.551 273.06C270.535 272.994 270.551 272.929 270.584 272.863C270.649 272.748 270.699 272.683 270.83 272.683H302.941C303.056 272.683 303.121 272.748 303.187 272.863C303.22 272.912 303.236 272.961 303.236 273.011C303.236 273.06 303.22 273.125 303.187 273.158L298.103 279.407C305.614 281.899 310.288 286.623 310.288 291.821C310.288 299.693 299.792 306.057 286.885 306.057ZM271.568 273.273L276.963 279.144C277.013 279.226 277.045 279.341 277.029 279.439C277.029 279.489 277.013 279.538 276.98 279.571C276.947 279.603 276.898 279.62 276.849 279.62C269.157 281.916 264.122 286.705 264.122 291.805C264.122 299.316 274.356 305.433 286.902 305.433C299.448 305.433 309.681 299.316 309.681 291.805C309.681 286.77 305.007 282.178 297.496 279.8C297.431 279.8 297.381 279.685 297.316 279.62C297.299 279.521 297.316 279.407 297.381 279.325L302.285 273.257H271.568V273.273Z" fill="#141E1F"/>
<path d="M96.4975 119.195H49.5935C49.5115 119.195 49.4295 119.163 49.3803 119.113C49.3311 119.064 49.2983 118.982 49.2983 118.9C49.2983 118.818 49.3311 118.736 49.3803 118.687C49.4295 118.638 49.5115 118.605 49.5935 118.605H96.4975C96.5795 118.605 96.6615 118.638 96.7107 118.687C96.7599 118.736 96.7927 118.818 96.7927 118.9C96.7927 118.982 96.7599 119.064 96.7107 119.113C96.6615 119.163 96.5795 119.195 96.4975 119.195Z" fill="#141E1F"/>
<path d="M96.4975 127.067H49.5935C49.5115 127.067 49.4295 127.034 49.3803 126.985C49.3311 126.936 49.2983 126.854 49.2983 126.772C49.2983 126.69 49.3311 126.608 49.3803 126.559C49.4295 126.509 49.5115 126.477 49.5935 126.477H96.4975C96.5795 126.477 96.6615 126.509 96.7107 126.559C96.7599 126.608 96.7927 126.69 96.7927 126.772C96.7927 126.854 96.7599 126.936 96.7107 126.985C96.6615 127.034 96.5795 127.067 96.4975 127.067Z" fill="#141E1F"/>
<path d="M213.807 39.5078L207.624 47.1338L215.266 53.3166L221.449 45.6906L213.807 39.5078Z" fill="#4CBDC7"/>
<path d="M218.366 52.5946H218.185L210.559 46.3462C210.527 46.3134 210.494 46.2806 210.461 46.2314C210.445 46.1822 210.428 46.1494 210.428 46.1002V45.9198L216.611 38.2774L216.857 38.1626H217.037L224.68 44.3454C224.745 44.3946 224.795 44.4602 224.795 44.5422C224.811 44.6242 224.778 44.7062 224.745 44.7718L218.628 52.4634C218.595 52.4962 218.563 52.529 218.53 52.5454C218.448 52.5782 218.415 52.5946 218.366 52.5946ZM211.15 46.051L218.366 51.873L224.122 44.7226L216.972 38.9006L211.15 46.051Z" fill="#141E1F"/>
<path d="M93.3486 85.4439L93.9554 77.6211L99.7774 83.1315L93.3486 85.4439Z" fill="#87BEFF"/>
<path d="M95.0545 85.7393H94.8741C94.8413 85.7065 94.8085 85.6737 94.7921 85.6245C94.7757 85.5753 94.7593 85.5425 94.7593 85.4933L95.3661 77.6213C95.3661 77.5065 95.4317 77.4409 95.5465 77.3753C95.5957 77.3425 95.6613 77.3425 95.7105 77.3589C95.7597 77.3753 95.8089 77.4081 95.8581 77.4409L101.729 82.9513C101.811 83.0333 101.844 83.1481 101.844 83.2465L101.598 83.4925L95.1693 85.7885L95.0545 85.7393ZM95.8909 78.2281L95.3989 85.0177L100.909 83.0169L95.8909 78.2281Z" fill="#141E1F"/>
<path d="M178.301 27.1419H178.186C178.071 27.0763 177.94 26.8959 178.006 26.7811L179.695 21.9267C179.728 21.8775 179.793 21.8447 179.843 21.8119C179.892 21.7791 179.974 21.7955 180.023 21.8119C180.089 21.8283 180.138 21.8775 180.171 21.9267C180.203 21.9759 180.236 22.0415 180.236 22.1071L178.596 26.9615C178.58 27.0271 178.531 27.0763 178.481 27.1091C178.432 27.1419 178.367 27.1419 178.301 27.1419Z" fill="#141E1F"/>
<path d="M107.109 145.419H106.863L100.614 139.662C100.565 139.613 100.532 139.531 100.532 139.449C100.532 139.367 100.565 139.301 100.614 139.236C100.631 139.203 100.663 139.17 100.696 139.154C100.729 139.137 100.762 139.121 100.811 139.121C100.844 139.121 100.893 139.121 100.926 139.121C100.959 139.137 101.008 139.154 101.041 139.17L107.289 144.927C107.338 144.976 107.371 145.058 107.371 145.14C107.371 145.222 107.338 145.287 107.289 145.353C107.289 145.419 107.174 145.419 107.109 145.419Z" fill="#87BEFF"/>
<path d="M19.9753 176.201H19.7949L14.8257 170.871C14.7765 170.822 14.7437 170.74 14.7437 170.658C14.7437 170.576 14.7765 170.511 14.8257 170.445C14.8585 170.412 14.8913 170.379 14.9241 170.363C14.9569 170.347 15.0061 170.347 15.0553 170.347C15.1045 170.347 15.1373 170.379 15.1701 170.396C15.2029 170.429 15.2357 170.461 15.2521 170.494L20.2213 175.775C20.2705 175.824 20.3033 175.906 20.3033 175.988C20.3033 176.07 20.2705 176.136 20.2213 176.201H19.9753Z" fill="#141E1F"/>
<path d="M32.5706 259.35H32.4558C32.3902 259.317 32.3246 259.268 32.2918 259.202C32.259 259.136 32.259 259.054 32.2754 258.989L35.4898 250.559C35.5062 250.51 35.5226 250.477 35.5554 250.444C35.5882 250.412 35.621 250.379 35.6538 250.362C35.6866 250.346 35.7358 250.33 35.785 250.33C35.8342 250.33 35.867 250.346 35.9162 250.362C35.9982 250.395 36.0474 250.461 36.0802 250.543C36.113 250.625 36.113 250.707 36.0966 250.789L32.8822 259.153C32.8494 259.218 32.8166 259.268 32.7674 259.3C32.7018 259.333 32.6362 259.35 32.5706 259.35Z" fill="#87BEFF"/>
<path d="M275.553 196.816C275.487 196.816 275.422 196.8 275.372 196.767C275.323 196.734 275.274 196.685 275.241 196.619L271.781 189.83C271.764 189.797 271.748 189.748 271.748 189.715C271.748 189.682 271.748 189.633 271.764 189.6C271.781 189.567 271.797 189.518 271.814 189.485C271.846 189.453 271.863 189.42 271.912 189.403C271.945 189.387 271.994 189.371 272.027 189.371C272.06 189.371 272.109 189.371 272.142 189.387C272.174 189.403 272.224 189.42 272.256 189.436C272.289 189.469 272.322 189.485 272.338 189.535L275.799 196.39C275.815 196.472 275.815 196.537 275.799 196.619C275.782 196.685 275.733 196.767 275.684 196.816H275.553Z" fill="#87BEFF"/>
<path d="M308.713 119.195H308.533C308.484 119.146 308.451 119.064 308.435 118.998C308.418 118.916 308.435 118.851 308.467 118.769L312.535 113.865C312.584 113.816 312.666 113.783 312.748 113.783C312.83 113.783 312.895 113.816 312.961 113.865C313.076 113.931 313.076 114.111 313.027 114.292L308.959 119.146L308.713 119.195Z" fill="#87BEFF"/>
<path d="M305.138 158.703C308.189 158.703 310.649 156.227 310.649 153.193C310.649 150.142 308.172 147.682 305.138 147.682C302.088 147.682 299.628 150.159 299.628 153.193C299.612 156.227 302.088 158.703 305.138 158.703Z" fill="#87BEFF"/>
<path d="M303.613 162.147C302.449 162.163 301.301 161.819 300.333 161.179C299.366 160.54 298.595 159.621 298.136 158.555C297.676 157.489 297.562 156.292 297.775 155.16C297.988 154.012 298.546 152.963 299.366 152.143C300.186 151.323 301.235 150.749 302.367 150.519C303.515 150.29 304.696 150.404 305.778 150.847C306.86 151.29 307.779 152.044 308.418 153.012C309.074 153.98 309.419 155.111 309.419 156.276C309.419 157.046 309.288 157.801 308.992 158.522C308.697 159.244 308.271 159.884 307.73 160.425C307.188 160.966 306.549 161.409 305.827 161.704C305.155 161.999 304.384 162.147 303.613 162.147ZM303.613 151.06C302.564 151.044 301.547 151.356 300.661 151.93C299.792 152.504 299.103 153.324 298.693 154.291C298.283 155.259 298.185 156.325 298.382 157.358C298.578 158.391 299.087 159.326 299.825 160.064C300.563 160.802 301.514 161.31 302.547 161.507C303.58 161.704 304.646 161.606 305.614 161.196C306.582 160.786 307.402 160.097 307.976 159.228C308.55 158.358 308.845 157.325 308.845 156.276C308.828 154.898 308.271 153.586 307.303 152.602C306.303 151.634 304.991 151.077 303.613 151.06Z" fill="#141E1F"/>
<path d="M154.062 300.793C157.046 300.793 159.457 298.382 159.457 295.397C159.457 292.412 157.046 290.001 154.062 290.001C151.077 290.001 148.666 292.412 148.666 295.397C148.682 298.382 151.093 300.793 154.062 300.793Z" fill="#87BEFF"/>
<path d="M149.585 303.695C148.453 303.695 147.354 303.367 146.419 302.744C145.485 302.121 144.747 301.235 144.32 300.185C143.894 299.152 143.779 298.004 143.992 296.889C144.205 295.79 144.747 294.773 145.55 293.97C146.354 293.166 147.354 292.625 148.469 292.412C149.568 292.199 150.716 292.297 151.766 292.74C152.799 293.166 153.701 293.904 154.324 294.839C154.947 295.774 155.292 296.873 155.292 298.004C155.292 299.513 154.685 300.956 153.619 302.039C152.537 303.105 151.093 303.695 149.585 303.695ZM149.585 292.92C148.584 292.92 147.6 293.215 146.764 293.773C145.927 294.331 145.271 295.134 144.894 296.053C144.517 296.987 144.402 298.004 144.599 298.988C144.796 299.972 145.288 300.891 145.993 301.596C146.698 302.301 147.617 302.793 148.601 302.99C149.585 303.187 150.618 303.088 151.536 302.695C152.471 302.317 153.258 301.661 153.816 300.825C154.373 299.989 154.669 299.005 154.669 298.004C154.652 296.659 154.111 295.38 153.16 294.429C152.209 293.461 150.929 292.937 149.585 292.92Z" fill="#141E1F"/>
<path d="M140.007 51.332L133.906 47.478L130.052 53.5952L136.153 57.4492L140.007 51.332Z" fill="#87BEFF"/>
<path d="M139.4 57.6786H139.285L133.168 53.8082C133.119 53.759 133.07 53.6934 133.053 53.6114C133.037 53.5294 133.037 53.4638 133.053 53.3818L136.924 47.2646C136.973 47.199 137.039 47.1498 137.121 47.1498C137.203 47.1334 137.285 47.1662 137.35 47.2154L143.467 51.0366C143.5 51.0694 143.533 51.1022 143.549 51.1514C143.566 51.2006 143.582 51.2334 143.582 51.2826C143.582 51.3154 143.582 51.3482 143.566 51.381C143.549 51.4138 143.533 51.4466 143.517 51.463L139.712 57.5638L139.466 57.6786H139.4ZM133.709 53.4474L139.351 57.0226L142.861 51.381L137.285 47.8714L133.709 53.4474Z" fill="#141E1F"/>
<path d="M20.1557 247.952H9.06934V259.005H20.1557V247.952Z" fill="#87BEFF"/>
<path d="M16.646 264.138H5.54325C5.46125 264.122 5.39565 264.089 5.34645 264.04C5.29725 263.991 5.26445 263.909 5.24805 263.843V252.757C5.24805 252.675 5.28085 252.593 5.33005 252.543C5.37925 252.494 5.46125 252.461 5.54325 252.461H16.6296C16.7116 252.461 16.7936 252.494 16.8428 252.543C16.892 252.593 16.9248 252.675 16.9248 252.757V263.843C16.9248 263.925 16.892 264.007 16.8428 264.056C16.7936 264.105 16.728 264.138 16.646 264.138ZM5.85485 263.531H16.3344V253.052H5.85485V263.531Z" fill="#141E1F"/>
<path d="M53.1197 52.529C57.4985 52.529 61.0573 48.9702 61.0573 44.5914C61.0573 40.2126 57.4985 36.6538 53.1197 36.6538C48.7409 36.6538 45.1821 40.2126 45.1821 44.5914C45.1821 48.9866 48.7409 52.529 53.1197 52.529Z" fill="#4CBDC7"/>
<path d="M55.3006 50.5938C53.6606 50.5938 52.0534 50.1018 50.6758 49.1834C49.3146 48.265 48.2486 46.9694 47.6254 45.4442C47.0022 43.919 46.8382 42.2462 47.1662 40.639C47.4942 39.0318 48.2814 37.5558 49.4622 36.3914C50.6266 35.227 52.119 34.4398 53.7262 34.1282C55.3334 33.8166 57.0062 33.9806 58.5314 34.6202C60.0566 35.2598 61.3358 36.3258 62.2378 37.7034C63.1398 39.081 63.6154 40.6882 63.599 42.3282C63.599 43.4106 63.3858 44.493 62.9594 45.4934C62.5494 46.4938 61.9262 47.4122 61.1554 48.1666C60.3846 48.9374 59.4662 49.5442 58.4658 49.9542C57.4654 50.397 56.383 50.6102 55.3006 50.5938ZM55.3006 34.653C53.7754 34.653 52.283 35.1122 51.0202 35.9486C49.7574 36.8014 48.7734 37.9986 48.183 39.409C47.5926 40.8194 47.445 42.361 47.7402 43.8534C48.0354 45.3458 48.7734 46.7234 49.8394 47.7894C50.9218 48.8718 52.283 49.5934 53.7754 49.8886C55.2678 50.1838 56.8094 50.0362 58.2198 49.4458C59.6302 48.8554 60.8274 47.8714 61.6802 46.6086C62.533 45.3458 62.9758 43.8534 62.9758 42.3282C62.9758 40.2946 62.1722 38.3266 60.729 36.8834C59.2858 35.4402 57.3342 34.653 55.3006 34.653Z" fill="#141E1F"/>
<path d="M301.317 306.123L196.554 305.877C196.472 305.877 196.39 305.844 196.341 305.795C196.292 305.745 196.259 305.663 196.259 305.581C196.259 305.499 196.292 305.417 196.341 305.368C196.39 305.319 196.472 305.286 196.554 305.286L301.317 305.532C301.399 305.532 301.481 305.565 301.53 305.614C301.58 305.663 301.612 305.745 301.612 305.827C301.596 305.909 301.563 305.975 301.514 306.024C301.465 306.073 301.383 306.106 301.317 306.123Z" fill="#141E1F"/>
<path d="M248.132 217.562L248.181 201.687L255.331 201.703L255.299 210.428C255.299 212.331 254.528 214.135 253.183 215.479C251.838 216.824 250.018 217.562 248.132 217.562Z" fill="#F7FCFC"/>
<path d="M248.05 218.022C247.968 218.022 247.87 217.989 247.821 217.94C247.755 217.891 247.706 217.809 247.689 217.727V201.917C247.706 201.835 247.755 201.736 247.804 201.671H255.135L255.381 201.786C255.397 201.819 255.414 201.835 255.43 201.868C255.447 201.901 255.447 201.933 255.447 201.966V210.625C255.43 212.593 254.643 214.463 253.249 215.857C251.855 217.234 249.969 218.022 248.001 218.022H248.05ZM248.345 202.196V217.399C250.035 217.349 251.642 216.661 252.823 215.463C253.479 214.84 253.987 214.086 254.348 213.249C254.709 212.413 254.889 211.527 254.889 210.625V202.196H248.345Z" fill="#141E1F"/>
<path d="M223.27 201.9H230.42V217.776C228.518 217.776 226.697 217.021 225.369 215.676C224.024 214.332 223.27 212.511 223.27 210.625V201.9Z" fill="#F7FCFC"/>
<path d="M230.42 218.087C228.452 218.071 226.566 217.284 225.172 215.89C223.778 214.496 222.991 212.61 222.975 210.642V201.917C222.975 201.835 223.007 201.753 223.057 201.704C223.122 201.638 223.188 201.622 223.27 201.622H230.42C230.502 201.622 230.584 201.654 230.633 201.704C230.683 201.753 230.715 201.835 230.715 201.917V217.792C230.699 217.874 230.666 217.94 230.617 217.989C230.568 218.022 230.486 218.071 230.42 218.087ZM223.565 202.196V210.625C223.565 212.38 224.254 214.069 225.467 215.348C226.681 216.611 228.354 217.349 230.109 217.415V202.212H223.565V202.196Z" fill="#141E1F"/>
<path d="M229.452 198.21H249.444V218.743C249.444 221.4 248.394 223.942 246.525 225.812C244.655 227.681 242.113 228.731 239.456 228.731C236.799 228.731 234.257 227.681 232.388 225.812C230.518 223.942 229.452 221.4 229.452 218.743V198.21Z" fill="#4CBDC7"/>
<path d="M241.26 223.647H236.963V243.294H241.26V223.647Z" fill="#4CBDC7"/>
<path d="M242.654 240.801H235.389V244.098H242.654V240.801Z" fill="#141E1F"/>
<path d="M245.196 247.706H232.831C232.749 247.706 232.667 247.673 232.618 247.624C232.568 247.574 232.536 247.492 232.536 247.41V244.147C232.536 244.065 232.568 243.983 232.618 243.934C232.683 243.884 232.749 243.852 232.831 243.852H245.196C245.278 243.852 245.36 243.884 245.41 243.934C245.459 243.983 245.492 244.065 245.492 244.147V247.41C245.492 247.492 245.459 247.574 245.41 247.624C245.36 247.673 245.278 247.706 245.196 247.706ZM233.142 247.099H244.901V244.426H233.142V247.099Z" fill="#141E1F"/>
<path d="M248.165 278.242H229.863C229.781 278.242 229.699 278.21 229.649 278.16C229.6 278.111 229.567 278.029 229.567 277.947V247.41C229.567 247.328 229.6 247.246 229.649 247.197C229.699 247.148 229.781 247.115 229.863 247.115H248.165C248.247 247.115 248.329 247.148 248.378 247.197C248.427 247.246 248.46 247.328 248.46 247.41V277.947C248.46 277.98 248.46 278.029 248.444 278.062C248.427 278.095 248.411 278.128 248.378 278.16C248.345 278.193 248.313 278.21 248.28 278.226C248.247 278.242 248.214 278.242 248.165 278.242ZM230.174 277.636H247.87V247.706H230.174V277.636Z" fill="#141E1F"/>
<path d="M246.23 208.87H237.866C237.784 208.87 237.702 208.837 237.652 208.788C237.603 208.739 237.57 208.657 237.57 208.575C237.57 208.493 237.603 208.411 237.652 208.362C237.702 208.296 237.784 208.28 237.866 208.28H246.23C246.312 208.28 246.394 208.313 246.443 208.362C246.492 208.411 246.525 208.493 246.525 208.575C246.525 208.657 246.492 208.739 246.443 208.788C246.394 208.837 246.312 208.87 246.23 208.87Z" fill="#141E1F"/>
<path d="M246.23 212.085H237.866C237.784 212.085 237.702 212.052 237.652 212.003C237.603 211.954 237.57 211.872 237.57 211.79C237.57 211.708 237.603 211.626 237.652 211.577C237.702 211.527 237.784 211.495 237.866 211.495H246.23C246.312 211.495 246.394 211.527 246.443 211.577C246.492 211.626 246.525 211.708 246.525 211.79C246.508 211.872 246.476 211.937 246.426 211.987C246.377 212.036 246.312 212.069 246.23 212.085Z" fill="#141E1F"/>
<path d="M246.23 215.348H237.866C237.784 215.348 237.702 215.315 237.652 215.266C237.603 215.217 237.57 215.135 237.57 215.053C237.57 214.971 237.603 214.889 237.652 214.84C237.702 214.791 237.784 214.758 237.866 214.758H246.23C246.312 214.774 246.377 214.807 246.426 214.856C246.476 214.905 246.508 214.987 246.525 215.053C246.525 215.135 246.492 215.217 246.443 215.266C246.394 215.315 246.312 215.348 246.23 215.348Z" fill="#141E1F"/>
<path d="M244.179 273.273C244.097 273.273 244.015 273.24 243.966 273.191C243.917 273.125 243.884 273.06 243.884 272.978V251.1C243.884 251.018 243.917 250.936 243.966 250.887C244.015 250.821 244.097 250.789 244.179 250.789C244.261 250.789 244.343 250.821 244.393 250.887C244.442 250.936 244.475 251.018 244.475 251.1V272.978C244.475 273.06 244.442 273.142 244.393 273.191C244.327 273.257 244.245 273.273 244.179 273.273Z" fill="#4CBDC7"/>
<path d="M196.177 83.8534L190.305 97.3014L179.399 95.1202L187.337 82.0986L196.177 83.8534Z" fill="#F7FCFC"/>
<path d="M190.306 97.6126H190.24L179.334 95.4314C179.301 95.4314 179.285 95.4314 179.268 95.415C179.252 95.3986 179.219 95.3986 179.203 95.3822C179.186 95.3658 179.17 95.3494 179.17 95.3166C179.154 95.3002 179.154 95.2674 179.154 95.251C179.121 95.2182 179.104 95.169 179.104 95.1362C179.104 95.1034 179.121 95.0542 179.154 95.0214L187.026 81.9998C187.058 81.9342 187.108 81.885 187.173 81.8522C187.239 81.8194 187.304 81.803 187.386 81.8194L196.226 83.5742L196.472 83.689V83.9842L190.535 97.4322C190.486 97.547 190.42 97.6126 190.306 97.6126ZM179.875 94.9558L190.109 96.9566L195.75 84.0498L187.452 82.4754L179.875 94.9558Z" fill="#141E1F"/>
<path d="M126.313 129.117C126.313 129.117 122.853 146.452 129.593 147.6C136.317 148.748 141.352 135.054 141.352 135.054L126.313 129.117Z" fill="#F7FCFC"/>
<path d="M130.429 147.977H129.527C128.97 147.862 128.445 147.649 127.969 147.321C127.494 146.993 127.1 146.583 126.805 146.108C123.591 141.434 125.903 129.626 126.018 129.134C126.018 129.084 126.034 129.035 126.051 129.002C126.067 128.953 126.1 128.92 126.133 128.888H126.428L141.45 134.824C141.516 134.857 141.549 134.923 141.581 134.988C141.598 135.054 141.598 135.12 141.581 135.185C141.401 135.677 136.924 147.977 130.429 147.977ZM126.559 129.544C126.198 131.544 124.558 141.663 127.281 145.73C127.543 146.14 127.904 146.485 128.297 146.747C128.707 147.01 129.15 147.206 129.642 147.305H130.429C135.94 147.305 140.253 137.006 140.909 135.185L126.559 129.544Z" fill="#141E1F"/>
<path d="M210.723 115.62C210.723 115.62 201.277 105.796 203.081 102.106C204.901 98.4164 205.935 96.4648 205.935 96.4648L214.84 107.371L210.723 115.62Z" fill="#F7FCFC"/>
<path d="M210.724 115.915H210.478C210.051 115.489 200.966 105.862 202.835 102.041C204.721 98.2196 205.623 96.3991 205.623 96.3991C205.623 96.3991 205.738 96.2188 205.869 96.2188L206.115 96.3336L215.086 107.24C215.135 107.272 215.152 107.322 215.168 107.387C215.184 107.436 215.168 107.502 215.135 107.551L210.953 115.784C210.888 115.899 210.838 115.964 210.707 115.964V115.915H210.724ZM206 97.0059L203.393 102.221C201.999 105.009 207.87 112.16 210.609 115.128L214.479 107.436L206 97.0059Z" fill="#141E1F"/>
<path d="M211.626 114.882C211.626 114.882 202.54 97.2518 203.869 94.4638C205.197 91.6758 208.477 92.6435 208.477 92.6435C208.477 92.6435 209.986 90.6426 212.954 92.463C212.954 92.463 218.711 90.6426 220.219 94.4638C220.597 94.2998 221.007 94.2015 221.417 94.2015C221.827 94.2015 222.237 94.2671 222.63 94.4147C223.007 94.5623 223.368 94.7918 223.663 95.087C223.959 95.3822 224.188 95.7266 224.352 96.1038C225.861 98.8918 229.141 108.83 228.173 114.882C227.206 120.95 211.626 114.882 211.626 114.882Z" fill="#F7FCFC"/>
<path d="M223.45 117.916C218.546 117.916 211.872 115.308 211.511 115.193C211.478 115.193 211.445 115.177 211.429 115.161C211.412 115.144 211.396 115.111 211.396 115.079C210.428 113.258 202.245 97.2026 203.639 94.2998C205.033 91.397 207.64 92.1186 208.428 92.299C209.215 92.4794 210.428 90.6098 213.036 92.1186C213.889 91.8726 218.858 90.7246 220.432 94.0538C221.236 93.8078 222.105 93.8734 222.876 94.2178C223.647 94.5622 224.254 95.169 224.614 95.9398C226.123 98.7278 229.452 108.732 228.485 114.964C228.419 115.439 228.239 115.882 227.96 116.276C227.681 116.669 227.32 116.981 226.91 117.211C225.844 117.735 224.647 117.981 223.45 117.916ZM211.872 114.636C213.02 115.128 222.892 118.752 226.599 116.702C226.943 116.522 227.222 116.259 227.452 115.948C227.665 115.636 227.812 115.275 227.878 114.882C228.846 108.765 225.516 98.941 224.122 96.2186C223.811 95.5298 223.253 94.9886 222.548 94.6934C221.843 94.3982 221.056 94.4146 220.367 94.6934C220.334 94.7262 220.285 94.7426 220.252 94.7426C220.203 94.7426 220.17 94.7262 220.137 94.6934C220.055 94.6934 219.99 94.6278 219.957 94.513C218.628 91.0526 213.102 92.6926 213.102 92.7582H212.806C210.133 91.1182 208.805 92.7582 208.739 92.873C208.706 92.9222 208.657 92.9386 208.608 92.955C208.559 92.9714 208.493 92.955 208.444 92.9386C208.329 92.9386 205.361 92.0858 204.196 94.6278C203.032 97.1862 209.33 109.732 211.872 114.636Z" fill="#141E1F"/>
<path d="M130.249 142.024C130.249 142.024 120.851 155.177 127.1 167.05C127.1 167.05 109.289 197.472 101.04 203.048C92.8074 208.624 77.293 244.672 77.293 244.672L100.384 247.952C100.384 247.952 159.457 193.602 160.49 175.3L176.972 167.723L166.312 193.651L184.073 201.048C184.073 201.048 215.939 166.394 214.61 150.568C213.282 134.759 172.019 140.335 172.019 140.335L130.249 142.024Z" fill="#4CBDC7"/>
<path d="M172.003 94.4639C172.003 94.4639 137.711 98.3999 132.069 104.041C126.428 109.683 124.804 129.133 124.804 129.133C124.804 129.133 138.679 136.71 146.255 132.102C153.832 127.493 172.003 94.4639 172.003 94.4639Z" fill="#F7FCFC"/>
<path d="M140.187 133.857C137.612 133.791 135.07 133.397 132.61 132.643C129.872 131.807 127.215 130.708 124.673 129.363C124.607 129.33 124.558 129.297 124.525 129.248C124.492 129.199 124.476 129.133 124.476 129.068C124.542 128.281 126.231 109.437 131.872 103.795C137.514 98.1538 170.593 94.2834 171.987 94.1686C172.036 94.1521 172.102 94.1521 172.167 94.1686C172.216 94.185 172.266 94.2342 172.298 94.2834C172.331 94.3326 172.348 94.3817 172.348 94.4309C172.348 94.4801 172.331 94.5458 172.298 94.5786C171.577 95.907 153.996 127.723 146.419 132.331C144.533 133.414 142.368 133.939 140.187 133.857ZM125.165 128.937C126.739 129.789 139.22 136.021 146.124 131.79C153.028 127.543 169.15 99.0066 171.446 94.8245C166.903 95.3657 137.334 99.1213 132.299 104.222C127.28 109.306 125.345 126.887 125.165 128.937Z" fill="#141E1F"/>
<path d="M127.1 147.239C127.1 147.239 166.722 77.9164 185.566 90.8232C204.41 103.73 209.018 122.82 209.018 122.82V113.603C209.018 113.603 215.923 106.994 229.436 111.422C229.436 111.422 228.468 157.178 211.314 151.897C194.16 146.632 190.174 135.71 190.174 135.71L187.206 139.351C187.222 139.367 146.616 161.114 127.1 147.239Z" fill="#F7FCFC"/>
<path d="M214.004 152.635C213.053 152.618 212.118 152.454 211.216 152.143C202.311 149.42 196.981 145.107 194.127 142.024C192.487 140.335 191.142 138.383 190.125 136.267L187.469 139.547H187.354C186.927 139.793 146.387 161.245 126.936 147.419C126.821 147.354 126.821 147.173 126.871 147.059C128.15 144.877 157.539 93.7914 177.596 89.183C180.663 88.4614 183.385 88.8878 185.779 90.4622C196.423 97.875 204.459 108.453 208.739 120.704V113.619C208.739 113.504 208.739 113.439 208.805 113.373C210.347 112.077 212.151 111.11 214.086 110.519C217.3 109.552 222.515 108.83 229.6 111.126C229.715 111.192 229.846 111.307 229.781 111.421C229.6 117.096 229.075 122.77 228.206 128.395C226.205 140.269 223.057 147.911 218.76 151.06C217.349 152.077 215.693 152.618 214.004 152.635ZM190.191 135.431H190.257C190.371 135.431 190.437 135.497 190.503 135.611C191.487 137.842 192.864 139.859 194.57 141.614C197.423 144.697 202.622 148.879 211.413 151.618C212.577 152.011 213.807 152.126 215.021 151.962C216.234 151.782 217.382 151.306 218.383 150.601C227.96 143.697 229.108 114.554 229.174 111.7C222.384 109.519 217.366 110.191 214.332 111.159C212.511 111.667 210.822 112.553 209.363 113.767V122.852C209.363 122.934 209.33 123.016 209.281 123.065C209.231 123.115 209.149 123.147 209.067 123.147C208.953 123.147 208.756 123.082 208.756 122.901C208.756 122.721 203.918 103.746 185.435 91.0854C183.254 89.5766 180.712 89.1502 177.743 89.8062C169.56 91.6922 158.293 102.221 145.075 120.343C135.825 133.004 128.625 145.304 127.527 147.19C146.37 160.211 185.337 140.039 187.026 139.137L189.929 135.497L190.191 135.431Z" fill="#141E1F"/>
<path d="M211.822 101.68C211.757 101.68 211.691 101.663 211.642 101.631C211.593 101.598 211.544 101.549 211.527 101.483L208.264 92.6927C208.231 92.6599 208.214 92.6107 208.214 92.5615C208.214 92.5123 208.214 92.4631 208.231 92.4139C208.247 92.3647 208.264 92.3319 208.313 92.2991C208.346 92.2663 208.378 92.2335 208.428 92.2171C208.477 92.2007 208.526 92.2007 208.575 92.2007C208.624 92.2007 208.674 92.2335 208.706 92.2499C208.739 92.2827 208.772 92.3155 208.805 92.3647C208.821 92.4139 208.838 92.4467 208.838 92.4959L212.167 101.221C212.2 101.303 212.183 101.385 212.15 101.467C212.118 101.549 212.052 101.614 211.986 101.647H211.822V101.68Z" fill="#141E1F"/>
<path d="M215.758 100.827C215.643 100.827 215.512 100.762 215.512 100.647L212.659 92.5288C212.593 92.414 212.724 92.2336 212.839 92.168C212.921 92.1516 213.003 92.1516 213.085 92.1844C213.167 92.2172 213.233 92.2828 213.265 92.3484L216.053 100.466C216.07 100.499 216.086 100.548 216.086 100.581C216.086 100.614 216.086 100.663 216.053 100.696C216.037 100.729 216.004 100.762 215.971 100.778C215.939 100.794 215.906 100.811 215.857 100.827H215.758Z" fill="#141E1F"/>
<path d="M222.417 100.827C222.302 100.827 222.171 100.762 222.171 100.647L219.924 94.5298C219.858 94.415 219.989 94.2346 220.104 94.169C220.137 94.1526 220.186 94.1362 220.235 94.1362C220.285 94.1362 220.317 94.1362 220.367 94.1526C220.399 94.169 220.449 94.2018 220.465 94.2346C220.481 94.2674 220.514 94.3002 220.531 94.3494L222.712 100.467C222.728 100.499 222.745 100.549 222.745 100.581C222.745 100.614 222.728 100.663 222.712 100.696C222.695 100.729 222.663 100.762 222.63 100.778C222.597 100.795 222.564 100.811 222.515 100.827H222.417Z" fill="#141E1F"/>
<path d="M196.849 71.1432L198.178 74.292C198.374 74.784 198.538 75.2924 198.67 75.8008L198.965 77.0144C198.965 77.0144 200.244 89.38 190.912 84.4108C188.748 83.2628 187.042 81.4096 186.074 79.1628C185.107 76.916 184.926 74.4068 185.566 72.0452C187.157 66.8956 194.307 66.3544 196.849 71.1432Z" fill="#F7FCFC"/>
<path d="M194.783 85.8541C193.372 85.8049 191.995 85.3785 190.781 84.6405C188.551 83.4761 186.78 81.5737 185.779 79.2613C184.779 76.9489 184.598 74.3577 185.271 71.9305C185.632 70.7497 186.353 69.7001 187.337 68.9129C188.305 68.1421 189.486 67.6665 190.732 67.5681C192.011 67.4205 193.307 67.6665 194.438 68.2733C195.57 68.8801 196.505 69.8149 197.095 70.9629H197.161L198.44 74.1117C198.686 74.6201 198.866 75.1449 198.981 75.6861L199.276 76.8997C199.342 77.1949 199.883 83.1973 196.98 85.1981C196.324 85.6409 195.57 85.8705 194.783 85.8541ZM191.388 68.1093H190.781C189.666 68.2077 188.6 68.6341 187.731 69.3229C186.862 70.0281 186.206 70.9629 185.878 72.0453C185.222 74.3413 185.386 76.7849 186.337 78.9825C187.288 81.1637 188.961 82.9677 191.093 84.0501C193.454 85.3293 195.34 85.5589 196.603 84.7225C199.276 82.9021 198.67 77.0801 198.67 77.0309L198.374 75.8173C198.243 75.3253 198.079 74.8333 197.882 74.3577L196.554 71.2089C196.062 70.2741 195.324 69.4869 194.406 68.9457C193.487 68.3881 192.454 68.1093 191.388 68.1093Z" fill="#141E1F"/>
<path d="M188.305 70.3559C188.305 70.3559 198.735 72.7175 198.489 67.8139C198.243 62.9103 195.029 59.7615 187.091 65.5179C186.763 65.3047 186.403 65.1571 186.009 65.0915C185.615 65.0259 185.222 65.0587 184.845 65.1735C184.467 65.2883 184.123 65.4687 183.828 65.7311C183.533 65.9935 183.303 66.3051 183.139 66.6659C183.139 66.6659 171.692 71.8155 183.139 79.9335L185.32 85.5751C185.32 85.5751 189.797 84.0663 189.929 80.3599C190.06 76.6535 188.305 70.3559 188.305 70.3559Z" fill="#141E1F"/>
<path d="M188.551 79.9173C189.994 79.9173 191.159 78.7529 191.159 77.3097C191.159 75.8665 189.994 74.7021 188.551 74.7021C187.108 74.7021 185.943 75.8665 185.943 77.3097C185.943 78.7529 187.108 79.9173 188.551 79.9173Z" fill="#F7FCFC"/>
<path d="M189.453 77.6211H189.338L187.091 76.7683C186.976 76.7683 186.845 76.5879 186.911 76.4075C186.927 76.3583 186.943 76.3255 186.976 76.2927C187.009 76.2599 187.042 76.2271 187.091 76.2107C187.124 76.1943 187.173 76.1779 187.222 76.1943C187.271 76.1943 187.304 76.2107 187.353 76.2271L189.6 77.0799C189.666 77.1127 189.731 77.1619 189.764 77.2275C189.797 77.2931 189.797 77.3751 189.781 77.4407C189.748 77.5063 189.715 77.5555 189.649 77.5883C189.584 77.6047 189.518 77.6211 189.453 77.6211Z" fill="#141E1F"/>
<path d="M188.616 78.9006C188.501 78.9006 188.305 78.7858 188.305 78.6546L188.059 77.0146C188.059 76.9326 188.091 76.867 188.124 76.8014C188.173 76.7358 188.223 76.6866 188.288 76.6538C188.37 76.6538 188.452 76.6866 188.534 76.7358C188.6 76.785 188.649 76.867 188.665 76.949L188.911 78.5234C188.911 78.7038 188.797 78.8842 188.665 78.8842H188.616V78.9006Z" fill="#141E1F"/>
<path d="M194.783 78.5233C193.897 78.5233 193.061 78.1789 192.421 77.5393C191.798 76.9161 191.454 76.0633 191.454 75.1777C191.405 74.3249 191.683 73.5049 192.225 72.8489C192.766 72.1929 193.537 71.7829 194.389 71.6845C195.226 71.5861 196.079 71.8157 196.751 72.3077C197.423 72.7997 197.899 73.5541 198.047 74.3905C198.096 74.6529 198.112 74.9153 198.112 75.1777C198.112 76.0633 197.751 76.9161 197.128 77.5393C196.521 78.1789 195.669 78.5233 194.783 78.5233ZM194.783 72.4717C194.242 72.4717 193.717 72.6357 193.274 72.9309C192.831 73.2261 192.471 73.6525 192.274 74.1609C192.077 74.6693 192.011 75.2105 192.126 75.7353C192.225 76.2601 192.487 76.7521 192.864 77.1293C193.241 77.5065 193.733 77.7689 194.258 77.8673C194.783 77.9657 195.341 77.9165 195.833 77.7197C196.325 77.5065 196.751 77.1621 197.063 76.7193C197.358 76.2765 197.522 75.7517 197.522 75.2105C197.538 74.9809 197.505 74.7677 197.456 74.5381C197.309 73.9477 196.964 73.4229 196.472 73.0457C195.997 72.6685 195.406 72.4717 194.783 72.4717Z" fill="#141E1F"/>
<path d="M191.7 75.6862H191.585L187.649 74.4726C187.6 74.4562 187.567 74.4398 187.534 74.407C187.501 74.3742 187.469 74.3414 187.452 74.3086C187.436 74.2758 187.419 74.2266 187.419 74.1774C187.419 74.1282 187.436 74.0954 187.452 74.0462C187.485 73.9806 187.534 73.915 187.6 73.8822C187.665 73.8494 187.747 73.8494 187.813 73.8658L191.749 75.0794C191.831 75.1122 191.897 75.1778 191.946 75.2598C191.995 75.3418 192.011 75.4238 191.995 75.5058C191.962 75.5714 191.929 75.6206 191.864 75.6534C191.798 75.6862 191.765 75.6862 191.7 75.6862Z" fill="#141E1F"/>
<path d="M197.636 74.4723C197.571 74.4723 197.505 74.4559 197.44 74.4067C197.39 74.3575 197.341 74.2919 197.325 74.2263C197.325 74.1443 197.341 74.0623 197.39 73.9967C197.44 73.9311 197.505 73.8819 197.571 73.8491L198.243 73.6031C198.309 73.5867 198.391 73.5867 198.456 73.6195C198.522 73.6523 198.571 73.7179 198.604 73.7835C198.62 73.8163 198.637 73.8655 198.637 73.9147C198.637 73.9639 198.637 73.9967 198.62 74.0459C198.604 74.0787 198.571 74.1279 198.538 74.1443C198.506 74.1771 198.473 74.1935 198.424 74.2099L197.751 74.4559H197.636V74.4723Z" fill="#141E1F"/>
<path d="M77.2934 244.671L73.0458 254.79L72.3242 267.451H103.96C103.96 267.451 106.813 258.185 96.5142 257.332L100.385 247.935L77.2934 244.671Z" fill="#F7FCFC"/>
<path d="M103.959 267.763H72.3238L72.0778 267.648C72.0122 267.582 72.0122 267.533 72.0122 267.402L72.7338 254.807V254.692L76.9814 244.573C77.0142 244.507 77.047 244.475 77.0962 244.442C77.1454 244.409 77.211 244.393 77.2766 244.393L100.417 247.673C100.466 247.673 100.515 247.689 100.548 247.722C100.581 247.755 100.597 247.804 100.597 247.853C100.647 247.919 100.663 248.017 100.663 248.099L96.9074 257.07C99.9906 257.431 102.172 258.529 103.385 260.399C105.452 263.482 104.287 267.369 104.238 267.549C104.205 267.697 104.14 267.763 103.959 267.763ZM72.6354 267.156H103.779C103.959 266.303 104.566 263.154 102.926 260.727C101.286 258.3 99.5314 257.873 96.4974 257.644C96.3826 257.578 96.317 257.578 96.2514 257.463C96.2022 257.398 96.1858 257.299 96.1858 257.217L99.9414 248.181L77.457 244.967L73.3406 254.839L72.6354 267.156Z" fill="#141E1F"/>
<path d="M72.8158 259.35C72.7502 259.333 72.6846 259.3 72.6354 259.268C72.5862 259.218 72.537 259.169 72.5206 259.104C72.455 258.923 72.5862 258.808 72.7666 258.743C75.9154 257.89 77.8014 256.562 78.277 254.741C79.0642 251.658 75.735 248.198 75.6694 248.198C75.6202 248.148 75.5874 248.066 75.5874 247.984C75.5874 247.902 75.6202 247.837 75.6694 247.771C75.7842 247.656 76.0302 247.656 76.0958 247.771C76.1614 247.886 79.7366 251.461 78.8182 254.856C78.277 256.922 76.2762 258.431 72.8814 259.333H72.8158V259.35Z" fill="#141E1F"/>
<path d="M96.4976 257.644L91.0364 257.398C90.9544 257.398 90.8724 257.365 90.8232 257.316C90.774 257.267 90.7412 257.185 90.7412 257.103C90.7412 257.021 90.774 256.939 90.8232 256.89C90.8724 256.84 90.9544 256.808 91.0364 256.808L96.4976 257.054C96.5796 257.054 96.6616 257.086 96.7108 257.136C96.76 257.185 96.7928 257.267 96.7928 257.349C96.7928 257.431 96.76 257.513 96.7108 257.562C96.6616 257.611 96.5796 257.644 96.4976 257.644Z" fill="#141E1F"/>
<path d="M96.022 251.412C95.9564 251.412 95.8908 251.395 95.8416 251.363C95.7924 251.33 95.7432 251.281 95.7268 251.231C95.7104 251.166 95.694 251.1 95.7104 251.035C95.7268 250.969 95.7432 250.903 95.7924 250.854C96.514 250.313 102.402 245.59 104.402 246C104.534 246.033 104.648 246.098 104.763 246.18C104.878 246.262 104.96 246.361 105.009 246.492C105.075 246.623 105.091 246.754 105.091 246.885C105.091 247.017 105.058 247.164 105.009 247.279C104.156 249.165 96.8912 251.149 96.104 251.346L96.022 251.412ZM104.025 246.557C102.812 246.557 99.7776 248.558 97.416 250.379C100.384 249.477 103.96 248.083 104.452 247.049C104.944 246.016 104.517 246.803 104.452 246.754C104.386 246.689 104.386 246.639 104.206 246.639L104.025 246.557Z" fill="#141E1F"/>
<path d="M95.284 251.346C93.89 251.346 88.9208 251.281 87.5268 249.772C87.3792 249.641 87.248 249.477 87.1824 249.28C87.1004 249.083 87.084 248.886 87.1004 248.689C87.1004 248.525 87.1496 248.345 87.2316 248.197C87.3136 248.05 87.4448 247.919 87.5924 247.837C89.3472 246.935 95.1692 250.444 95.8252 250.805C95.9072 250.92 95.94 251.035 95.94 251.166C95.9072 251.231 95.8744 251.281 95.8252 251.297C95.776 251.33 95.7104 251.346 95.6448 251.346H95.284ZM88.3796 248.263L87.8876 248.378C87.822 248.378 87.7072 248.493 87.7072 248.739C87.6908 248.853 87.7072 248.968 87.7564 249.067C87.8056 249.181 87.8712 249.263 87.9532 249.345C88.9208 250.379 92.3812 250.674 94.4968 250.739C92.4468 249.591 89.6588 248.263 88.3796 248.263Z" fill="#141E1F"/>
<path d="M98.2031 253.527H91.5447C91.4627 253.527 91.3807 253.495 91.3315 253.445C91.2823 253.396 91.2495 253.314 91.2495 253.232C91.2495 253.15 91.2823 253.068 91.3315 253.019C91.3807 252.97 91.4627 252.937 91.5447 252.937H98.2031C98.2851 252.937 98.3671 252.97 98.4163 253.019C98.4655 253.068 98.4983 253.15 98.4983 253.232C98.4983 253.314 98.4655 253.396 98.4163 253.445C98.3507 253.495 98.2851 253.527 98.2031 253.527Z" fill="#141E1F"/>
<path d="M97.4161 254.987H91.8401C91.7581 254.987 91.6761 254.955 91.6269 254.905C91.5777 254.856 91.5449 254.774 91.5449 254.692C91.5449 254.61 91.5777 254.528 91.6269 254.479C91.6761 254.43 91.7581 254.397 91.8401 254.397H97.4161C97.4981 254.397 97.5801 254.43 97.6293 254.479C97.6785 254.528 97.7113 254.61 97.7113 254.692C97.7113 254.774 97.6785 254.856 97.6293 254.905C97.5637 254.955 97.4981 254.987 97.4161 254.987Z" fill="#141E1F"/>
<path d="M104.321 265.582H72.4554C72.3734 265.582 72.2914 265.549 72.2422 265.5C72.193 265.45 72.1602 265.368 72.1602 265.286C72.1602 265.204 72.193 265.122 72.2422 265.073C72.2914 265.024 72.3734 264.991 72.4554 264.991H104.321C104.403 264.991 104.485 265.024 104.534 265.073C104.583 265.122 104.616 265.204 104.616 265.286C104.616 265.368 104.583 265.45 104.534 265.5C104.485 265.549 104.403 265.582 104.321 265.582Z" fill="#141E1F"/>
<path d="M166.312 193.651L160.802 211.035L196.127 211.281C196.127 211.281 199.768 204.016 185.107 198.44C173.036 193.897 166.312 193.651 166.312 193.651Z" fill="#F7FCFC"/>
<path d="M196.127 211.593L160.802 211.347L160.556 211.232C160.507 211.134 160.49 211.035 160.49 210.937L166.001 193.602C166.017 193.536 166.05 193.471 166.115 193.422C166.165 193.372 166.247 193.356 166.312 193.356C166.378 193.356 173.217 193.602 185.221 198.145C191.273 200.441 195.029 203.36 196.308 206.689C196.964 208.214 196.997 209.92 196.423 211.478L196.127 211.593ZM161.212 210.74L195.931 210.986C196.357 209.658 196.291 208.214 195.75 206.919C194.897 204.672 192.29 201.474 184.959 198.735C174.299 194.668 167.805 194.078 166.542 193.946L161.212 210.74Z" fill="#141E1F"/>
<path d="M196.489 208.87L161.77 208.378C161.688 208.378 161.606 208.346 161.557 208.296C161.507 208.247 161.475 208.165 161.475 208.083C161.475 208.001 161.507 207.919 161.557 207.87C161.606 207.821 161.688 207.788 161.77 207.788L196.489 208.28C196.571 208.28 196.653 208.313 196.702 208.362C196.751 208.411 196.8 208.493 196.8 208.575C196.8 208.657 196.767 208.739 196.702 208.788C196.636 208.838 196.571 208.87 196.489 208.87Z" fill="#141E1F"/>
<path d="M183.09 198.752C183.024 198.752 182.959 198.735 182.909 198.719C182.86 198.686 182.811 198.637 182.795 198.571C182.778 198.539 182.762 198.506 182.762 198.473C182.762 198.44 182.762 198.391 182.778 198.358C182.795 198.325 182.811 198.293 182.827 198.26C182.86 198.227 182.877 198.211 182.926 198.211C183.352 197.899 193.586 190.453 196.915 191.733C197.21 191.831 197.456 192.011 197.653 192.241C197.85 192.471 197.965 192.766 198.014 193.061C198.079 193.373 198.079 193.701 198.014 194.012C197.932 194.324 197.801 194.619 197.604 194.881C195.095 198.145 183.582 198.686 183.09 198.752ZM195.997 192.208C193.209 192.208 187.206 195.898 184.123 198.079C187.091 197.833 195.209 196.997 197.095 194.504C197.243 194.324 197.358 194.111 197.407 193.881C197.456 193.651 197.456 193.405 197.391 193.176C197.374 192.979 197.309 192.799 197.194 192.651C197.079 192.503 196.915 192.389 196.735 192.323L195.997 192.208Z" fill="#141E1F"/>
<path d="M175.398 200.146C174.562 200.211 173.725 200.047 172.971 199.654C172.774 199.522 172.594 199.342 172.479 199.129C172.364 198.916 172.299 198.686 172.299 198.44C172.266 198.227 172.282 197.997 172.364 197.8C172.446 197.604 172.594 197.423 172.774 197.292C174.709 195.718 182.171 197.899 183.008 198.145C183.057 198.178 183.106 198.227 183.123 198.276C183.155 198.325 183.172 198.391 183.172 198.44C183.172 198.506 183.155 198.555 183.123 198.604C183.09 198.653 183.057 198.702 183.008 198.735C182.795 198.801 178.432 200.146 175.398 200.146ZM175.152 197.292C174.25 197.292 173.512 197.407 173.151 197.784C173.053 197.866 172.971 197.964 172.922 198.079C172.873 198.194 172.84 198.325 172.856 198.456C172.873 198.588 172.922 198.719 173.004 198.834C173.086 198.948 173.168 199.047 173.283 199.129C174.742 200.162 179.285 199.194 181.827 198.456C179.646 197.817 177.415 197.423 175.152 197.292Z" fill="#141E1F"/>
<path d="M183.09 200.933C182.909 200.933 182.795 200.867 182.795 200.753C182.778 200.72 182.762 200.687 182.762 200.638C182.762 200.605 182.778 200.556 182.795 200.523C182.811 200.49 182.844 200.457 182.877 200.425C182.909 200.392 182.942 200.392 182.991 200.375L187.239 199.047C187.272 199.031 187.321 199.014 187.37 199.014C187.419 199.014 187.469 199.031 187.501 199.047C187.534 199.08 187.567 199.113 187.583 199.145C187.6 199.178 187.616 199.227 187.6 199.277C187.616 199.309 187.633 199.359 187.633 199.391C187.633 199.424 187.633 199.473 187.6 199.506C187.583 199.539 187.551 199.572 187.518 199.605C187.485 199.621 187.452 199.637 187.403 199.637L183.155 200.917H183.09V200.933Z" fill="#141E1F"/>
<path d="M185.221 202.015C185.041 202.015 184.926 201.95 184.926 201.835C184.926 201.72 184.992 201.474 185.107 201.474L189.108 200.375C189.19 200.343 189.272 200.359 189.354 200.392C189.436 200.424 189.502 200.49 189.535 200.556C189.535 200.736 189.469 200.916 189.289 200.916L185.287 201.999H185.221V202.015Z" fill="#141E1F"/>
<path d="M162.672 205.361C162.606 205.361 162.54 205.328 162.508 205.295C162.458 205.246 162.442 205.181 162.442 205.131C162.426 205.099 162.409 205.049 162.409 205.017C162.409 204.984 162.409 204.935 162.442 204.902C162.475 204.869 162.491 204.836 162.524 204.803C162.557 204.787 162.59 204.771 162.639 204.754C165.312 203.967 166.821 202.885 167.182 201.359C167.542 199.834 165.296 196.636 165.246 196.636C165.214 196.603 165.181 196.571 165.164 196.538C165.148 196.505 165.132 196.456 165.132 196.407C165.132 196.357 165.132 196.325 165.148 196.275C165.164 196.243 165.181 196.193 165.214 196.161C165.246 196.128 165.279 196.111 165.328 196.095C165.378 196.079 165.41 196.079 165.46 196.079C165.509 196.079 165.542 196.095 165.591 196.111C165.624 196.128 165.656 196.161 165.689 196.193C165.804 196.259 168.412 198.867 167.756 201.523C167.395 203.213 165.689 204.492 162.852 205.345H162.672V205.361Z" fill="#141E1F"/>
<path d="M185.402 69.6837H185.337C185.271 69.6509 185.205 69.6017 185.173 69.5361C185.123 69.4705 185.107 69.405 185.107 69.323C185.107 69.2574 186.206 62.4185 192.553 61.6313C192.618 61.6313 192.7 61.6478 192.749 61.697C192.799 61.7462 192.848 61.7953 192.864 61.8773C192.881 61.9101 192.897 61.9594 192.897 62.0086C192.897 62.0578 192.881 62.0905 192.864 62.1397C192.831 62.1725 192.799 62.2053 192.766 62.2217C192.733 62.2381 192.684 62.2545 192.635 62.2381C186.763 62.9597 185.779 69.1425 185.73 69.3886C185.73 69.4214 185.714 69.4705 185.714 69.5033C185.697 69.5361 185.681 69.5689 185.648 69.6017C185.615 69.6345 185.583 69.6509 185.55 69.6673C185.468 69.6673 185.435 69.6837 185.402 69.6837Z" fill="#141E1F"/>
<path d="M130.429 170.625C130.429 170.625 134.365 184.434 160.49 175.299C160.49 175.299 160.982 178.153 156.128 186.271C156.128 186.271 137.711 187.419 130.429 170.625Z" fill="#141E1F"/>
<path d="M182.122 117.604L188.124 138.203L190.486 135.726L182.122 117.604Z" fill="#141E1F"/>
<path d="M210.183 128.215C210.002 128.215 209.887 128.15 209.887 127.969L208.739 122.885C208.674 122.77 208.805 122.59 208.985 122.524C209.067 122.524 209.149 122.541 209.215 122.59C209.281 122.639 209.33 122.705 209.363 122.77L210.511 127.854C210.511 127.887 210.527 127.936 210.511 127.969C210.511 128.002 210.494 128.051 210.461 128.084C210.445 128.117 210.412 128.15 210.379 128.166C210.347 128.182 210.314 128.199 210.265 128.215H210.183Z" fill="#141E1F"/>
<path d="M195.275 75.6204C195.783 75.6204 196.177 75.2104 196.177 74.7184C196.177 74.2264 195.767 73.8164 195.275 73.8164C194.767 73.8164 194.373 74.2264 194.373 74.7184C194.373 75.2104 194.767 75.6204 195.275 75.6204Z" fill="#141E1F"/>
<path d="M197.997 74.4066C197.997 74.4066 199.883 72.2254 200.063 73.3734C200.244 74.5214 198.423 76.4074 198.423 76.4074L197.997 74.4066Z" fill="#F7FCFC"/>
<path d="M198.424 76.7026H198.178C198.128 76.6534 198.096 76.5714 198.096 76.4894C198.096 76.4074 198.128 76.3418 198.178 76.2762C198.67 75.7842 199.867 74.2754 199.752 73.4882V73.3734C199.162 73.7014 198.637 74.1606 198.243 74.7018C198.21 74.7346 198.178 74.7674 198.145 74.7838C198.112 74.8002 198.063 74.8166 198.014 74.8166C197.964 74.8166 197.932 74.8166 197.882 74.8002C197.85 74.7838 197.8 74.7674 197.768 74.7346C197.735 74.7018 197.718 74.669 197.702 74.6198C197.686 74.587 197.686 74.5378 197.686 74.4886C197.686 74.4394 197.702 74.4066 197.718 74.3574C197.735 74.3246 197.768 74.2918 197.8 74.259C198.227 73.767 199.26 72.5698 199.916 72.7994C200.588 73.0454 200.277 72.9142 200.342 73.3406C200.408 73.767 198.834 76.4238 198.588 76.6698H198.424V76.7026Z" fill="#141E1F"/>
<path d="M190.913 84.4106L193.635 89.7406L195.455 85.5586C195.455 85.5586 191.7 85.3126 190.913 84.4106Z" fill="#141E1F"/>
<path d="M195.455 80.4746C195.881 80.901 196.439 81.147 197.029 81.1634C197.62 81.1798 198.21 80.983 198.653 80.5894L195.455 80.4746Z" fill="#F7FCFC"/>
<path d="M197.144 81.4915C196.406 81.4587 195.718 81.1635 195.209 80.6387C195.16 80.5731 195.144 80.5075 195.144 80.4419C195.144 80.3763 195.176 80.2943 195.226 80.2451C195.275 80.1959 195.34 80.1631 195.422 80.1631C195.488 80.1631 195.57 80.1795 195.619 80.2287C195.996 80.6059 196.488 80.8191 197.013 80.8355C197.538 80.8519 198.063 80.6879 198.456 80.3435C198.506 80.2943 198.588 80.2615 198.67 80.2615C198.752 80.2615 198.817 80.2943 198.883 80.3435C198.948 80.4091 198.981 80.4911 198.981 80.5895C198.981 80.6715 198.948 80.7699 198.883 80.8355C198.424 81.2455 197.8 81.4915 197.144 81.4915Z" fill="#141E1F"/>
</svg>
