<svg width="328" height="328" viewBox="0 0 328 328" fill="none" xmlns="http://www.w3.org/2000/svg">
<path d="M151.848 59.7452C151.848 63.2548 150.88 66.6988 149.06 69.7C147.239 72.7012 144.632 75.1448 141.516 76.7684L139.63 95.1692H125.575L124.312 76.9652C121.262 75.4564 118.671 73.1768 116.801 70.3232C114.931 67.486 113.865 64.1896 113.685 60.7948C113.521 57.4 114.259 54.0216 115.833 51.004C117.408 47.9864 119.753 45.4444 122.639 43.6404C125.526 41.8364 128.839 40.836 132.233 40.754C135.628 40.6556 138.99 41.4756 141.975 43.1156C144.96 44.7556 147.436 47.1664 149.175 50.0856C150.913 53.0048 151.831 56.3504 151.848 59.7452Z" fill="#4CBDC7"/>
<path d="M140.696 85.4602H124.886C124.804 85.4602 124.722 85.4274 124.657 85.3618C124.591 85.2962 124.558 85.2306 124.558 85.1322C124.558 85.0502 124.591 84.9682 124.657 84.9026C124.722 84.837 124.788 84.8042 124.886 84.8042H140.696C140.778 84.8042 140.86 84.837 140.925 84.9026C140.991 84.9682 141.024 85.0338 141.024 85.1322C141.007 85.2142 140.975 85.2798 140.925 85.3454C140.843 85.411 140.778 85.4438 140.696 85.4602Z" fill="#141E1F"/>
<path d="M139.876 90.5608H125.509C125.427 90.5608 125.345 90.528 125.28 90.4624C125.214 90.3968 125.181 90.3312 125.181 90.2328C125.181 90.1508 125.214 90.0688 125.28 90.0032C125.345 89.9376 125.411 89.9048 125.509 89.9048H139.876C139.958 89.9048 140.04 89.9376 140.105 90.0032C140.171 90.0688 140.204 90.1344 140.204 90.2328C140.204 90.3148 140.171 90.3968 140.105 90.4624C140.04 90.528 139.958 90.5608 139.876 90.5608Z" fill="#141E1F"/>
<path d="M137.416 85.4602C137.334 85.4438 137.252 85.3946 137.186 85.329C137.12 85.2634 137.104 85.165 137.104 85.083L137.547 62.0902L128.724 61.8934V85.1486C128.707 85.2306 128.674 85.2962 128.625 85.3618C128.576 85.411 128.494 85.4602 128.412 85.4602C128.33 85.4602 128.248 85.4274 128.182 85.3618C128.117 85.2962 128.084 85.2306 128.084 85.1322V61.8934H125.247C124.591 61.7786 124 61.4506 123.574 60.9422C123.148 60.4338 122.918 59.7942 122.918 59.1218C122.918 58.4658 123.164 57.8262 123.607 57.3178C124.05 56.8258 124.64 56.4978 125.296 56.3994H125.919C126.28 56.3994 126.641 56.465 126.985 56.6126C127.33 56.7602 127.625 56.957 127.887 57.2194C128.15 57.4818 128.346 57.777 128.494 58.1214C128.625 58.4658 128.707 58.8102 128.707 59.1874V61.3358L137.53 61.5326V59.1382C137.53 58.4166 137.809 57.7278 138.318 57.2194C138.826 56.711 139.515 56.4322 140.236 56.4322C140.597 56.4322 140.958 56.4978 141.302 56.6454C141.647 56.793 141.942 56.9898 142.204 57.2522C142.467 57.5146 142.664 57.8098 142.811 58.1542C142.959 58.4986 143.024 58.843 143.024 59.2202V59.5318C142.992 60.2534 142.713 60.9586 142.204 61.4834C141.647 61.9754 140.925 62.2542 140.187 62.2378H138.104L137.662 85.2962C137.629 85.3454 137.596 85.3782 137.563 85.411C137.514 85.4274 137.465 85.4438 137.416 85.4602ZM138.17 61.4506H140.318C140.876 61.4506 141.417 61.2538 141.827 60.8766C142.221 60.4666 142.434 59.9254 142.45 59.3678V59.1218C142.45 58.5478 142.221 58.0066 141.827 57.613C141.434 57.203 140.876 56.9898 140.318 56.9898C139.761 56.9898 139.236 57.203 138.842 57.5966C138.449 57.9902 138.236 58.515 138.236 59.0726L138.17 61.4506ZM125.312 56.9734C125.034 56.9734 124.755 57.0226 124.492 57.1374C124.23 57.2522 124 57.3998 123.804 57.5966C123.607 57.7934 123.443 58.0394 123.344 58.2854C123.23 58.5478 123.18 58.8266 123.18 59.1054C123.18 59.663 123.394 60.1878 123.787 60.5814C124.181 60.975 124.706 61.1882 125.263 61.1882H128.084V59.1054C128.084 58.5314 127.854 57.9902 127.461 57.5966C127.067 57.203 126.51 56.9734 125.952 56.9734H125.312Z" fill="#141E1F"/>
<path d="M110.257 48.7901H110.126L100.417 42.2957C100.384 42.2629 100.351 42.2465 100.335 42.1973C100.319 42.1645 100.302 42.1153 100.302 42.0825C100.302 42.0497 100.302 42.0005 100.302 41.9677C100.319 41.9349 100.335 41.8857 100.351 41.8529C100.401 41.7873 100.466 41.7381 100.548 41.7217C100.63 41.7053 100.712 41.7053 100.794 41.7381L110.437 48.2325C110.47 48.2489 110.503 48.2817 110.536 48.3145C110.569 48.3473 110.585 48.3801 110.601 48.4293C110.618 48.4785 110.618 48.5113 110.618 48.5605C110.618 48.6097 110.601 48.6425 110.569 48.6753C110.503 48.7901 110.388 48.7901 110.257 48.7901Z" fill="#4CBDC7"/>
<path d="M121.229 38.9502L120.917 38.819L114.866 28.9298C114.833 28.897 114.816 28.8642 114.816 28.815C114.8 28.7822 114.8 28.733 114.816 28.7002C114.816 28.6674 114.833 28.6182 114.849 28.5854C114.866 28.5526 114.899 28.5198 114.931 28.487C115.128 28.4214 115.309 28.4214 115.374 28.6182L121.491 38.4418C121.557 38.6386 121.557 38.819 121.36 38.8846L121.229 38.9502Z" fill="#4CBDC7"/>
<path d="M136.973 36.4409C136.891 36.4409 136.809 36.4081 136.743 36.3425C136.678 36.2769 136.645 36.2113 136.645 36.1129V25.4037C136.645 25.3217 136.678 25.2397 136.743 25.1741C136.809 25.1085 136.875 25.0757 136.973 25.0757C137.055 25.0757 137.137 25.1085 137.203 25.1741C137.268 25.2397 137.301 25.3053 137.301 25.4037V36.1129C137.301 36.1949 137.268 36.2769 137.203 36.3425C137.137 36.4081 137.055 36.4409 136.973 36.4409Z" fill="#4CBDC7"/>
<path d="M149.699 40.4752H149.502C149.306 40.4096 149.306 40.2292 149.371 40.0324L155.866 30.6516C155.915 30.586 155.997 30.5368 156.079 30.5204C156.161 30.504 156.243 30.5368 156.308 30.586C156.374 30.6352 156.423 30.7172 156.423 30.7992C156.44 30.8812 156.407 30.9632 156.358 31.0288L149.962 40.344L149.699 40.4752Z" fill="#4CBDC7"/>
<path d="M156.128 51.873C155.997 51.873 155.931 51.8074 155.882 51.6762C155.816 51.545 155.816 51.3646 156.013 51.2334L167.411 45.0014C167.542 44.8702 167.723 44.9358 167.854 45.1326C167.887 45.1982 167.887 45.2802 167.854 45.3458C167.838 45.4114 167.788 45.477 167.723 45.5098L156.325 51.8074L156.128 51.873Z" fill="#4CBDC7"/>
<path d="M147.633 53.6934C147.502 53.6934 147.436 53.6278 147.387 53.4966C146.747 51.8566 145.796 50.3478 144.566 49.085C143.336 47.8222 141.877 46.8054 140.253 46.1166C140.187 46.0838 140.122 46.0346 140.089 45.969C140.056 45.9034 140.04 45.8214 140.073 45.7394C140.089 45.6902 140.105 45.6574 140.138 45.6246C140.171 45.5918 140.204 45.559 140.253 45.5426C140.302 45.5262 140.335 45.5098 140.384 45.5098C140.433 45.5098 140.483 45.5262 140.515 45.5426C142.221 46.2478 143.763 47.3138 145.042 48.6422C146.321 49.9706 147.305 51.5614 147.945 53.2998C147.961 53.3326 147.977 53.3818 147.977 53.4146C147.977 53.4638 147.977 53.4966 147.945 53.5294C147.928 53.5622 147.895 53.595 147.863 53.6278C147.83 53.6442 147.781 53.6606 147.748 53.677H147.633V53.6934Z" fill="#141E1F"/>
<path d="M215.496 226.795H98.5312V297.66H215.496V226.795Z" fill="#4CBDC7"/>
<path d="M126.837 166.739L131.872 185.451L160.228 179.531L149.699 158.227L126.837 166.739Z" fill="#F7FCFC"/>
<path d="M131.873 185.779C131.807 185.779 131.741 185.747 131.692 185.714C131.643 185.665 131.61 185.599 131.61 185.533L126.51 166.821C126.493 166.739 126.493 166.657 126.526 166.591C126.559 166.526 126.625 166.46 126.69 166.444L149.568 157.998C149.634 157.965 149.716 157.965 149.781 157.998C149.847 158.014 149.913 158.063 149.945 158.129L160.474 179.433C160.507 179.465 160.523 179.515 160.523 179.564C160.523 179.613 160.507 179.662 160.474 179.695C160.474 179.744 160.458 179.793 160.425 179.826C160.392 179.859 160.343 179.875 160.294 179.875L131.938 185.796H131.873V185.779ZM127.215 166.936L132.135 185.091L159.802 179.351L149.535 158.687L127.215 166.936Z" fill="#141E1F"/>
<path d="M130.101 116.391C135.398 117.08 139.81 118.031 142.581 122.574C149.191 133.217 163.951 161.196 142.778 169.264C116.374 179.285 106.665 145.944 108.814 135.874C110.7 126.788 115.489 114.374 130.101 116.391Z" fill="#F7FCFC"/>
<path d="M133.381 171.462C128.478 171.462 123.738 169.642 120.081 166.362C110.881 158.49 106.977 142.729 108.486 135.808C111.569 121.196 118.884 114.57 130.167 116.079C135.399 116.768 139.991 117.719 142.828 122.377C155.685 143.172 154.816 154.652 153.111 159.621C151.405 164.607 148.076 167.559 142.844 169.576C139.827 170.79 136.629 171.429 133.381 171.462ZM127.149 116.522C117.883 116.522 111.832 123.016 109.126 135.923C107.863 141.712 110.766 157.538 120.524 165.919C126.641 171.15 134.136 172.216 142.647 168.936C147.682 167.05 150.962 163.836 152.471 159.424C156.505 147.584 146.731 129.806 142.319 122.688C139.613 118.277 135.136 117.391 130.101 116.702L127.149 116.522Z" fill="#141E1F"/>
<path d="M128.527 147.715C129.675 147.715 130.609 146.78 130.609 145.632C130.609 144.484 129.675 143.549 128.527 143.549C127.379 143.549 126.444 144.484 126.444 145.632C126.46 146.78 127.379 147.715 128.527 147.715Z" fill="#141E1F"/>
<path d="M144.796 141.089C145.944 141.089 146.878 140.155 146.878 139.007C146.878 137.859 145.944 136.924 144.796 136.924C143.648 136.924 142.713 137.859 142.713 139.007C142.713 140.171 143.648 141.089 144.796 141.089Z" fill="#141E1F"/>
<path d="M129.987 177.579C129.987 177.579 96.9734 187.403 89.905 200.703C82.853 214.004 78.999 245.82 78.999 245.82C78.999 245.82 99.9746 246 126.444 245.377C126.444 245.377 214.594 263.958 232.864 238.637C232.733 226.976 219.121 167.805 185.665 169.265C152.209 170.708 154.915 168.822 154.915 168.822C154.915 168.822 150.651 185.451 129.987 177.579Z" fill="#4CBDC7"/>
<path d="M141.073 177.825C141.073 177.825 164.197 163.328 166.722 165.607C169.248 167.871 160.933 176.628 160.933 176.628L141.073 177.825Z" fill="#F7FCFC"/>
<path d="M141.073 178.153C141.007 178.153 140.942 178.137 140.893 178.104C140.843 178.071 140.794 178.022 140.761 177.957C140.729 177.891 140.729 177.809 140.761 177.743C140.778 177.678 140.827 177.612 140.893 177.579C140.958 177.514 146.747 173.922 152.799 170.577C163.885 164.459 166.165 164.656 166.919 165.345C167.116 165.509 167.264 165.706 167.362 165.935C167.461 166.165 167.51 166.411 167.493 166.657C167.69 169.937 161.442 176.546 161.196 176.809C161.163 176.841 161.13 176.874 161.081 176.907C161.032 176.923 160.983 176.94 160.933 176.94L141.073 178.153ZM165.837 165.673C162.557 165.673 150.47 172.413 142.27 177.465L160.802 176.333C161.557 175.513 166.985 169.527 166.854 166.69C166.854 166.526 166.821 166.362 166.755 166.198C166.69 166.05 166.591 165.903 166.477 165.804C166.345 165.673 166.149 165.673 165.837 165.673Z" fill="#141E1F"/>
<path d="M149.256 206.131L158.26 206.509C154.914 231.469 143.959 263.154 134.89 279.472C127.461 292.707 111.569 298.939 97.3996 293.593C70.3724 283.507 83.4104 245.836 83.4104 245.836H113.586C113.586 245.836 120.77 174.25 143.074 175.513C165.378 176.775 174.332 177.841 176.284 181.367C178.235 184.893 174.332 185.467 174.332 185.467C174.332 185.467 178.678 187.616 175.021 191.65C175.021 191.65 179.81 198.325 172.626 198.965C172.626 198.965 177.481 205.197 172.626 206.525C169.478 207.411 158.26 206.525 158.26 206.525L149.256 206.131Z" fill="#F7FCFC"/>
<path d="M107.732 295.791C104.156 295.791 100.614 295.151 97.2684 293.905C86.1164 289.739 80.1304 280.047 79.9336 265.926C79.9336 259.071 81.016 252.281 83.148 245.771C83.148 245.705 83.1808 245.639 83.23 245.59C83.2792 245.541 83.3448 245.525 83.4104 245.525H113.275C114.62 233.618 116.752 221.81 119.638 210.166C125.821 186.419 133.693 174.693 143.139 175.201C167.46 176.53 174.644 177.842 176.53 181.253C177.153 182.319 177.284 183.336 176.907 184.09C176.497 184.795 175.841 185.337 175.086 185.599C175.906 186.173 176.48 187.026 176.726 187.993C176.972 189.125 176.53 190.388 175.398 191.716C175.906 192.471 177.546 195.177 176.595 197.145C175.644 199.096 174.955 198.965 173.2 199.227C173.955 200.228 175.595 203.016 174.972 204.967C174.791 205.459 174.48 205.886 174.086 206.214C173.692 206.542 173.217 206.771 172.692 206.853C169.789 207.673 160.343 207.05 158.522 206.919C155.128 232.372 143.959 263.876 135.152 279.702C132.414 284.573 128.445 288.64 123.623 291.477C118.802 294.265 113.324 295.774 107.732 295.791ZM83.6728 246.131C81.672 252.544 80.6388 259.202 80.5896 265.91C80.7864 279.965 86.4444 289.165 97.4816 293.314C111.34 298.48 127.28 292.429 134.595 279.325C143.418 263.581 154.504 232.257 157.916 206.804L149.224 206.427C149.092 206.361 148.912 206.23 148.978 206.05C148.978 206.017 148.978 205.968 148.994 205.935C149.01 205.902 149.027 205.869 149.06 205.837C149.092 205.804 149.125 205.787 149.158 205.787C149.191 205.771 149.24 205.787 149.273 205.787L158.276 206.165C158.408 206.165 169.494 207.05 172.577 206.165C172.971 206.099 173.348 205.919 173.643 205.673C173.955 205.427 174.184 205.099 174.332 204.721C175.086 202.573 172.38 199.113 172.38 199.113C172.331 199.014 172.315 198.899 172.315 198.801C172.331 198.752 172.364 198.703 172.413 198.67C172.462 198.637 172.512 198.621 172.561 198.604C174.447 198.407 175.578 197.85 176.021 196.833C176.907 194.881 174.758 191.864 174.758 191.798C174.726 191.782 174.709 191.749 174.693 191.716C174.676 191.683 174.676 191.651 174.676 191.618C174.676 191.585 174.693 191.552 174.693 191.519C174.709 191.487 174.726 191.454 174.758 191.437C175.824 190.24 176.267 189.109 176.087 188.092C175.956 187.583 175.71 187.108 175.382 186.714C175.037 186.304 174.611 185.993 174.135 185.763C174.07 185.73 174.02 185.665 174.004 185.599C173.988 185.533 173.988 185.451 174.004 185.386C174.004 185.32 174.037 185.255 174.07 185.205C174.119 185.156 174.184 185.123 174.25 185.123C174.25 185.123 175.824 184.877 176.333 183.795C176.464 183.418 176.497 183.008 176.448 182.631C176.398 182.237 176.251 181.86 176.021 181.532C174.07 178.071 164.295 176.94 143.074 175.792H142.516C121.163 175.792 113.98 245.164 113.914 245.853C113.898 245.918 113.865 245.984 113.8 246.033C113.734 246.082 113.668 246.099 113.603 246.099H83.6728V246.131Z" fill="#141E1F"/>
<path d="M192.241 236.931C192.241 236.931 201.818 221.744 204.147 223.45C206.476 225.156 200.113 247.706 200.113 247.706L192.241 236.931Z" fill="#F7FCFC"/>
<path d="M200.113 248.034C199.981 248.034 199.932 248.034 199.867 247.903L191.929 237.128C191.896 237.079 191.88 237.029 191.88 236.964C191.88 236.915 191.896 236.849 191.929 236.8C192.306 236.242 200.244 223.631 203.458 223.007C203.606 222.975 203.753 222.958 203.885 222.991C204.032 223.024 204.163 223.089 204.278 223.188C204.967 223.696 205.672 225.582 203.278 236.291C202.015 242.081 200.441 247.755 200.441 247.821C200.441 247.886 200.309 248.017 200.195 248.017H200.113V248.034ZM192.618 236.931L199.981 247.017C202.95 236.308 205.279 224.713 203.95 223.696C203.885 223.647 203.819 223.631 203.737 223.614C203.655 223.598 203.589 223.614 203.507 223.631C201.179 224.09 194.947 233.225 192.618 236.931Z" fill="#141E1F"/>
<path d="M197.587 283.95L138.35 295.102L133.315 222.827L193.618 211.609L197.587 283.95Z" fill="#00919B"/>
<path d="M232.88 237.062C232.88 237.062 234.832 261.383 222.925 275.947C206.23 296.299 185.304 297.627 167.165 275.947C149.01 254.266 157.014 250.559 160.228 251.691C163.442 252.823 172.643 264.04 172.643 264.04C172.643 264.04 161.999 242.179 164.197 237.325C166.411 232.47 170.872 235.504 170.872 235.504C170.872 235.504 170.429 229.272 176.284 229.584C179.564 229.764 180.63 231.404 180.63 231.404C180.63 231.404 181.646 225.353 185.664 225.992C189.699 226.615 200.605 246.033 202.671 249.247C204.77 252.445 232.88 237.062 232.88 237.062Z" fill="#F7FCFC"/>
<path d="M195.127 292.018C185.369 292.018 175.595 286.541 166.968 276.143C154.045 260.711 154.685 254.79 156.128 252.642C156.62 252.019 157.276 251.56 158.03 251.33C158.785 251.1 159.605 251.117 160.343 251.379C162.803 252.265 168.526 258.694 171.314 261.974C168.674 256.234 162.048 241.244 163.885 237.21C164.098 236.636 164.443 236.127 164.869 235.701C165.296 235.274 165.82 234.946 166.394 234.75C167.772 234.356 169.232 234.454 170.56 234.996C170.511 233.405 171.085 231.847 172.134 230.65C172.676 230.125 173.332 229.731 174.053 229.485C174.775 229.239 175.529 229.174 176.284 229.256C178.612 229.387 179.875 230.207 180.449 230.764C180.892 229.19 182.27 225.09 185.746 225.664C189.207 226.238 194.947 235.816 201.244 246.197C201.999 247.525 202.638 248.526 203.016 249.1C203.393 249.657 212.659 248.526 232.7 236.816C232.749 236.783 232.798 236.783 232.864 236.783C232.913 236.783 232.978 236.8 233.028 236.816C233.159 236.816 233.224 236.947 233.224 237.062C233.224 237.177 235.045 261.695 223.204 276.127C214.692 286.459 205.066 291.936 195.226 292.002H195.127V292.018ZM159.096 251.806C158.621 251.806 158.162 251.904 157.735 252.117C157.309 252.33 156.932 252.626 156.653 253.003C155.587 254.643 154.39 260.055 167.428 275.684C176.005 285.95 185.566 291.379 195.144 291.379H195.209C204.852 291.313 214.299 285.901 222.679 275.684C233.454 262.646 232.765 241.146 232.568 237.62C228.222 240.145 205.033 253.38 202.442 249.395L200.67 246.492C197.144 240.572 188.764 226.763 185.615 226.271C182.466 225.762 180.958 231.371 180.958 231.437C180.958 231.502 180.826 231.634 180.712 231.683L180.4 231.552C180.4 231.552 179.4 230.043 176.3 229.846C175.628 229.78 174.955 229.846 174.316 230.043C173.676 230.256 173.086 230.584 172.577 231.043C171.003 232.683 171.183 235.389 171.183 235.455C171.183 235.504 171.15 235.57 171.118 235.602C171.085 235.652 171.036 235.684 170.986 235.701H170.675C170.675 235.701 168.461 234.635 166.575 235.258C165.607 235.668 164.836 236.439 164.426 237.406C162.344 242.064 172.807 263.614 172.872 263.81C172.938 264.007 172.938 264.188 172.807 264.253C172.741 264.286 172.659 264.302 172.577 264.286C172.495 264.27 172.43 264.237 172.364 264.188C172.298 264.056 163.229 253.036 160.08 251.904L159.096 251.806Z" fill="#141E1F"/>
<path d="M174.348 185.779H174.283L154.816 184.205C154.619 184.205 154.504 184.074 154.57 183.893C154.57 183.811 154.603 183.729 154.668 183.664C154.734 183.598 154.799 183.565 154.898 183.565L174.365 185.14C174.447 185.14 174.529 185.173 174.594 185.238C174.66 185.304 174.693 185.369 174.693 185.468C174.594 185.648 174.463 185.779 174.348 185.779Z" fill="#141E1F"/>
<path d="M175.037 191.946H174.972L154.816 190.994C154.685 190.994 154.504 190.798 154.57 190.683C154.636 190.552 154.701 190.306 154.882 190.371L175.054 191.322C175.136 191.339 175.218 191.388 175.283 191.454C175.332 191.519 175.365 191.601 175.365 191.7C175.349 191.814 175.168 191.946 175.037 191.946Z" fill="#141E1F"/>
<path d="M172.643 199.26L154.816 198.637C154.685 198.571 154.504 198.44 154.57 198.259C154.57 198.227 154.57 198.177 154.586 198.145C154.603 198.112 154.619 198.079 154.652 198.046C154.685 198.03 154.718 198.013 154.75 197.997C154.783 197.981 154.832 197.997 154.865 197.997L172.643 198.62C172.725 198.62 172.807 198.653 172.872 198.719C172.938 198.784 172.971 198.866 172.971 198.948C172.971 199.03 172.938 199.112 172.872 199.178C172.807 199.227 172.725 199.26 172.643 199.26Z" fill="#141E1F"/>
<path d="M139.876 227.041C139.285 227.058 138.679 226.959 138.105 226.795C138.055 226.779 138.023 226.763 137.99 226.73C137.957 226.697 137.924 226.664 137.908 226.615C137.891 226.582 137.875 226.533 137.875 226.484C137.875 226.435 137.891 226.385 137.908 226.353C137.973 226.221 138.154 226.107 138.285 226.172C139.482 226.599 140.794 226.533 141.942 225.992C143.09 225.451 143.976 224.467 144.402 223.286C144.615 222.695 144.697 222.072 144.665 221.449C144.632 220.826 144.484 220.219 144.205 219.661C143.943 219.104 143.566 218.595 143.09 218.185C142.631 217.775 142.09 217.447 141.499 217.251C140.302 216.824 138.99 216.89 137.842 217.431C136.694 217.972 135.809 218.956 135.382 220.153C135.317 220.285 135.136 220.399 135.005 220.35C134.956 220.334 134.923 220.317 134.89 220.285C134.857 220.252 134.825 220.219 134.808 220.17C134.792 220.121 134.775 220.088 134.775 220.039C134.775 219.989 134.792 219.94 134.808 219.907C135.169 218.907 135.825 218.038 136.678 217.415C137.531 216.791 138.547 216.414 139.613 216.365C140.679 216.316 141.729 216.562 142.647 217.103C143.566 217.644 144.304 218.448 144.763 219.399C145.075 220.039 145.255 220.727 145.288 221.433C145.321 222.138 145.206 222.843 144.96 223.499C144.599 224.565 143.91 225.483 142.992 226.123C142.09 226.73 140.991 227.058 139.876 227.041Z" fill="#141E1F"/>
<path d="M151.979 224.582C151.355 224.598 150.732 224.5 150.158 224.27C150.093 224.237 150.027 224.188 149.994 224.122C149.961 224.057 149.945 223.975 149.978 223.893C149.994 223.844 150.011 223.811 150.043 223.778C150.076 223.745 150.109 223.712 150.158 223.696C150.207 223.68 150.24 223.663 150.289 223.663C150.339 223.663 150.388 223.68 150.421 223.696C151.306 223.991 152.257 224.024 153.159 223.778C154.061 223.532 154.881 223.04 155.505 222.335C156.128 221.646 156.538 220.777 156.669 219.858C156.8 218.94 156.669 217.989 156.275 217.136C156.013 216.562 155.636 216.054 155.16 215.627C154.701 215.201 154.143 214.889 153.553 214.676C152.372 214.299 151.093 214.364 149.961 214.873C149.387 215.135 148.879 215.512 148.453 215.988C148.026 216.447 147.698 217.005 147.501 217.595C147.485 217.644 147.469 217.677 147.436 217.71C147.403 217.743 147.37 217.776 147.321 217.792C147.272 217.808 147.239 217.825 147.19 217.825C147.141 217.825 147.091 217.808 147.059 217.792C146.993 217.759 146.927 217.71 146.895 217.644C146.862 217.579 146.845 217.497 146.878 217.415C147.37 216.07 148.354 214.955 149.65 214.332C150.289 214.02 150.995 213.84 151.716 213.807C152.438 213.774 153.143 213.889 153.815 214.135C154.488 214.364 155.095 214.742 155.603 215.217C156.128 215.693 156.538 216.267 156.833 216.906C157.456 218.186 157.538 219.662 157.079 221.006C156.587 222.351 155.603 223.466 154.307 224.09C153.569 224.401 152.782 224.582 151.979 224.582Z" fill="#141E1F"/>
<path d="M164 222.007C163.393 221.99 162.803 221.892 162.229 221.695C162.179 221.695 162.147 221.679 162.114 221.646C162.081 221.63 162.048 221.597 162.032 221.548C162.015 221.515 161.999 221.466 161.999 221.433C161.999 221.4 162.015 221.351 162.032 221.318C162.032 221.121 162.229 221.072 162.409 221.072C163.59 221.498 164.902 221.433 166.05 220.892C167.198 220.35 168.067 219.383 168.493 218.202C168.92 217.021 168.854 215.709 168.313 214.561C167.772 213.413 166.804 212.544 165.623 212.118C164.426 211.691 163.114 211.757 161.966 212.298C160.818 212.839 159.933 213.823 159.506 215.004C159.441 215.135 159.26 215.25 159.129 215.201C159.08 215.201 159.047 215.184 159.014 215.152C158.981 215.119 158.949 215.102 158.932 215.053C158.916 215.02 158.899 214.971 158.899 214.938C158.899 214.889 158.916 214.856 158.932 214.824C159.408 213.479 160.392 212.364 161.671 211.74C162.95 211.117 164.443 211.019 165.787 211.494C167.132 212.003 168.231 212.987 168.871 214.266C169.461 215.578 169.527 217.07 169.067 218.432C168.69 219.481 167.985 220.383 167.083 221.023C166.214 221.646 165.115 221.99 164 222.007Z" fill="#141E1F"/>
<path d="M175.66 219.547C175.037 219.547 174.414 219.432 173.84 219.235C173.791 219.219 173.758 219.202 173.725 219.17C173.693 219.137 173.66 219.104 173.643 219.055C173.627 219.006 173.61 218.973 173.61 218.924C173.61 218.874 173.627 218.825 173.643 218.792C173.709 218.661 173.889 218.546 174.02 218.596C174.611 218.809 175.234 218.907 175.874 218.891C176.497 218.858 177.12 218.71 177.694 218.432C178.268 218.169 178.776 217.776 179.186 217.316C179.613 216.841 179.924 216.3 180.138 215.709C180.351 215.119 180.433 214.496 180.4 213.872C180.367 213.249 180.22 212.642 179.941 212.085C179.678 211.527 179.301 211.019 178.826 210.609C178.366 210.199 177.825 209.871 177.235 209.674C176.038 209.248 174.726 209.313 173.578 209.854C172.43 210.396 171.544 211.38 171.118 212.56C171.118 212.692 170.921 212.806 170.74 212.741C170.691 212.724 170.658 212.708 170.626 212.675C170.593 212.642 170.56 212.61 170.544 212.56C170.527 212.528 170.511 212.478 170.527 212.429C170.527 212.38 170.544 212.331 170.56 212.298C170.921 211.298 171.577 210.428 172.43 209.805C173.282 209.182 174.299 208.805 175.365 208.756C176.431 208.706 177.481 208.952 178.399 209.494C179.318 210.035 180.056 210.838 180.515 211.79C180.908 212.61 181.089 213.528 181.04 214.43C180.99 215.332 180.712 216.218 180.22 216.988C179.728 217.759 179.072 218.399 178.268 218.842C177.481 219.301 176.579 219.547 175.66 219.547Z" fill="#141E1F"/>
<path d="M187.583 216.956C186.976 216.972 186.386 216.874 185.812 216.71C185.763 216.693 185.73 216.677 185.697 216.644C185.664 216.611 185.631 216.578 185.615 216.529C185.599 216.48 185.582 216.447 185.582 216.398C185.582 216.349 185.599 216.3 185.615 216.267C185.615 216.136 185.812 216.021 185.992 216.07C186.583 216.283 187.206 216.382 187.829 216.349C188.452 216.316 189.059 216.168 189.633 215.906C190.191 215.644 190.699 215.266 191.125 214.807C191.552 214.348 191.863 213.807 192.077 213.216C192.29 212.626 192.372 212.003 192.355 211.38C192.323 210.756 192.175 210.15 191.913 209.576C191.65 209.018 191.273 208.51 190.814 208.083C190.355 207.657 189.813 207.345 189.223 207.132C188.633 206.919 188.009 206.82 187.37 206.837C186.747 206.87 186.123 207.017 185.549 207.296C184.975 207.575 184.467 207.952 184.057 208.411C183.631 208.887 183.319 209.428 183.106 210.035C183.04 210.166 182.86 210.281 182.729 210.215C182.679 210.199 182.647 210.182 182.614 210.15C182.581 210.117 182.548 210.084 182.532 210.035C182.515 209.986 182.499 209.953 182.499 209.904C182.499 209.854 182.515 209.822 182.532 209.772C182.761 209.116 183.106 208.51 183.581 207.985C184.041 207.46 184.615 207.05 185.254 206.755C185.894 206.427 186.599 206.246 187.304 206.197C188.026 206.148 188.731 206.263 189.403 206.492C190.633 206.886 191.699 207.706 192.372 208.821C193.044 209.936 193.29 211.248 193.077 212.528C192.847 213.807 192.175 214.955 191.158 215.775C190.141 216.595 188.879 217.021 187.583 216.956Z" fill="#141E1F"/>
<path d="M182.794 258.103C182.663 258.103 182.598 258.038 182.548 257.906L170.576 235.602C170.544 235.537 170.544 235.455 170.576 235.389C170.609 235.324 170.642 235.258 170.708 235.225C170.74 235.192 170.773 235.16 170.822 235.143C170.872 235.127 170.921 235.127 170.97 235.143C171.019 235.16 171.052 235.176 171.085 235.225C171.118 235.258 171.134 235.307 171.15 235.356L183.122 257.595C183.155 257.677 183.155 257.759 183.139 257.841C183.122 257.923 183.073 257.988 183.008 258.038L182.794 258.103Z" fill="#141E1F"/>
<path d="M192.241 252.003C192.175 252.003 192.11 251.986 192.044 251.953C191.995 251.921 191.946 251.871 191.913 251.806L180.384 231.519C180.252 231.388 180.318 231.207 180.515 231.142C180.712 231.076 180.826 231.076 180.958 231.273L192.487 251.494C192.52 251.576 192.52 251.658 192.503 251.74C192.487 251.822 192.438 251.888 192.372 251.937L192.241 252.003Z" fill="#141E1F"/>
<path d="M169.117 272.289C169.051 272.289 168.985 272.273 168.936 272.24C168.887 272.207 168.838 272.158 168.805 272.092C168.772 272.01 168.789 271.912 168.821 271.83C168.854 271.748 168.92 271.682 169.002 271.65C195.586 263.335 202.392 249.28 202.458 249.1C202.491 249.034 202.556 248.985 202.622 248.968C202.687 248.952 202.769 248.952 202.835 248.968C202.868 248.968 202.917 248.985 202.95 249.018C202.983 249.034 203.015 249.067 203.032 249.116C203.048 249.149 203.065 249.198 203.065 249.231C203.065 249.264 203.048 249.313 203.032 249.346C202.966 249.542 196.095 263.909 169.199 272.289H169.117Z" fill="#141E1F"/>
<path d="M207.739 270.583L207.427 270.452L197.276 256.151C197.259 256.119 197.243 256.069 197.227 256.037C197.227 255.987 197.227 255.955 197.243 255.905C197.259 255.873 197.276 255.823 197.309 255.791C197.341 255.758 197.374 255.725 197.407 255.709C197.473 255.676 197.555 255.659 197.637 255.676C197.719 255.692 197.784 255.725 197.85 255.774L208.001 270.075C208.067 270.272 208.067 270.452 207.87 270.518C207.673 270.583 207.805 270.583 207.739 270.583Z" fill="#141E1F"/>
<path d="M204.328 265.352C204.197 265.352 204.147 265.287 204.082 265.155C204.016 265.024 204.016 264.844 204.213 264.713L211.085 260.924C211.167 260.891 211.249 260.891 211.331 260.908C211.413 260.924 211.478 260.973 211.527 261.039C211.56 261.072 211.593 261.105 211.609 261.154C211.626 261.203 211.626 261.252 211.609 261.301C211.593 261.351 211.577 261.383 211.527 261.416C211.495 261.449 211.445 261.465 211.396 261.482L204.525 265.27L204.328 265.352Z" fill="#141E1F"/>
<path d="M138.104 297.611H205.836V302.908H132.758C132.758 302.203 132.889 301.514 133.168 300.874C133.43 300.235 133.84 299.644 134.332 299.152C134.824 298.66 135.415 298.267 136.071 298.004C136.71 297.742 137.415 297.611 138.104 297.611Z" fill="#141E1F"/>
<path d="M296.397 302.596H200.752L224.696 245.508H320.341L296.397 302.596Z" fill="#F7FCFC"/>
<path d="M296.397 302.908H200.752L200.506 302.777C200.474 302.728 200.474 302.678 200.474 302.613C200.474 302.564 200.49 302.498 200.506 302.449L224.385 245.36C224.418 245.295 224.45 245.246 224.516 245.213C224.565 245.18 224.631 245.164 224.696 245.164H320.341C320.39 245.164 320.44 245.164 320.489 245.196C320.538 245.213 320.571 245.262 320.587 245.295C320.62 245.344 320.636 245.393 320.636 245.459C320.636 245.508 320.62 245.574 320.587 245.623L296.709 302.711C296.676 302.777 296.643 302.826 296.578 302.859C296.528 302.908 296.463 302.924 296.397 302.908ZM201.244 302.285H296.2L319.833 245.82H224.877L201.244 302.285Z" fill="#141E1F"/>
<path d="M110.635 161.261C114.226 161.261 117.129 158.358 117.129 154.767C117.129 151.175 114.226 148.272 110.635 148.272C107.043 148.272 104.14 151.175 104.14 154.767C104.14 158.358 107.059 161.261 110.635 161.261Z" fill="#F7FCFC"/>
<path d="M113.849 154.587C113.832 154.587 113.816 154.587 113.799 154.57C113.783 154.554 113.783 154.537 113.783 154.521L106.977 152.373C106.846 152.307 106.731 152.127 106.78 151.995C106.813 151.913 106.862 151.848 106.928 151.799C106.993 151.749 107.075 151.733 107.157 151.733L113.963 153.931C114.029 153.963 114.095 154.013 114.127 154.078C114.16 154.144 114.177 154.226 114.144 154.308C114.111 154.373 114.078 154.423 114.013 154.472C113.98 154.537 113.914 154.57 113.849 154.587Z" fill="#141E1F"/>
<path d="M110.454 157.358C110.388 157.358 110.323 157.325 110.274 157.292C110.224 157.243 110.192 157.178 110.192 157.112L109.618 153.209C109.618 153.127 109.65 153.045 109.683 152.979C109.732 152.914 109.782 152.864 109.864 152.832C109.962 152.832 110.044 152.864 110.11 152.914C110.175 152.979 110.224 153.045 110.241 153.143L110.749 156.981C110.766 157.014 110.782 157.063 110.782 157.112C110.782 157.161 110.766 157.21 110.733 157.243C110.7 157.276 110.667 157.309 110.618 157.325C110.569 157.342 110.52 157.358 110.487 157.342H110.454V157.358Z" fill="#141E1F"/>
<path d="M112.471 260.94C112.389 260.924 112.307 260.875 112.242 260.809C112.176 260.744 112.16 260.645 112.16 260.563L113.291 245.82C113.291 245.738 113.324 245.656 113.39 245.59C113.455 245.524 113.521 245.492 113.619 245.492C113.701 245.508 113.783 245.557 113.849 245.623C113.914 245.688 113.931 245.787 113.931 245.869L112.799 260.612C112.799 260.694 112.766 260.776 112.701 260.842C112.635 260.908 112.553 260.94 112.471 260.94Z" fill="#141E1F"/>
<path d="M151.028 206.181L157.588 211.101L157.965 206.689L151.028 206.181Z" fill="#141E1F"/>
<path d="M195.833 231.699L200.753 245.442L194.947 236.242L194.767 232.585L195.833 231.699Z" fill="#141E1F"/>
<path d="M116.62 146.14C116.604 144.681 116.456 143.221 116.177 141.794C116.177 141.794 129.921 141.105 131.118 130.823C131.118 130.823 147.305 136.497 150.585 127.854C153.865 119.228 142.45 115.128 131.118 120.163C119.785 125.197 101.631 135.611 109.125 148.092C111.208 151.552 116.555 150.175 116.62 146.14Z" fill="#141E1F"/>
<path d="M107.108 130.446C107.108 130.446 108.174 104.239 136.973 115.391L107.108 130.446Z" fill="#F7FCFC"/>
<path d="M107.108 130.757C107.026 130.757 106.944 130.724 106.879 130.659C106.813 130.593 106.78 130.528 106.78 130.429C106.78 130.298 107.289 119.851 114.849 114.866C120.146 111.34 127.641 111.471 137.087 115.062C137.137 115.079 137.169 115.112 137.202 115.128C137.235 115.161 137.251 115.194 137.284 115.243C137.301 115.276 137.317 115.325 137.317 115.374C137.317 115.423 137.317 115.456 137.301 115.505C137.284 115.554 137.268 115.587 137.235 115.62C137.202 115.653 137.169 115.669 137.12 115.702C137.071 115.735 137.038 115.735 136.989 115.735C136.94 115.735 136.907 115.735 136.858 115.718C127.657 112.127 120.343 112.061 115.177 115.407C107.928 120.196 107.42 130.347 107.42 130.462C107.42 130.544 107.387 130.626 107.321 130.692C107.272 130.724 107.19 130.757 107.108 130.757Z" fill="#141E1F"/>
<path d="M106.862 138.318L107.928 139.892C107.928 139.892 117.571 121.557 143.09 118.408C142.434 117.424 141.532 116.637 140.466 116.129C139.4 115.62 138.219 115.407 137.038 115.505C130.429 116.014 116.883 118.589 107.108 130.38C106.206 131.495 105.698 132.873 105.665 134.316C105.616 135.743 106.026 137.153 106.862 138.318Z" fill="#F7FCFC"/>
<path d="M107.928 140.22L107.682 140.089L106.551 138.514C105.714 137.268 105.304 135.792 105.37 134.299C105.436 132.807 105.993 131.364 106.928 130.199C116.637 118.473 129.921 115.767 137.055 115.21C138.285 115.111 139.515 115.341 140.614 115.866C141.729 116.391 142.664 117.211 143.352 118.227C143.402 118.26 143.434 118.309 143.434 118.375C143.451 118.424 143.434 118.49 143.402 118.539L143.156 118.736C118.08 121.819 108.306 139.843 108.174 140.023C108.06 140.22 108.06 140.22 107.928 140.22ZM137.612 115.833H137.104C130.118 116.407 116.932 119.047 107.354 130.577C106.518 131.643 106.042 132.955 105.993 134.316C105.944 135.677 106.338 137.005 107.092 138.137L107.846 139.334C109.552 136.497 119.687 121.179 142.5 118.162C141.909 117.424 141.155 116.833 140.302 116.44C139.482 116.03 138.547 115.817 137.612 115.833Z" fill="#141E1F"/>
<path d="M110.635 161.507C109.437 161.524 108.257 161.196 107.24 160.556C106.469 160.113 105.78 159.523 105.239 158.818C104.698 158.112 104.304 157.292 104.075 156.44C103.845 155.57 103.796 154.685 103.927 153.799C104.058 152.914 104.37 152.077 104.829 151.306C105.747 149.765 107.24 148.65 108.962 148.207C110.7 147.764 112.537 148.01 114.079 148.912C114.275 148.978 114.275 149.158 114.21 149.355C114.161 149.42 114.079 149.47 113.997 149.47C113.915 149.486 113.833 149.453 113.767 149.404C112.357 148.65 110.717 148.469 109.175 148.896C107.633 149.322 106.321 150.339 105.518 151.716C104.714 153.094 104.468 154.734 104.845 156.292C105.223 157.85 106.19 159.195 107.535 160.048C108.945 160.851 110.635 161.081 112.209 160.671C113.783 160.261 115.145 159.244 115.981 157.85C116.014 157.784 116.079 157.735 116.145 157.719C116.211 157.702 116.293 157.702 116.358 157.719C116.555 157.85 116.604 158.03 116.489 158.162C116.047 158.949 115.456 159.621 114.735 160.162C114.013 160.704 113.209 161.097 112.324 161.31C111.783 161.442 111.209 161.507 110.635 161.507Z" fill="#141E1F"/>
<path d="M110.634 135.365H110.438C106.649 132.151 107.846 129.183 107.912 129.068C107.961 129.002 108.027 128.953 108.109 128.937C108.191 128.92 108.273 128.92 108.355 128.953C108.42 128.986 108.47 129.051 108.486 129.117C108.502 129.183 108.502 129.265 108.486 129.33C108.42 129.461 107.42 132.036 110.88 134.939C111.012 135.005 111.012 135.185 110.88 135.382H110.634V135.365Z" fill="#141E1F"/>
<path d="M115.423 131.085H115.292C112.455 130.085 111.635 125.788 111.569 125.608C111.569 125.526 111.602 125.444 111.635 125.378C111.668 125.312 111.733 125.263 111.815 125.23C112.012 125.23 112.193 125.296 112.193 125.476C112.193 125.673 113.013 129.576 115.538 130.462C115.62 130.495 115.669 130.56 115.719 130.642C115.751 130.724 115.751 130.806 115.735 130.905C115.702 130.97 115.669 131.02 115.604 131.052C115.555 131.069 115.489 131.085 115.423 131.085Z" fill="#141E1F"/>
<path d="M120.409 126.608C120.327 126.608 120.245 126.575 120.179 126.51C120.113 126.444 120.081 126.378 120.081 126.28C120.015 125.46 118.129 123.197 116.932 122C116.883 121.934 116.866 121.868 116.866 121.786C116.866 121.704 116.899 121.639 116.965 121.59C117.014 121.54 117.096 121.508 117.161 121.491C117.243 121.491 117.309 121.508 117.375 121.557C117.686 121.868 120.589 124.902 120.72 126.214C120.72 126.28 120.704 126.362 120.655 126.411C120.605 126.477 120.54 126.51 120.474 126.526L120.409 126.608Z" fill="#141E1F"/>
<path d="M126.263 123.64C126.181 123.64 126.099 123.607 126.034 123.541C125.968 123.476 125.935 123.41 125.935 123.312C125.87 121.049 122.852 119.097 122.787 119.097C122.754 119.064 122.721 119.048 122.705 118.999C122.688 118.966 122.672 118.917 122.672 118.884C122.672 118.851 122.672 118.802 122.672 118.769C122.688 118.736 122.705 118.687 122.721 118.654C122.77 118.589 122.852 118.539 122.934 118.539C123.016 118.523 123.098 118.556 123.164 118.605C123.295 118.671 126.509 120.753 126.559 123.328C126.559 123.41 126.526 123.492 126.46 123.558C126.427 123.607 126.345 123.64 126.263 123.64Z" fill="#141E1F"/>
<path d="M133.004 120.36C132.938 120.36 132.873 120.343 132.824 120.31C132.774 120.278 132.725 120.228 132.692 120.163C132.332 118.9 131.544 117.785 130.495 117.014C130.462 116.998 130.429 116.965 130.396 116.932C130.364 116.899 130.347 116.866 130.331 116.817C130.314 116.768 130.314 116.735 130.314 116.686C130.314 116.637 130.331 116.604 130.364 116.571C130.413 116.506 130.478 116.456 130.56 116.44C130.642 116.424 130.724 116.424 130.806 116.456C132.004 117.326 132.889 118.572 133.332 119.982C133.398 120.179 133.266 120.294 133.086 120.36H133.004Z" fill="#141E1F"/>
<path d="M138.859 119.162C138.793 119.146 138.728 119.113 138.678 119.08C138.629 119.031 138.58 118.982 138.547 118.916C137.924 116.965 135.841 115.899 135.841 115.899C135.792 115.899 135.743 115.866 135.71 115.833C135.677 115.8 135.644 115.768 135.628 115.718C135.612 115.669 135.612 115.62 135.628 115.571C135.644 115.522 135.661 115.489 135.71 115.456C135.743 115.39 135.808 115.341 135.874 115.325C135.94 115.308 136.022 115.308 136.087 115.325C137.498 116.03 138.58 117.244 139.105 118.72C139.121 118.752 139.138 118.802 139.138 118.851C139.138 118.9 139.138 118.949 139.105 118.982C139.088 119.031 139.056 119.064 139.023 119.097C138.99 119.13 138.941 119.146 138.908 119.162H138.859Z" fill="#141E1F"/>
<path d="M140.384 134.349C133.775 134.349 131.003 131.134 130.872 131.003C130.839 130.938 130.823 130.856 130.839 130.774C130.856 130.692 130.889 130.626 130.938 130.56C130.971 130.528 131.003 130.495 131.036 130.478C131.085 130.462 131.118 130.462 131.167 130.462C131.217 130.462 131.249 130.495 131.299 130.511C131.331 130.544 131.364 130.577 131.381 130.626C131.381 130.626 134.152 133.84 140.761 133.709C140.843 133.709 140.909 133.726 140.958 133.775C141.024 133.824 141.057 133.89 141.073 133.955C141.139 134.152 140.942 134.267 140.827 134.332H140.384V134.349Z" fill="#141E1F"/>
<path d="M141.073 152.372H140.942C140.892 152.356 140.86 152.339 140.827 152.307C140.794 152.274 140.761 152.241 140.745 152.192C140.728 152.143 140.712 152.11 140.712 152.061C140.712 152.011 140.728 151.962 140.745 151.929C140.81 151.864 144.271 144.615 141.745 142.04C141.598 141.876 141.417 141.745 141.204 141.663C140.991 141.581 140.761 141.565 140.548 141.597C138.777 141.975 136.825 146.189 136.268 147.78C136.251 147.829 136.235 147.862 136.202 147.895C136.169 147.928 136.136 147.961 136.087 147.977C136.038 147.993 136.005 148.01 135.956 148.01C135.907 148.01 135.858 147.993 135.825 147.977C135.759 147.944 135.694 147.895 135.661 147.829C135.628 147.764 135.612 147.682 135.644 147.6C135.776 147.354 137.973 141.548 140.433 141.04C140.745 140.974 141.089 140.991 141.384 141.089C141.696 141.187 141.975 141.368 142.188 141.614C145.025 144.517 141.499 151.88 141.302 152.192C141.138 152.503 141.204 152.372 141.073 152.372Z" fill="#141E1F"/>
<path d="M136.35 162.705C133.709 162.705 131.118 160.933 130.938 160.884C130.889 160.819 130.839 160.753 130.839 160.671C130.823 160.589 130.839 160.507 130.872 160.441C130.921 160.376 131.003 160.327 131.085 160.327C131.167 160.31 131.249 160.343 131.315 160.392C131.381 160.392 135.038 162.852 137.924 161.835C137.957 161.819 138.006 161.803 138.039 161.803C138.088 161.803 138.121 161.803 138.154 161.835C138.187 161.852 138.219 161.885 138.252 161.917C138.269 161.95 138.285 161.999 138.301 162.032C138.318 162.065 138.334 162.114 138.334 162.147C138.334 162.196 138.334 162.229 138.301 162.262C138.285 162.295 138.252 162.327 138.219 162.36C138.187 162.377 138.137 162.393 138.105 162.409C137.547 162.623 136.957 162.737 136.35 162.705Z" fill="#141E1F"/>
<path d="M151.224 175.628L143.221 160.244L152.733 155.456L163.377 176.628L151.224 175.628Z" fill="#4CBDC7"/>
<path d="M148.601 159.49C151.208 158.178 153.012 156.489 152.635 155.718C152.241 154.947 149.814 155.373 147.19 156.685C144.583 157.997 142.779 159.687 143.156 160.457C143.549 161.245 145.977 160.802 148.601 159.49Z" fill="#141E1F"/>
<path d="M145.73 163.213C145.386 163.246 145.041 163.213 144.73 163.082C144.533 163.082 144.484 162.885 144.484 162.704C144.517 162.639 144.566 162.573 144.631 162.54C144.697 162.508 144.779 162.491 144.861 162.524C144.927 162.524 149.404 163.344 153.619 158.178C153.668 158.112 153.75 158.063 153.832 158.047C153.914 158.03 153.996 158.063 154.061 158.112C154.111 158.129 154.143 158.162 154.176 158.194C154.209 158.227 154.225 158.276 154.225 158.326C154.225 158.375 154.225 158.424 154.209 158.457C154.193 158.506 154.16 158.539 154.127 158.555C150.781 162.639 147.37 163.213 145.73 163.213Z" fill="#141E1F"/>
<path d="M153.996 176.382C153.865 176.382 153.75 176.317 153.75 176.185L146.944 162.885C146.928 162.852 146.911 162.803 146.911 162.77C146.911 162.721 146.911 162.688 146.944 162.655C146.96 162.623 146.993 162.59 147.026 162.557C147.059 162.541 147.108 162.524 147.141 162.508C147.272 162.377 147.452 162.442 147.518 162.639L154.324 175.939C154.34 175.972 154.357 176.021 154.357 176.054C154.357 176.087 154.357 176.136 154.324 176.169C154.308 176.202 154.275 176.235 154.242 176.267C154.209 176.284 154.16 176.3 154.127 176.317C154.111 176.382 154.045 176.382 153.996 176.382Z" fill="#141E1F"/>
<path d="M160.474 176.694C160.409 176.694 160.343 176.677 160.294 176.645C160.245 176.612 160.195 176.563 160.163 176.497L152.028 160.245C151.897 160.113 151.963 159.933 152.159 159.802C152.192 159.785 152.241 159.769 152.274 159.769C152.323 159.769 152.356 159.769 152.389 159.802C152.422 159.818 152.455 159.851 152.487 159.884C152.504 159.917 152.52 159.966 152.537 159.999L160.72 176.251C160.737 176.333 160.737 176.415 160.72 176.481C160.704 176.563 160.655 176.628 160.589 176.677H160.474V176.694Z" fill="#141E1F"/>
<path d="M173.151 183.565H173.086C171.708 183.122 170.937 182.499 170.757 181.614C170.577 180.728 171.954 178.53 172.02 178.465C172.085 178.416 172.151 178.383 172.233 178.383C172.315 178.383 172.397 178.416 172.463 178.465C172.594 178.596 172.594 178.842 172.463 178.908C172.331 178.973 171.069 180.285 171.397 181.499C171.708 182.696 172.151 182.63 173.283 183.008C173.414 183.008 173.529 183.204 173.479 183.385C173.447 183.45 173.414 183.5 173.348 183.532C173.283 183.549 173.217 183.565 173.151 183.565Z" fill="#141E1F"/>
<path d="M172.643 190.125H172.512C170.937 189.683 170.052 188.928 169.806 187.977C169.56 187.026 170.757 185.271 170.823 185.205C170.888 185.173 170.97 185.156 171.036 185.156C171.118 185.156 171.183 185.173 171.249 185.205C171.315 185.271 171.347 185.369 171.347 185.451C171.347 185.55 171.315 185.632 171.249 185.697C171.183 185.697 170.117 186.763 170.363 187.846C170.609 188.912 171.364 189.109 172.692 189.551C172.889 189.551 172.938 189.732 172.938 189.929C172.905 189.994 172.873 190.043 172.807 190.076C172.774 190.109 172.709 190.125 172.643 190.125Z" fill="#141E1F"/>
<path d="M172.069 196.931H172.003C170.281 196.423 169.33 195.668 169.166 194.668C168.855 193.093 170.544 191.585 170.609 191.519C170.675 191.454 170.987 191.388 171.052 191.519C171.118 191.585 171.151 191.65 171.151 191.732C171.151 191.814 171.118 191.896 171.052 191.946C171.052 191.946 169.543 193.323 169.789 194.537C170.035 195.734 170.741 195.931 172.184 196.374C172.315 196.439 172.43 196.619 172.381 196.751C172.348 196.8 172.299 196.849 172.249 196.882C172.2 196.898 172.135 196.915 172.069 196.931Z" fill="#141E1F"/>
<path d="M170.757 204.426H170.691C168.674 203.803 167.543 202.917 167.28 201.786C167.034 200.211 168.855 198.768 168.92 198.702C168.986 198.653 169.051 198.604 169.133 198.604C169.215 198.604 169.297 198.637 169.347 198.702C169.396 198.784 169.429 198.866 169.412 198.965C169.396 199.063 169.363 199.145 169.281 199.211C169.281 199.211 167.707 200.474 167.887 201.736C168.084 202.999 169.084 203.311 170.855 203.819C170.987 203.885 171.101 204.065 171.036 204.196C171.003 204.262 170.97 204.311 170.905 204.36C170.888 204.377 170.823 204.41 170.757 204.426Z" fill="#141E1F"/>
<path d="M158.719 259.678C157.719 259.661 156.767 259.317 156.013 258.677C155.964 258.661 155.915 258.628 155.882 258.595C155.849 258.563 155.816 258.513 155.8 258.464C155.783 258.415 155.783 258.366 155.8 258.317C155.816 258.267 155.833 258.218 155.866 258.185C155.898 258.153 155.947 258.12 155.997 258.103C156.046 258.087 156.095 258.071 156.144 258.087C156.193 258.087 156.243 258.12 156.292 258.136C156.341 258.169 156.374 258.202 156.39 258.251C157.145 258.825 158.096 259.104 159.031 259.005C159.654 258.907 160.244 258.677 160.769 258.349C161.294 258.021 161.753 257.579 162.114 257.054C162.147 257.021 162.163 256.988 162.212 256.972C162.245 256.955 162.294 256.939 162.327 256.939C162.36 256.939 162.409 256.939 162.442 256.939C162.475 256.955 162.524 256.972 162.557 256.988C162.589 257.005 162.622 257.037 162.639 257.087C162.655 257.119 162.672 257.169 162.672 257.201C162.672 257.234 162.672 257.283 162.672 257.333C162.655 257.365 162.639 257.415 162.622 257.447C162.212 258.038 161.687 258.53 161.081 258.907C160.474 259.284 159.801 259.547 159.096 259.661L158.719 259.678Z" fill="#141E1F"/>
<path d="M168.1 243.113H167.854C165.525 242.917 163.82 240.719 163.754 240.653C163.688 240.588 163.623 240.276 163.754 240.211C163.885 240.145 164.131 240.079 164.197 240.276C164.262 240.473 165.837 242.359 167.854 242.474C168.379 242.507 168.904 242.408 169.379 242.195C169.855 241.982 170.281 241.67 170.626 241.277C170.691 241.227 170.757 241.211 170.839 241.211C170.921 241.211 170.986 241.244 171.036 241.309C171.085 241.359 171.118 241.441 171.134 241.506C171.134 241.588 171.118 241.654 171.068 241.719C170.708 242.146 170.248 242.49 169.74 242.736C169.215 242.982 168.674 243.097 168.1 243.113Z" fill="#141E1F"/>
<path d="M174.972 238.948C173.2 238.948 171.692 237.554 171.577 237.505C171.528 237.439 171.511 237.374 171.511 237.292C171.511 237.21 171.544 237.144 171.61 237.095C171.659 237.046 171.741 237.013 171.806 236.996C171.888 236.996 171.954 237.013 172.02 237.062C172.02 237.062 173.84 238.636 175.611 238.259C177.382 237.882 177.432 236.996 178.071 235.422C178.071 235.389 178.088 235.34 178.12 235.307C178.153 235.274 178.17 235.242 178.219 235.225C178.252 235.209 178.301 235.192 178.334 235.192C178.383 235.192 178.416 235.209 178.448 235.225C178.481 235.225 178.53 235.242 178.563 235.274C178.596 235.291 178.629 235.324 178.645 235.373C178.662 235.406 178.678 235.455 178.678 235.488C178.678 235.52 178.662 235.57 178.645 235.602C177.956 237.423 177.005 238.505 175.742 238.817L174.972 238.948Z" fill="#141E1F"/>
<path d="M184.172 233.847C183.123 233.815 182.106 233.503 181.204 232.962C181.138 232.913 181.089 232.831 181.073 232.749C181.056 232.667 181.089 232.585 181.138 232.519C181.204 232.322 181.45 232.322 181.581 232.388C182.516 233.06 183.664 233.323 184.795 233.142C185.353 233.027 185.878 232.798 186.337 232.453C186.796 232.125 187.173 231.683 187.452 231.191C187.501 231.125 187.583 231.076 187.665 231.059C187.747 231.043 187.829 231.076 187.895 231.125C188.075 231.191 188.075 231.437 188.026 231.568C187.682 232.142 187.223 232.634 186.681 233.011C186.14 233.388 185.517 233.651 184.877 233.782L184.172 233.847Z" fill="#141E1F"/>
<path d="M263.761 279.915C266.992 279.915 269.616 277.291 269.616 274.06C269.616 270.83 266.992 268.206 263.761 268.206C260.53 268.206 257.906 270.83 257.906 274.06C257.89 277.291 260.514 279.915 263.761 279.915Z" fill="#4CBDC7"/>
<path d="M294.757 118.408H167.542V129.823H294.757V118.408Z" fill="#87BEFF"/>
<path d="M279.128 129.249C279.046 129.249 278.964 129.216 278.898 129.15C278.833 129.085 278.8 129.019 278.8 128.921V119.097C278.8 119.015 278.833 118.933 278.898 118.867C278.964 118.802 279.029 118.769 279.128 118.769C279.226 118.769 279.292 118.802 279.341 118.867C279.39 118.933 279.439 118.999 279.439 119.097V128.921C279.439 128.97 279.439 129.003 279.423 129.035C279.407 129.068 279.39 129.101 279.357 129.134C279.325 129.167 279.292 129.183 279.259 129.199C279.21 129.249 279.177 129.249 279.128 129.249Z" fill="#141E1F"/>
<path d="M284.606 125.477C284.048 125.477 283.49 125.313 283.031 125.001C282.572 124.689 282.195 124.247 281.982 123.722C281.768 123.197 281.703 122.639 281.818 122.082C281.932 121.524 282.195 121.032 282.588 120.622C282.982 120.229 283.49 119.95 284.032 119.851C284.589 119.737 285.147 119.802 285.672 120.015C286.196 120.229 286.639 120.589 286.951 121.065C287.262 121.524 287.426 122.082 287.426 122.639C287.426 123.394 287.131 124.115 286.59 124.64C286.082 125.165 285.36 125.477 284.606 125.477ZM284.606 120.491C284.032 120.491 283.474 120.721 283.064 121.114C282.654 121.508 282.408 122.065 282.392 122.639C282.392 123.23 282.621 123.787 283.031 124.197C283.441 124.607 283.999 124.837 284.589 124.837C285.18 124.837 285.737 124.607 286.147 124.197C286.557 123.787 286.787 123.23 286.787 122.639C286.77 122.065 286.524 121.524 286.114 121.114C285.737 120.721 285.18 120.491 284.606 120.491Z" fill="#141E1F"/>
<path d="M290.969 129.248H290.772L286.049 124.771C285.917 124.706 285.917 124.46 286.049 124.328C286.18 124.197 286.36 124.197 286.491 124.328L291.215 128.806C291.264 128.871 291.297 128.937 291.297 129.019C291.297 129.101 291.264 129.183 291.215 129.232H290.969V129.248Z" fill="#141E1F"/>
<path d="M175.349 127.231C176.841 127.231 178.055 126.018 178.055 124.525C178.055 123.033 176.841 121.819 175.349 121.819C173.856 121.819 172.643 123.033 172.643 124.525C172.643 126.018 173.856 127.231 175.349 127.231Z" fill="#F7FCFC"/>
<path d="M185.681 127.231C187.173 127.231 188.387 126.018 188.387 124.525C188.387 123.033 187.173 121.819 185.681 121.819C184.188 121.819 182.975 123.033 182.975 124.525C182.975 126.018 184.188 127.231 185.681 127.231Z" fill="#F7FCFC"/>
<path d="M196.39 127.231C197.882 127.231 199.096 126.018 199.096 124.525C199.096 123.033 197.882 121.819 196.39 121.819C194.898 121.819 193.684 123.033 193.684 124.525C193.684 126.018 194.898 127.231 196.39 127.231Z" fill="#F7FCFC"/>
<path d="M266.025 137.006H234.455V179.564H266.025V137.006Z" fill="#4CBDC7"/>
<path d="M266.024 146.829H234.454C234.372 146.813 234.307 146.78 234.241 146.731C234.192 146.681 234.143 146.599 234.143 146.517C234.143 146.435 234.175 146.353 234.241 146.288C234.307 146.222 234.372 146.189 234.471 146.189H266.041C266.123 146.189 266.205 146.222 266.27 146.288C266.336 146.353 266.369 146.419 266.369 146.517C266.369 146.599 266.336 146.681 266.27 146.747C266.188 146.796 266.106 146.829 266.024 146.829Z" fill="#141E1F"/>
<path d="M262.433 150.798H246.181C246.099 150.798 246.017 150.765 245.951 150.7C245.885 150.634 245.853 150.568 245.853 150.47C245.853 150.388 245.885 150.306 245.951 150.24C246.017 150.175 246.099 150.142 246.181 150.142H262.433C262.515 150.142 262.597 150.175 262.663 150.24C262.728 150.306 262.761 150.372 262.761 150.47C262.761 150.552 262.728 150.634 262.663 150.7C262.597 150.765 262.515 150.798 262.433 150.798Z" fill="#141E1F"/>
<path d="M262.433 153.881H246.181C246.099 153.881 246.017 153.848 245.951 153.783C245.885 153.717 245.853 153.651 245.853 153.553C245.853 153.471 245.885 153.389 245.951 153.324C246.017 153.258 246.099 153.225 246.181 153.225H262.433C262.515 153.225 262.597 153.258 262.663 153.324C262.728 153.389 262.761 153.455 262.761 153.553C262.761 153.635 262.728 153.717 262.663 153.783C262.597 153.848 262.515 153.881 262.433 153.881Z" fill="#141E1F"/>
<path d="M262.433 156.981H246.181C246.099 156.981 246.017 156.948 245.951 156.882C245.885 156.817 245.853 156.751 245.853 156.653C245.853 156.571 245.885 156.489 245.951 156.423C246.017 156.358 246.099 156.325 246.181 156.325H262.433C262.515 156.325 262.597 156.358 262.663 156.423C262.728 156.489 262.761 156.554 262.761 156.653C262.761 156.735 262.728 156.817 262.663 156.882C262.597 156.948 262.515 156.981 262.433 156.981Z" fill="#141E1F"/>
<path d="M262.433 174.939H236.668C236.586 174.939 236.504 174.906 236.439 174.84C236.373 174.775 236.34 174.709 236.34 174.611C236.34 174.512 236.373 174.447 236.439 174.381C236.504 174.316 236.586 174.283 236.668 174.283H262.433C262.515 174.283 262.597 174.316 262.662 174.381C262.728 174.447 262.761 174.512 262.761 174.611C262.761 174.709 262.728 174.775 262.662 174.84C262.597 174.906 262.515 174.939 262.433 174.939Z" fill="#141E1F"/>
<path d="M65.4033 266.926H10.1353V301.022H65.4033V266.926Z" fill="#87BEFF"/>
<path d="M10.135 301.333C10.0694 301.333 9.93819 301.268 9.93819 301.202C9.93819 301.137 9.80699 300.825 9.93819 300.759L31.4222 283.687H31.7994L47.2318 294.462L60.401 283.687H60.7782L65.567 287.033C65.5998 287.049 65.6326 287.082 65.649 287.115C65.6654 287.147 65.6818 287.18 65.6818 287.213C65.6818 287.246 65.6818 287.279 65.6818 287.328C65.6654 287.361 65.649 287.393 65.6326 287.426C65.567 287.623 65.321 287.623 65.1898 287.557L60.5978 284.343L47.4942 295.118C47.4778 295.151 47.445 295.167 47.4122 295.183C47.3794 295.2 47.3466 295.2 47.3138 295.2C47.281 295.2 47.2482 295.2 47.2154 295.183C47.1826 295.167 47.1498 295.151 47.1334 295.118L31.701 284.343L10.381 301.268L10.135 301.333Z" fill="#141E1F"/>
<path d="M71.3565 221.663L18.3188 252.905L37.0312 284.688L90.0688 253.446L71.3565 221.663Z" fill="#F7FCFC"/>
<path d="M36.7852 285.147L36.5392 285.015L17.8268 253.199C17.8104 253.117 17.8104 253.035 17.8268 252.97C17.8432 252.888 17.8924 252.822 17.958 252.773L70.9956 221.564C71.0612 221.564 71.1924 221.498 71.2416 221.564L71.4384 221.695L90.1508 253.511C90.1836 253.577 90.1836 253.659 90.1508 253.724C90.1344 253.79 90.0852 253.855 90.0196 253.888L36.9656 285.081L36.7852 285.147ZM18.5156 253.134L36.9164 284.392L89.4128 253.511L71.0776 222.253L18.5156 253.134Z" fill="#141E1F"/>
<path d="M40.0654 279.03H39.9342C39.803 278.964 39.6882 278.784 39.803 278.652L52.1522 250.608C52.185 250.543 52.2506 250.494 52.3162 250.477C52.3818 250.461 52.4638 250.461 52.5294 250.477L65.7642 255.397L68.6014 249.985C68.6342 249.952 68.667 249.92 68.7162 249.887C68.7654 249.854 68.8146 249.854 68.8638 249.854L73.2098 248.788L74.0954 238.522C74.1118 238.44 74.161 238.358 74.2266 238.292C74.2922 238.243 74.3906 238.21 74.4726 238.21C74.5382 238.243 74.6038 238.292 74.653 238.358C74.7022 238.423 74.7186 238.505 74.7186 238.587L73.7674 249.116C73.7674 249.247 73.7018 249.362 73.5706 249.362L69.0934 250.428L66.1906 255.971C66.1578 256.037 66.0922 256.086 66.0266 256.102C65.961 256.119 65.879 256.119 65.8134 256.102L52.5786 251.182L40.3606 278.915C40.3278 278.964 40.2786 278.997 40.2294 279.03C40.1802 279.03 40.131 279.046 40.0654 279.03Z" fill="#141E1F"/>
<path d="M66.5346 247.214C68.1418 247.214 69.4374 245.918 69.4374 244.311C69.4374 242.704 68.1418 241.408 66.5346 241.408C64.9274 241.408 63.6318 242.704 63.6318 244.311C63.6318 245.918 64.9274 247.214 66.5346 247.214Z" fill="#4CBDC7"/>
<path d="M47.6257 290.69C49.3313 290.69 50.7089 289.312 50.7089 287.607C50.7089 285.901 49.3313 284.523 47.6257 284.523C45.9201 284.523 44.5425 285.901 44.5425 287.607C44.5425 289.312 45.9201 290.69 47.6257 290.69Z" fill="#4CBDC7"/>
<path d="M39.5897 155.521L26.9781 160.621C24.6821 161.54 23.5833 164.147 24.5017 166.443L35.7521 194.274C36.6705 196.57 39.2781 197.669 41.5741 196.751L54.1857 191.65C56.4817 190.732 57.5805 188.124 56.6621 185.828L45.4281 157.981C44.4933 155.701 41.8857 154.586 39.5897 155.521Z" fill="#141E1F"/>
<path d="M39.6879 156.833L27.8307 161.622C25.8627 162.409 24.9115 164.656 25.6987 166.624L36.5719 193.536C37.3591 195.504 39.6059 196.456 41.5739 195.668L53.4311 190.88C55.3991 190.092 56.3503 187.846 55.5631 185.878L44.6899 158.965C43.9027 156.981 41.6559 156.03 39.6879 156.833Z" fill="#F7FCFC"/>
<path d="M30.2417 160.622L37.7201 157.604L37.9169 158.063C38.1301 158.588 38.1301 159.178 37.9005 159.703C37.6709 160.228 37.2609 160.638 36.7361 160.851L33.2921 162.245C32.7673 162.458 32.1769 162.458 31.6521 162.229C31.1273 161.999 30.7173 161.589 30.5041 161.064L30.3073 160.605L30.2417 160.622Z" fill="#141E1F"/>
<path d="M46.6743 192.454C47.8551 192.454 48.8227 191.503 48.8227 190.306C48.8227 189.125 47.8715 188.157 46.6743 188.157C45.4935 188.157 44.5259 189.108 44.5259 190.306C44.5423 191.486 45.4935 192.454 46.6743 192.454Z" fill="#141E1F"/>
<path d="M31.7504 170.773C31.6192 170.74 31.5208 170.675 31.4388 170.576L30.5532 168.362V168.182C30.6352 168.051 30.7008 167.985 30.75 167.985L42.5908 163.196C42.6236 163.18 42.6728 163.164 42.722 163.164C42.7712 163.164 42.8204 163.164 42.8532 163.196C42.9024 163.213 42.9352 163.246 42.968 163.278C43.0008 163.311 43.0172 163.36 43.0336 163.393L43.8536 165.542C43.8864 165.607 43.8864 165.689 43.8536 165.755C43.8372 165.82 43.788 165.886 43.7224 165.919L31.8816 170.708L31.7504 170.773ZM31.242 168.444L31.8652 170.019L43.1484 165.476L42.5252 163.902L31.242 168.444Z" fill="#141E1F"/>
<path d="M33.505 173.479C33.4394 173.463 33.3738 173.43 33.3246 173.397C33.2754 173.348 33.2262 173.299 33.1934 173.233C33.177 173.2 33.1606 173.151 33.1606 173.118C33.1606 173.086 33.1606 173.036 33.1934 173.004C33.2098 172.971 33.2426 172.938 33.2754 172.905C33.3082 172.872 33.3574 172.872 33.3902 172.856L42.9678 168.953C43.0498 168.92 43.1482 168.92 43.2302 168.953C43.3122 168.986 43.3778 169.051 43.4106 169.133C43.4434 169.215 43.4434 169.314 43.4106 169.396C43.3778 169.478 43.3122 169.543 43.2302 169.576L33.6526 173.414L33.505 173.479Z" fill="#141E1F"/>
<path d="M34.4562 175.825C34.3906 175.825 34.325 175.808 34.2758 175.775C34.2266 175.743 34.1774 175.693 34.1446 175.628C34.1282 175.595 34.1118 175.546 34.1118 175.497C34.1118 175.447 34.1118 175.398 34.1446 175.365C34.161 175.316 34.1938 175.283 34.2266 175.251C34.2594 175.218 34.3086 175.201 34.3414 175.185L41.3934 172.348C41.4262 172.331 41.4754 172.315 41.5246 172.315C41.5738 172.315 41.623 172.315 41.6558 172.348C41.6886 172.381 41.7378 172.397 41.7706 172.43C41.8034 172.463 41.8198 172.512 41.8362 172.545C41.9018 172.676 41.7706 172.856 41.6394 172.922L34.5874 175.759L34.4562 175.825Z" fill="#141E1F"/>
<path d="M36.8508 181.81C36.7196 181.81 36.6048 181.745 36.6048 181.613C36.572 181.531 36.572 181.449 36.5884 181.367C36.6048 181.285 36.654 181.22 36.7196 181.171L46.3628 177.267C46.494 177.202 46.6744 177.333 46.74 177.464C46.7728 177.546 46.7728 177.628 46.7564 177.71C46.74 177.792 46.6908 177.858 46.6252 177.907L36.982 181.745L36.8508 181.81Z" fill="#141E1F"/>
<path d="M37.9168 184.319C37.8512 184.319 37.7856 184.303 37.7364 184.27C37.6872 184.237 37.638 184.188 37.6052 184.123C37.5396 183.926 37.6052 183.811 37.802 183.68L42.8368 181.663C42.8696 181.646 42.9188 181.63 42.968 181.63C43.0172 181.63 43.0664 181.646 43.0992 181.663C43.1484 181.679 43.1812 181.712 43.214 181.745C43.2468 181.777 43.2632 181.827 43.2796 181.859C43.3452 181.991 43.214 182.171 43.0828 182.237L37.9824 184.319H37.9168Z" fill="#141E1F"/>
<path d="M39.4912 188.354C39.36 188.354 39.2944 188.288 39.2452 188.157C39.2288 188.124 39.2124 188.075 39.2124 188.026C39.2124 187.977 39.2124 187.927 39.2452 187.895C39.2616 187.862 39.2944 187.813 39.3272 187.78C39.36 187.747 39.4092 187.731 39.442 187.714L49.0196 183.877C49.0852 183.844 49.1672 183.844 49.2328 183.877C49.2984 183.893 49.364 183.942 49.3968 184.008C49.4296 184.09 49.4296 184.172 49.4132 184.254C49.3968 184.336 49.3476 184.401 49.282 184.451L39.6388 188.354H39.4912Z" fill="#141E1F"/>
<path d="M85.6246 151.372H68.3554C66.863 151.372 65.6494 152.586 65.6494 154.078V163.032C65.6494 164.525 66.863 165.738 68.3554 165.738H85.6246C87.117 165.738 88.3306 164.525 88.3306 163.032V154.078C88.3306 152.586 87.117 151.372 85.6246 151.372Z" fill="#87BEFF"/>
<path d="M74.5874 155.784V161.327L82.0822 158.178L74.5874 155.784Z" fill="#141E1F"/>
<path d="M254.298 64.2882C260.596 64.2882 265.713 59.1878 265.713 52.8902C265.713 46.5926 260.612 41.4922 254.298 41.4922C248.001 41.4922 242.9 46.5926 242.9 52.8902C242.9 59.1878 248.001 64.2882 254.298 64.2882Z" fill="#4CBDC7"/>
<path d="M249.51 66.5513C247.181 66.5513 244.918 65.8625 242.999 64.5669C241.064 63.2713 239.571 61.4345 238.686 59.3025C237.8 57.1541 237.57 54.7925 238.03 52.5293C238.489 50.2497 239.604 48.1669 241.26 46.5269C242.9 44.8869 245 43.7717 247.279 43.3289C249.559 42.8861 251.92 43.1321 254.052 44.0177C256.184 44.9197 258.021 46.4285 259.3 48.3637C260.58 50.2989 261.252 52.5785 261.252 54.8909C261.236 57.9905 259.989 60.9589 257.792 63.1401C255.578 65.3213 252.609 66.5513 249.51 66.5513ZM249.51 43.8045C247.312 43.8045 245.18 44.4605 243.343 45.6741C241.523 46.8877 240.096 48.6261 239.26 50.6433C238.423 52.6769 238.194 54.9073 238.636 57.0557C239.063 59.2041 240.129 61.1885 241.67 62.7301C243.212 64.2881 245.196 65.3377 247.345 65.7641C249.493 66.1905 251.724 65.9773 253.757 65.1409C255.791 64.3045 257.513 62.8777 258.726 61.0573C259.94 59.2369 260.596 57.0885 260.596 54.8909C260.596 51.9553 259.432 49.1345 257.349 47.0517C255.282 44.9689 252.462 43.8045 249.51 43.8045Z" fill="#141E1F"/>
<path d="M56.0062 69.8966C59.6634 69.8966 62.6154 66.9282 62.6154 63.2874C62.6154 59.6302 59.647 56.6782 56.0062 56.6782C52.3654 56.6782 49.397 59.6466 49.397 63.2874C49.397 66.9282 52.349 69.8966 56.0062 69.8966Z" fill="#4CBDC7"/>
<path d="M59.5319 67.8141C58.1543 67.8141 56.8259 67.4041 55.6779 66.6497C54.5299 65.8953 53.6443 64.8129 53.1195 63.5337C52.5947 62.2545 52.4635 60.8769 52.7259 59.5321C52.9883 58.1873 53.6607 56.9573 54.6283 55.9897C55.5959 55.0221 56.8259 54.3661 58.1707 54.0873C59.5155 53.8249 60.9095 53.9561 62.1723 54.4809C63.4351 55.0057 64.5175 55.8913 65.2883 57.0393C66.0427 58.1709 66.4527 59.5157 66.4527 60.8933C66.4527 62.7301 65.7147 64.5013 64.4191 65.7969C63.1235 67.0925 61.3687 67.8141 59.5319 67.8141ZM59.5319 54.6449C58.2855 54.6449 57.0555 55.0221 56.0223 55.7109C54.9891 56.3997 54.1855 57.4001 53.7099 58.5481C53.2343 59.6961 53.1195 60.9753 53.3655 62.2053C53.6115 63.4353 54.2183 64.5505 55.1039 65.4361C55.9895 66.3217 57.1211 66.9121 58.3511 67.1417C59.5811 67.3713 60.8439 67.2401 61.9919 66.7481C63.1399 66.2561 64.1239 65.4361 64.8127 64.4029C65.5015 63.3533 65.8623 62.1397 65.8459 60.8769C65.8459 60.0569 65.6819 59.2369 65.3703 58.4825C65.0587 57.7281 64.5831 57.0229 64.0091 56.4489C63.4187 55.8749 62.7299 55.4157 61.9591 55.1041C61.1883 54.7925 60.3519 54.6285 59.5319 54.6449Z" fill="#141E1F"/>
<path d="M13.3496 114.571L18.8272 94.0869L28.1588 110.274L13.3496 114.571Z" fill="#87BEFF"/>
<path d="M10.1353 113.685L9.93853 113.554C9.88933 113.521 9.85653 113.472 9.85653 113.406C9.84013 113.34 9.85653 113.291 9.88933 113.242L15.3669 92.7584C15.3669 92.6272 15.4981 92.5616 15.6129 92.5616C15.6785 92.5452 15.7441 92.5452 15.7933 92.5616C15.8589 92.578 15.8917 92.6272 15.9245 92.6928L25.2561 108.896V109.208L25.0593 109.404L10.2501 113.619L10.1353 113.685ZM15.7441 93.7096L10.6437 112.865L24.5017 108.896L15.7441 93.7096Z" fill="#141E1F"/>
<path d="M215.496 77.0802L217.382 69.897L222.302 75.5714L215.496 77.0802Z" fill="#4CBDC7"/>
<path d="M212.019 76.4406L211.839 76.3094C211.773 76.2438 211.708 76.1126 211.773 76.0634L213.659 68.8146C213.725 68.749 213.79 68.6178 213.905 68.6178C213.954 68.585 214.02 68.585 214.069 68.585C214.118 68.585 214.184 68.6342 214.217 68.667L219.137 74.3414C219.202 74.4398 219.219 74.5546 219.202 74.653C219.137 74.7842 219.071 74.8498 218.956 74.8498L212.15 76.4242H212.019V76.4406ZM214.102 69.5854L212.462 75.7026L218.317 74.3742L214.102 69.5854Z" fill="#141E1F"/>
<path d="M247.213 94.0378L236.439 89.4458L231.847 100.204L242.621 104.796L247.213 94.0378Z" fill="#4CBDC7"/>
<path d="M238.357 99.8925H238.226L227.451 95.3005L227.271 95.1037V94.8577L231.863 84.1485C231.912 84.0173 231.961 83.9517 232.06 83.9517H232.306L243.081 88.5437C243.146 88.5929 243.195 88.6585 243.212 88.7405C243.228 88.8225 243.228 88.9045 243.195 88.9865L238.587 99.6957L238.456 99.8925H238.357ZM228.025 94.8413L238.161 99.1873L242.507 88.9865L232.355 84.6405L228.025 94.8413Z" fill="#141E1F"/>
<path d="M38.6711 217.874L32.4227 215.873L30.4219 222.121L36.6703 224.122L38.6711 217.874Z" fill="#4CBDC7"/>
<path d="M35.5224 222.892H35.4568L29.2248 220.941C29.0936 220.892 29.028 220.842 29.028 220.744C28.9624 220.678 28.9624 220.613 28.9624 220.498L30.9796 214.266C31.0452 214.135 31.2256 214.02 31.3568 214.069L37.6544 216.086L37.8512 216.218V216.464L35.834 222.646C35.8176 222.712 35.7848 222.778 35.7192 222.827C35.6536 222.876 35.6044 222.892 35.5224 222.892ZM29.6676 220.367L35.342 222.138L37.1624 216.529L31.488 214.692L29.6676 220.367Z" fill="#141E1F"/>
<path d="M94.8575 88.9535L85.8867 84.9355L65.5015 130.511L74.4723 134.529L94.8575 88.9535Z" fill="#F7FCFC"/>
<path d="M74.5872 134.857H74.456L65.5016 130.888C65.4524 130.872 65.4196 130.855 65.3868 130.823C65.354 130.79 65.3212 130.757 65.3048 130.708C65.2884 130.659 65.272 130.626 65.272 130.577C65.272 130.527 65.2884 130.478 65.3048 130.445L85.6572 84.8862C85.7392 84.755 85.8048 84.6895 85.854 84.6895H86.1L95.0544 88.7238C95.12 88.7566 95.1692 88.8222 95.1856 88.8878C95.202 88.9534 95.202 89.0354 95.1856 89.101L74.8496 134.726C74.8496 134.791 74.784 134.857 74.6528 134.857H74.5872ZM66.0264 130.38L74.4068 134.103L94.5132 89.1175L86.1328 85.329L66.0264 130.38Z" fill="#141E1F"/>
<path d="M93.6933 92.0039H93.5621L87.3793 89.2979C87.3137 89.2487 87.2645 89.1831 87.2481 89.1011C87.2317 89.0191 87.2317 88.9371 87.2645 88.8551C87.3301 88.7239 87.5105 88.6091 87.6417 88.7239L93.8245 91.4299C93.8737 91.4463 93.9065 91.4627 93.9393 91.4955C93.9721 91.5283 94.0049 91.5611 94.0213 91.6103C94.0377 91.6595 94.0541 91.6923 94.0541 91.7415C94.0541 91.7907 94.0377 91.8399 94.0213 91.8727C93.9885 91.9219 93.9393 91.9547 93.8901 91.9875C93.8081 92.0203 93.7425 92.0203 93.6933 92.0039Z" fill="#141E1F"/>
<path d="M92.3646 94.9723H92.2334L87.7562 92.9551C87.6906 92.9059 87.6578 92.8567 87.625 92.7747C87.6086 92.7091 87.6086 92.6271 87.6414 92.5615C87.6742 92.4959 87.7234 92.4467 87.789 92.4139C87.8546 92.3811 87.9366 92.3811 88.0022 92.3975L92.4794 94.3491C92.6762 94.4803 92.7254 94.5951 92.6762 94.7919C92.6434 94.8575 92.6106 94.9067 92.545 94.9395C92.4958 94.9559 92.4302 94.9723 92.3646 94.9723Z" fill="#141E1F"/>
<path d="M90.7249 97.8096H90.5937L84.4109 95.1036C84.3781 95.0872 84.3453 95.0544 84.3125 95.0216C84.2797 94.9888 84.2633 94.956 84.2469 94.9068C84.2305 94.8576 84.2305 94.8248 84.2305 94.7756C84.2305 94.7264 84.2469 94.6936 84.2797 94.6608C84.3453 94.5296 84.5257 94.4148 84.6569 94.5296L90.8397 97.2356C90.8889 97.252 90.9217 97.2684 90.9545 97.3012C90.9873 97.334 91.0201 97.3668 91.0365 97.416C91.0529 97.4652 91.0693 97.498 91.0693 97.5472C91.0693 97.5964 91.0529 97.6456 91.0365 97.6784C91.0037 97.7276 90.9545 97.7604 90.9053 97.7932C90.8397 97.8096 90.7905 97.826 90.7249 97.8096Z" fill="#141E1F"/>
<path d="M89.3966 100.762H89.2654L84.7882 98.7444C84.739 98.728 84.7062 98.7116 84.6734 98.6788C84.6406 98.646 84.6078 98.6132 84.5914 98.564C84.575 98.5148 84.5586 98.482 84.5586 98.4328C84.5586 98.3836 84.575 98.3344 84.5914 98.3016C84.6406 98.236 84.7062 98.1868 84.7882 98.1704C84.8702 98.154 84.9522 98.154 85.0342 98.1868L89.5114 100.138C89.6426 100.27 89.7574 100.45 89.6426 100.581C89.5278 100.712 89.5278 100.762 89.3966 100.762Z" fill="#141E1F"/>
<path d="M88.0846 103.73H87.9534L81.7706 100.958C81.7214 100.958 81.6886 100.942 81.6558 100.909C81.623 100.893 81.5902 100.86 81.5738 100.811C81.5574 100.762 81.541 100.729 81.541 100.696C81.541 100.647 81.5574 100.614 81.5738 100.581C81.6066 100.499 81.6722 100.45 81.7542 100.401C81.8362 100.368 81.9182 100.368 82.0166 100.384L88.1994 103.156C88.3306 103.222 88.4454 103.402 88.3306 103.533C88.1994 103.664 88.1994 103.73 88.0846 103.73Z" fill="#141E1F"/>
<path d="M86.7562 106.698H86.625L82.1642 104.681C82.115 104.681 82.0822 104.665 82.0494 104.632C82.0166 104.615 81.9838 104.583 81.9674 104.533C81.951 104.501 81.9346 104.451 81.9346 104.419C81.9346 104.369 81.951 104.337 81.9674 104.304C81.9838 104.255 82.0002 104.222 82.033 104.189C82.0658 104.156 82.0986 104.123 82.1478 104.107C82.197 104.091 82.2298 104.074 82.279 104.074C82.3282 104.074 82.3774 104.091 82.4102 104.107L86.8874 106.124C86.953 106.157 87.0022 106.223 87.0186 106.288C87.035 106.354 87.035 106.436 87.0186 106.501C86.953 106.633 86.8874 106.698 86.7562 106.698Z" fill="#141E1F"/>
<path d="M85.7555 109.847H85.6243L79.4415 107.141C79.3923 107.125 79.3595 107.109 79.3267 107.076C79.2939 107.043 79.2611 107.01 79.2447 106.961C79.2283 106.912 79.2119 106.879 79.2119 106.83C79.2119 106.781 79.2283 106.731 79.2447 106.699C79.2939 106.633 79.3595 106.584 79.4415 106.567C79.5235 106.551 79.6055 106.551 79.6875 106.584L85.8703 109.29C85.9359 109.339 85.9851 109.405 86.0015 109.487C86.0179 109.569 86.0179 109.651 85.9851 109.733C86.0015 109.782 85.8703 109.847 85.7555 109.847Z" fill="#141E1F"/>
<path d="M84.4274 112.799H84.2962L79.819 110.782C79.7698 110.766 79.737 110.749 79.7042 110.716C79.6714 110.684 79.6386 110.651 79.6222 110.602C79.6058 110.552 79.5894 110.52 79.5894 110.47C79.5894 110.421 79.6058 110.372 79.6222 110.339C79.6714 110.274 79.737 110.224 79.819 110.208C79.901 110.192 79.983 110.192 80.065 110.224L84.5422 112.242C84.6078 112.274 84.657 112.34 84.6734 112.406C84.6898 112.471 84.6898 112.553 84.6734 112.619C84.6078 112.734 84.5586 112.799 84.4274 112.799Z" fill="#141E1F"/>
<path d="M82.4098 116.457H82.2786L76.0958 113.685C76.0466 113.685 76.0138 113.669 75.981 113.636C75.9482 113.619 75.9154 113.587 75.899 113.537C75.8826 113.505 75.8662 113.455 75.8662 113.423C75.8662 113.373 75.8826 113.341 75.899 113.308C75.9154 113.259 75.9318 113.226 75.9646 113.193C75.9974 113.16 76.0302 113.127 76.0794 113.111C76.1286 113.095 76.1614 113.078 76.2106 113.078C76.2598 113.078 76.309 113.095 76.3418 113.111L82.5246 115.883C82.5902 115.915 82.6394 115.981 82.6558 116.047C82.6722 116.112 82.6722 116.194 82.6558 116.26C82.5902 116.391 82.541 116.457 82.4098 116.457Z" fill="#141E1F"/>
<path d="M81.0814 119.49H80.8846L76.4238 117.473C76.3582 117.44 76.309 117.375 76.2926 117.309C76.2762 117.243 76.2762 117.161 76.2926 117.096C76.309 117.047 76.3254 117.014 76.3582 116.981C76.391 116.948 76.4238 116.915 76.473 116.899C76.5222 116.883 76.555 116.866 76.6042 116.866C76.6534 116.866 76.7026 116.883 76.7354 116.899L81.2126 118.916C81.2782 118.965 81.3274 119.031 81.3438 119.113C81.3602 119.195 81.3602 119.277 81.3274 119.359L81.0814 119.49Z" fill="#141E1F"/>
<path d="M79.7042 122.442H79.573L73.4558 119.736C73.259 119.605 73.2098 119.49 73.259 119.294C73.2754 119.244 73.2918 119.212 73.3246 119.179C73.3574 119.146 73.3902 119.113 73.4394 119.097C73.4886 119.08 73.5214 119.064 73.5706 119.064C73.6198 119.064 73.669 119.08 73.7018 119.097L79.819 121.868C79.8682 121.885 79.901 121.901 79.9338 121.934C79.9666 121.967 79.9994 122 80.0158 122.049C80.0322 122.098 80.0486 122.131 80.0486 122.18C80.0486 122.229 80.0322 122.278 80.0158 122.311C79.983 122.36 79.9338 122.393 79.8846 122.426C79.819 122.459 79.7534 122.459 79.7042 122.442Z" fill="#141E1F"/>
<path d="M78.3754 125.411H78.2442L73.767 123.459C73.7014 123.41 73.6522 123.344 73.6358 123.262C73.6194 123.18 73.6194 123.098 73.6522 123.016C73.7178 122.885 73.8982 122.77 74.0294 122.885L78.5066 124.837C78.5558 124.853 78.5886 124.869 78.6214 124.902C78.6542 124.935 78.687 124.968 78.7034 125.017C78.7198 125.066 78.7362 125.099 78.7362 125.148C78.7362 125.197 78.7198 125.247 78.7034 125.279C78.6706 125.329 78.6214 125.361 78.5722 125.394C78.4902 125.411 78.441 125.411 78.3754 125.411Z" fill="#141E1F"/>
<path d="M76.8668 128.937H76.7356L70.5528 126.165C70.5036 126.165 70.4708 126.149 70.438 126.116C70.4052 126.1 70.3724 126.067 70.356 126.018C70.3396 125.985 70.3232 125.936 70.3232 125.903C70.3232 125.854 70.3396 125.821 70.356 125.788C70.3724 125.739 70.3888 125.706 70.4216 125.673C70.4544 125.641 70.4872 125.608 70.5364 125.591C70.5856 125.575 70.6184 125.559 70.6676 125.559C70.7168 125.559 70.766 125.575 70.7988 125.591L76.9816 128.363C77.0472 128.412 77.0964 128.478 77.1128 128.56C77.1292 128.642 77.1292 128.724 77.0964 128.806L76.8668 128.937Z" fill="#141E1F"/>
<path d="M75.4726 131.889H75.3414L70.8642 129.937C70.7986 129.888 70.7658 129.806 70.733 129.74C70.7166 129.658 70.7166 129.576 70.733 129.494C70.733 129.445 70.7494 129.412 70.7822 129.379C70.7986 129.347 70.8314 129.314 70.8806 129.297C70.9134 129.281 70.9626 129.265 70.9954 129.265C71.0446 129.265 71.0774 129.281 71.1102 129.297L75.653 131.315C75.7186 131.364 75.7678 131.429 75.7842 131.511C75.8006 131.593 75.8006 131.675 75.7678 131.757C75.735 131.807 75.6858 131.839 75.6366 131.872C75.6038 131.905 75.5382 131.905 75.4726 131.889Z" fill="#141E1F"/>
<path d="M249.018 210.855H248.821L243.212 207.886C243.13 207.837 243.081 207.771 243.064 207.689C243.048 207.607 243.048 207.525 243.097 207.443C243.147 207.361 243.212 207.312 243.294 207.296C243.376 207.263 243.458 207.279 243.54 207.329L249.149 210.297C249.214 210.346 249.247 210.428 249.28 210.494C249.296 210.576 249.296 210.658 249.28 210.74C249.247 210.773 249.215 210.805 249.165 210.838C249.1 210.838 249.067 210.855 249.018 210.855Z" fill="#4CBDC7"/>
<path d="M175.792 96.104C175.726 96.0876 175.66 96.0548 175.595 96.022C175.546 95.9728 175.496 95.9236 175.464 95.858L172.495 84.5748C172.479 84.5256 172.479 84.4928 172.495 84.4436C172.495 84.3944 172.528 84.3616 172.544 84.3288C172.561 84.296 172.594 84.2632 172.626 84.2468C172.659 84.2304 172.708 84.214 172.741 84.1976C172.872 84.132 173.053 84.2632 173.118 84.3944L176.087 95.7432C176.152 95.8744 176.021 96.0548 175.841 96.1204H175.792V96.104Z" fill="#87BEFF"/>
<path d="M31.2418 127.428L30.9958 127.297C30.9466 127.231 30.9302 127.149 30.9302 127.067C30.9466 126.985 30.9794 126.903 31.045 126.854L37.9822 120.868C38.179 120.737 38.3594 120.737 38.425 120.868C38.4906 120.934 38.507 120.999 38.507 121.081C38.507 121.163 38.4742 121.245 38.425 121.294L31.4386 127.346L31.2418 127.428Z" fill="#4CBDC7"/>
<path d="M18.9584 193.963H18.7616L7.47837 186.271C7.42917 186.222 7.37997 186.14 7.37997 186.058C7.36357 185.976 7.37997 185.894 7.41277 185.828C7.42917 185.796 7.46197 185.763 7.49477 185.73C7.52757 185.697 7.56037 185.681 7.60957 185.664C7.65877 185.648 7.69157 185.648 7.74077 185.648C7.78997 185.648 7.82277 185.664 7.85557 185.681L19.1388 193.372C19.2044 193.422 19.2536 193.504 19.2536 193.586C19.27 193.668 19.2372 193.75 19.188 193.815C19.1388 193.963 19.0732 193.963 18.9584 193.963Z" fill="#141E1F"/>
<path d="M278.439 210.543C281.145 210.543 283.359 208.346 283.359 205.623C283.359 202.901 281.161 200.703 278.439 200.703C275.717 200.703 273.519 202.901 273.519 205.623C273.519 208.329 275.717 210.543 278.439 210.543Z" fill="#4CBDC7"/>
<path d="M276.357 209.329C275.635 209.411 274.881 209.329 274.192 209.116C273.503 208.903 272.847 208.526 272.306 208.034C271.765 207.542 271.322 206.935 271.027 206.263C270.731 205.59 270.567 204.869 270.567 204.131C270.567 203.393 270.715 202.671 271.027 201.999C271.338 201.326 271.765 200.719 272.306 200.227C272.847 199.735 273.503 199.375 274.192 199.145C274.881 198.915 275.635 198.85 276.357 198.932C277.095 198.85 277.833 198.932 278.521 199.145C279.227 199.375 279.866 199.735 280.407 200.227C280.949 200.719 281.391 201.326 281.687 201.999C281.982 202.671 282.146 203.393 282.146 204.131C282.146 204.869 281.998 205.59 281.687 206.263C281.391 206.935 280.949 207.542 280.407 208.034C279.866 208.526 279.21 208.887 278.521 209.116C277.833 209.346 277.095 209.411 276.357 209.329ZM276.357 199.571C275.438 199.571 274.553 199.85 273.798 200.359C273.044 200.867 272.453 201.589 272.109 202.441C271.765 203.278 271.683 204.213 271.863 205.098C272.043 205.984 272.486 206.804 273.142 207.46C273.798 208.099 274.618 208.526 275.52 208.706C276.422 208.87 277.341 208.772 278.177 208.411C279.013 208.05 279.735 207.46 280.227 206.689C280.719 205.918 280.981 205.033 280.965 204.114C280.949 202.901 280.457 201.753 279.604 200.9C278.735 200.047 277.57 199.571 276.357 199.571Z" fill="#141E1F"/>
<path d="M215.611 171.905L215.365 171.774L208.559 163.836C208.51 163.803 208.477 163.754 208.461 163.688C208.444 163.639 208.428 163.574 208.428 163.508L208.625 163.311L222.04 157.637C222.105 157.604 222.171 157.588 222.237 157.604C222.302 157.62 222.368 157.653 222.417 157.702C222.466 157.752 222.483 157.817 222.499 157.883C222.515 157.948 222.499 158.014 222.483 158.08L215.873 171.692C215.873 171.741 215.857 171.79 215.824 171.823C215.791 171.856 215.742 171.872 215.693 171.872H215.611V171.905ZM209.313 163.721L215.545 171.036L221.531 158.555L209.313 163.721Z" fill="#141E1F"/>
<path d="M211.904 164.919L225.254 159.244L218.694 172.856L211.904 164.919Z" fill="#87BEFF"/>
</svg>
