<svg width="160" height="171" viewBox="0 0 160 171" fill="none" xmlns="http://www.w3.org/2000/svg">
<g opacity="0.5">
<path d="M124.155 13.208C123.996 26.314 117.482 36.8582 106.089 44.6806C96.1481 51.5195 85.9122 57.9696 76.4253 65.4261C60.9239 77.6401 50.7788 93.4679 50.4611 113.824C50.1207 135.965 60.0615 153.005 78.5133 165.059C78.8537 165.288 79.2396 165.471 79.58 165.677C81.2141 166.683 82.5532 168.17 81.373 169.954C80.8056 170.8 78.6949 171.212 77.5147 170.892C67.5738 168.467 58.0189 164.922 49.2809 159.501C21.0017 141.958 4.47907 116.523 0.666151 83.4039C-4.75818 35.9891 23.4075 -7.92631 68.2547 -22.1073C79.3304 -25.6297 90.4968 -26.4074 101.527 -21.7642C115.599 -15.886 124.609 -2.32253 124.155 13.208Z" fill="#89F5FF"/>
<path d="M190.595 88.8489C190.368 97.5876 187.915 107.379 178.785 114.264C168.156 122.271 154.461 121.745 146.103 113.052C143.718 110.535 141.901 107.539 140.834 104.222C139.766 100.905 139.426 97.4046 139.857 93.9732C140.311 90.5189 141.515 87.2247 143.4 84.2966C145.285 81.3913 147.784 78.9207 150.736 77.1135C151.872 76.4044 153.03 75.7181 154.188 75.0547C163.727 69.6788 168.02 61.2604 168.338 50.5086C168.474 49.4563 168.724 48.404 169.065 47.3975C170.132 47.855 171.359 48.0837 172.244 48.7929C183.964 57.9891 190.595 71.7834 190.595 88.8489Z" fill="#89F5FF"/>
</g>
</svg>
