<svg width="443" height="331" viewBox="0 0 443 331" fill="none" xmlns="http://www.w3.org/2000/svg">
<g opacity="0.5">
<path d="M288.573 24.465C288.204 54.9272 273.064 79.4353 246.582 97.6169C223.477 113.513 199.686 128.505 177.635 145.836C141.605 174.224 118.025 211.013 117.287 258.328C116.495 309.789 139.601 349.396 182.488 377.413C183.28 377.944 184.177 378.369 184.968 378.848C188.766 381.187 191.878 384.643 189.135 388.789C187.816 390.756 182.91 391.713 180.167 390.969C157.062 385.334 134.853 377.094 114.544 364.494C48.8143 323.718 10.4107 264.601 1.54834 187.621C-11.0594 77.4151 54.4061 -24.6574 158.644 -57.6183C184.388 -65.8054 210.342 -67.6129 235.979 -56.8209C268.686 -43.1581 289.628 -11.6325 288.573 24.465Z" fill="#89F5FF"/>
<path d="M443 200.278C442.472 220.589 436.771 243.346 415.55 259.351C390.845 277.961 359.013 276.738 339.586 256.533C334.043 250.684 329.82 243.718 327.339 236.009C324.858 228.299 324.066 220.164 325.069 212.188C326.125 204.159 328.923 196.503 333.304 189.697C337.686 182.944 343.493 177.202 350.355 173.001C352.995 171.353 355.687 169.758 358.379 168.216C380.551 155.721 390.528 136.154 391.267 111.163C391.584 108.718 392.164 106.272 392.956 103.932C395.437 104.996 398.288 105.527 400.347 107.176C427.586 128.55 443 160.612 443 200.278Z" fill="#89F5FF"/>
</g>
</svg>
