<svg width="21" height="20" viewBox="0 0 21 20" fill="none" xmlns="http://www.w3.org/2000/svg">
<path d="M2.29924 0.375183C2.04716 0.131721 1.70955 -0.00299468 1.35911 5.05248e-05C1.00867 0.00309573 0.673453 0.143659 0.425648 0.391464C0.177842 0.63927 0.0372792 0.974491 0.034234 1.32493C0.0311888 1.67536 0.165905 2.01298 0.409366 2.26505L8.12789 9.98358L0.40803 17.7021C0.280377 17.8254 0.178556 17.9729 0.108509 18.1359C0.0384622 18.299 0.00159259 18.4744 5.04638e-05 18.6518C-0.00149166 18.8293 0.0323248 19.0053 0.0995273 19.1696C0.16673 19.3338 0.265972 19.483 0.391464 19.6085C0.516955 19.734 0.666183 19.8333 0.830439 19.9005C0.994695 19.9677 1.17069 20.0015 1.34815 20C1.52562 19.9984 1.701 19.9615 1.86406 19.8915C2.02713 19.8214 2.17461 19.7196 2.2979 19.592L10.0178 11.8734L17.7363 19.592C17.9884 19.8354 18.326 19.9701 18.6764 19.9671C19.0268 19.9641 19.3621 19.8235 19.6099 19.5757C19.8577 19.3279 19.9982 18.9927 20.0013 18.6422C20.0043 18.2918 19.8696 17.9542 19.6262 17.7021L11.9076 9.98358L19.6262 2.26505C19.8696 2.01298 20.0043 1.67536 20.0013 1.32493C19.9982 0.974491 19.8577 0.63927 19.6099 0.391464C19.3621 0.143659 19.0268 0.00309573 18.6764 5.05248e-05C18.326 -0.00299468 17.9884 0.131721 17.7363 0.375183L10.0178 8.09371L2.29924 0.373846V0.375183Z" fill="#687DE6"/>
</svg>
