<svg width="281" height="252" viewBox="0 0 281 252" fill="none" xmlns="http://www.w3.org/2000/svg">
<path d="M58.2814 0.963379H23.9246V37.5371H58.2814V0.963379Z" fill="#687DE6"/>
<path d="M23.9247 24.6415V27.1925C15.3722 25.7181 12.9956 17.1279 12.9956 17.1279C12.9956 17.1279 17.1066 12.7436 23.9247 12.0259V14.8158H23.9046C20.3303 14.3974 17.5213 17.6262 17.5213 17.6262C17.5213 17.6262 19.1112 23.0665 23.9247 24.6415Z" fill="#687DE6"/>
<path d="M8.73962 16.769C8.73962 16.769 13.8007 9.55366 23.9443 8.79704V6.16602C12.7061 7.04264 2.99609 16.2112 2.99609 16.2112C2.99609 16.2112 8.49201 31.5574 23.9242 32.9529V30.163C12.603 28.8063 8.73962 16.769 8.73962 16.769Z" fill="#687DE6"/>
<path d="M153.115 0.963379C153.115 1.02738 153.115 1.09291 153.115 1.15996C153.115 3.4763 151.169 5.35374 148.768 5.35374C146.367 5.35374 144.421 3.4763 144.421 1.15996C144.421 1.09139 144.421 1.02738 144.421 0.963379H129.824V37.5371H167.735V0.963379H153.115ZM147.917 33.6222L146.07 24.8094H146.039L144.042 33.6222H141.497L138.616 20.6735H141.128L142.846 29.4863H142.878L144.949 20.6735H147.298L149.157 29.5945H149.188L151.15 20.6735H153.616L150.414 33.6222H147.917ZM161.746 33.6222L160.89 30.7405H156.371L155.712 33.6222H153.201L156.448 20.6735H160.412L164.361 33.6222H161.746ZM157.96 23.8646L156.864 28.6161H160.274L159.017 23.8646H157.96Z" fill="#687DE6"/>
<path d="M234.681 0H275.163V39.0534H234.681V0Z" fill="#687DE6"/>
<path d="M25.5727 109.045C23.3906 110.888 20.6032 111.903 17.724 111.903C11.2548 111.903 5.9917 106.927 5.9917 100.811C5.9917 94.7085 11.2548 89.7441 17.724 89.7441C20.6071 89.7441 23.3851 90.7504 25.5462 92.5777C26.4378 93.3312 26.5273 94.6398 25.7464 95.5002C24.9655 96.3607 23.6099 96.4471 22.7183 95.6932C21.3402 94.5281 19.5664 93.8861 17.724 93.8861C13.621 93.8861 10.2831 96.9923 10.2831 100.811C10.2831 104.643 13.621 107.76 17.724 107.76C19.5634 107.76 21.3471 107.109 22.7464 105.928C23.6382 105.174 24.9938 105.262 25.7743 106.122C26.5547 106.983 26.4645 108.292 25.5727 109.045ZM40.2841 102.894H35.9597V107.068C35.9597 108.212 34.9991 109.139 33.8138 109.139C32.6285 109.139 31.6678 108.212 31.6678 107.068V102.894H27.3437C26.1586 102.894 25.1978 101.967 25.1978 100.823C25.1978 99.6797 26.1584 98.7525 27.3437 98.7525H31.6678V94.5787C31.6678 93.435 32.6285 92.5078 33.8138 92.5078C34.9991 92.5078 35.9597 93.435 35.9597 94.5787V98.7525H40.2841C41.4691 98.7525 42.43 99.6797 42.43 100.823C42.43 101.967 41.4694 102.894 40.2841 102.894ZM58.7711 102.894H54.4468V107.068C54.4468 108.212 53.4861 109.139 52.3008 109.139C51.1158 109.139 50.1549 108.212 50.1549 107.068V102.894H45.8308C44.6457 102.894 43.6848 101.967 43.6848 100.823C43.6848 99.6797 44.6455 98.7525 45.8308 98.7525H50.1549V94.5787C50.1549 93.435 51.1155 92.5078 52.3008 92.5078C53.4859 92.5078 54.4468 93.435 54.4468 94.5787V98.7525H58.7711C59.9562 98.7525 60.9171 99.6797 60.9171 100.823C60.9171 101.967 59.9564 102.894 58.7711 102.894Z" fill="#687DE6"/>
<path d="M167.33 83.0101L167.153 83.2014C166.264 84.1522 165.435 85.1525 164.668 86.197C164.321 86.6572 164.01 87.1413 163.736 87.6454C163.517 88.0262 163.342 88.4296 163.216 88.848C163.171 88.9619 163.148 89.0827 163.147 89.2046V89.2127C163.018 89.2508 162.906 89.3284 162.827 89.4338C162.748 89.5393 162.706 89.6667 162.709 89.7969C162.706 89.9191 162.742 90.0393 162.812 90.1414C162.882 90.2436 162.982 90.3229 163.099 90.369C163.179 91.1163 163.266 92.6695 163.246 94.8008L163.237 95.0869C163.178 96.6841 162.872 98.264 162.331 99.7746C162.298 99.7544 162.268 99.7464 162.247 99.7484C162.185 99.7544 162.016 99.9901 161.851 100.254C161.73 100.435 161.602 100.647 161.529 100.84C161.489 100.929 161.468 101.025 161.467 101.122C161.462 101.182 161.47 101.242 161.487 101.3C161.508 101.374 161.533 101.416 161.533 101.416C161.531 101.421 161.529 101.426 161.527 101.43C161.496 101.47 161.476 101.516 161.469 101.565L161.444 101.624C161.28 101.985 161.1 102.339 160.905 102.686L160.744 102.972C160.696 103.049 160.647 103.126 160.598 103.203C160.583 103.193 160.568 103.183 160.552 103.175C160.47 103.162 160.386 103.179 160.316 103.223C160.218 103.294 160.001 103.614 159.276 103.965C159.03 104.084 158.804 104.152 158.608 104.194C158.887 102.819 159.06 101.425 159.126 100.024C159.158 99.3121 159.113 98.5984 158.992 97.8951C158.998 97.8749 158.998 97.8608 158.998 97.8608L158.988 97.881C158.933 97.5699 158.86 97.2619 158.771 96.9583C158.488 95.9316 157.971 94.9786 157.259 94.1683C155.941 92.6494 154.135 91.8718 152.548 91.8214L152.287 91.8174C152.287 91.8013 152.287 91.7872 152.291 91.7731C152.335 91.5756 152.341 91.5172 152.11 91.7086C152.068 91.7431 152.028 91.7794 151.99 91.8174C151.88 91.8194 151.78 91.8254 151.686 91.8315C151.678 91.7592 151.676 91.6865 151.679 91.6139C151.688 91.4608 151.729 91.3581 151.498 91.5495C151.377 91.6414 151.276 91.7558 151.201 91.8859C151.097 91.902 151.034 91.9161 151.034 91.9161L151.128 91.9121L151.03 91.9282C150.997 91.8436 150.919 91.7167 150.93 91.6059C150.951 91.3682 151.019 91.3238 150.852 91.4749C150.648 91.6562 150.431 91.9302 150.393 92.0772L150.193 92.1377C150.155 92.1014 150.038 91.9967 150.013 91.7791C149.986 91.5575 149.988 91.4447 149.846 91.6764C149.716 91.8948 149.624 92.1323 149.574 92.3794C149.508 92.4096 149.443 92.4399 149.38 92.4721C149.3 92.3727 149.258 92.2495 149.261 92.1236C149.251 91.8335 149.345 91.5978 149.121 91.9866C148.983 92.245 148.88 92.52 148.816 92.8045C148.741 92.8548 148.668 92.9072 148.597 92.9636C148.588 92.8497 148.582 92.7355 148.581 92.6212C148.576 92.3351 148.624 92.0269 148.441 92.5708C148.386 92.7299 148.33 92.9576 148.294 93.2174C147.451 93.993 146.937 95.0647 146.95 96.3842V96.3983C146.948 96.634 146.96 96.8576 146.979 97.0631C147.021 97.5425 147.098 97.9454 147.202 98.2818C147.004 98.5437 146.987 99.6698 147.181 99.9297C147.334 100.139 148.217 100.635 148.405 100.733C148.482 100.784 148.548 100.847 148.601 100.921C148.842 101.3 148.842 102.063 148.658 102.456C148.434 102.935 148.881 103.03 149.253 103.1C149.625 103.173 150.12 103.054 150.22 102.863C150.318 102.671 149.898 102.24 149.725 101.356C149.549 100.472 149.996 100.401 149.996 100.401C149.996 100.401 150.195 100.449 150.491 100.903C150.721 101.255 150.965 101.533 151.193 101.735C151.076 101.874 150.934 101.991 150.773 102.081C151.024 102.091 151.274 101.978 151.408 101.906C151.456 101.939 151.505 101.969 151.556 101.997C151.523 102.031 151.488 102.065 151.452 102.097C151.528 102.09 151.604 102.076 151.677 102.053C151.733 102.076 151.792 102.091 151.853 102.097C152.176 102.121 153.043 101.356 153.043 101.213C153.043 101.177 153.012 101.132 152.964 101.086C152.876 100.995 152.713 100.885 152.531 100.729C152.449 100.657 152.372 100.579 152.302 100.496C152.132 100.276 152.03 100.015 152.007 99.7423V99.7222L152.001 99.6598C152.001 99.6598 152.016 99.6457 152.034 99.6195V99.6275L152.043 99.6074C152.151 99.4462 152.356 98.8439 151.061 97.4358C150.519 96.8465 149.864 96.3636 149.132 96.0135C149.044 95.0627 149.445 94.1743 150.439 93.7372L150.429 93.7473L150.445 93.7352C150.919 93.5297 151.525 93.4229 152.277 93.4612C153.717 93.5337 154.824 94.1844 155.597 95.1634C156.67 96.5977 157.138 98.7492 156.797 100.917C156.655 101.048 156.683 101.068 156.77 101.072C156.738 101.256 156.699 101.44 156.655 101.622L156.599 101.652C156.342 101.801 156.451 101.799 156.599 101.837L156.587 101.878C156.545 102.009 156.497 102.14 156.449 102.266C156.387 102.284 156.327 102.304 156.267 102.327C155.985 102.434 156.1 102.448 156.242 102.51L156.334 102.555C156.267 102.716 156.196 102.877 156.123 103.032C156.067 103.04 156.011 103.052 155.956 103.066C155.659 103.139 155.772 103.167 155.906 103.248C155.934 103.264 155.962 103.283 155.989 103.302C155.917 103.447 155.843 103.591 155.766 103.733C155.658 103.739 155.551 103.756 155.446 103.783C155.154 103.856 155.265 103.884 155.398 103.965C155.469 104.005 155.524 104.047 155.567 104.084C155.503 104.195 155.437 104.306 155.369 104.416L155.321 104.488C155.176 104.48 155.03 104.496 154.891 104.537C154.594 104.609 154.707 104.638 154.841 104.718C154.918 104.764 154.991 104.818 155.058 104.877C154.972 104.999 154.884 105.12 154.795 105.24C154.638 105.202 154.473 105.198 154.315 105.23C154.014 105.27 154.122 105.31 154.246 105.403C154.388 105.51 154.457 105.602 154.492 105.641L154.363 105.81C154.271 105.693 154.051 105.56 153.849 105.421C153.666 105.298 153.46 105.209 153.243 105.159C153.143 105.159 152.828 105.699 151.12 105.556C149.41 105.413 149.303 105.254 149.153 105.254C149.007 105.254 148.687 105.369 148.677 105.373L148.606 105.333C147.904 104.915 147.227 104.462 146.576 103.975C145.607 103.229 145.072 102.671 145.072 102.671C145.072 102.671 145.359 102.42 144.974 102.099C144.752 101.899 144.516 101.712 144.269 101.541C144.108 101.419 143.939 101.307 143.763 101.207C143.7 101.123 143.639 101.038 143.579 100.951C143.313 100.537 143.06 100.115 142.821 99.6859C142.637 99.3368 142.463 98.9828 142.299 98.6243C141.965 97.8991 141.736 97.2504 141.577 96.6824C141.421 96.0719 141.317 95.45 141.268 94.823C141.262 94.6605 141.264 94.4977 141.276 94.3355C141.379 94.2582 141.462 94.1595 141.519 94.0468C141.576 93.9341 141.606 93.8103 141.606 93.6848C141.606 93.4839 141.53 93.29 141.392 93.1391C141.255 92.9883 141.065 92.8908 140.859 92.8649C140.433 92.0047 138.808 89.8895 132.752 85.4516L132.487 85.2542L132.498 85.2623L132.422 85.2079C138.591 90.3045 139.794 92.2968 140.111 93.1288C140.091 93.15 140.072 93.1722 140.055 93.1953C140.042 93.1865 140.03 93.1778 140.017 93.1691C140.055 93.1691 140.069 93.159 140.069 93.159C140.069 93.159 138.666 92.0591 136.338 90.6812C134.001 89.2973 132.686 88.9709 132.412 88.9145L132.356 88.9024C132.356 88.9024 132.786 89.2852 132.719 89.4766C132.698 89.541 132.368 89.5209 131.84 89.533C131.332 89.5349 130.825 89.5821 130.326 89.674C129.156 89.8734 128.041 90.3056 127.054 90.9431C124.329 92.6937 123.832 93.9366 123.832 93.9366C123.832 93.9366 124.98 92.3895 127.131 91.3077C127.102 91.9866 127.033 95.2742 128.06 99.6074C129.169 104.281 131.257 108.646 131.431 109.005C131.439 109.364 131.464 109.553 131.464 109.553C131.464 109.553 131.773 105.947 133.043 102.206C133.408 102.776 134.625 104.456 137.378 106.428C140.777 108.866 142.327 109.523 142.389 109.547C142.391 109.863 142.4 110.03 142.4 110.03C142.4 110.03 142.41 109.829 142.437 109.5C142.529 109.37 143.059 108.634 143.59 108.151C143.935 107.824 144.313 107.531 144.717 107.274C144.784 107.496 144.849 107.685 144.912 107.83C144.87 107.635 144.836 107.448 144.803 107.262C145.027 107.283 145.926 107.395 147.321 108.054C148.038 108.393 148.593 108.85 148.988 109.253C148.978 109.256 148.968 109.26 148.958 109.265C148.958 109.265 149.215 109.49 149.52 110.077C149.006 110.058 148.492 110.115 147.996 110.246C147.932 110.117 147.864 109.99 147.791 109.865C147.778 109.771 147.75 109.68 147.71 109.593C147.653 109.47 147.511 109.392 147.367 109.311C147.304 109.251 147.23 109.202 147.15 109.164C147.102 109.123 147.063 109.073 147.035 109.017C146.86 108.646 145.369 109.041 145.068 109.38C144.703 109.791 144.632 110.314 144.776 110.604C144.82 110.695 144.922 110.77 145.064 110.826C145.068 111.271 145.35 112.337 145.908 113.11C145.801 112.668 145.726 112.219 145.682 111.767C145.663 111.444 145.682 111.215 145.714 111.062C145.812 111.722 146.077 112.44 146.918 113.328C146.401 112.24 146.459 111.592 146.511 111.023L146.53 110.935L146.543 110.933C146.618 111.463 146.839 112.009 147.549 112.875C147.539 112.856 147.529 112.837 147.52 112.818L147.549 112.861C147.2 112.225 147.077 111.496 147.2 110.786L147.217 110.78C147.313 110.84 147.407 110.921 147.497 111.034C147.764 111.38 147.889 111.737 147.939 111.98C147.882 112.246 147.932 112.523 148.079 112.754C147.568 113.114 147.067 113.451 146.576 113.763C146.096 114.063 145.553 114.394 144.995 114.71C144.703 114.871 144.413 115.028 144.131 115.173L143.849 115.018H143.853L143.836 115.01C141.811 113.884 140.307 113.133 138.578 112.83C136.634 112.494 134.847 113.401 134.437 115.01C134.307 115.532 134.348 116.079 134.554 116.577C134.761 117.075 135.123 117.499 135.59 117.79L135.615 117.806C135.642 117.826 135.67 117.84 135.699 117.859L135.824 117.931H135.828C136.229 118.153 136.714 118.316 137.271 118.409L137.33 118.419H137.342C137.627 118.465 137.914 118.494 138.202 118.507C140.238 118.602 142.704 117.685 145.141 116.529C145.35 116.638 145.563 116.747 145.78 116.863C151.099 119.69 154.338 120.056 158.631 118.33C157.583 118.634 156.108 119.047 154.258 119.023C154.245 119.016 154.231 119.012 154.216 119.011L154.219 119.023C153.766 119.015 153.314 118.982 152.865 118.922V118.92L152.803 118.914V118.908C152.802 118.909 152.801 118.911 152.801 118.912C151.683 118.756 150.591 118.461 149.552 118.034C149.02 117.818 148.501 117.574 147.996 117.305C147.292 116.929 146.591 116.547 145.895 116.158C146.622 115.8 147.34 115.427 148.038 115.06C148.779 114.68 149.441 114.331 149.955 114.053L149.973 114.045L149.988 114.043C149.988 114.043 150.161 114.007 150.322 113.959C150.677 113.854 151.178 113.658 151.773 113.388C151.832 113.624 151.972 113.822 152.181 113.898C152.671 114.081 153.03 113.952 153.271 113.693L153.308 113.672L153.406 113.598C153.511 113.538 153.63 113.463 153.732 113.417C153.768 113.401 153.805 113.386 153.843 113.372C153.926 113.352 154.006 113.326 154.085 113.298L154.154 113.278C153.851 113.876 153.964 114.448 153.964 114.448C154.054 113.701 154.423 113.223 154.782 113.008C154.916 112.953 155.054 112.907 155.2 112.873C155.334 112.873 155.442 112.919 155.501 113.014C155.647 113.255 155.954 113.405 156.261 113.469C156.311 113.771 156.167 114.283 155.425 115.214L155.613 115.089L155.622 115.083L155.772 114.976C156.071 114.758 156.298 114.553 156.47 114.361C156.641 114.182 156.776 113.974 156.868 113.747C156.893 114.15 156.779 114.768 156.219 115.834C156.219 115.834 156.881 115.278 157.292 114.565C157.305 114.95 157.271 115.457 157.161 116.146C157.881 114.791 157.839 113.961 157.66 113.475L157.639 113.403C157.635 113.358 157.628 113.315 157.618 113.272L157.706 113.157C157.952 112.822 157.606 112.464 157.384 112.321C157.259 112.24 156.967 112.011 156.436 112.004C155.966 111.461 155.371 111.702 154.436 112.297C154.325 112.367 154.209 112.43 154.089 112.484C154.058 112.402 154.02 112.323 153.974 112.248C154.308 112.055 154.655 111.847 155.006 111.628C155.668 111.211 156.161 110.79 156.526 110.389C157.591 109.347 157.967 108.334 159.053 107.476L159.025 107.478L159.151 107.413C160.934 106.491 161.88 106.312 161.947 106.299L161.941 106.557L161.978 106.306C162.35 106.481 162.69 106.716 162.983 106.999C163.282 107.289 163.537 107.619 163.738 107.98L163.83 108.586C163.83 108.586 163.83 108.35 163.809 107.921C164.129 107.615 165.939 105.818 167.409 102.951C168.859 100.123 169.381 97.8689 169.533 97.0611C170.116 98.6835 170.58 100.344 170.922 102.029C170.922 102.029 170.917 101.761 170.857 101.275C171.059 100.599 171.934 97.5043 172.166 93.709C172.375 90.3226 172.03 88.1087 171.874 87.315C173.227 88.3968 173.952 89.9479 173.952 89.9479C173.952 89.9479 173.868 89.6196 173.559 89.0676L173.601 89.122C173.601 89.122 173.108 88.2054 172.256 87.2989C172.149 87.1815 172.04 87.066 171.928 86.9524C171.026 86.0278 170.145 85.7095 169.485 85.5987C169.276 85.5584 169.061 85.5382 168.842 85.5382H168.802C168.541 85.5322 168.382 85.5423 168.37 85.4859C168.328 85.2945 168.6 84.9117 168.6 84.9117C168.6 84.9117 168.23 85.0044 167.443 85.5765C166.963 85.9129 166.357 86.4025 165.662 87.1075C165.009 87.7461 164.388 88.415 163.803 89.1119L163.647 89.3033C163.631 89.2908 163.615 89.2794 163.599 89.2691C163.757 88.6023 164.354 87.0169 167.332 83L167.33 83.0101ZM148.725 105.399C148.733 105.403 148.741 105.407 148.75 105.411L148.725 105.399ZM148.175 110.649C148.359 110.737 148.572 110.862 148.808 111.04H148.798C148.682 111.068 148.572 111.115 148.474 111.181C148.366 111.042 148.277 110.89 148.211 110.729L148.175 110.649ZM138.037 113.811C138.313 113.811 138.614 113.84 138.94 113.908L138.981 113.918L139.017 113.926C139.247 113.981 139.482 114.051 139.721 114.132L139.84 114.174C140.238 114.323 140.664 114.488 141.115 114.674C141.784 114.954 142.408 115.232 142.865 115.429L143.247 115.606C142.786 115.82 142.362 116.001 142.043 116.132C139.925 116.97 138.221 117.212 137.16 116.92C135.187 116.378 135.573 113.826 138.037 113.813V113.811Z" fill="#687DE6"/>
<path d="M233.683 83.9634L249.729 102.893V89.0167L276.086 117.091H269.268L255.051 102.572L254.884 117.091L239.004 98.1608V117.091H233.683V83.9634Z" fill="#687DE6"/>
<path d="M22.0555 172.641V173.651H22.0805C22.2908 173.241 22.6494 172.92 23.0885 172.748C23.5479 172.56 24.0519 172.466 24.6004 172.466C25.2102 172.466 25.7448 172.571 26.1987 172.783C26.6526 172.995 27.0285 173.28 27.3292 173.64C27.635 174.01 27.8655 174.433 28.0086 174.886C28.1617 175.356 28.2369 175.856 28.2369 176.385C28.2369 176.914 28.1617 177.414 28.0141 177.884C27.8768 178.334 27.6488 178.753 27.3431 179.117C27.0368 179.473 26.65 179.756 26.2126 179.944C25.7145 180.155 25.1748 180.259 24.6311 180.248C24.167 180.242 23.7074 180.159 23.2723 180.004C23.0344 179.916 22.8105 179.796 22.6068 179.649C22.3954 179.499 22.2166 179.31 22.0805 179.093H22.0555V182.94H20.744V172.638H22.0555V172.641ZM26.7082 175.289C26.6179 174.97 26.4679 174.67 26.2655 174.403C26.0646 174.142 25.8034 173.929 25.5026 173.782C25.1631 173.622 24.7888 173.543 24.4111 173.551C23.9739 173.551 23.6036 173.632 23.2973 173.796C23.0004 173.951 22.7449 174.171 22.5511 174.438C22.3541 174.71 22.2115 175.015 22.1306 175.338C21.9539 176.021 21.9568 176.737 22.139 177.419C22.2224 177.744 22.3699 178.049 22.5734 178.319C22.7756 178.583 23.0388 178.797 23.3419 178.945C23.6565 179.104 24.038 179.182 24.4863 179.182C24.9346 179.182 25.3077 179.101 25.6056 178.937C25.8975 178.781 26.1458 178.559 26.3296 178.29C26.5133 178.021 26.6442 177.715 26.725 177.368C26.8057 177.022 26.8475 176.667 26.8475 176.302C26.8511 175.96 26.8042 175.619 26.7082 175.289ZM34.9251 179.617C34.332 180.038 33.5886 180.251 32.6892 180.251C32.1262 180.263 31.5664 180.165 31.0436 179.963C30.5952 179.781 30.1946 179.505 29.8714 179.155C29.5467 178.794 29.3039 178.373 29.1585 177.916C28.9949 177.407 28.905 176.878 28.8912 176.345C28.8912 175.778 28.9831 175.26 29.1669 174.79C29.3507 174.32 29.6096 173.911 29.941 173.565C30.2717 173.219 30.6739 172.945 31.1216 172.759C31.5754 172.565 32.0738 172.471 32.6168 172.471C33.3213 172.471 33.906 172.608 34.371 172.882C34.836 173.156 35.2091 173.506 35.4903 173.93C35.7716 174.354 35.9665 174.816 36.0723 175.316C36.1809 175.816 36.2226 176.294 36.2032 176.745H30.2807C30.2695 177.07 30.3113 177.382 30.4032 177.672C30.4916 177.958 30.6426 178.223 30.8459 178.448C31.0607 178.682 31.3271 178.867 31.6256 178.988C31.9402 179.122 32.3133 179.19 32.7421 179.19C33.221 179.209 33.6942 179.083 34.0953 178.83C34.4626 178.562 34.7112 178.171 34.7914 177.734H36.0779C35.8997 178.566 35.5182 179.195 34.9251 179.617ZM34.6077 174.835C34.4336 174.448 34.1439 174.119 33.7755 173.891C33.4071 173.663 32.9766 173.545 32.5388 173.554C32.2277 173.55 31.9189 173.606 31.6311 173.721C31.3701 173.824 31.1341 173.979 30.9378 174.174C30.744 174.368 30.5892 174.595 30.4811 174.843C30.3684 175.101 30.3016 175.375 30.2835 175.655H34.8165C34.7955 175.372 34.7249 175.095 34.6077 174.835ZM38.3026 172.641V173.823H38.3277C38.8706 172.917 39.731 172.466 40.9116 172.466C41.4351 172.466 41.8695 172.533 42.2175 172.668C42.5656 172.802 42.8468 172.99 43.064 173.232C43.2784 173.473 43.4315 173.758 43.5178 174.091C43.6042 174.424 43.6487 174.792 43.6487 175.195V180.103H42.3372V175.056C42.3477 174.854 42.315 174.653 42.2412 174.464C42.1674 174.276 42.0541 174.104 41.9084 173.96C41.7492 173.82 41.5628 173.713 41.3601 173.644C41.1574 173.574 40.9425 173.545 40.7279 173.557C40.3741 173.549 40.0223 173.609 39.692 173.731C39.4126 173.838 39.1629 174.007 38.9625 174.223C38.766 174.439 38.6172 174.691 38.5254 174.964C38.4258 175.265 38.3769 175.578 38.3806 175.894V180.106H37.0691V172.646H38.3026V172.641ZM52.7093 180.02C52.1416 180.25 51.5321 180.37 50.9161 180.372C49.9638 180.372 49.109 180.216 48.3488 179.904C47.619 179.613 46.9628 179.173 46.4248 178.615C45.895 178.055 45.4869 177.398 45.2247 176.683C44.9463 175.945 44.807 175.147 44.807 174.293C44.807 173.417 44.9463 172.603 45.2247 171.851C45.5032 171.101 45.9013 170.446 46.422 169.887C46.9427 169.329 47.5831 168.891 48.3433 168.571C49.156 168.244 50.03 168.082 50.9105 168.096C51.5481 168.096 52.1663 168.187 52.7622 168.367C53.3608 168.55 53.8982 168.816 54.3799 169.165C54.8819 169.528 55.2987 169.99 55.6029 170.519C55.9072 171.049 56.092 171.634 56.1452 172.238H53.5362C53.3747 171.582 53.0601 171.091 52.5951 170.76C52.1027 170.425 51.5105 170.252 50.9077 170.269C50.2924 170.269 49.7717 170.382 49.3401 170.605C48.9085 170.827 48.5632 171.131 48.2959 171.51C48.0221 171.902 47.8249 172.339 47.714 172.799C47.4728 173.763 47.4728 174.769 47.714 175.732C47.8365 176.197 48.0314 176.616 48.2987 176.99C48.566 177.363 48.9141 177.661 49.3429 177.884C49.7717 178.11 50.2952 178.22 50.9105 178.22C51.8154 178.22 52.5171 178.005 53.01 177.573C53.5028 177.143 53.7924 176.517 53.8731 175.698H51.1249V173.772H56.3374V180.106H54.6027L54.3242 178.776C53.9078 179.319 53.351 179.748 52.7093 180.02ZM60.7702 168.391V177.927H66.8263V180.1H58.0442V168.391H60.7702ZM10.5836 179.619C10.7312 179.7 10.8816 179.778 11.0403 179.848C11.7837 180.181 12.6497 180.347 13.6381 180.347C14.6266 180.347 15.4926 180.181 16.236 179.848C16.9795 179.515 17.6032 179.063 18.1016 178.497C18.6 177.93 18.9759 177.277 19.2265 176.541C19.4771 175.805 19.6024 175.037 19.6024 174.242C19.6024 173.444 19.4771 172.678 19.2265 171.942C18.9882 171.226 18.6059 170.561 18.1016 169.987C17.5884 169.409 16.9521 168.946 16.236 168.627C15.4197 168.275 14.5324 168.101 13.6381 168.12C12.6497 168.12 11.7837 168.289 11.0403 168.627L10.9567 168.668C14.9245 165.447 22.1891 163.293 30.4951 163.293C37.4896 163.293 43.7629 164.679 47.934 167.086C43.3814 163.054 35.2202 160.222 25.8868 160.22C11.5888 160.217 0 166.519 0 174.298C0 182.075 11.586 188.382 25.8785 188.384C35.1729 188.387 43.3146 185.561 47.8783 181.559C43.7072 183.95 37.4617 185.311 30.4923 185.311C21.9218 185.309 14.4568 183.012 10.5836 179.619ZM11.6835 169.847C12.2292 169.568 12.8808 169.428 13.6381 169.428C14.3955 169.428 15.0471 169.568 15.5928 169.847C16.1386 170.126 16.5868 170.494 16.9377 170.954C17.2857 171.413 17.5419 171.929 17.7062 172.504C18.0349 173.646 18.0349 174.853 17.7062 175.996C17.5419 176.571 17.2885 177.086 16.9377 177.543C16.5837 178.007 16.1234 178.386 15.5928 178.65C15.0443 178.929 14.3955 179.066 13.6381 179.066C12.9611 179.083 12.29 178.94 11.6835 178.65C11.1534 178.385 10.6933 178.006 10.3386 177.543C9.98701 177.077 9.72658 176.552 9.57008 175.996C9.24135 174.853 9.24135 173.646 9.57008 172.504C9.72478 171.946 9.98534 171.42 10.3386 170.954C10.6866 170.494 11.1349 170.126 11.6835 169.847Z" fill="#687DE6"/>
<path d="M133.158 166.452H137.119V182.842H133.158V181.127C131.412 183.076 129.294 183.341 128.065 183.341C122.828 183.341 119.837 179.131 119.837 174.624C119.837 169.275 123.636 166 128.114 166C129.359 166 131.557 166.312 133.158 168.339V166.452ZM123.911 174.733C123.911 177.571 125.754 179.957 128.631 179.957C131.121 179.957 133.448 178.195 133.448 174.78C133.448 171.193 131.153 169.478 128.631 169.478C125.754 169.462 123.911 171.801 123.911 174.733ZM141.838 166.452H145.799V167.919C146.252 167.42 146.898 166.858 147.448 166.547C148.224 166.11 148.968 166.001 149.873 166.001C150.843 166.001 151.893 166.141 152.993 166.765L151.376 170.227C150.47 169.681 149.759 169.65 149.355 169.65C148.515 169.65 147.658 169.774 146.882 170.539C145.783 171.678 145.783 173.238 145.783 174.314V182.813H141.822L141.838 166.452ZM155.514 166.452H159.475V167.966C160.8 166.406 162.369 166.017 163.662 166.017C165.44 166.017 167.105 166.827 168.058 168.418C169.48 166.469 171.598 166.017 173.102 166.017C175.172 166.017 176.966 166.953 177.936 168.59C178.259 169.136 178.841 170.353 178.841 172.723V182.86H174.881V173.83C174.881 172.006 174.687 171.256 174.508 170.914C174.266 170.29 173.668 169.463 172.245 169.463C171.275 169.463 170.418 169.962 169.901 170.664C169.206 171.6 169.125 173.003 169.125 174.392V182.844H165.164V173.815C165.164 171.99 164.971 171.241 164.792 170.898C164.55 170.275 163.952 169.448 162.529 169.448C161.558 169.448 160.702 169.947 160.185 170.648C159.49 171.584 159.409 172.987 159.409 174.376V182.829H155.545V166.452H155.514Z" fill="#687DE6"/>
<path d="M153.564 251.717H150.71V242.878C151.624 243.369 152.826 244.272 153.564 245.142V251.717Z" fill="#687DE6"/>
<path d="M129.529 251.718H125.973L121.335 237.847H124.568L127.758 247.57H127.798L131.031 237.847H134.284L129.529 251.718Z" fill="#687DE6"/>
<path d="M143.864 251.718H141.151V250.317H141.092C140.73 250.901 140.262 251.323 139.686 251.582C139.111 251.841 138.52 251.97 137.915 251.97C137.149 251.97 136.524 251.873 136.039 251.679C135.551 251.485 135.168 251.209 134.887 250.856C134.605 250.5 134.407 250.068 134.294 249.551C134.18 249.039 134.124 248.47 134.124 247.851V241.67H136.977V247.341C136.977 248.17 137.111 248.789 137.378 249.197C137.646 249.606 138.123 249.809 138.805 249.809C139.578 249.809 140.14 249.586 140.491 249.139C140.84 248.691 141.014 247.956 141.014 246.936V241.673H143.867V251.736L143.864 251.718Z" fill="#687DE6"/>
<path d="M161.433 251.717H157.99L154.055 245.666V245.258L157.639 241.654H161.012L157.076 245.394L161.433 251.717Z" fill="#687DE6"/>
<path d="M161.995 244.782C162.035 244.134 162.203 243.599 162.498 243.17C162.792 242.742 163.167 242.402 163.622 242.144C164.077 241.885 164.592 241.7 165.161 241.59C165.73 241.48 166.299 241.425 166.876 241.425C167.398 241.425 167.93 241.46 168.464 241.532C169 241.603 169.49 241.742 169.932 241.95C170.374 242.157 170.734 242.445 171.015 242.813C171.296 243.182 171.436 243.67 171.436 244.282V249.511C171.436 249.964 171.463 250.401 171.516 250.816C171.57 251.231 171.664 251.544 171.798 251.748H168.903C168.85 251.593 168.806 251.434 168.772 251.272C168.739 251.11 168.715 250.945 168.702 250.776C168.247 251.23 167.711 251.544 167.093 251.728C166.477 251.909 165.849 252 165.202 252C164.707 252 164.247 251.942 163.818 251.825C163.389 251.709 163.017 251.527 162.694 251.281C162.372 251.035 162.12 250.724 161.942 250.35C161.761 249.974 161.671 249.527 161.671 249.01C161.671 248.441 161.775 247.97 161.982 247.603C162.19 247.234 162.457 246.939 162.783 246.719C163.111 246.499 163.486 246.333 163.907 246.223C164.329 246.113 164.751 246.025 165.179 245.961C165.608 245.897 166.03 245.844 166.444 245.806C166.859 245.767 167.224 245.708 167.547 245.631C167.869 245.553 168.123 245.44 168.313 245.29C168.501 245.141 168.588 244.925 168.575 244.64C168.575 244.342 168.524 244.105 168.424 243.932C168.323 243.76 168.19 243.622 168.022 243.524C167.855 243.427 167.661 243.363 167.44 243.33C167.219 243.297 166.982 243.281 166.73 243.281C166.168 243.281 165.725 243.397 165.402 243.631C165.081 243.864 164.893 244.253 164.84 244.801H161.987L161.995 244.782ZM168.58 246.822C168.459 246.926 168.308 247.006 168.128 247.064C167.947 247.123 167.753 247.172 167.545 247.21C167.338 247.249 167.12 247.282 166.893 247.308C166.666 247.334 166.438 247.366 166.21 247.405C165.996 247.444 165.785 247.496 165.578 247.56C165.37 247.625 165.189 247.712 165.035 247.822C164.881 247.933 164.758 248.072 164.663 248.24C164.57 248.409 164.523 248.622 164.523 248.881C164.523 249.127 164.57 249.335 164.663 249.503C164.758 249.671 164.885 249.804 165.045 249.901C165.206 249.998 165.393 250.066 165.607 250.105C165.822 250.144 166.042 250.163 166.27 250.163C166.832 250.163 167.268 250.072 167.577 249.892C167.885 249.71 168.113 249.493 168.259 249.24C168.406 248.988 168.497 248.732 168.53 248.472C168.564 248.213 168.58 248.005 168.58 247.85V246.817L168.58 246.822Z" fill="#687DE6"/>
<path d="M172.958 241.655H175.67V243.055H175.73C176.091 242.472 176.559 242.049 177.135 241.784C177.711 241.518 178.302 241.385 178.899 241.385C179.665 241.385 180.291 241.486 180.776 241.686C181.264 241.888 181.647 242.166 181.928 242.523C182.209 242.879 182.407 243.312 182.52 243.822C182.634 244.334 182.691 244.903 182.691 245.521V251.702H179.838V246.031C179.838 245.202 179.704 244.583 179.437 244.175C179.168 243.767 178.692 243.563 178.01 243.563C177.237 243.563 176.675 243.787 176.324 244.234C175.975 244.68 175.802 245.417 175.802 246.437V251.699H172.949V241.636L172.958 241.655Z" fill="#687DE6"/>
<path d="M145.692 239.954V251.718H148.545V241.45C147.631 240.908 146.676 240.396 145.692 239.927V239.954Z" fill="#687DE6"/>
<path d="M116.6 240.43C118.252 235.745 128.125 234.025 138.665 236.595C144.99 238.132 150.12 241.117 153.563 244.075C152.031 240.158 144.638 234.555 134.379 232.652C122.854 230.489 111.4 232.39 109.995 237.35C108.976 240.934 113.452 245.102 120.395 248.026C117.289 245.591 115.771 242.851 116.628 240.41L116.6 240.43Z" fill="#687DE6"/>
<path d="M153.564 242.402V237.874H150.71V239.247C151.926 240.301 152.889 241.369 153.564 242.402Z" fill="#687DE6"/>
<path d="M188.066 250.222C188.066 251.058 187.389 251.711 186.506 251.711C185.634 251.711 184.938 251.056 184.938 250.222C184.938 249.406 185.633 248.753 186.506 248.753C187.384 248.753 188.066 249.408 188.066 250.222ZM185.332 250.222C185.332 250.877 185.832 251.398 186.52 251.398C187.186 251.398 187.679 250.878 187.679 250.235C187.679 249.581 187.188 249.052 186.513 249.052C185.837 249.053 185.339 249.582 185.339 250.229L185.332 250.222ZM186.267 250.99H185.915V249.521C186.054 249.494 186.248 249.476 186.499 249.476C186.786 249.476 186.915 249.521 187.027 249.584C187.111 249.646 187.175 249.763 187.175 249.907C187.175 250.068 187.045 250.194 186.86 250.248V250.265C187.009 250.319 187.092 250.426 187.139 250.624C187.185 250.848 187.212 250.938 187.25 250.992H186.87C186.823 250.938 186.796 250.803 186.749 250.633C186.721 250.472 186.629 250.4 186.435 250.4H186.268V250.992L186.267 250.99ZM186.276 250.154H186.443C186.638 250.154 186.795 250.091 186.795 249.938C186.795 249.804 186.693 249.714 186.47 249.714C186.378 249.714 186.313 249.723 186.276 249.731V250.154H186.276Z" fill="#687DE6"/>
<path d="M16.6887 250.985H13.2194L12.1581 248.516H6.3763L5.40938 250.985H1.99731L7.21014 238.513H10.9447L16.6887 250.985ZM9.12491 241.493L7.2293 246.339H11.2103L9.12491 241.493Z" fill="#687DE6"/>
<path d="M29.2902 238.513H32.0957V250.985H28.8727V243.195L25.3848 247.108H24.8921L21.4044 243.195V250.985H18.1814V238.513H20.9869L25.1382 243.139L29.2902 238.513Z" fill="#687DE6"/>
<path d="M40.2629 238.513C44.9829 238.513 47.4089 241.347 47.4089 244.767C47.4089 248.351 45.0586 250.985 39.9025 250.985H34.5566V238.513H40.2629ZM37.7794 248.699H39.8832C43.1248 248.699 44.0917 246.577 44.0917 244.748C44.0917 242.608 42.8973 240.798 39.8453 240.798H37.7793V248.699H37.7794Z" fill="#687DE6"/>
<path d="M53.8204 241.47L49.7566 237.549H64.5507V251.821L60.4869 247.901V241.47H53.8204Z" fill="#687DE6"/>
<path d="M53.816 242.256L49.6321 246.292V251.942H55.4878L59.6714 247.906H53.816V242.256Z" fill="#687DE6"/>
<path d="M233.402 165.306H229.688V168.901H233.402V165.306Z" fill="#687DE6"/>
<path d="M233.31 184.036V171.088H229.794V184.036H233.31ZM256.679 184.164V180.991C256.163 180.991 255.727 180.966 255.41 180.914C255.04 180.863 254.762 180.735 254.577 180.556C254.392 180.377 254.273 180.121 254.207 179.789C254.154 179.469 254.128 179.047 254.128 178.535V174.006H256.679V171.088H254.128V166.035H250.599V178.56C250.599 179.622 250.691 180.518 250.876 181.234C251.061 181.938 251.379 182.514 251.815 182.949C252.251 183.384 252.833 183.691 253.533 183.883C254.247 184.075 255.146 184.164 256.216 184.164H256.679ZM276.876 184.036V165.037H273.347V184.036H276.876ZM247.202 172.355C246.224 171.331 244.849 170.82 243.104 170.82C242.258 170.82 241.492 170.986 240.791 171.319C240.104 171.651 239.509 172.112 239.046 172.7L238.848 172.944V172.726V171.088H235.372V184.036H238.874V177.14V177.614C238.874 177.537 238.874 177.46 238.874 177.383C238.914 176.168 239.218 175.272 239.8 174.696C240.421 174.082 241.174 173.775 242.034 173.775C243.051 173.775 243.831 174.082 244.347 174.671C244.849 175.259 245.113 176.091 245.113 177.153V177.179V184.024H248.669V176.68C248.682 174.837 248.18 173.379 247.202 172.355ZM271.523 177.537C271.523 176.603 271.351 175.733 271.02 174.914C270.677 174.108 270.201 173.391 269.606 172.777C268.998 172.163 268.271 171.69 267.425 171.344C266.579 170.999 265.641 170.832 264.623 170.832C263.658 170.832 262.746 171.012 261.9 171.357C261.054 171.715 260.314 172.189 259.693 172.79C259.071 173.391 258.569 174.108 258.212 174.927C257.842 175.746 257.67 176.628 257.67 177.562C257.67 178.496 257.842 179.379 258.186 180.198C258.529 181.017 259.019 181.733 259.627 182.335C260.235 182.936 260.988 183.422 261.86 183.768C262.733 184.126 263.698 184.305 264.729 184.305C267.716 184.305 269.566 182.987 270.677 181.759L268.139 179.891C267.61 180.505 266.341 181.337 264.755 181.337C263.764 181.337 262.944 181.119 262.323 180.671C261.702 180.236 261.279 179.622 261.054 178.867L261.014 178.752H271.523V177.537ZM261.041 176.347C261.041 175.4 262.164 173.75 264.583 173.737C267.002 173.737 268.139 175.387 268.139 176.334L261.041 176.347Z" fill="#687DE6"/>
<path d="M280.894 182.347C280.828 182.194 280.736 182.066 280.617 181.951C280.498 181.835 280.365 181.746 280.207 181.682C280.048 181.618 279.876 181.58 279.705 181.58C279.519 181.58 279.361 181.618 279.202 181.682C279.044 181.746 278.911 181.835 278.793 181.951C278.674 182.066 278.581 182.194 278.515 182.347C278.449 182.501 278.409 182.667 278.409 182.833C278.409 183.012 278.449 183.166 278.515 183.32C278.581 183.473 278.674 183.601 278.793 183.716C278.911 183.831 279.044 183.921 279.202 183.985C279.361 184.049 279.533 184.087 279.705 184.087C279.89 184.087 280.048 184.049 280.207 183.985C280.365 183.921 280.498 183.831 280.617 183.716C280.736 183.601 280.828 183.473 280.894 183.32C280.96 183.166 281 183 281 182.833C281 182.667 280.96 182.501 280.894 182.347ZM280.683 183.243C280.63 183.371 280.55 183.486 280.458 183.575C280.365 183.665 280.246 183.742 280.114 183.793C279.982 183.844 279.85 183.87 279.691 183.87C279.546 183.87 279.401 183.844 279.268 183.793C279.136 183.742 279.017 183.665 278.925 183.575C278.832 183.486 278.753 183.371 278.7 183.243C278.647 183.115 278.621 182.987 278.621 182.833C278.621 182.693 278.647 182.552 278.7 182.424C278.753 182.296 278.832 182.181 278.925 182.091C279.017 182.002 279.136 181.925 279.268 181.874C279.401 181.823 279.533 181.797 279.691 181.797C279.837 181.797 279.982 181.823 280.114 181.874C280.246 181.925 280.365 182.002 280.458 182.091C280.55 182.181 280.63 182.296 280.683 182.424C280.736 182.552 280.762 182.68 280.762 182.833C280.775 182.987 280.736 183.115 280.683 183.243ZM279.942 182.936C280.048 182.923 280.128 182.885 280.194 182.821C280.26 182.757 280.299 182.667 280.299 182.539C280.299 182.398 280.26 182.296 280.167 182.219C280.088 182.143 279.942 182.104 279.771 182.104H279.189V183.55H279.467V182.961H279.665L280.035 183.55H280.326L279.942 182.936ZM279.797 182.731C279.757 182.731 279.718 182.731 279.665 182.731H279.467V182.322H279.665C279.705 182.322 279.744 182.322 279.797 182.322C279.837 182.322 279.876 182.334 279.916 182.347C279.956 182.36 279.982 182.386 279.995 182.411C280.009 182.437 280.022 182.475 280.022 182.526C280.022 182.578 280.009 182.616 279.995 182.641C279.969 182.667 279.942 182.693 279.916 182.705C279.876 182.718 279.837 182.731 279.797 182.731Z" fill="#687DE6"/>
</svg>
