<svg width="190" height="32" viewBox="0 0 190 32" fill="none" xmlns="http://www.w3.org/2000/svg">
<path d="M69.1784 12.1557H62.2646L64.6889 0H6.18556L0 31.4023H23.3255L24.9118 23.2985H11.134L11.9222 19.2466H25.71L27.1067 12.1557H13.3488L14.137 8.10383H36.0358L31.4565 31.4023H40.9643L45.5237 8.10383H53.505L48.9257 31.4023H58.4934L60.8579 19.2466H67.7717L65.4771 31.4023H75.0148L81.2003 0H71.6327L69.1784 12.1557ZM109.983 4.05192H113.166L113.954 0H110.781L109.983 4.05192ZM118.144 4.05192H121.347L122.135 0H118.962L118.144 4.05192ZM147.905 4.05192H151.087L151.875 0H148.703L147.905 4.05192ZM163.867 10.0386C158.31 10.0386 154.419 14.0298 153.172 20.9889C152.973 22.078 152.873 23.1835 152.873 24.2912C152.873 29.0421 155.696 32 160.256 32C161.561 31.9975 162.853 31.727 164.053 31.2047C165.253 30.6825 166.337 29.9193 167.239 28.9611V28.9611L165.473 26.7629C164.874 27.5238 164.116 28.1396 163.253 28.5654C162.39 28.9912 161.445 29.2163 160.485 29.2244C158.31 29.2244 155.986 27.8974 155.986 24.1595C155.973 23.0858 156.067 22.0134 156.265 20.9585C156.604 18.7202 157.539 16.6184 158.969 14.8807C159.554 14.2367 160.266 13.7239 161.058 13.3751C161.85 13.0262 162.705 12.849 163.568 12.8547C164.398 12.8154 165.223 13.0164 165.945 13.4342C166.668 13.852 167.258 14.4696 167.648 15.2149V15.2149L169.893 13.2802C169.247 12.2551 168.346 11.4213 167.281 10.8628C166.216 10.3044 165.025 10.041 163.827 10.0994L163.867 10.0386ZM184.17 9.58278C183.06 9.53151 181.952 9.72091 180.92 10.1384C179.888 10.5558 178.955 11.1917 178.184 12.0038L180.498 0H177.416L171.23 31.4023H174.303L176.867 18.2336C177.974 12.6724 182.214 12.3887 183.052 12.3887C183.955 12.2953 184.856 12.5692 185.56 13.1504C186.263 13.7316 186.711 14.5726 186.804 15.4884C186.824 15.7041 186.824 15.9211 186.804 16.1368C186.787 16.8172 186.714 17.4949 186.584 18.1627L184 31.4023H187.073L189.767 17.8183C189.905 17.1109 189.978 16.392 189.986 15.6708C190.038 14.9244 189.944 14.175 189.71 13.4655C189.476 12.756 189.107 12.1002 188.623 11.5357C188.139 10.9713 187.551 10.5091 186.891 10.1758C186.232 9.84238 185.514 9.64433 184.778 9.59291C184.563 9.57772 184.346 9.57772 184.13 9.59291L184.17 9.58278ZM142.657 31.301H145.65L149.79 10.0285H146.797L142.657 31.301ZM87.0068 13.0674V13.1687H97.3027L83.7244 28.7787L83.2057 31.4023H97.8315L98.4101 28.3634H87.4358L101.094 12.642L101.613 10.0893H87.5755L87.0068 13.0674ZM137.599 9.82589C136.504 9.79809 135.418 10.0267 134.425 10.494C133.432 10.9613 132.558 11.6547 131.872 12.5204L132.321 10.1298H129.328L125.188 31.4023H128.23L130.775 18.3349C131.423 15.0022 133.937 12.5711 136.761 12.5711C137.329 12.5571 137.893 12.6857 138.401 12.9455C138.909 13.2052 139.346 13.588 139.674 14.0601V14.0601L142.138 11.8012C141.58 11.1419 140.881 10.6204 140.094 10.2764C139.308 9.93235 138.454 9.77483 137.599 9.81577V9.82589ZM119.271 10.0893H122.344L118.214 31.3618H115.221L115.61 29.1535C114.845 29.9935 113.908 30.6536 112.866 31.0876C111.823 31.5215 110.7 31.7188 109.574 31.6657C108.108 31.7317 106.677 31.2045 105.594 30.1998C104.511 29.195 103.865 27.795 103.798 26.3071C103.798 26.0842 103.798 25.8715 103.798 25.6486C103.806 25.0045 103.88 24.363 104.017 23.7341V23.5416L106.691 10.1298H109.684L107.11 23.1972C106.99 23.8458 106.92 24.5028 106.9 25.1624C106.832 26.0731 107.122 26.9743 107.707 27.6677C108.293 28.3611 109.126 28.7899 110.023 28.8598C110.232 28.8801 110.443 28.8801 110.652 28.8598C111.47 28.8598 115.64 28.5761 116.707 23.0858L119.271 10.0893Z" fill="#677CE5"/>
</svg>
