<svg width="91" height="34" viewBox="0 0 91 34" fill="none" xmlns="http://www.w3.org/2000/svg">
<path d="M45.232 23V11.8H53.248V12.888H46.464V16.888H50.912V17.96H46.464V23H45.232ZM56.7673 23.16C56.0099 23.16 55.3166 22.9787 54.6873 22.616C54.0686 22.2427 53.5779 21.7413 53.2153 21.112C52.8526 20.4827 52.6713 19.7787 52.6713 19C52.6713 18.2213 52.8526 17.5173 53.2153 16.888C53.5779 16.2587 54.0686 15.7627 54.6873 15.4C55.3166 15.0267 56.0099 14.84 56.7673 14.84C57.5353 14.84 58.2286 15.0267 58.8473 15.4C59.4659 15.7627 59.9566 16.2587 60.3193 16.888C60.6819 17.5173 60.8633 18.2213 60.8633 19C60.8633 19.7787 60.6819 20.4827 60.3193 21.112C59.9566 21.7413 59.4659 22.2427 58.8473 22.616C58.2286 22.9787 57.5353 23.16 56.7673 23.16ZM56.7673 22.104C57.3113 22.104 57.8019 21.9653 58.2393 21.688C58.6873 21.4107 59.0393 21.0373 59.2953 20.568C59.5619 20.0987 59.6953 19.576 59.6953 19C59.6953 18.4133 59.5619 17.8907 59.2953 17.432C59.0393 16.9627 58.6873 16.5893 58.2393 16.312C57.8019 16.0347 57.3113 15.896 56.7673 15.896C56.2233 15.896 55.7273 16.0347 55.2793 16.312C54.8419 16.5893 54.4899 16.9627 54.2233 17.432C53.9673 17.8907 53.8393 18.4133 53.8393 19C53.8393 19.576 53.9673 20.0987 54.2233 20.568C54.4899 21.0373 54.8419 21.4107 55.2793 21.688C55.7273 21.9653 56.2233 22.104 56.7673 22.104ZM62.508 23V14.984H63.692V16.12C63.9373 15.704 64.2467 15.384 64.62 15.16C65.004 14.9253 65.4413 14.808 65.932 14.808C66.2093 14.808 66.46 14.8453 66.684 14.92V16.008C66.5453 15.9547 66.4067 15.9173 66.268 15.896C66.1293 15.8747 65.9907 15.864 65.852 15.864C65.3613 15.864 64.9293 16.008 64.556 16.296C64.1933 16.5733 63.9053 16.9787 63.692 17.512V23H62.508ZM70.955 23.16C70.347 23.16 69.8083 23.032 69.339 22.776C68.8697 22.5093 68.5017 22.1467 68.235 21.688C67.979 21.2187 67.851 20.6747 67.851 20.056V14.984H69.019V19.816C69.019 20.5307 69.2217 21.096 69.627 21.512C70.0323 21.9173 70.5763 22.12 71.259 22.12C71.739 22.12 72.1657 22.0133 72.539 21.8C72.923 21.576 73.2323 21.2667 73.467 20.872V14.984H74.651V23H73.467V22.072C72.8377 22.7973 72.0003 23.16 70.955 23.16ZM76.6643 23V14.984H77.8483V15.864C78.4563 15.1707 79.2403 14.824 80.2003 14.824C80.7656 14.824 81.2669 14.9573 81.7043 15.224C82.1416 15.48 82.4829 15.832 82.7283 16.28C83.0589 15.7893 83.4536 15.4267 83.9123 15.192C84.3709 14.9467 84.8936 14.824 85.4803 14.824C86.0669 14.824 86.5789 14.9573 87.0163 15.224C87.4536 15.48 87.7949 15.8427 88.0403 16.312C88.2963 16.7707 88.4243 17.3093 88.4243 17.928V23H87.2563V18.168C87.2563 17.4533 87.0696 16.8933 86.6963 16.488C86.3229 16.072 85.8163 15.864 85.1763 15.864C84.7389 15.864 84.3389 15.976 83.9763 16.2C83.6136 16.4133 83.3043 16.7387 83.0483 17.176C83.0696 17.2933 83.0856 17.416 83.0963 17.544C83.1176 17.6613 83.1283 17.7893 83.1283 17.928V23H81.9603V18.168C81.9603 17.4533 81.7736 16.8933 81.4003 16.488C81.0269 16.072 80.5256 15.864 79.8963 15.864C79.4696 15.864 79.0803 15.9653 78.7283 16.168C78.3869 16.36 78.0936 16.648 77.8483 17.032V23H76.6643Z" fill="#677CE5"/>
<path d="M33.9998 14.5562V24.1465C33.9992 24.8397 33.7233 25.5047 33.2329 25.9948C32.7425 26.4851 32.0779 26.761 31.3843 26.7619H30.5127V30.2492V30.2489C30.5125 30.5872 30.3166 30.8949 30.0104 31.0385C29.7042 31.1821 29.3425 31.1354 29.0824 30.9191L24.0942 26.7619H15.692C14.9988 26.761 14.3338 26.4851 13.8437 25.9947C13.3534 25.5046 13.0775 24.8397 13.0766 24.1464V23.2745H21.7949C22.9505 23.2731 24.0585 22.8136 24.8756 21.9964C25.693 21.179 26.1527 20.0713 26.1538 18.9156V11.941H31.3846C32.0781 11.9419 32.7428 12.2177 33.2332 12.7082C33.7235 13.1983 33.9994 13.8632 34 14.5564L33.9998 14.5562ZM21.7948 21.5308H9.99108L5.02061 27.3282C4.7833 27.6049 4.39887 27.7044 4.0568 27.578C3.71499 27.4516 3.48789 27.1259 3.48731 26.7616V21.5308H2.61541C1.92215 21.5299 1.25719 21.2541 0.767136 20.7636C0.276748 20.2735 0.00089671 19.6086 0 18.9154V6.70964C0.000875712 6.01639 0.276718 5.35143 0.767136 4.86137C1.25723 4.37098 1.92217 4.09513 2.61541 4.09424H21.7953C22.4888 4.09511 23.1535 4.37095 23.6439 4.86137C24.1343 5.35147 24.4098 6.01641 24.4107 6.70964V18.9154C24.4098 19.6086 24.1343 20.2736 23.6439 20.7636C23.1535 21.254 22.4888 21.5299 21.7953 21.5308L21.7948 21.5308ZM19.1794 14.5565V14.5562C19.1794 14.325 19.0874 14.1034 18.924 13.9397C18.7605 13.7762 18.5387 13.6846 18.3075 13.6846H6.1025C5.62116 13.6846 5.23059 14.0748 5.23059 14.5562C5.23059 15.0378 5.62116 15.4281 6.1025 15.4281H18.3075C18.5387 15.4281 18.7605 15.3361 18.924 15.1727C19.0874 15.0092 19.1794 14.7874 19.1794 14.5562V14.5565ZM19.1794 10.1976V10.1973C19.1794 9.96608 19.0874 9.74425 18.924 9.58078C18.7605 9.41732 18.5387 9.32537 18.3075 9.32537H6.1025C5.62116 9.32537 5.23059 9.71593 5.23059 10.1973C5.23059 10.6786 5.62116 11.0692 6.1025 11.0692H18.3075C18.5387 11.0692 18.7605 10.9772 18.924 10.8138C19.0874 10.6503 19.1794 10.4285 19.1794 10.1973V10.1976Z" fill="#677CE5"/>
</svg>
