<svg width="91" height="34" viewBox="0 0 91 34" fill="none" xmlns="http://www.w3.org/2000/svg">
<path d="M45.496 24.176C44.6853 24.176 43.928 24.0267 43.224 23.728C42.5307 23.4293 41.9173 23.0187 41.384 22.496C40.8613 21.9627 40.4507 21.3493 40.152 20.656C39.8533 19.952 39.704 19.2 39.704 18.4C39.704 17.6 39.848 16.8533 40.136 16.16C40.4347 15.456 40.8453 14.8427 41.368 14.32C41.9013 13.7867 42.5147 13.3707 43.208 13.072C43.912 12.7733 44.6693 12.624 45.48 12.624C46.344 12.624 47.16 12.784 47.928 13.104C48.696 13.424 49.352 13.8773 49.896 14.464L49.064 15.312C48.6373 14.8213 48.104 14.4427 47.464 14.176C46.8347 13.8987 46.1733 13.76 45.48 13.76C44.84 13.76 44.2427 13.8773 43.688 14.112C43.144 14.3467 42.664 14.6773 42.248 15.104C41.8427 15.52 41.5227 16.0107 41.288 16.576C41.064 17.1307 40.952 17.7387 40.952 18.4C40.952 19.0507 41.064 19.6587 41.288 20.224C41.5227 20.7893 41.8427 21.2853 42.248 21.712C42.664 22.128 43.144 22.4533 43.688 22.688C44.2427 22.9227 44.84 23.04 45.48 23.04C46.2373 23.04 46.92 22.8747 47.528 22.544C48.1467 22.2133 48.6427 21.76 49.016 21.184C49.4 20.608 49.624 19.9573 49.688 19.232H45.672V18.144H50.936V18.64C50.936 19.4187 50.7973 20.144 50.52 20.816C50.2427 21.488 49.8587 22.0747 49.368 22.576C48.8773 23.0773 48.3013 23.472 47.64 23.76C46.9787 24.0373 46.264 24.176 45.496 24.176ZM52.6174 24V15.984H53.8014V24H52.6174ZM53.2094 14.448C52.996 14.448 52.8094 14.368 52.6494 14.208C52.4894 14.048 52.4094 13.8613 52.4094 13.648C52.4094 13.424 52.4894 13.2373 52.6494 13.088C52.8094 12.928 52.996 12.848 53.2094 12.848C53.4334 12.848 53.62 12.928 53.7694 13.088C53.9294 13.2373 54.0094 13.424 54.0094 13.648C54.0094 13.8613 53.9294 14.048 53.7694 14.208C53.62 14.368 53.4334 14.448 53.2094 14.448ZM58.9725 24.16C58.2792 24.16 57.7458 23.9947 57.3725 23.664C56.9992 23.3333 56.8125 22.8533 56.8125 22.224V16.992H55.0845V15.984H56.8125V13.952L57.9805 13.648V15.984H60.3965V16.992H57.9805V21.92C57.9805 22.3467 58.0765 22.656 58.2685 22.848C58.4605 23.0293 58.7752 23.12 59.2125 23.12C59.4365 23.12 59.6338 23.104 59.8045 23.072C59.9858 23.04 60.1778 22.9867 60.3805 22.912V23.952C60.1778 24.0267 59.9485 24.08 59.6925 24.112C59.4472 24.144 59.2072 24.16 58.9725 24.16ZM61.6643 24V12.8L62.8483 12.528V16.928C63.4776 16.192 64.3203 15.824 65.3763 15.824C65.9843 15.824 66.5176 15.9573 66.9763 16.224C67.4456 16.48 67.8083 16.8427 68.0643 17.312C68.3309 17.7707 68.4643 18.3093 68.4643 18.928V24H67.2963V19.168C67.2963 18.4533 67.0936 17.8933 66.6883 17.488C66.2936 17.072 65.7496 16.864 65.0563 16.864C64.5763 16.864 64.1496 16.9707 63.7763 17.184C63.4029 17.3973 63.0936 17.7013 62.8483 18.096V24H61.6643ZM73.4394 24.16C72.8314 24.16 72.2927 24.032 71.8234 23.776C71.354 23.5093 70.986 23.1467 70.7194 22.688C70.4634 22.2187 70.3354 21.6747 70.3354 21.056V15.984H71.5034V20.816C71.5034 21.5307 71.706 22.096 72.1114 22.512C72.5167 22.9173 73.0607 23.12 73.7434 23.12C74.2234 23.12 74.65 23.0133 75.0234 22.8C75.4074 22.576 75.7167 22.2667 75.9514 21.872V15.984H77.1354V24H75.9514V23.072C75.322 23.7973 74.4847 24.16 73.4394 24.16ZM79.1486 24V12.8L80.3326 12.528V16.832C81.0153 16.1813 81.874 15.856 82.9086 15.856C83.666 15.856 84.3486 16.0427 84.9566 16.416C85.5646 16.7787 86.0446 17.2693 86.3966 17.888C86.7593 18.5067 86.9406 19.2053 86.9406 19.984C86.9406 20.7627 86.7593 21.4667 86.3966 22.096C86.0446 22.7147 85.5646 23.2107 84.9566 23.584C84.3486 23.9467 83.6606 24.128 82.8926 24.128C82.4233 24.128 81.9646 24.048 81.5166 23.888C81.0793 23.728 80.6793 23.4987 80.3166 23.2V24H79.1486ZM82.7966 23.088C83.362 23.088 83.8686 22.9547 84.3166 22.688C84.7646 22.4107 85.1166 22.0427 85.3726 21.584C85.6393 21.1147 85.7726 20.5867 85.7726 20C85.7726 19.4133 85.6393 18.8853 85.3726 18.416C85.1166 17.9467 84.7646 17.5787 84.3166 17.312C83.8686 17.0347 83.362 16.896 82.7966 16.896C82.2953 16.896 81.826 16.9973 81.3886 17.2C80.962 17.392 80.61 17.664 80.3326 18.016V21.984C80.61 22.3253 80.9673 22.5973 81.4046 22.8C81.842 22.992 82.306 23.088 82.7966 23.088Z" fill="#677CE5"/>
<path fill-rule="evenodd" clip-rule="evenodd" d="M17 0C7.6075 0 0 7.79992 0 17.43C0 25.1428 4.86625 31.6572 11.6237 33.9667C12.4737 34.1192 12.7925 33.5963 12.7925 33.1388C12.7925 32.7248 12.7713 31.3522 12.7713 29.8924C8.5 30.6986 7.395 28.8249 7.055 27.8444C6.86375 27.3433 6.035 25.7964 5.3125 25.3824C4.7175 25.0556 3.8675 24.2495 5.29125 24.2277C6.63 24.2059 7.58625 25.4914 7.905 26.0143C9.435 28.6506 11.8787 27.9098 12.8562 27.4522C13.005 26.3193 13.4512 25.5567 13.94 25.121C10.1575 24.6852 6.205 23.1819 6.205 16.5149C6.205 14.6194 6.86375 13.0507 7.9475 11.8306C7.7775 11.3949 7.1825 9.60828 8.1175 7.21166C8.1175 7.21166 9.54125 6.75412 12.7925 8.99823C14.1525 8.60606 15.5975 8.40997 17.0425 8.40997C18.4875 8.40997 19.9325 8.60606 21.2925 8.99823C24.5437 6.73234 25.9675 7.21166 25.9675 7.21166C26.9025 9.60828 26.3075 11.3949 26.1375 11.8306C27.2212 13.0507 27.88 14.5976 27.88 16.5149C27.88 23.2037 23.9062 24.6852 20.1237 25.121C20.74 25.6657 21.2712 26.7115 21.2712 28.3455C21.2712 30.6768 21.25 32.5505 21.25 33.1388C21.25 33.5963 21.5687 34.141 22.4187 33.9667C25.7935 32.7985 28.726 30.5747 30.8035 27.6082C32.881 24.6417 33.999 21.082 34 17.43C34 7.79992 26.3925 0 17 0Z" fill="#677CE5"/>
</svg>
