<svg width="30" height="47" viewBox="0 0 30 47" fill="none" xmlns="http://www.w3.org/2000/svg">
<path d="M21.4263 9.63227C21.6476 9.35448 21.724 8.8584 21.724 8.8584H8.45996C8.45996 8.8584 8.62363 9.40798 8.76205 9.63227H21.4263Z" fill="#677CE5"/>
<path d="M20.6559 10.7623C20.9022 10.542 21.1537 10.0996 21.1537 10.0996H9.00684C9.00684 10.0996 9.1432 10.431 9.44728 10.7623H20.6559Z" fill="#677CE5"/>
<path d="M19.6972 11.7853C19.9974 11.6207 20.2451 11.2866 20.2451 11.2866H9.86035C9.86035 11.2866 10.1072 11.5644 10.3521 11.7853H19.6972Z" fill="#677CE5"/>
<path d="M18.4851 12.7506C18.7852 12.6375 19.1173 12.3623 19.1173 12.3623H11.0166C11.0166 12.3623 11.0166 12.4219 11.5913 12.7506H18.4851Z" fill="#677CE5"/>
<path d="M12.5244 13.356C12.5244 13.356 13.3778 13.8567 15.0528 13.8567C16.7302 13.8567 17.7983 13.356 17.7983 13.356H12.5244Z" fill="#677CE5"/>
<path d="M12.3874 14.4888C12.3874 14.4888 13.4047 14.5423 14.0052 15.0112C14.5841 15.5107 15.0245 16.3361 15.0245 16.3361C15.0245 16.3361 15.382 15.5404 15.9604 15.1243C16.536 14.6792 17.4724 14.4888 17.4724 14.4888H27.9391L30 17.5524H20.6011C20.6011 17.5524 19.9429 17.5789 18.9537 18.1622C18.4296 18.4611 18.0425 18.987 18.0425 18.987C18.0425 18.987 17.9661 19.2357 17.8529 19.3707C17.7422 19.5116 17.6593 19.624 17.5249 19.6756C17.3853 19.7351 17.4143 19.7021 17.4143 19.7021H12.5236C12.5236 19.7021 12.3262 19.624 12.2233 19.454C12.1128 19.2894 12.1938 19.3462 12.0851 19.2112C12.0022 19.0744 11.8086 18.712 11.0678 18.2159C10.2994 17.7139 9.5566 17.6636 9.5566 17.6636H0L2.08196 14.4888H12.3874V14.4888Z" fill="#677CE5"/>
<path d="M4.99316 18.8209V34.4952C4.99316 34.4952 5.04841 35.8801 6.20408 37.7532C7.35761 39.6304 9.03079 40.4875 9.03079 40.4875L10.3523 38.418C10.3523 38.418 9.20065 37.7255 8.31977 36.4C7.47024 35.0786 7.47024 33.9434 7.47024 33.9434V18.8208H4.99316V18.8209Z" fill="#677CE5"/>
<path d="M22.6887 18.7671V33.8878C22.6887 33.8878 22.4978 35.4077 21.7826 36.4832C21.0676 37.5865 19.8838 38.4715 19.8838 38.4715L21.1546 40.5113C21.1546 40.5113 23.0746 39.1064 24.007 37.6143C24.9433 36.1261 25.1659 33.8879 25.1659 33.8879V18.7671H22.6887Z" fill="#677CE5"/>
<path d="M1.07129 18.8208V34.5526C1.07129 34.5526 1.23329 36.9834 2.74241 39.5213C4.25947 42.057 7.00125 43.8251 7.00125 43.8251L8.29511 41.7575C8.29511 41.7575 6.53509 40.819 5.13654 38.6621C3.70243 36.4834 3.62543 34.4951 3.62543 34.4951V18.8208H1.07129V18.8208Z" fill="#677CE5"/>
<path d="M12.3875 20.4766V37.0907C12.3875 37.0907 12.3263 37.1483 12.3065 37.3924C12.2768 37.6444 12.113 37.811 12.113 37.811L6.5918 47.0002H23.5168L17.9912 37.6147L17.8278 37.1979L17.7726 36.7594V20.5064H15.7116V37.3726C15.7116 37.3726 15.7116 37.6147 15.7946 37.8111C15.846 38.0055 15.9604 38.3052 15.9604 38.3052L19.3648 43.9345H10.7381L14.0883 38.333C14.0883 38.333 14.199 38.1405 14.2819 37.8648C14.3392 37.6147 14.3628 37.3726 14.3628 37.3726V20.4766H12.3875Z" fill="#677CE5"/>
<path d="M26.507 18.7671V34.2232C26.507 34.2232 26.4833 36.2094 25.0255 38.4993C23.569 40.7932 21.8926 41.7574 21.8926 41.7574L23.1305 43.8528C23.1305 43.8528 25.655 42.2514 27.2511 39.7136C28.8182 37.1738 29.0092 34.2232 29.0092 34.2232V18.7671H26.507Z" fill="#677CE5"/>
<path d="M8.37631 8.41584C8.37631 8.41584 7.52694 3.75485 10.9324 1.43261C10.9324 1.43261 12.4712 0 14.9681 0C17.6364 0 19.172 1.4055 19.172 1.4055C22.8817 4.13517 21.7833 8.41592 21.7833 8.41592H8.37631V8.41584Z" fill="#677CE5"/>
</svg>
