<svg width="37" height="43" viewBox="0 0 37 43" fill="none" xmlns="http://www.w3.org/2000/svg">
<path d="M24.634 10.8349C24.634 16.0451 20.4338 20.2689 15.2526 20.2689C10.0713 20.2689 5.87109 16.0451 5.87109 10.8349C5.87109 5.62462 10.0713 1.40088 15.2526 1.40088C20.4338 1.40088 24.634 5.62462 24.634 10.8349ZM9.80721 10.8349C9.80721 13.8591 12.2452 16.3107 15.2526 16.3107C18.26 16.3107 20.6979 13.8591 20.6979 10.8349C20.6979 7.81065 18.26 5.35903 15.2526 5.35903C12.2452 5.35903 9.80721 7.81065 9.80721 10.8349Z" fill="#677CE5"/>
<path d="M36.9997 12.2393C36.9997 16.7617 33.354 20.4278 28.8568 20.4278C24.3596 20.4278 20.7139 16.7617 20.7139 12.2393C20.7139 7.71689 24.3596 4.05078 28.8568 4.05078C33.354 4.05078 36.9997 7.71689 36.9997 12.2393ZM24.6517 12.2393C24.6517 14.5747 26.5344 16.4679 28.8568 16.4679C31.1792 16.4679 33.0619 14.5747 33.0619 12.2393C33.0619 9.90385 31.1792 8.01061 28.8568 8.01061C26.5344 8.01061 24.6517 9.90385 24.6517 12.2393Z" fill="#677CE5"/>
<path d="M6.25764 25.7022L13.4124 29.2903C13.8198 29.4946 14.0771 29.9114 14.0771 30.3673V33.099C14.0771 33.552 13.823 33.9667 13.4195 34.1724L6.26476 37.8199C5.46315 38.2286 4.5127 37.6463 4.5127 36.7465V26.7792C4.5127 25.8829 5.45646 25.3004 6.25764 25.7022Z" stroke="#677CE5" stroke-width="4.40029"/>
<rect x="14.6823" y="23.7716" width="20.3749" height="15.9955" rx="5.15986" stroke="#677CE5" stroke-width="3.61452"/>
</svg>
