<svg width="21" height="21" viewBox="0 0 21 21" fill="none" xmlns="http://www.w3.org/2000/svg">
<path d="M6.80859 6.80876C4.9355 6.80876 3.47526 8.26899 3.47526 10.1421C3.47526 12.0152 4.9355 13.4754 6.80859 13.4754H8.47526C8.9355 13.4754 9.30859 13.8485 9.30859 14.3088C9.30859 14.769 8.9355 15.1421 8.47526 15.1421H6.80859C4.01502 15.1421 1.80859 12.9357 1.80859 10.1421C1.80859 7.34852 4.01502 5.14209 6.80859 5.14209H8.47526C8.9355 5.14209 9.30859 5.51519 9.30859 5.97542C9.30859 6.43566 8.9355 6.80876 8.47526 6.80876H6.80859ZM10.9753 5.97542C10.9753 5.51519 11.3484 5.14209 11.8086 5.14209H13.4753C16.2688 5.14209 18.4753 7.34852 18.4753 10.1421C18.4753 12.9357 16.2688 15.1421 13.4753 15.1421H11.8086C11.3484 15.1421 10.9753 14.769 10.9753 14.3088C10.9753 13.8485 11.3484 13.4754 11.8086 13.4754H13.4753C15.3484 13.4754 16.8086 12.0152 16.8086 10.1421C16.8086 8.26899 15.3484 6.80876 13.4753 6.80876H11.8086C11.3484 6.80876 10.9753 6.43566 10.9753 5.97542ZM5.97526 10.1421C5.97526 9.68185 6.34836 9.30876 6.80859 9.30876H13.4753C13.9355 9.30876 14.3086 9.68185 14.3086 10.1421C14.3086 10.6023 13.9355 10.9754 13.4753 10.9754H6.80859C6.34836 10.9754 5.97526 10.6023 5.97526 10.1421Z" fill="#677DE5"/>
</svg>
