<svg width="1023" height="1074" viewBox="0 0 1023 1074" fill="none" xmlns="http://www.w3.org/2000/svg">
<g opacity="0.2">
<path d="M520.379 545.757C544.826 521.242 560.504 497.236 555.398 492.137C550.292 487.039 526.334 502.779 501.887 527.294C477.44 551.809 461.762 575.816 466.868 580.914C471.974 586.013 495.932 570.272 520.379 545.757Z" stroke="#687DE6" stroke-width="0.6" stroke-linecap="round" stroke-linejoin="round"/>
<path d="M520.906 545.897C546.779 518.908 563.393 492.844 558.014 487.681C552.634 482.517 527.299 500.21 501.426 527.198C475.553 554.186 458.939 580.25 464.318 585.414C469.697 590.577 495.032 572.885 520.906 545.897Z" stroke="#687DE6" stroke-width="0.6" stroke-linecap="round" stroke-linejoin="round"/>
<path d="M521.554 545.899C548.947 516.212 566.571 487.911 560.917 482.688C555.264 477.464 528.474 497.296 501.081 526.984C473.688 556.671 456.064 584.972 461.717 590.196C467.371 595.419 494.161 575.587 521.554 545.899Z" stroke="#687DE6" stroke-width="0.6" stroke-linecap="round" stroke-linejoin="round"/>
<path d="M521.766 546.249C550.682 513.728 569.318 483.086 563.39 477.808C557.462 472.53 529.216 494.615 500.3 527.136C471.384 559.657 452.748 590.3 458.676 595.577C464.604 600.855 492.85 578.77 521.766 546.249Z" stroke="#687DE6" stroke-width="0.6" stroke-linecap="round" stroke-linejoin="round"/>
<path d="M522.475 546.238C552.918 510.736 572.566 477.638 566.362 472.31C560.157 466.983 530.45 491.444 500.007 526.946C469.565 562.448 449.916 595.547 456.121 600.874C462.325 606.202 492.033 581.74 522.475 546.238Z" stroke="#687DE6" stroke-width="0.6" stroke-linecap="round" stroke-linejoin="round"/>
<path d="M522.858 546.23C554.897 507.515 575.614 471.776 569.133 466.405C562.651 461.033 531.425 488.063 499.386 526.778C467.348 565.493 446.63 601.232 453.111 606.604C459.593 611.975 490.82 584.945 522.858 546.23Z" stroke="#687DE6" stroke-width="0.6" stroke-linecap="round" stroke-linejoin="round"/>
<path d="M523.393 546.64C557.018 504.571 578.722 466.02 571.869 460.534C565.016 455.049 532.201 484.706 498.576 526.776C464.95 568.845 443.246 607.396 450.1 612.882C456.953 618.367 489.767 588.71 523.393 546.64Z" stroke="#687DE6" stroke-width="0.6" stroke-linecap="round" stroke-linejoin="round"/>
<path d="M524.062 546.779C559.334 501.109 582.067 459.554 574.838 453.963C567.609 448.372 533.156 480.862 497.884 526.531C462.613 572.201 439.88 613.756 447.109 619.347C454.338 624.938 488.791 592.448 524.062 546.779Z" stroke="#687DE6" stroke-width="0.6" stroke-linecap="round" stroke-linejoin="round"/>
<path d="M524.857 546.804C561.68 497.479 585.363 452.881 577.755 447.193C570.146 441.504 534.127 476.879 497.304 526.205C460.481 575.53 436.797 620.128 444.406 625.817C452.014 631.505 488.033 596.13 524.857 546.804Z" stroke="#687DE6" stroke-width="0.6" stroke-linecap="round" stroke-linejoin="round"/>
<path d="M525.697 547.229C564.123 494.007 588.796 446.179 580.805 440.401C572.815 434.623 535.187 473.084 496.761 526.305C458.336 579.527 433.663 627.355 441.654 633.133C449.644 638.911 487.272 600.45 525.697 547.229Z" stroke="#687DE6" stroke-width="0.6" stroke-linecap="round" stroke-linejoin="round"/>
<path d="M526.673 547.163C566.731 489.786 592.334 438.469 583.858 432.542C575.383 426.616 536.038 468.324 495.98 525.701C455.922 583.077 430.319 634.395 438.794 640.321C447.27 646.248 486.614 604.539 526.673 547.163Z" stroke="#687DE6" stroke-width="0.6" stroke-linecap="round" stroke-linejoin="round"/>
<path d="M527.358 547.683C568.942 486.109 595.385 431.279 586.421 425.215C577.456 419.152 536.48 464.152 494.897 525.726C453.313 587.299 426.87 642.13 435.834 648.194C444.798 654.257 485.775 609.257 527.358 547.683Z" stroke="#687DE6" stroke-width="0.6" stroke-linecap="round" stroke-linejoin="round"/>
<path d="M528.044 547.851C571.169 481.821 598.462 423.277 589.004 417.089C579.545 410.902 536.917 459.414 493.792 525.445C450.666 591.475 423.373 650.019 432.832 656.207C442.29 662.394 484.918 613.882 528.044 547.851Z" stroke="#687DE6" stroke-width="0.6" stroke-linecap="round" stroke-linejoin="round"/>
<path d="M529.13 547.894C573.75 477.243 601.849 414.862 591.89 408.563C581.931 402.263 537.687 454.429 493.067 525.08C448.447 595.73 420.348 658.111 430.307 664.411C440.266 670.711 484.51 618.544 529.13 547.894Z" stroke="#687DE6" stroke-width="0.6" stroke-linecap="round" stroke-linejoin="round"/>
<path d="M530.371 548.285C576.49 472.759 605.311 406.294 594.745 399.832C584.179 393.369 538.228 449.356 492.109 524.882C445.991 600.408 417.17 666.873 427.735 673.335C438.301 679.798 484.253 623.811 530.371 548.285Z" stroke="#687DE6" stroke-width="0.6" stroke-linecap="round" stroke-linejoin="round"/>
<path d="M531.559 548.709C579.038 468.252 608.381 397.622 597.098 390.953C585.815 384.283 538.18 444.1 490.702 524.557C443.223 605.014 413.88 675.643 425.163 682.313C436.445 688.982 484.081 629.165 531.559 548.709Z" stroke="#687DE6" stroke-width="0.6" stroke-linecap="round" stroke-linejoin="round"/>
<path d="M533.007 548.87C581.771 463.313 611.567 388.398 599.558 381.541C587.549 374.685 538.283 438.484 489.519 524.04C440.755 609.596 410.959 684.511 422.967 691.368C434.976 698.225 484.242 634.426 533.007 548.87Z" stroke="#687DE6" stroke-width="0.6" stroke-linecap="round" stroke-linejoin="round"/>
<path d="M534.323 549.163C584.285 458.351 614.458 379.04 601.715 372.017C588.973 364.994 538.141 432.918 488.178 523.73C438.216 614.542 408.043 693.853 420.786 700.876C433.528 707.899 484.36 639.975 534.323 549.163Z" stroke="#687DE6" stroke-width="0.6" stroke-linecap="round" stroke-linejoin="round"/>
<path d="M535.753 549.772C586.877 453.442 617.304 369.495 603.715 362.27C590.126 355.045 537.667 427.279 486.543 523.608C435.42 619.937 404.993 703.884 418.582 711.109C432.171 718.334 484.63 646.101 535.753 549.772Z" stroke="#687DE6" stroke-width="0.6" stroke-linecap="round" stroke-linejoin="round"/>
<path d="M537.373 549.989C589.436 448.179 619.931 359.646 605.485 352.245C591.038 344.843 537.121 421.376 485.057 523.186C432.993 624.996 402.498 713.529 416.945 720.93C431.392 728.332 485.309 651.799 537.373 549.989Z" stroke="#687DE6" stroke-width="0.6" stroke-linecap="round" stroke-linejoin="round"/>
<path d="M539.189 550.347C592.126 442.789 622.452 349.388 606.923 341.731C591.395 334.074 535.892 415.06 482.955 522.618C430.018 630.177 399.692 723.578 415.221 731.235C430.749 738.892 486.252 657.906 539.189 550.347Z" stroke="#687DE6" stroke-width="0.6" stroke-linecap="round" stroke-linejoin="round"/>
<path d="M541.079 550.761C594.717 437.397 624.813 339.15 608.299 331.321C591.785 323.493 534.915 409.046 481.276 522.411C427.637 635.775 397.542 734.022 414.056 741.851C430.57 749.679 487.44 664.126 541.079 550.761Z" stroke="#687DE6" stroke-width="0.6" stroke-linecap="round" stroke-linejoin="round"/>
<path d="M543.097 551.02C597.233 431.791 626.748 328.598 609.019 320.532C591.29 312.466 533.031 402.582 478.895 521.811C424.758 641.04 395.244 744.233 412.973 752.299C430.702 760.365 488.96 670.249 543.097 551.02Z" stroke="#687DE6" stroke-width="0.6" stroke-linecap="round" stroke-linejoin="round"/>
<path d="M545.761 551.693C600.264 426.437 628.99 318.158 609.924 309.845C590.857 301.531 531.217 396.332 476.715 521.588C422.212 646.844 393.486 755.124 412.553 763.437C431.619 771.75 491.259 676.949 545.761 551.693Z" stroke="#687DE6" stroke-width="0.6" stroke-linecap="round" stroke-linejoin="round"/>
<path d="M548.028 552.085C602.619 420.861 630.322 307.583 609.903 299.071C589.485 290.559 528.678 390.036 474.086 521.26C419.495 652.485 391.793 765.763 412.211 774.275C432.629 782.787 493.436 683.309 548.028 552.085Z" stroke="#687DE6" stroke-width="0.6" stroke-linecap="round" stroke-linejoin="round"/>
<path d="M551.061 552.288C605.56 414.917 631.897 296.463 609.888 287.713C587.878 278.962 525.856 383.229 471.357 520.599C416.859 657.97 390.521 776.424 412.53 785.175C434.54 793.925 496.562 689.658 551.061 552.288Z" stroke="#687DE6" stroke-width="0.6" stroke-linecap="round" stroke-linejoin="round"/>
<path d="M554.037 552.75C608.174 409.307 632.825 285.749 609.098 276.774C585.371 267.8 522.25 376.807 468.113 520.25C413.977 663.692 389.325 787.251 413.053 796.226C436.78 805.2 499.901 696.193 554.037 552.75Z" stroke="#687DE6" stroke-width="0.6" stroke-linecap="round" stroke-linejoin="round"/>
<path d="M557.642 553.379C611.167 403.821 633.733 275.11 608.045 265.896C582.358 256.682 518.143 370.453 464.618 520.011C411.093 669.57 388.526 798.281 414.214 807.495C439.902 816.709 504.117 702.938 557.642 553.379Z" stroke="#687DE6" stroke-width="0.6" stroke-linecap="round" stroke-linejoin="round"/>
<path d="M561.146 553.572C613.704 398.073 633.882 264.417 606.213 255.043C578.544 245.669 513.506 364.126 460.948 519.625C408.389 675.124 388.211 808.78 415.88 818.154C443.549 827.528 508.587 709.071 561.146 553.572Z" stroke="#687DE6" stroke-width="0.6" stroke-linecap="round" stroke-linejoin="round"/>
<path d="M565.272 553.916C616.59 392.445 633.864 253.796 603.853 244.234C573.843 234.673 507.912 357.821 456.594 519.292C405.276 680.763 388.002 819.412 418.013 828.974C448.023 838.535 513.953 715.387 565.272 553.916Z" stroke="#687DE6" stroke-width="0.6" stroke-linecap="round" stroke-linejoin="round"/>
<path d="M570.091 554.025C619.846 386.651 633.749 243.09 601.143 233.373C568.537 223.655 501.771 351.462 452.016 518.836C402.261 686.21 388.358 829.771 420.964 839.489C453.57 849.206 520.336 721.399 570.091 554.025Z" stroke="#687DE6" stroke-width="0.6" stroke-linecap="round" stroke-linejoin="round"/>
<path d="M575.155 554.116C623.009 380.934 633.156 232.605 597.819 222.815C562.482 213.025 495.042 345.48 447.188 518.662C399.333 691.844 389.187 840.173 424.524 849.963C459.861 859.753 527.301 727.298 575.155 554.116Z" stroke="#687DE6" stroke-width="0.6" stroke-linecap="round" stroke-linejoin="round"/>
<path d="M580.964 554.26C626.499 375.609 632.158 222.795 593.604 212.941C555.051 203.087 486.883 339.924 441.348 518.575C395.813 697.226 390.154 850.04 428.708 859.894C467.261 869.749 535.429 732.911 580.964 554.26Z" stroke="#687DE6" stroke-width="0.6" stroke-linecap="round" stroke-linejoin="round"/>
<path d="M587.118 554.285C629.98 370.277 630.753 213.173 588.843 203.381C546.934 193.59 478.212 334.82 435.349 518.827C392.487 702.834 391.714 859.939 433.624 869.73C475.534 879.522 544.255 738.292 587.118 554.285Z" stroke="#687DE6" stroke-width="0.6" stroke-linecap="round" stroke-linejoin="round"/>
<path d="M593.763 554.076C633.535 364.96 628.686 203.826 582.932 194.173C537.177 184.52 467.845 330.004 428.073 519.12C388.301 708.236 393.15 869.37 438.904 879.022C484.658 888.675 553.991 743.191 593.763 554.076Z" stroke="#687DE6" stroke-width="0.6" stroke-linecap="round" stroke-linejoin="round"/>
<path d="M601.905 553.747C638.208 359.765 627.029 194.886 576.936 185.479C526.842 176.072 456.803 325.699 420.5 519.681C384.196 713.662 395.375 878.542 445.469 887.949C495.562 897.356 565.601 747.728 601.905 553.747Z" stroke="#687DE6" stroke-width="0.6" stroke-linecap="round" stroke-linejoin="round"/>
<path d="M610.484 552.845C642.871 354.383 624.695 186.219 569.887 177.242C515.079 168.264 444.394 321.871 412.007 520.333C379.62 718.796 397.796 886.959 452.604 895.937C507.412 904.915 578.097 751.307 610.484 552.845Z" stroke="#687DE6" stroke-width="0.6" stroke-linecap="round" stroke-linejoin="round"/>
<path d="M620.128 551.631C648.185 348.982 622.185 177.926 562.056 169.565C501.927 161.205 430.437 318.707 402.38 521.356C374.323 724.005 400.322 895.062 460.451 903.422C520.581 911.782 592.07 754.28 620.128 551.631Z" stroke="#687DE6" stroke-width="0.6" stroke-linecap="round" stroke-linejoin="round"/>
<path d="M630.375 550.102C653.669 343.713 619.106 170.339 553.176 162.861C487.245 155.383 414.915 316.632 391.621 523.022C368.327 729.411 402.89 902.785 468.82 910.263C534.75 917.741 607.081 756.491 630.375 550.102Z" stroke="#687DE6" stroke-width="0.6" stroke-linecap="round" stroke-linejoin="round"/>
<path d="M642.465 548.163C660.599 338.482 616.473 163.383 543.905 157.068C471.338 150.754 397.81 315.616 379.676 525.297C361.541 734.979 405.668 910.078 478.235 916.392C550.802 922.707 624.33 757.845 642.465 548.163Z" stroke="#687DE6" stroke-width="0.6" stroke-linecap="round" stroke-linejoin="round"/>
<path d="M655.474 545.198C668.031 332.693 613.526 156.568 533.734 151.814C453.942 147.059 379.078 315.475 366.521 527.981C353.964 740.486 408.468 916.611 488.26 921.365C568.052 926.12 642.916 757.704 655.474 545.198Z" stroke="#687DE6" stroke-width="0.6" stroke-linecap="round" stroke-linejoin="round"/>
<path d="M670.321 541.657C676.938 326.837 611.011 150.462 523.069 147.712C435.126 144.963 358.471 316.881 351.854 531.701C345.237 746.522 411.164 922.897 499.107 925.646C587.049 928.396 663.704 756.478 670.321 541.657Z" stroke="#687DE6" stroke-width="0.6" stroke-linecap="round" stroke-linejoin="round"/>
<path d="M686.739 536.926C687.056 320.311 608.678 144.563 511.676 144.38C414.675 144.197 335.784 319.649 335.467 536.263C335.15 752.877 413.529 928.626 510.53 928.809C607.531 928.992 686.422 753.54 686.739 536.926Z" stroke="#687DE6" stroke-width="0.6" stroke-linecap="round" stroke-linejoin="round"/>
<path d="M704.736 531.099C698.428 313.139 606.534 138.925 499.485 141.982C392.436 145.038 310.77 324.208 317.077 542.169C323.385 760.129 415.279 934.343 522.328 931.287C629.377 928.23 711.044 749.06 704.736 531.099Z" stroke="#687DE6" stroke-width="0.6" stroke-linecap="round" stroke-linejoin="round"/>
<path d="M725.101 523.752C711.911 305.003 605.412 133.416 487.23 140.501C369.048 147.587 283.935 330.662 297.126 549.41C310.316 768.159 416.815 939.746 534.997 932.661C653.179 925.575 738.292 742.5 725.101 523.752Z" stroke="#687DE6" stroke-width="0.6" stroke-linecap="round" stroke-linejoin="round"/>
<path d="M747.277 514.738C726.969 295.809 604.75 128.11 474.293 140.172C343.837 152.234 254.544 339.489 274.852 558.417C295.161 777.346 417.379 945.045 547.836 932.983C678.292 920.921 767.585 733.666 747.277 514.738Z" stroke="#687DE6" stroke-width="0.6" stroke-linecap="round" stroke-linejoin="round"/>
<path d="M772.109 503.784C744.5 285.053 605.243 122.459 461.071 140.62C316.899 158.781 222.407 350.82 250.016 569.551C277.626 788.282 416.882 950.876 561.054 932.715C705.226 914.554 799.719 722.515 772.109 503.784Z" stroke="#687DE6" stroke-width="0.6" stroke-linecap="round" stroke-linejoin="round"/>
<path d="M799.193 490.199C764.149 272.156 606.726 116.105 447.579 141.649C288.431 167.194 187.826 364.661 222.87 582.704C257.914 800.747 415.337 956.798 574.484 931.254C733.631 905.709 834.237 708.242 799.193 490.199Z" stroke="#687DE6" stroke-width="0.6" stroke-linecap="round" stroke-linejoin="round"/>
<path d="M828.9 474.359C786.374 257.542 609.532 109.678 433.913 144.096C258.294 178.513 150.4 382.178 192.926 598.995C235.452 815.811 412.294 963.675 587.913 929.258C763.533 894.841 871.426 691.176 828.9 474.359Z" stroke="#687DE6" stroke-width="0.6" stroke-linecap="round" stroke-linejoin="round"/>
<path d="M861.744 454.987C811.699 239.639 614.145 101.529 420.494 146.51C226.843 191.492 110.428 402.531 160.473 617.88C210.518 833.228 408.073 971.338 601.724 926.357C795.374 881.375 911.79 670.336 861.744 454.987Z" stroke="#687DE6" stroke-width="0.6" stroke-linecap="round" stroke-linejoin="round"/>
<path d="M628.685 919.188C839.856 854.306 958.407 630.391 893.475 419.061C828.544 207.732 604.718 89.0126 393.547 153.895C182.376 218.778 63.8259 442.693 128.757 654.023C193.689 865.352 417.514 984.071 628.685 919.188Z" stroke="#687DE6" stroke-width="0.6" stroke-linecap="round" stroke-linejoin="round"/>
</g>
</svg>
