<svg width="86" height="34" viewBox="0 0 86 34" fill="none" xmlns="http://www.w3.org/2000/svg">
<path d="M46.864 22.16C45.9787 22.16 45.1307 21.984 44.32 21.632C43.5093 21.2693 42.7947 20.752 42.176 20.08L42.992 19.232C43.568 19.8507 44.1813 20.3147 44.832 20.624C45.4933 20.9333 46.1867 21.088 46.912 21.088C47.4987 21.088 48.016 20.9973 48.464 20.816C48.9227 20.624 49.28 20.3627 49.536 20.032C49.792 19.6907 49.92 19.3067 49.92 18.88C49.92 18.304 49.7173 17.8613 49.312 17.552C48.9173 17.2427 48.2613 17.0133 47.344 16.864L45.728 16.608C44.6507 16.4267 43.856 16.1067 43.344 15.648C42.832 15.1893 42.576 14.5653 42.576 13.776C42.576 13.1573 42.7413 12.6133 43.072 12.144C43.4027 11.6747 43.8613 11.312 44.448 11.056C45.0453 10.7893 45.7333 10.656 46.512 10.656C47.3013 10.656 48.0747 10.784 48.832 11.04C49.6 11.296 50.2987 11.664 50.928 12.144L50.224 13.104C48.9973 12.176 47.744 11.712 46.464 11.712C45.9307 11.712 45.4613 11.7973 45.056 11.968C44.6507 12.128 44.336 12.3573 44.112 12.656C43.888 12.944 43.776 13.2853 43.776 13.68C43.776 14.2027 43.952 14.6027 44.304 14.88C44.656 15.1573 45.2373 15.36 46.048 15.488L47.648 15.744C48.8747 15.9467 49.7653 16.2933 50.32 16.784C50.8747 17.264 51.152 17.9413 51.152 18.816C51.152 19.4667 50.9707 20.048 50.608 20.56C50.2453 21.0613 49.7387 21.456 49.088 21.744C48.448 22.0213 47.7067 22.16 46.864 22.16ZM52.6018 22V10.8L53.7858 10.528V22H52.6018ZM58.3329 22.144C57.7462 22.144 57.2289 22.0427 56.7809 21.84C56.3435 21.6373 55.9969 21.3547 55.7409 20.992C55.4955 20.6293 55.3729 20.208 55.3729 19.728C55.3729 18.9707 55.6609 18.3733 56.2369 17.936C56.8129 17.4987 57.5915 17.28 58.5729 17.28C59.4369 17.28 60.2209 17.4613 60.9249 17.824V16.768C60.9249 16.128 60.7435 15.648 60.3809 15.328C60.0182 14.9973 59.4902 14.832 58.7969 14.832C58.4022 14.832 58.0022 14.8907 57.5969 15.008C57.2022 15.1147 56.7649 15.2907 56.2849 15.536L55.8369 14.624C56.4129 14.3467 56.9462 14.144 57.4369 14.016C57.9275 13.888 58.4182 13.824 58.9089 13.824C59.9222 13.824 60.7009 14.064 61.2449 14.544C61.7995 15.024 62.0769 15.712 62.0769 16.608V22H60.9249V21.216C60.5622 21.5253 60.1622 21.76 59.7249 21.92C59.2982 22.0693 58.8342 22.144 58.3329 22.144ZM56.5089 19.696C56.5089 20.144 56.6955 20.512 57.0689 20.8C57.4529 21.0773 57.9435 21.216 58.5409 21.216C59.0209 21.216 59.4582 21.1413 59.8529 20.992C60.2475 20.8427 60.6049 20.608 60.9249 20.288V18.784C60.5942 18.56 60.2422 18.4 59.8689 18.304C59.4955 18.1973 59.0742 18.144 58.6049 18.144C57.9649 18.144 57.4529 18.288 57.0689 18.576C56.6955 18.8533 56.5089 19.2267 56.5089 19.696ZM67.7669 22.144C67.0095 22.144 66.3215 21.9627 65.7029 21.6C65.0842 21.2267 64.5935 20.7253 64.2309 20.096C63.8682 19.4667 63.6869 18.7627 63.6869 17.984C63.6869 17.2053 63.8682 16.5067 64.2309 15.888C64.5935 15.2587 65.0842 14.7573 65.7029 14.384C66.3215 14.0107 67.0095 13.824 67.7669 13.824C68.3535 13.824 68.9189 13.936 69.4629 14.16C70.0069 14.3733 70.4869 14.6827 70.9029 15.088L70.1509 15.952C69.8309 15.6107 69.4629 15.3547 69.0469 15.184C68.6415 15.0027 68.2202 14.912 67.7829 14.912C67.2389 14.912 66.7429 15.0507 66.2949 15.328C65.8575 15.5947 65.5055 15.9627 65.2389 16.432C64.9829 16.8907 64.8549 17.408 64.8549 17.984C64.8549 18.56 64.9829 19.0827 65.2389 19.552C65.5055 20.0213 65.8629 20.3947 66.3109 20.672C66.7589 20.9387 67.2549 21.072 67.7989 21.072C68.2362 21.072 68.6469 20.9867 69.0309 20.816C69.4255 20.6453 69.7935 20.3947 70.1349 20.064L70.8709 20.864C70.4442 21.2693 69.9642 21.584 69.4309 21.808C68.8975 22.032 68.3429 22.144 67.7669 22.144ZM72.258 22V10.8L73.442 10.528V17.6L77.634 13.984H79.074L74.674 17.792L79.282 22H77.666L73.442 18.16V22H72.258Z" fill="#677CE5"/>
<path fill-rule="evenodd" clip-rule="evenodd" d="M12.4656 0C11.5639 0.00020494 10.6992 0.358615 10.0617 0.996383C9.42422 1.63415 9.0662 2.49904 9.06641 3.40077C9.06661 4.30251 9.42502 5.16723 10.0628 5.80471C10.7006 6.44219 11.5654 6.8002 12.4672 6.8H15.8672V3.4C15.8664 2.49852 15.5079 1.63419 14.8704 0.996741C14.233 0.359294 13.3687 0.000818416 12.4672 0H12.4656ZM12.4656 9.06718H3.4C2.49826 9.06718 1.63346 9.4254 0.995837 10.063C0.358213 10.7006 0 11.5654 0 12.4672C0 13.3689 0.358213 14.2337 0.995837 14.8713C1.63346 15.509 2.49826 15.8672 3.4 15.8672H12.4656C13.3674 15.8672 14.2322 15.509 14.8698 14.8713C15.5074 14.2337 15.8656 13.3689 15.8656 12.4672C15.8656 11.5654 15.5074 10.7006 14.8698 10.063C14.2322 9.4254 13.3674 9.06718 12.4656 9.06718ZM34 12.4656C34 11.5639 33.6418 10.6991 33.0042 10.0615C32.3665 9.42385 31.5017 9.06564 30.6 9.06564C29.6983 9.06564 28.8335 9.42385 28.1958 10.0615C27.5582 10.6991 27.2 11.5639 27.2 12.4656V15.8656H30.6C31.5017 15.8656 32.3665 15.5074 33.0042 14.8698C33.6418 14.2322 34 13.3674 34 12.4656ZM24.9328 12.4656V3.4C24.9328 2.49826 24.5746 1.63346 23.937 0.995837C23.2994 0.358213 22.4346 0 21.5328 0C20.6311 0 19.7663 0.358213 19.1287 0.995837C18.491 1.63346 18.1328 2.49826 18.1328 3.4V12.4656C18.1328 13.3674 18.491 14.2322 19.1287 14.8698C19.7663 15.5074 20.6311 15.8656 21.5328 15.8656C22.4346 15.8656 23.2994 15.5074 23.937 14.8698C24.5746 14.2322 24.9328 13.3674 24.9328 12.4656ZM21.5328 34C22.4346 34 23.2994 33.6418 23.937 33.0042C24.5746 32.3665 24.9328 31.5017 24.9328 30.6C24.9328 29.6983 24.5746 28.8335 23.937 28.1958C23.2994 27.5582 22.4346 27.2 21.5328 27.2H18.1328V30.6C18.1332 31.5016 18.4916 32.3662 19.1291 33.0037C19.7666 33.6412 20.6312 33.9996 21.5328 34ZM21.5328 24.9313H30.6C31.5017 24.9313 32.3665 24.5731 33.0042 23.9354C33.6418 23.2978 34 22.433 34 21.5313C34 20.6295 33.6418 19.7647 33.0042 19.1271C32.3665 18.4895 31.5017 18.1313 30.6 18.1313H21.5344C20.6326 18.1311 19.7677 18.4891 19.13 19.1266C18.4922 19.764 18.1338 20.6288 18.1336 21.5305C18.1334 22.4322 18.4914 23.2971 19.1289 23.9349C19.7664 24.5727 20.6311 24.9311 21.5328 24.9313ZM0 21.5328C0 22.4346 0.358213 23.2994 0.995837 23.937C1.63346 24.5746 2.49826 24.9328 3.4 24.9328C4.30174 24.9328 5.16654 24.5746 5.80416 23.937C6.44179 23.2994 6.8 22.4346 6.8 21.5328V18.1328H3.4C2.49826 18.1328 1.63346 18.491 0.995837 19.1287C0.358213 19.7663 0 20.6311 0 21.5328ZM9.06718 21.5328V30.5985C9.06698 31.5002 9.42499 32.3651 10.0625 33.0028C10.7 33.6406 11.5647 33.999 12.4664 33.9992C13.3681 33.9994 14.233 33.6414 14.8708 33.0039C15.5086 32.3665 15.867 31.5017 15.8672 30.6V21.5344C15.8674 20.6326 15.5094 19.7677 14.8719 19.13C14.2344 18.4922 13.3697 18.1338 12.468 18.1336C11.5662 18.1334 10.7013 18.4914 10.0636 19.1289C9.4258 19.7664 9.06739 20.6311 9.06718 21.5328Z" fill="#677CE5"/>
</svg>
