<svg width="629" height="837" viewBox="0 0 629 837" fill="none" xmlns="http://www.w3.org/2000/svg">
<g opacity="0.1">
<path d="M150.275 421.255L156.79 413.207L163.255 404.941L167.38 414.383L171.504 423.825L160.915 422.649L150.275 421.255Z" stroke="#677DE5" stroke-width="0.518194" stroke-linecap="round" stroke-linejoin="round"/>
<path d="M149.542 421.182L156.921 412.72L164.071 404.307L168.12 414.453L172.22 424.818L160.792 423.134L149.542 421.182Z" stroke="#677DE5" stroke-width="0.518194" stroke-linecap="round" stroke-linejoin="round"/>
<path d="M148.573 421.16L156.814 412.285L165.056 403.409L168.852 414.527L172.928 425.815L160.89 423.572L148.573 421.16Z" stroke="#677DE5" stroke-width="0.518194" stroke-linecap="round" stroke-linejoin="round"/>
<path d="M147.845 421.087L156.95 411.797L166.054 402.507L169.877 414.767L173.649 426.808L160.773 424.057L147.845 421.087Z" stroke="#677DE5" stroke-width="0.518194" stroke-linecap="round" stroke-linejoin="round"/>
<path d="M146.825 420.845L157.071 411.311L167.267 401.558L170.837 414.79L174.408 428.021L160.642 424.543L146.825 420.845Z" stroke="#677DE5" stroke-width="0.518194" stroke-linecap="round" stroke-linejoin="round"/>
<path d="M145.811 420.603L157.148 410.606L168.537 400.827L171.855 415.03L175.224 429.452L160.517 425.027L145.811 420.603Z" stroke="#677DE5" stroke-width="0.518194" stroke-linecap="round" stroke-linejoin="round"/>
<path d="M144.79 420.362L157.271 410.12L169.979 399.83L172.866 415.272L176.033 430.884L160.437 425.732L144.79 420.362Z" stroke="#677DE5" stroke-width="0.518194" stroke-linecap="round" stroke-linejoin="round"/>
<path d="M143.551 420.17L157.579 409.368L171.43 398.833L174.167 415.684L176.675 432.584L160.087 426.268L143.551 420.17Z" stroke="#677DE5" stroke-width="0.518194" stroke-linecap="round" stroke-linejoin="round"/>
<path d="M142.48 419.71L157.701 408.882L173.1 397.786L175.229 416.144L177.536 434.235L160.008 426.972L142.48 419.71Z" stroke="#677DE5" stroke-width="0.518194" stroke-linecap="round" stroke-linejoin="round"/>
<path d="M141.184 419.299L158.005 408.129L175.054 396.91L176.525 416.556L178.224 436.153L159.704 427.726L141.184 419.299Z" stroke="#677DE5" stroke-width="0.518194" stroke-linecap="round" stroke-linejoin="round"/>
<path d="M139.85 418.668L158.321 407.374L177.02 396.031L178.06 416.917L178.923 438.069L159.412 428.478L139.85 418.668Z" stroke="#677DE5" stroke-width="0.518194" stroke-linecap="round" stroke-linejoin="round"/>
<path d="M138.266 418.089L158.843 406.574L179.142 394.889L179.448 417.767L179.703 440.425L158.87 429.282L138.266 418.089Z" stroke="#677DE5" stroke-width="0.518194" stroke-linecap="round" stroke-linejoin="round"/>
<path d="M136.638 417.29L159.094 405.602L181.551 393.914L181.021 418.347L180.263 442.829L158.565 430.035L136.638 417.29Z" stroke="#677DE5" stroke-width="0.518194" stroke-linecap="round" stroke-linejoin="round"/>
<path d="M135.017 416.489L159.631 404.798L184.245 393.107L182.651 419.144L180.88 445.449L158.088 431.054L135.017 416.489Z" stroke="#677DE5" stroke-width="0.518194" stroke-linecap="round" stroke-linejoin="round"/>
<path d="M133.389 415.691L160.339 403.73L187.111 392.036L184.326 420.164L181.541 448.291L157.554 431.857L133.389 415.691Z" stroke="#677DE5" stroke-width="0.518194" stroke-linecap="round" stroke-linejoin="round"/>
<path d="M131.653 414.454L160.864 402.927L190.251 391.133L186.047 421.399L182.02 451.398L156.837 432.926L131.653 414.454Z" stroke="#677DE5" stroke-width="0.518194" stroke-linecap="round" stroke-linejoin="round"/>
<path d="M129.7 413.266L161.576 401.857L193.63 390.181L188.006 422.587L182.56 454.725L156.13 433.996L129.7 413.266Z" stroke="#677DE5" stroke-width="0.518194" stroke-linecap="round" stroke-linejoin="round"/>
<path d="M127.701 411.86L162.523 400.739L197.294 389.398L190.023 423.992L182.7 458.367L155.201 435.114L127.701 411.86Z" stroke="#677DE5" stroke-width="0.518194" stroke-linecap="round" stroke-linejoin="round"/>
<path d="M125.636 410.235L163.454 399.62L201.221 388.785L192.023 425.397L182.875 462.228L154.255 436.231L125.636 410.235Z" stroke="#677DE5" stroke-width="0.518194" stroke-linecap="round" stroke-linejoin="round"/>
<path d="M123.351 408.661L164.571 398.235L205.615 388.077L194.363 427.193L183.111 466.309L153.319 437.352L123.351 408.661Z" stroke="#677DE5" stroke-width="0.518194" stroke-linecap="round" stroke-linejoin="round"/>
<path d="M121.189 406.598L165.737 397.066L210.285 387.534L196.523 429.252L182.988 470.922L151.975 438.784L121.189 406.598Z" stroke="#677DE5" stroke-width="0.518194" stroke-linecap="round" stroke-linejoin="round"/>
<path d="M118.747 404.368L167.13 395.851L215.234 387.164L198.96 431.484L182.636 475.586L150.806 439.952L118.747 404.368Z" stroke="#677DE5" stroke-width="0.518194" stroke-linecap="round" stroke-linejoin="round"/>
<path d="M116.258 401.92L168.477 394.418L220.695 386.916L201.454 433.936L182.213 480.956L149.236 441.438L116.258 401.92Z" stroke="#677DE5" stroke-width="0.518194" stroke-linecap="round" stroke-linejoin="round"/>
<path d="M113.724 399.251L170.057 392.934L226.669 386.786L204.004 436.603L181.568 486.372L147.671 442.921L113.724 399.251Z" stroke="#677DE5" stroke-width="0.518194" stroke-linecap="round" stroke-linejoin="round"/>
<path d="M111.074 396.147L171.903 391.621L232.91 386.827L206.592 439.491L180.553 492.324L145.814 444.236L111.074 396.147Z" stroke="#677DE5" stroke-width="0.518194" stroke-linecap="round" stroke-linejoin="round"/>
<path d="M108.379 392.821L173.932 390.036L239.486 387.252L209.338 443.03L179.139 498.589L143.784 445.814L108.379 392.821Z" stroke="#677DE5" stroke-width="0.518194" stroke-linecap="round" stroke-linejoin="round"/>
<path d="M105.637 389.28L176.246 388.626L246.804 387.753L212.089 446.573L177.603 505.344L141.531 447.445L105.637 389.28Z" stroke="#677DE5" stroke-width="0.518194" stroke-linecap="round" stroke-linejoin="round"/>
<path d="M102.78 385.301L178.724 386.947L254.438 388.642L214.98 450.771L175.47 512.682L139.214 448.858L102.78 385.301Z" stroke="#677DE5" stroke-width="0.518194" stroke-linecap="round" stroke-linejoin="round"/>
<path d="M100.061 380.836L181.492 385.438L262.923 390.039L217.933 455.187L172.943 520.335L136.502 450.586L100.061 380.836Z" stroke="#677DE5" stroke-width="0.518194" stroke-linecap="round" stroke-linejoin="round"/>
<path d="M96.9512 375.765L184.2 383.711L271.678 391.607L220.751 460.09L170.052 528.525L133.502 452.145L96.9512 375.765Z" stroke="#677DE5" stroke-width="0.518194" stroke-linecap="round" stroke-linejoin="round"/>
<path d="M94.0369 370.425L187.663 382.053L281.061 393.73L223.917 465.379L166.545 537.077L130.291 453.751L94.0369 370.425Z" stroke="#677DE5" stroke-width="0.518194" stroke-linecap="round" stroke-linejoin="round"/>
<path d="M90.9961 364.651L191.102 380.399L291.259 396.365L226.704 471.206L162.43 546.216L126.827 455.409L90.9961 364.651Z" stroke="#677DE5" stroke-width="0.518194" stroke-linecap="round" stroke-linejoin="round"/>
<path d="M88.0471 358.169L195.065 378.863L301.803 399.386L229.661 477.685L157.748 555.936L122.923 457.162L88.0471 358.169Z" stroke="#677DE5" stroke-width="0.518194" stroke-linecap="round" stroke-linejoin="round"/>
<path d="M85.2136 351.202L199.245 377.277L313.226 403.134L232.76 484.82L152.244 566.288L118.729 458.745L85.2136 351.202Z" stroke="#677DE5" stroke-width="0.518194" stroke-linecap="round" stroke-linejoin="round"/>
<path d="M82.2537 343.58L203.909 375.595L325.337 407.659L235.531 492.491L145.903 577.056L114.104 460.427L82.2537 343.58Z" stroke="#677DE5" stroke-width="0.518194" stroke-linecap="round" stroke-linejoin="round"/>
<path d="M79.6162 335.425L208.821 374.084L338.305 412.913L238.372 500.6L138.719 588.457L109.167 461.941L79.6162 335.425Z" stroke="#677DE5" stroke-width="0.518194" stroke-linecap="round" stroke-linejoin="round"/>
<path d="M76.7895 326.393L214.255 372.692L351.72 418.99L241.203 509.63L130.509 600.537L103.509 463.38L76.7895 326.393Z" stroke="#677DE5" stroke-width="0.518194" stroke-linecap="round" stroke-linejoin="round"/>
<path d="M74.2602 316.611L220.139 371.204L366.07 426.016L243.724 519.416L121.201 613.084L97.6166 464.872L74.2602 316.611Z" stroke="#677DE5" stroke-width="0.518194" stroke-linecap="round" stroke-linejoin="round"/>
<path d="M72.049 306.072L226.597 370.052L381.374 433.983L246.007 530.169L110.64 626.356L91.2301 466.238L72.049 306.072Z" stroke="#677DE5" stroke-width="0.518194" stroke-linecap="round" stroke-linejoin="round"/>
<path d="M69.8491 294.611L233.499 368.804L397.2 443.214L247.973 541.678L98.9738 640.093L84.2717 467.268L69.8491 294.611Z" stroke="#677DE5" stroke-width="0.518194" stroke-linecap="round" stroke-linejoin="round"/>
<path d="M68.1246 282.131L240.954 367.896L414.012 453.611L249.908 554.111L85.805 654.611L76.8506 468.395L68.1246 282.131Z" stroke="#677DE5" stroke-width="0.518194" stroke-linecap="round" stroke-linejoin="round"/>
<path d="M66.6686 268.678L249.161 367.058L431.653 465.439L251.379 567.563L70.8242 669.518L68.8861 469.183L66.6686 268.678Z" stroke="#677DE5" stroke-width="0.518194" stroke-linecap="round" stroke-linejoin="round"/>
<path d="M65.4615 254.255L257.923 366.562L450.157 478.918L252.364 582.037L54.5711 685.157L60.1306 469.681L65.4615 254.255Z" stroke="#677DE5" stroke-width="0.518194" stroke-linecap="round" stroke-linejoin="round"/>
<path d="M64.9546 238.76L267.235 366.402L469.464 493.827L252.858 597.53L36.3034 701.452L50.629 470.106L64.9546 238.76Z" stroke="#677DE5" stroke-width="0.518194" stroke-linecap="round" stroke-linejoin="round"/>
<path d="M65.1135 221.978L277.519 366.268L489.696 510.606L252.981 614.483L15.987 718.189L40.5758 470.193L65.1135 221.978Z" stroke="#677DE5" stroke-width="0.518194" stroke-linecap="round" stroke-linejoin="round"/>
<path d="M65.7093 203.956L288.191 366.738L510.901 529.471L252.172 632.551L-6.379 735.364L29.6907 469.769L65.7093 203.956Z" stroke="#677DE5" stroke-width="0.518194" stroke-linecap="round" stroke-linejoin="round"/>
<path d="M67.2297 184.818L299.916 367.671L532.832 550.475L250.691 651.911L-31.2203 753.298L18.0047 469.058L67.2297 184.818Z" stroke="#677DE5" stroke-width="0.518194" stroke-linecap="round" stroke-linejoin="round"/>
<path d="M69.5942 164.122L312.437 368.892L555.281 573.662L248.332 672.606L-58.6175 771.55L5.48831 467.836L69.5942 164.122Z" stroke="#677DE5" stroke-width="0.518194" stroke-linecap="round" stroke-linejoin="round"/>
<path d="M72.7913 141.871L325.845 370.84L578.847 599.591L245.132 694.856L-88.5822 790.12L-7.921 465.886L72.7913 141.871Z" stroke="#677DE5" stroke-width="0.518194" stroke-linecap="round" stroke-linejoin="round"/>
<path d="M77.3289 118.187L340.087 373.3L603.022 628.145L240.586 718.543L-121.851 808.94L-22.1722 463.43L77.3289 118.187Z" stroke="#677DE5" stroke-width="0.518194" stroke-linecap="round" stroke-linejoin="round"/>
<path d="M82.9376 92.8991L355.452 376.44L627.965 659.98L235.028 744.053L-157.91 828.126L-37.4861 460.513L82.9376 92.8991Z" stroke="#677DE5" stroke-width="0.518194" stroke-linecap="round" stroke-linejoin="round"/>
</g>
</svg>
