<svg width="788" height="737" viewBox="0 0 788 737" fill="none" xmlns="http://www.w3.org/2000/svg">
<g opacity="0.2">
<path d="M309.184 329.355L315.7 321.308L322.165 313.041L330.414 331.925L319.824 330.75L309.184 329.355Z" stroke="#677DE5" stroke-width="0.5" stroke-linecap="round" stroke-linejoin="round"/>
<path d="M308.452 329.283L315.83 320.821L322.981 312.408L327.03 322.554L331.13 332.919L319.702 331.235L308.452 329.283Z" stroke="#677DE5" stroke-width="0.5" stroke-linecap="round" stroke-linejoin="round"/>
<path d="M307.482 329.261L323.965 311.51L327.762 322.628L331.838 333.916L319.8 331.673L307.482 329.261Z" stroke="#677DE5" stroke-width="0.5" stroke-linecap="round" stroke-linejoin="round"/>
<path d="M306.755 329.188L324.963 310.608L328.787 322.867L332.559 334.909L319.682 332.157L306.755 329.188Z" stroke="#677DE5" stroke-width="0.5" stroke-linecap="round" stroke-linejoin="round"/>
<path d="M305.735 328.946L315.981 319.412L326.177 309.659L333.317 336.122L319.551 332.644L305.735 328.946Z" stroke="#677DE5" stroke-width="0.5" stroke-linecap="round" stroke-linejoin="round"/>
<path d="M304.721 328.704L316.058 318.706L327.447 308.928L334.133 337.553L304.721 328.704Z" stroke="#677DE5" stroke-width="0.5" stroke-linecap="round" stroke-linejoin="round"/>
<path d="M303.7 328.463L316.18 318.221L328.889 307.931L331.776 323.373L334.943 338.986L319.347 333.833L303.7 328.463Z" stroke="#677DE5" stroke-width="0.5" stroke-linecap="round" stroke-linejoin="round"/>
<path d="M302.461 328.271L316.489 317.469L330.34 306.934L333.076 323.785L335.585 340.685L318.997 334.369L302.461 328.271Z" stroke="#677DE5" stroke-width="0.5" stroke-linecap="round" stroke-linejoin="round"/>
<path d="M301.389 327.811L316.611 316.983L332.01 305.887L334.139 324.245L336.445 342.336L301.389 327.811Z" stroke="#677DE5" stroke-width="0.5" stroke-linecap="round" stroke-linejoin="round"/>
<path d="M300.094 327.401L316.915 316.23L333.964 305.011L335.434 324.657L337.133 344.254L300.094 327.401Z" stroke="#677DE5" stroke-width="0.5" stroke-linecap="round" stroke-linejoin="round"/>
<path d="M298.759 326.769L317.23 315.475L335.93 304.132L336.97 325.018L337.833 346.17L318.322 336.579L298.759 326.769Z" stroke="#677DE5" stroke-width="0.5" stroke-linecap="round" stroke-linejoin="round"/>
<path d="M297.176 326.19L317.753 314.675L338.051 302.99L338.358 325.868L338.613 348.527L317.78 337.383L297.176 326.19Z" stroke="#677DE5" stroke-width="0.5" stroke-linecap="round" stroke-linejoin="round"/>
<path d="M295.548 325.39L340.46 302.015L339.931 326.448L339.172 350.929L317.474 338.135L295.548 325.39Z" stroke="#677DE5" stroke-width="0.5" stroke-linecap="round" stroke-linejoin="round"/>
<path d="M293.926 324.59L343.155 301.208L341.561 327.245L339.789 353.55L293.926 324.59Z" stroke="#677DE5" stroke-width="0.5" stroke-linecap="round" stroke-linejoin="round"/>
<path d="M292.298 323.792L319.248 311.831L346.021 300.137L340.451 356.392L316.463 339.958L292.298 323.792Z" stroke="#677DE5" stroke-width="0.5" stroke-linecap="round" stroke-linejoin="round"/>
<path d="M290.563 322.555L319.773 311.028L349.161 299.234L344.957 329.5L340.93 359.499L290.563 322.555Z" stroke="#677DE5" stroke-width="0.5" stroke-linecap="round" stroke-linejoin="round"/>
<path d="M288.609 321.367L320.486 309.958L352.539 298.282L346.916 330.687L341.47 362.826L288.609 321.367Z" stroke="#677DE5" stroke-width="0.5" stroke-linecap="round" stroke-linejoin="round"/>
<path d="M286.611 319.961L321.433 308.839L356.204 297.499L348.932 332.093L341.61 366.468L286.611 319.961Z" stroke="#677DE5" stroke-width="0.5" stroke-linecap="round" stroke-linejoin="round"/>
<path d="M284.545 318.336L322.364 307.721L360.131 296.886L350.933 333.498L341.785 370.329L284.545 318.336Z" stroke="#677DE5" stroke-width="0.5" stroke-linecap="round" stroke-linejoin="round"/>
<path d="M282.26 316.762L323.481 306.336L364.525 296.178L342.02 374.41L312.229 345.452L282.26 316.762Z" stroke="#677DE5" stroke-width="0.5" stroke-linecap="round" stroke-linejoin="round"/>
<path d="M280.099 314.699L369.195 295.635L355.432 337.353L341.898 379.023L310.884 346.885L280.099 314.699Z" stroke="#677DE5" stroke-width="0.5" stroke-linecap="round" stroke-linejoin="round"/>
<path d="M277.656 312.469L326.04 303.952L374.143 295.265L357.87 339.585L341.546 383.687L309.715 348.053L277.656 312.469Z" stroke="#677DE5" stroke-width="0.5" stroke-linecap="round" stroke-linejoin="round"/>
<path d="M275.168 310.021L379.605 295.017L341.123 389.057L275.168 310.021Z" stroke="#677DE5" stroke-width="0.5" stroke-linecap="round" stroke-linejoin="round"/>
<path d="M272.634 307.352L328.967 301.034L385.579 294.886L362.914 344.704L340.477 394.473L306.581 351.022L272.634 307.352Z" stroke="#677DE5" stroke-width="0.5" stroke-linecap="round" stroke-linejoin="round"/>
<path d="M269.984 304.248L330.813 299.722L391.819 294.928L365.502 347.592L339.463 400.425L269.984 304.248Z" stroke="#677DE5" stroke-width="0.5" stroke-linecap="round" stroke-linejoin="round"/>
<path d="M267.288 300.922L398.395 295.353L368.247 351.131L338.048 406.69L302.694 353.915L267.288 300.922Z" stroke="#677DE5" stroke-width="0.5" stroke-linecap="round" stroke-linejoin="round"/>
<path d="M264.547 297.38L335.156 296.727L405.713 295.854L370.999 354.674L336.512 413.445L300.441 355.546L264.547 297.38Z" stroke="#677DE5" stroke-width="0.5" stroke-linecap="round" stroke-linejoin="round"/>
<path d="M261.69 293.402L413.348 296.743L373.889 358.872L334.38 420.783L298.123 356.959L261.69 293.402Z" stroke="#677DE5" stroke-width="0.5" stroke-linecap="round" stroke-linejoin="round"/>
<path d="M258.971 288.937L421.833 298.14L331.853 428.436L258.971 288.937Z" stroke="#677DE5" stroke-width="0.5" stroke-linecap="round" stroke-linejoin="round"/>
<path d="M255.861 283.866L430.588 299.708L379.66 368.191L328.961 436.626L255.861 283.866Z" stroke="#677DE5" stroke-width="0.5" stroke-linecap="round" stroke-linejoin="round"/>
<path d="M252.947 278.526L439.971 301.831L382.827 373.48L325.454 445.177L252.947 278.526Z" stroke="#677DE5" stroke-width="0.5" stroke-linecap="round" stroke-linejoin="round"/>
<path d="M249.906 272.752L350.012 288.5L450.169 304.466L385.614 379.307L321.339 454.317L285.737 363.51L249.906 272.752Z" stroke="#677DE5" stroke-width="0.5" stroke-linecap="round" stroke-linejoin="round"/>
<path d="M246.957 266.27L353.975 286.963L460.713 307.487L388.571 385.786L316.658 464.037L246.957 266.27Z" stroke="#677DE5" stroke-width="0.5" stroke-linecap="round" stroke-linejoin="round"/>
<path d="M244.123 259.303L358.155 285.378L472.136 311.235L391.67 392.921L311.153 474.389L244.123 259.303Z" stroke="#677DE5" stroke-width="0.5" stroke-linecap="round" stroke-linejoin="round"/>
<path d="M241.163 251.681L484.247 315.76L304.813 485.157L241.163 251.681Z" stroke="#677DE5" stroke-width="0.5" stroke-linecap="round" stroke-linejoin="round"/>
<path d="M238.526 243.525L497.214 321.014L397.282 408.701L297.628 496.557L238.526 243.525Z" stroke="#677DE5" stroke-width="0.5" stroke-linecap="round" stroke-linejoin="round"/>
<path d="M235.699 234.494L510.63 327.091L289.419 508.638L262.419 371.481L235.699 234.494Z" stroke="#677DE5" stroke-width="0.5" stroke-linecap="round" stroke-linejoin="round"/>
<path d="M233.17 224.712L379.049 279.305L524.979 334.116L280.111 521.185L256.526 372.973L233.17 224.712Z" stroke="#677DE5" stroke-width="0.5" stroke-linecap="round" stroke-linejoin="round"/>
<path d="M230.959 214.173L540.284 342.084L269.549 534.457L250.14 374.339L230.959 214.173Z" stroke="#677DE5" stroke-width="0.5" stroke-linecap="round" stroke-linejoin="round"/>
<path d="M228.759 202.712L556.109 351.315L257.883 548.194L243.181 375.369L228.759 202.712Z" stroke="#677DE5" stroke-width="0.5" stroke-linecap="round" stroke-linejoin="round"/>
<path d="M227.034 190.232L572.922 361.712L244.715 562.711L235.76 376.496L227.034 190.232Z" stroke="#677DE5" stroke-width="0.5" stroke-linecap="round" stroke-linejoin="round"/>
<path d="M225.578 176.779L590.563 373.539L410.288 475.664L229.734 577.619L227.796 377.284L225.578 176.779Z" stroke="#677DE5" stroke-width="0.5" stroke-linecap="round" stroke-linejoin="round"/>
<path d="M224.371 162.356L609.066 387.019L213.481 593.258L219.04 377.782L224.371 162.356Z" stroke="#677DE5" stroke-width="0.5" stroke-linecap="round" stroke-linejoin="round"/>
<path d="M223.864 146.86L628.374 401.927L195.213 609.553L223.864 146.86Z" stroke="#677DE5" stroke-width="0.5" stroke-linecap="round" stroke-linejoin="round"/>
<path d="M224.023 130.079L648.605 418.707L411.891 522.584L174.897 626.29L224.023 130.079Z" stroke="#677DE5" stroke-width="0.5" stroke-linecap="round" stroke-linejoin="round"/>
<path d="M224.619 112.057L669.811 437.572L152.531 643.465L224.619 112.057Z" stroke="#677DE5" stroke-width="0.5" stroke-linecap="round" stroke-linejoin="round"/>
<path d="M226.14 92.9185L691.741 458.576L127.69 661.399L226.14 92.9185Z" stroke="#677DE5" stroke-width="0.5" stroke-linecap="round" stroke-linejoin="round"/>
<path d="M228.504 72.2233L714.191 481.763L100.292 679.651L228.504 72.2233Z" stroke="#677DE5" stroke-width="0.5" stroke-linecap="round" stroke-linejoin="round"/>
<path d="M231.701 49.9718L737.756 507.692L70.3274 698.221L231.701 49.9718Z" stroke="#677DE5" stroke-width="0.5" stroke-linecap="round" stroke-linejoin="round"/>
<path d="M236.239 26.288L761.932 536.246L37.059 717.041L236.239 26.288Z" stroke="#677DE5" stroke-width="0.5" stroke-linecap="round" stroke-linejoin="round"/>
<path d="M241.847 1L786.875 568.081L1 736.227L241.847 1Z" stroke="#677DE5" stroke-width="0.5" stroke-linecap="round" stroke-linejoin="round"/>
</g>
</svg>
