<svg width="79" height="34" viewBox="0 0 79 34" fill="none" xmlns="http://www.w3.org/2000/svg">
<path d="M53.848 10.168L52.84 10.552C53.992 12.712 56.008 14.984 57.768 16.216C57.976 15.928 58.36 15.496 58.632 15.272C56.904 14.232 54.904 12.104 53.848 10.168ZM52.952 9.544C52.152 11.448 50.504 13.8 48.024 15.464C48.296 15.64 48.664 16.072 48.856 16.36C51.48 14.504 53.208 12.008 54.232 9.768L52.952 9.544ZM50.344 15.464V22.024C50.344 23.48 50.824 23.864 52.568 23.864C52.92 23.864 55.512 23.864 55.88 23.864C57.432 23.864 57.784 23.256 57.944 21.016C57.624 20.952 57.128 20.76 56.84 20.552C56.76 22.44 56.616 22.776 55.816 22.776C55.256 22.776 53.08 22.776 52.648 22.776C51.704 22.776 51.544 22.648 51.544 22.024V15.464H50.344ZM55.896 16.184C54.504 17.176 52.216 18.44 50.632 19.128L51.272 20.024C52.904 19.336 55.112 18.2 56.68 17.192L55.896 16.184ZM44.712 10.712C45.672 11.512 46.904 12.664 47.48 13.384L48.296 12.472C47.688 11.768 46.44 10.68 45.464 9.912L44.712 10.712ZM46.024 23.96C46.264 23.624 46.68 23.272 49.32 21.144C49.192 20.92 49 20.472 48.888 20.136L46.104 22.296L45.8 22.824L46.024 23.96ZM43.64 14.6V15.752H46.776V14.6H43.64ZM46.024 23.976C46.024 23.496 47.288 22.424 47.288 22.424V14.6H46.136V21.544C46.136 22.328 45.64 22.872 45.368 23.096C45.56 23.288 45.896 23.72 46.024 23.976ZM65.704 10.808V11.96H73.336V10.808H65.704ZM64.888 15.48V16.632H74.12V15.48H64.888ZM70.696 18.888C71.592 20.6 72.68 22.92 73.176 24.248L74.344 23.752C73.816 22.424 72.68 20.184 71.752 18.488L70.696 18.888ZM65.192 23.64C65.672 23.432 66.408 23.32 72.984 22.552C72.92 22.28 72.84 21.784 72.824 21.448L65.88 22.184L65.16 22.648L65.192 23.64ZM65.192 23.624C65.192 23.368 66.088 22.92 66.088 22.92V22.888C67.32 21.176 68.6 18.728 69.56 16.344L68.232 15.912C67.496 18.184 66.2 20.6 65.784 21.224C65.384 21.864 65.08 22.312 64.76 22.392C64.92 22.728 65.128 23.368 65.192 23.624ZM59.608 13.416V14.552H64.712V13.416H59.608ZM61.608 9.752V20.472H62.856V9.752H61.608ZM59.544 21.048L59.896 22.28C61.352 21.64 63.224 20.808 64.984 19.992L64.728 18.936C62.824 19.736 60.84 20.568 59.544 21.048Z" fill="#677CE5"/>
<path d="M31.0818 9.22788H20.6734V7.91794C20.6734 6.30915 19.3645 5 17.7555 5L2.91748 5.00026C1.30869 5.00026 0 6.30941 0 7.91819V17.7918C0 19.4006 1.30889 20.7093 2.91748 20.7093H4.67426L4.48206 24.155C4.46099 24.5271 4.66655 24.8747 5.00265 25.0366C5.12984 25.0978 5.26603 25.1276 5.4017 25.1276C5.62371 25.1276 5.84366 25.0471 6.01607 24.8924L10.6895 20.7092H13.3272V22.0192C13.3272 23.628 14.6361 24.9371 16.2451 24.9371H23.3125L27.9844 29.1201C28.1569 29.2748 28.3768 29.3552 28.5988 29.3552H28.6063C29.115 29.3552 29.5272 28.943 29.5272 28.4343C29.5272 28.3767 29.522 28.3204 29.5118 28.266L29.3257 24.9372H31.0825C32.6913 24.9372 34 23.628 34 22.0192L33.9997 12.1456C33.9997 10.5368 32.691 9.22769 31.0823 9.22769L31.0818 9.22788ZM10.3361 18.8673C10.1095 18.8673 9.89079 18.9508 9.72197 19.1024L6.44428 22.0365L6.56685 19.8398C6.58124 19.5867 6.49027 19.3395 6.31632 19.1558C6.14236 18.9721 5.90031 18.8678 5.64747 18.8678H2.91707C2.32402 18.8678 1.84143 18.3852 1.84143 17.7921V7.91789C1.84143 7.32484 2.32399 6.8418 2.91707 6.8418H17.7551C18.3481 6.8418 18.8312 7.32461 18.8312 7.91789V9.22784H16.2434C14.6343 9.22784 13.3254 10.537 13.3254 12.1458V18.8672L10.3361 18.8673ZM32.1573 22.0191C32.1573 22.6121 31.6747 23.0952 31.0817 23.0952H28.3513C28.0982 23.0952 27.8561 23.1995 27.6824 23.3832C27.5085 23.5669 27.418 23.8146 27.4319 24.0672L27.5545 26.2639L24.2768 23.3298C24.1079 23.1785 23.8893 23.0947 23.6626 23.0947H16.2433C15.6503 23.0947 15.1672 22.6119 15.1672 22.0186L15.1675 12.1457C15.1675 11.5526 15.6503 11.0696 16.2436 11.0696H31.0816C31.6746 11.0696 32.1572 11.5524 32.1572 12.1457L32.1573 22.0191Z" fill="#677CE5"/>
<circle cx="19.0382" cy="17.1779" r="0.857577" fill="#677CE5"/>
<circle cx="23.8405" cy="17.1779" r="0.857577" fill="#677CE5"/>
<circle cx="28.6432" cy="17.1779" r="0.857577" fill="#677CE5"/>
<circle cx="5.31705" cy="13.4045" r="0.857577" fill="#677CE5"/>
<circle cx="10.1193" cy="13.4045" r="0.857577" fill="#677CE5"/>
</svg>
